<svg xmlns="http://www.w3.org/2000/svg" width="195" height="103" viewBox="0 0 195 103" fill="none">
  <path d="M194.823 90.9785H0V91.044H194.823V90.9785Z" fill="#EBEBEB"/>
  <path d="M30.393 93.4727H20.4414V93.5382H30.393V93.4727Z" fill="#EBEBEB"/>
  <path d="M102.869 92.7627H60.0312V92.8282H102.869V92.7627Z" fill="#EBEBEB"/>
  <path d="M66.2374 94.3269H37.9219V94.3924H66.2374V94.3269Z" fill="#EBEBEB"/>
  <path d="M175.308 95.4663H137.805V95.5318H175.308V95.4663Z" fill="#EBEBEB"/>
  <path d="M134.33 95.4663H131.863V95.5318H134.33V95.4663Z" fill="#EBEBEB"/>
  <path d="M144.514 94.3608H117.367V94.4263H144.514V94.3608Z" fill="#EBEBEB"/>
  <path d="M92.3484 79.2938H17.1116C16.5222 79.2931 15.9573 79.1352 15.5409 78.8547C15.1245 78.5742 14.8906 78.1941 14.8906 77.7978V6.68599C14.8958 6.29196 15.1319 5.91521 15.5477 5.63756C15.9636 5.35991 16.5256 5.2038 17.1116 5.20312H92.3484C92.9384 5.20313 93.5043 5.36073 93.9216 5.64128C94.3388 5.92183 94.5732 6.30233 94.5732 6.69909V77.7978C94.5732 78.1946 94.3388 78.5751 93.9216 78.8556C93.5043 79.1362 92.9384 79.2938 92.3484 79.2938ZM17.1116 5.25552C16.548 5.25622 16.0079 5.40723 15.6098 5.67542C15.2116 5.94361 14.988 6.30706 14.988 6.68599V77.7978C14.988 78.1768 15.2116 78.5402 15.6098 78.8084C16.0079 79.0766 16.548 79.2276 17.1116 79.2283H92.3484C92.9123 79.2276 93.4528 79.0767 93.8516 78.8086C94.2503 78.5404 94.4748 78.177 94.4758 77.7978V6.68599C94.4748 6.30682 94.2503 5.94337 93.8516 5.67526C93.4528 5.40715 92.9123 5.25622 92.3484 5.25552H17.1116Z" fill="#EBEBEB"/>
  <path d="M176.63 79.2938H101.389C100.799 79.2931 100.234 79.1353 99.8169 78.8549C99.3998 78.5745 99.1651 78.1944 99.1641 77.7978V6.68599C99.1702 6.29172 99.4072 5.91497 99.8237 5.6374C100.24 5.35982 100.803 5.20379 101.389 5.20312H176.63C177.215 5.20449 177.776 5.36091 178.191 5.63848C178.606 5.91605 178.842 6.29241 178.847 6.68599V77.7978C178.847 78.1937 178.613 78.5734 178.198 78.8538C177.782 79.1342 177.218 79.2924 176.63 79.2938ZM101.389 5.25552C100.825 5.25622 100.284 5.40715 99.8857 5.67526C99.487 5.94337 99.2625 6.30682 99.2615 6.68599V77.7978C99.2625 78.177 99.487 78.5404 99.8857 78.8086C100.284 79.0767 100.825 79.2276 101.389 79.2283H176.63C177.193 79.2276 177.734 79.0767 178.133 78.8086C178.532 78.5404 178.756 78.177 178.757 77.7978V6.68599C178.756 6.30682 178.532 5.94337 178.133 5.67526C177.734 5.40715 177.193 5.25622 176.63 5.25552H101.389Z" fill="#EBEBEB"/>
  <path d="M49.1981 41.9944L151.367 41.9944V11.2263L49.1981 11.2263V41.9944Z" fill="#E6E6E6"/>
  <path d="M47.0408 41.9944L150.359 41.9944V11.2263L47.0408 11.2263V41.9944Z" fill="#F0F0F0"/>
  <path d="M49.1981 43.0344L151.367 43.0344V41.9917L49.1981 41.9917V43.0344Z" fill="#E6E6E6"/>
  <path d="M43.4549 43.0344L146.773 43.0344V41.9917L43.4549 41.9917V43.0344Z" fill="#F0F0F0"/>
  <path d="M147.348 39.9692V13.2515L50.057 13.2515V39.9692H147.348Z" fill="#FAFAFA"/>
  <path d="M121.066 39.9692L103.388 13.2515H85.293L102.975 39.9692H121.066Z" fill="white"/>
  <path d="M145.953 35.5023C146.009 35.5023 146.064 35.4871 146.104 35.4601C146.144 35.4331 146.167 35.3964 146.167 35.3582V14.5693C146.167 14.5309 146.144 14.4939 146.104 14.4665C146.064 14.4391 146.01 14.4233 145.953 14.4226C145.924 14.4226 145.896 14.4264 145.87 14.4338C145.843 14.4412 145.82 14.4521 145.8 14.4657C145.78 14.4794 145.764 14.4956 145.754 14.5134C145.743 14.5312 145.738 14.5502 145.738 14.5693V35.3582C145.738 35.3772 145.743 35.3961 145.754 35.4138C145.764 35.4314 145.78 35.4474 145.8 35.4609C145.82 35.4743 145.844 35.4849 145.87 35.492C145.896 35.4992 145.924 35.5026 145.953 35.5023Z" fill="#F0F0F0"/>
  <path d="M96.1742 39.9692L78.4921 13.2515H72.2344L89.9126 39.9692H96.1742Z" fill="white"/>
  <path d="M50.4375 39.9665V13.2488H50.0556V39.9665H50.4375Z" fill="#E6E6E6"/>
  <g opacity="0.5">
    <path d="M46.3281 16.0316H148.501L148.778 14.0378H46.6048L46.3281 16.0316Z" fill="#E6E6E6"/>
    <path d="M46.3281 19.3274H148.501L148.778 17.3311H46.6048L46.3281 19.3274Z" fill="#E6E6E6"/>
    <path d="M46.3281 22.6207H148.501L148.778 20.627H46.6048L46.3281 22.6207Z" fill="#E6E6E6"/>
    <path d="M46.3281 25.9165H148.501L148.778 23.9202H46.6048L46.3281 25.9165Z" fill="#E6E6E6"/>
    <path d="M46.3281 29.2097H148.501L148.778 27.2134H46.6048L46.3281 29.2097Z" fill="#E6E6E6"/>
    <path d="M46.3281 32.503H148.501L148.778 30.5093H46.6048L46.3281 32.503Z" fill="#E6E6E6"/>
  </g>
  <path d="M154.01 89.708H164.102V62.7702H154.01V89.708Z" fill="#F0F0F0"/>
  <path d="M114.545 90.9785H162.164V89.7079H114.545V90.9785Z" fill="#F0F0F0"/>
  <path d="M154.013 62.77H112.609V89.7078H154.013V62.77Z" fill="#F5F5F5"/>
  <path d="M150.037 79.637H116.574C116.553 79.637 116.531 79.6341 116.512 79.6286C116.492 79.623 116.474 79.6149 116.46 79.6046C116.445 79.5944 116.433 79.5822 116.425 79.5689C116.417 79.5555 116.414 79.5413 116.414 79.527V72.9484C116.414 72.9341 116.417 72.9198 116.425 72.9065C116.433 72.8932 116.445 72.881 116.46 72.8708C116.474 72.8605 116.492 72.8524 116.512 72.8468C116.531 72.8412 116.553 72.8384 116.574 72.8384H129.541C129.572 72.8384 129.602 72.8442 129.628 72.8551C129.654 72.8661 129.675 72.8818 129.689 72.9004C129.702 72.919 129.707 72.9397 129.704 72.9603C129.701 72.9808 129.689 73.0003 129.67 73.0165C129.602 73.074 129.565 73.145 129.565 73.2183C129.566 73.2642 129.581 73.3096 129.609 73.3516C129.637 73.3937 129.676 73.4317 129.726 73.4633C129.776 73.495 129.834 73.5197 129.898 73.5361C129.962 73.5525 130.03 73.5602 130.098 73.5589H136.516C136.584 73.5602 136.652 73.5525 136.716 73.5361C136.78 73.5197 136.839 73.495 136.888 73.4633C136.938 73.4317 136.978 73.3937 137.006 73.3516C137.033 73.3096 137.048 73.2642 137.05 73.2183C137.049 73.145 137.012 73.074 136.945 73.0165C136.926 73.0003 136.914 72.9808 136.91 72.9603C136.907 72.9397 136.912 72.919 136.926 72.9004C136.939 72.8818 136.96 72.8661 136.986 72.8551C137.012 72.8442 137.042 72.8384 137.073 72.8384H150.037C150.08 72.8384 150.122 72.85 150.152 72.8706C150.183 72.8912 150.2 72.9192 150.2 72.9484V79.527C150.2 79.5562 150.183 79.5841 150.152 79.6048C150.122 79.6254 150.08 79.637 150.037 79.637ZM116.738 79.4169H149.857V73.0584H137.342C137.365 73.1103 137.377 73.1641 137.377 73.2183C137.373 73.3693 137.28 73.5131 137.119 73.6181C136.957 73.7232 136.741 73.781 136.516 73.7789H130.098C129.874 73.781 129.657 73.7232 129.496 73.6181C129.334 73.5131 129.241 73.3693 129.237 73.2183C129.237 73.1641 129.249 73.1103 129.272 73.0584H116.738V79.4169Z" fill="white"/>
  <path d="M150.037 87.4156H116.574C116.553 87.4156 116.531 87.4127 116.512 87.4071C116.492 87.4016 116.474 87.3934 116.46 87.3832C116.445 87.3729 116.433 87.3608 116.425 87.3474C116.417 87.3341 116.414 87.3199 116.414 87.3055V80.727C116.414 80.7126 116.417 80.6984 116.425 80.6851C116.433 80.6717 116.445 80.6596 116.46 80.6493C116.474 80.6391 116.492 80.6309 116.512 80.6254C116.531 80.6198 116.553 80.6169 116.574 80.6169H129.545C129.576 80.6175 129.606 80.6236 129.632 80.6347C129.658 80.6458 129.679 80.6614 129.693 80.6798C129.706 80.699 129.711 80.7202 129.707 80.741C129.702 80.7618 129.69 80.7815 129.67 80.7977C129.601 80.8535 129.563 80.9241 129.565 80.9968C129.566 81.0429 129.581 81.0884 129.609 81.1306C129.637 81.1728 129.676 81.2109 129.726 81.2428C129.775 81.2747 129.834 81.2997 129.898 81.3163C129.962 81.333 130.03 81.3411 130.098 81.34H136.516C136.585 81.3411 136.653 81.333 136.717 81.3163C136.781 81.2997 136.839 81.2747 136.889 81.2428C136.938 81.2109 136.978 81.1728 137.006 81.1306C137.033 81.0884 137.048 81.0429 137.05 80.9968C137.049 80.9244 137.012 80.8541 136.945 80.7977C136.924 80.7818 136.911 80.7621 136.906 80.7411C136.902 80.7202 136.907 80.6988 136.921 80.6798C136.935 80.6614 136.956 80.6458 136.982 80.6347C137.008 80.6236 137.038 80.6175 137.069 80.6169H150.037C150.08 80.6169 150.122 80.6285 150.152 80.6492C150.183 80.6698 150.2 80.6978 150.2 80.727V87.3055C150.2 87.3347 150.183 87.3627 150.152 87.3833C150.122 87.404 150.08 87.4156 150.037 87.4156ZM116.738 87.206H149.857V80.837H137.342C137.365 80.8888 137.377 80.9427 137.377 80.9968C137.376 81.0718 137.352 81.1459 137.308 81.2148C137.264 81.2837 137.2 81.3461 137.12 81.3984C137.04 81.4507 136.946 81.4919 136.842 81.5197C136.738 81.5474 136.627 81.5611 136.516 81.5601H130.098C129.987 81.5611 129.876 81.5474 129.773 81.5197C129.669 81.4919 129.574 81.4507 129.494 81.3984C129.414 81.3461 129.351 81.2837 129.306 81.2148C129.262 81.1459 129.239 81.0718 129.237 80.9968C129.237 80.9427 129.249 80.8888 129.272 80.837H116.738V87.206Z" fill="white"/>
  <path d="M150.037 71.8587H116.574C116.553 71.8587 116.531 71.8558 116.512 71.8503C116.492 71.8447 116.474 71.8366 116.46 71.8263C116.445 71.816 116.433 71.8039 116.425 71.7906C116.417 71.7772 116.414 71.763 116.414 71.7487V65.1701C116.414 65.1558 116.417 65.1415 116.425 65.1282C116.433 65.1149 116.445 65.1027 116.46 65.0924C116.474 65.0822 116.492 65.074 116.512 65.0685C116.531 65.0629 116.553 65.0601 116.574 65.0601H129.541C129.572 65.0606 129.602 65.0668 129.628 65.0778C129.654 65.0889 129.675 65.1045 129.689 65.1229C129.706 65.1407 129.714 65.1611 129.714 65.1819C129.714 65.2027 129.706 65.2231 129.689 65.2408C129.62 65.2966 129.583 65.3673 129.584 65.4399C129.586 65.4859 129.601 65.5313 129.628 65.5733C129.656 65.6154 129.696 65.6533 129.746 65.685C129.795 65.7167 129.854 65.7414 129.918 65.7578C129.981 65.7742 130.05 65.7819 130.118 65.7805H136.535C136.604 65.7819 136.672 65.7742 136.736 65.7578C136.8 65.7414 136.858 65.7167 136.908 65.685C136.957 65.6533 136.997 65.6154 137.025 65.5733C137.053 65.5313 137.068 65.4859 137.069 65.4399C137.071 65.3673 137.033 65.2966 136.964 65.2408C136.948 65.2231 136.939 65.2027 136.939 65.1819C136.939 65.1611 136.948 65.1407 136.964 65.1229C136.978 65.1045 136.999 65.0889 137.025 65.0778C137.051 65.0668 137.081 65.0606 137.112 65.0601H150.076C150.097 65.0601 150.118 65.0629 150.138 65.0684C150.158 65.074 150.176 65.0821 150.191 65.0923C150.207 65.1025 150.219 65.1146 150.227 65.128C150.235 65.1413 150.239 65.1556 150.239 65.1701V71.7487C150.241 71.7658 150.236 71.7829 150.226 71.7986C150.216 71.8143 150.2 71.8281 150.18 71.8388C150.16 71.8496 150.137 71.857 150.112 71.8605C150.087 71.8639 150.061 71.8633 150.037 71.8587ZM116.738 71.6386H149.857V65.2801H137.342C137.365 65.3319 137.377 65.3858 137.377 65.4399C137.373 65.591 137.28 65.7347 137.119 65.8398C136.957 65.9449 136.741 66.0027 136.516 66.0006H130.098C129.874 66.0027 129.657 65.9449 129.496 65.8398C129.334 65.7347 129.241 65.591 129.237 65.4399C129.237 65.3858 129.249 65.3319 129.272 65.2801H116.738V71.6386Z" fill="white"/>
  <path d="M111.264 62.77H154.012V60.5588H111.264V62.77Z" fill="#F0F0F0"/>
  <path d="M165.51 60.5588H154.008V62.77H165.51V60.5588Z" fill="#E6E6E6"/>
  <path d="M19.0133 90.9758H35.1953L35.1953 54.4335H19.0133L19.0133 90.9758Z" fill="#F5F5F5"/>
  <path d="M19.0145 90.9758H21.6836L21.6836 54.4335H19.0145L19.0145 90.9758Z" fill="#F0F0F0"/>
  <path d="M94.1347 55.6414H32.6992V64.7848H94.1347V55.6414Z" fill="#E6E6E6"/>
  <path d="M94.1347 67.5227H32.6992V69.6343H94.1347V67.5227Z" fill="#E6E6E6"/>
  <path d="M90.5468 54.4363H19.0156V57.6116H90.5468V54.4363Z" fill="#F0F0F0"/>
  <path d="M90.5446 90.9758H106.723V54.4335H90.5446V90.9758Z" fill="#F5F5F5"/>
  <path d="M90.5419 90.9758H93.2109V54.4335H90.5419V90.9758Z" fill="#F0F0F0"/>
  <path d="M97.4117 102.81C139.136 102.81 172.96 101.482 172.96 99.8439C172.96 98.206 139.136 96.8782 97.4117 96.8782C55.6875 96.8782 21.8633 98.206 21.8633 99.8439C21.8633 101.482 55.6875 102.81 97.4117 102.81Z" fill="#F5F5F5"/>
  <path d="M72.8658 30.3536C72.1685 30.7993 71.3403 31.1419 70.4344 31.3597C70.3853 30.6922 70.2139 30.0313 69.924 29.3921C69.924 29.3921 70.0019 30.82 69.398 31.6059C68.5396 31.7889 67.6651 31.9359 66.7796 32.0461C66.7249 31.8682 66.652 31.6932 66.5614 31.5221C66.5339 31.7162 66.4751 31.9077 66.386 32.0932C63.4364 32.4548 59.3724 33.0443 55.698 32.6172C53.4576 30.6785 55.8032 29.2454 56.0331 28.1005C56.3332 26.6019 54.2447 26.2509 54.4979 25.0352C54.7512 23.8196 56.7735 24.5584 57.7904 23.183C59.1386 21.349 62.0999 20.2618 64.6872 20.605C68.1122 21.0635 66.9315 24.5139 69.5772 25.6221C72.2229 26.7303 73.536 28.6428 72.8658 30.3536Z" fill="#263238"/>
  <path d="M72.8094 30.8069H72.7783C72.7664 30.8042 72.7554 30.8 72.746 30.7945C72.7366 30.7889 72.7289 30.7822 72.7235 30.7746C72.718 30.767 72.7149 30.7588 72.7143 30.7504C72.7136 30.742 72.7155 30.7336 72.7198 30.7257C73.4406 29.3162 73.7796 27.5032 69.9494 25.9758C68.535 25.4099 68.1415 24.3908 67.7557 23.4057C67.2375 22.0722 66.7543 20.8146 63.7657 20.8434C63.7415 20.8422 63.7188 20.8352 63.7016 20.8237C63.6845 20.8121 63.674 20.7968 63.6722 20.7805C63.6711 20.772 63.6727 20.7633 63.677 20.7552C63.6812 20.7471 63.688 20.7397 63.6968 20.7335C63.7057 20.7273 63.7164 20.7224 63.7283 20.7193C63.7402 20.7161 63.753 20.7146 63.7657 20.715C66.8829 20.6862 67.4284 22.0512 67.9427 23.3716C68.3129 24.3331 68.7026 25.3261 70.0468 25.8658C74.0407 27.4587 73.5848 29.4262 72.899 30.7676C72.8914 30.7793 72.8789 30.7893 72.863 30.7963C72.8471 30.8032 72.8284 30.8069 72.8094 30.8069Z" fill="#263238"/>
  <path d="M68.5788 47.7288C68.5788 47.7288 68.4229 60.5401 67.2306 71.0642C64.6473 81.4809 62.3834 95.7803 62.3834 95.7803H59.9131C59.9131 95.7803 57.4232 76.8044 60.1702 70.7C58.5415 62.8718 59.048 47.941 59.048 47.941L68.5788 47.7288Z" fill="#B55B52"/>
  <path d="M71.8402 36.4343C71.8402 36.5548 71.8402 36.733 71.8402 36.8849L71.8714 37.3644C71.8987 37.6866 71.9415 38.0089 71.9961 38.3259C72.097 38.9587 72.261 39.5863 72.487 40.2043C72.704 40.794 73.0068 41.3679 73.391 41.9178C73.7447 42.4253 74.2243 42.8887 74.8093 43.288L74.9535 43.3849C74.8871 43.3395 74.8013 43.3093 74.708 43.2984C74.6612 43.2984 74.708 43.3142 74.8288 43.3115C75.1507 43.2886 75.4658 43.2338 75.764 43.1491C76.5599 42.9319 77.3264 42.669 78.0551 42.3631C78.8344 42.0514 79.5903 41.7055 80.3501 41.3492C81.1099 40.9929 81.8736 40.6209 82.61 40.2541C82.7878 40.1652 83.0081 40.1234 83.2288 40.1369C83.4495 40.1504 83.655 40.2181 83.806 40.3271C83.9571 40.4361 84.043 40.5788 84.0473 40.7277C84.0517 40.8767 83.9742 41.0215 83.8296 41.1344C83.1828 41.6427 82.5087 42.1011 81.8113 42.5623C81.1138 43.0234 80.3774 43.4556 79.5942 43.8722C78.7843 44.3116 77.9125 44.6968 76.9913 45.0223C76.4353 45.2145 75.8408 45.3513 75.2262 45.4284C74.7977 45.4804 74.3581 45.4751 73.9326 45.4127C73.3722 45.3292 72.8642 45.1305 72.4792 44.8442L72.6273 44.9437C71.6894 44.4003 70.9076 43.7459 70.3206 43.0129C69.7647 42.326 69.3293 41.598 69.0231 40.8436C68.7207 40.1179 68.5006 39.3778 68.3646 38.6298C68.2983 38.2604 68.2516 37.8884 68.2204 37.5163C68.2204 37.3303 68.1931 37.1443 68.1892 36.9557C68.1853 36.767 68.1892 36.5915 68.1892 36.3662C68.2182 36.0532 68.426 35.7598 68.7692 35.5473C69.1124 35.3349 69.5644 35.2199 70.0307 35.2263C70.4971 35.2328 70.9417 35.3601 71.2717 35.5818C71.6016 35.8035 71.7914 36.1024 71.8013 36.416L71.8402 36.4343Z" fill="#B55B52"/>
  <path d="M86.4016 40.2385L86.3042 39.2298C86.296 39.1502 86.2632 39.0726 86.2077 39.002C86.1523 38.9315 86.0755 38.8695 85.9822 38.8202C85.889 38.7708 85.7814 38.7351 85.6664 38.7154C85.5513 38.6957 85.4315 38.6925 85.3145 38.7058C84.5668 38.7906 83.8818 39.0393 83.3662 39.4132L81.7297 40.5921L81.4336 41.6925C82.7506 42.1274 84.5936 41.2366 84.5936 41.2366L85.9379 40.7913C86.0878 40.7403 86.2119 40.6605 86.2944 40.5621C86.377 40.4637 86.4143 40.3511 86.4016 40.2385Z" fill="#B55B52"/>
  <path d="M70.6561 34.5823C73.2395 35.9787 72.8459 37.5192 73.4187 38.6562C72.2225 40.0185 67.4922 40.6604 67.4922 40.6604C67.4922 40.6604 67.8701 33.0758 70.6561 34.5823Z" fill="#407BFF"/>
  <path d="M71.8018 36.1174C72.1914 39.6936 68.9613 42.4052 68.6846 46.1752L55.2574 45.9551C55.6471 42.2873 55.4834 42.6488 53.5664 35.5463C53.5132 35.3503 53.5205 35.149 53.5876 34.9549C53.6548 34.7609 53.7805 34.5781 53.9569 34.418C54.1333 34.2579 54.3567 34.1238 54.6132 34.0241C54.8697 33.9243 55.154 33.861 55.4484 33.8381C56.4458 33.7621 57.681 33.6888 58.9785 33.6731C61.1531 33.609 63.3316 33.6502 65.4973 33.7962C66.8961 33.9088 68.3885 34.0896 69.5263 34.2416C70.8627 34.4119 71.6966 35.2005 71.8018 36.1174Z" fill="#407BFF"/>
  <path d="M65.8791 37.3829C65.9337 37.7523 65.657 38.051 65.2596 38.051C64.8622 38.051 64.4803 37.7549 64.4413 37.3855C64.4024 37.0161 64.6634 36.7148 65.0609 36.7148C65.4583 36.7148 65.8246 37.0135 65.8791 37.3829Z" fill="white"/>
  <path d="M65.1602 35.714C66.0641 35.8685 67.0305 36.2851 67.4162 37.3488C70.1126 34.6346 65.5069 33.7883 65.5069 33.7883L65.1602 35.714Z" fill="white"/>
  <path d="M63.5736 35.8555C63.2416 35.8265 62.9044 35.8419 62.5813 35.9008C62.2582 35.9597 61.9556 36.061 61.6909 36.1988C61.4263 36.3366 61.2047 36.5082 61.039 36.7038C60.8732 36.8993 60.7666 37.115 60.7253 37.3384C57.7678 34.7499 58.9874 33.6548 58.9874 33.6548L63.5736 35.8555Z" fill="white"/>
  <path d="M59.8416 28.7424C60.1923 30.1598 60.4962 32.7509 58.9883 33.6652C58.9883 33.6652 61.6457 35.6013 64.6732 36.1122C65.1156 35.8134 65.4273 35.4386 65.5744 35.0288C65.7214 34.619 65.6981 34.1899 65.5071 33.7883C63.1692 33.3692 63.2939 32.2033 63.7459 31.1161L59.8416 28.7424Z" fill="#B55B52"/>
  <path opacity="0.2" d="M61.4314 29.7117L63.7459 31.1133C63.6316 31.3698 63.5533 31.633 63.5121 31.8993C62.6198 31.7945 61.4197 31.1133 61.3535 30.4819C61.3083 30.2241 61.3347 29.963 61.4314 29.7117Z" fill="black"/>
  <path d="M57.3639 27.1652C58.7354 29.3371 59.2497 30.275 61.5175 31.0164C64.9269 32.1325 68.5935 30.5239 68.2155 28.1215C67.8726 25.9574 65.6867 22.7716 61.9812 22.6564C61.1667 22.6299 60.3557 22.7436 59.6249 22.9869C58.8942 23.2301 58.2679 23.5948 57.8055 24.0464C57.3431 24.498 57.0598 25.0215 56.9825 25.5672C56.9052 26.113 57.0365 26.6631 57.3639 27.1652Z" fill="#B55B52"/>
  <path d="M56.9492 25.4335C61.3366 25.4099 67.4697 23.9349 65.6656 22.3918C64.7421 19.3213 57.0116 22.5175 56.9492 25.4335Z" fill="#263238"/>
  <path d="M57.61 24.9253C60.548 26.0309 59.7687 28.1714 57.9062 28.5932C55.9384 27.0055 55.4475 24.6476 57.61 24.9253Z" fill="#263238"/>
  <path d="M62.9947 28.0455C62.9947 28.0455 63.9922 27.9223 66.7548 28.0271C66.3652 28.5956 65.7378 29.0489 64.3234 28.986C64.1424 28.9873 63.9629 28.9635 63.7961 28.9161C63.6294 28.8687 63.479 28.7986 63.3543 28.7104C63.2296 28.6221 63.1333 28.5175 63.0715 28.4031C63.0096 28.2887 62.9835 28.167 62.9947 28.0455Z" fill="#263238"/>
  <path d="M64.8867 28.3782C64.345 28.337 63.7981 28.4151 63.3281 28.6009C63.5761 28.7325 63.8812 28.8061 64.197 28.8104C64.7392 28.8514 65.2864 28.7723 65.7556 28.5851C65.5078 28.4537 65.2023 28.381 64.8867 28.3782Z" fill="#A02724"/>
  <path d="M63.125 28.0323C63.125 28.1424 63.2029 28.2079 63.4562 28.2786C64.1957 28.338 64.942 28.3503 65.685 28.3153C66.0459 28.3056 66.3865 28.2001 66.6318 28.0218C65.4643 27.9627 64.2917 27.9662 63.125 28.0323Z" fill="white"/>
  <path d="M62.6583 26.4998C62.7518 26.6805 62.97 26.7932 63.1493 26.7618C63.3285 26.7303 63.387 26.5391 63.2934 26.3583C63.1999 26.1775 62.9778 26.0649 62.8025 26.0963C62.6272 26.1278 62.5609 26.319 62.6583 26.4998Z" fill="#263238"/>
  <path d="M66.1019 25.6875C66.1954 25.8683 66.4175 25.981 66.5929 25.9495C66.7682 25.9181 66.8344 25.7268 66.737 25.546C66.6396 25.3653 66.4214 25.2526 66.2461 25.2841C66.0707 25.3155 66.0084 25.5067 66.1019 25.6875Z" fill="#263238"/>
  <path d="M66.1758 25.313L66.7564 25.0327C66.7564 25.0327 66.6005 25.4519 66.1758 25.313Z" fill="#263238"/>
  <path d="M65.1211 26.1357C65.5743 26.4911 66.0989 26.8024 66.6797 27.0606C66.5775 27.1595 66.4443 27.2422 66.2894 27.3029C66.1346 27.3635 65.9619 27.4006 65.7835 27.4116L65.1211 26.1357Z" fill="#A02724"/>
  <path d="M57.2787 29.2664C57.5072 29.4354 57.7833 29.5721 58.091 29.6688C58.3986 29.7655 58.7318 29.8202 59.0711 29.8297C59.9712 29.8507 60.2088 29.2769 59.7802 28.7818C59.3906 28.3364 58.4671 27.7888 57.6489 27.9958C57.475 28.0465 57.3222 28.1249 57.2034 28.2242C57.0846 28.3235 57.0035 28.4407 56.9671 28.5657C56.9307 28.6907 56.94 28.8198 56.9943 28.9419C57.0486 29.064 57.1462 29.1754 57.2787 29.2664Z" fill="#B55B52"/>
  <path d="M61.0664 26.1775C61.0879 26.1741 61.108 26.1676 61.1255 26.1586C61.1429 26.1496 61.1573 26.1381 61.1678 26.1251C61.2644 25.9992 61.4041 25.8905 61.5755 25.808C61.747 25.7256 61.9451 25.6717 62.1536 25.6509C62.1973 25.6476 62.2376 25.6334 62.2665 25.6111C62.2953 25.5888 62.3107 25.56 62.3094 25.5304C62.3079 25.5156 62.3021 25.5011 62.2923 25.4878C62.2825 25.4745 62.2688 25.4627 62.2522 25.4529C62.2355 25.4432 62.2162 25.4358 62.1952 25.4311C62.1743 25.4264 62.1522 25.4245 62.1302 25.4256C61.8659 25.4487 61.6139 25.5144 61.3955 25.617C61.1771 25.7196 60.9987 25.8562 60.8755 26.0151C60.8546 26.0412 60.8498 26.0717 60.8622 26.1002C60.8746 26.1286 60.9032 26.1526 60.9418 26.167C60.9603 26.1745 60.981 26.1793 61.0025 26.1811C61.0239 26.1829 61.0457 26.1817 61.0664 26.1775Z" fill="#263238"/>
  <path d="M66.3984 24.8309C66.4352 24.8161 66.4628 24.7928 66.4763 24.7654C66.4828 24.7513 66.4851 24.7365 66.4829 24.7218C66.4807 24.7071 66.4742 24.6928 66.4636 24.6799C66.4531 24.6669 66.4388 24.6555 66.4215 24.6464C66.4043 24.6372 66.3845 24.6305 66.3633 24.6266C66.1109 24.57 65.8418 24.5554 65.5791 24.5842C65.3165 24.6129 65.0681 24.6841 64.8554 24.7916C64.8235 24.8112 64.8041 24.8382 64.8012 24.8672C64.7982 24.8961 64.812 24.9247 64.8396 24.947C64.8672 24.9692 64.9066 24.9835 64.9494 24.9868C64.9923 24.99 65.0353 24.9821 65.0697 24.9645C65.2399 24.8812 65.4374 24.8265 65.6455 24.8051C65.8536 24.7837 66.0664 24.7961 66.2659 24.8414C66.2879 24.8457 66.311 24.847 66.3337 24.8452C66.3565 24.8434 66.3785 24.8385 66.3984 24.8309Z" fill="#263238"/>
  <path d="M62.7344 26.1251L63.311 25.8447C63.311 25.8447 63.1552 26.2639 62.7344 26.1251Z" fill="#263238"/>
  <path d="M64.9855 48.0381C64.9855 48.0381 62.484 61.1376 58.4473 71.4862C52.9377 79.3694 46.4501 85.4581 39.7988 91.9213L37.4609 91.083C42.0237 84.1193 46.906 75.8719 51.5272 70.4434C54.8703 50.6842 54.5002 48.0459 54.5002 48.0459L64.9855 48.0381Z" fill="#B55B52"/>
  <path d="M41.4219 97.1609C41.2739 96.7391 40.0114 95.6283 40.0114 95.6283C40.0114 95.6283 39.6218 94.1219 40.7673 91.3448C40.781 91.3124 40.781 91.278 40.7672 91.2456C40.7535 91.2132 40.7265 91.184 40.6894 91.1614L38.3983 89.7676C38.3327 89.7306 38.2485 89.7118 38.1629 89.7152C38.0774 89.7187 37.9971 89.744 37.9385 89.7859C37.7437 89.9222 37.1124 90.6767 36.8864 90.9073C36.6604 91.1378 36.3253 91.4732 36.1071 91.6932C35.3279 92.5211 33.6641 94.4153 33.6641 94.4153L33.9641 94.5227C34.5151 93.9614 35.1149 93.4226 35.7604 92.9089C36.4383 92.4242 36.4072 93.2783 36.15 94.0092C35.8928 94.7402 36.5864 95.8798 38.4879 96.6291C40.7478 97.4753 41.5778 97.5932 41.4219 97.1609Z" fill="#263238"/>
  <path d="M68.6947 46.1673C71.5391 52.2141 69.3766 58.3525 68.0245 69.9429C61.7902 70.5743 56.2065 69.9429 49.7891 68.6329C53.9115 55.3291 48.8266 52.0123 55.2675 45.9473L68.6947 46.1673Z" fill="#407BFF"/>
  <path d="M55.036 45.2871C54.9591 45.5219 54.907 45.76 54.8801 45.9997C54.8671 46.0457 54.8792 46.0933 54.9143 46.1338C54.9494 46.1742 55.0051 46.2048 55.0711 46.2198C56.5166 46.3691 64.9798 47.197 68.7593 46.5682C68.8132 46.5536 68.8583 46.5274 68.8879 46.4938C68.9175 46.4602 68.9298 46.421 68.923 46.3822C68.923 46.1647 68.923 45.8242 68.923 45.612C68.923 45.5019 68.8256 45.4102 68.7048 45.4102C67.3839 45.4102 60.4131 45.4312 55.2308 45.1692C55.1826 45.1696 55.1362 45.1818 55.1004 45.2035C55.0645 45.2252 55.0417 45.2549 55.036 45.2871Z" fill="#263238"/>
  <path d="M61.8991 45.1953C62.5498 45.08 66.3684 45.156 66.7152 45.2634C67.0619 45.3708 66.8944 46.7882 66.5866 46.8773C65.9748 47.0607 62.4953 47.0135 61.868 46.9192C61.2406 46.8249 61.4549 45.287 61.8991 45.1953Z" fill="white"/>
  <path opacity="0.2" d="M61.9375 60.8124L62.4635 54.97L65.4638 52.1956L61.9375 60.8124Z" fill="black"/>
  <path d="M56.0718 37.1653C55.5535 37.595 54.9847 38.0692 54.4742 38.5381C53.9638 39.0071 53.4378 39.4839 52.9702 39.9712C52.0311 40.881 51.2752 41.8703 50.7219 42.9133C50.6752 43.0339 50.6206 43.1517 50.5895 43.2644L50.5622 43.3378C50.5622 43.3378 50.5622 43.3509 50.5622 43.3692C50.6003 43.5413 50.6848 43.7074 50.8115 43.8591C51.2042 44.328 51.6705 44.7672 52.2026 45.1691C53.367 46.0574 54.6041 46.9015 55.9081 47.6973L55.9315 47.713C56.092 47.8141 56.1918 47.9512 56.2122 48.0985C56.2326 48.2457 56.1721 48.3929 56.0421 48.5122C55.9122 48.6315 55.7218 48.7146 55.5068 48.746C55.2919 48.7773 55.0674 48.7547 54.8756 48.6824C53.2125 48.0614 51.6529 47.3228 50.2232 46.479C49.4443 46.0244 48.7532 45.506 48.1659 44.9359C47.7907 44.5726 47.5259 44.163 47.3866 43.7307C47.3467 43.5899 47.3259 43.447 47.3242 43.3037C47.3242 43.2303 47.3242 43.1491 47.3242 43.0679C47.3242 42.9867 47.3437 42.9684 47.3554 42.916C47.3905 42.7247 47.4489 42.5466 47.5035 42.3658C47.7479 41.6937 48.0952 41.0405 48.5399 40.4166C48.9569 39.824 49.4253 39.2483 49.9426 38.6927C50.4492 38.1425 50.9713 37.6054 51.5402 37.0945C52.1091 36.5837 52.6741 36.0885 53.3404 35.5829C53.6564 35.3516 54.0934 35.2115 54.5597 35.192C55.026 35.1726 55.4853 35.2752 55.8415 35.4785C56.1977 35.6817 56.4231 35.9698 56.4704 36.2823C56.5177 36.5948 56.3832 36.9075 56.0952 37.1548L56.0718 37.1653Z" fill="#B55B52"/>
  <path d="M55.6143 33.8172C53.0699 33.9194 52.2361 34.8914 51.3594 35.9367C52.1387 37.4274 55.3727 39.822 55.3727 39.822C55.3727 39.822 60.2355 33.6338 55.6143 33.8172Z" fill="#407BFF"/>
  <path d="M83.4698 38.8576C79.1408 36.9373 73.3858 38.0219 70.6115 41.2758C66.2786 39.3554 60.5235 40.4401 57.7532 43.694C54.9828 46.9479 56.2491 51.145 60.5781 53.0653L76.2613 60.0159L86.2908 48.2264C89.069 44.9725 87.8027 40.778 83.4698 38.8576Z" fill="#407BFF"/>
  <path opacity="0.9" d="M83.4698 38.8576C79.1408 36.9373 73.3858 38.0219 70.6115 41.2758C66.2786 39.3554 60.5235 40.4401 57.7532 43.694C54.9828 46.9479 56.2491 51.145 60.5781 53.0653L76.2613 60.0159L86.2908 48.2264C89.069 44.9725 87.8027 40.778 83.4698 38.8576Z" fill="white"/>
  <path opacity="0.2" d="M61.5397 51.9469C60.6825 51.5571 59.9489 51.0567 59.3817 50.4747C58.8145 49.8927 58.4249 49.2408 58.2355 48.5567C57.8055 47.1231 58.1655 45.6332 59.2486 44.3649C60.2609 43.1268 61.962 42.2092 63.9789 41.8131C64.9336 41.6286 65.9367 41.5859 66.9184 41.6882C67.9001 41.7904 68.8369 42.0351 69.6638 42.4052L71.1523 43.0654L72.103 41.9467C73.1169 40.7085 74.8192 39.7909 76.8372 39.3949C77.7913 39.2104 78.7937 39.1678 79.7748 39.2701C80.7558 39.3723 81.692 39.617 82.5183 39.987C86.0251 41.5406 87.0498 44.9465 84.8094 47.5847L75.7345 58.2529L61.5397 51.9469Z" fill="#407BFF"/>
  <path d="M76.5481 53.2017L72.1257 54.0322L69.2773 44.5927L73.6998 43.7622L76.5481 53.2017Z" fill="#407BFF"/>
  <path d="M66.9233 51.7266L65.9492 48.5041L78.9011 46.0676L79.8713 49.2901L66.9233 51.7266Z" fill="#407BFF"/>
  <path d="M54.7985 47.2781L58.1572 47.3331L56.3921 49.1487C56.3921 49.1487 54.3893 48.816 53.875 47.8649L54.7985 47.2781Z" fill="#B55B52"/>
  <path d="M59.5468 48.6432L58.9116 49.5995C58.8765 49.6559 58.8231 49.7064 58.7554 49.7473C58.6878 49.7882 58.6074 49.8186 58.5202 49.8361C58.433 49.8537 58.3411 49.858 58.2512 49.8488C58.1612 49.8396 58.0754 49.817 57.9999 49.7829L56.3906 49.1488L58.1557 47.3333L59.348 48.0721C59.4621 48.1431 59.542 48.2354 59.5774 48.3372C59.6128 48.439 59.6021 48.5455 59.5468 48.6432Z" fill="#B55B52"/>
  <path d="M68.1016 99.38C67.6301 99.0552 65.8338 98.6281 65.8338 98.6281C65.8338 98.6281 64.1545 97.1112 62.8219 94.3027C62.806 94.2693 62.7775 94.2392 62.7393 94.2154C62.7011 94.1915 62.6544 94.1746 62.6037 94.1664L59.5411 93.6739C59.4996 93.6653 59.4558 93.6627 59.4127 93.6665C59.3696 93.6702 59.3282 93.6801 59.2912 93.6955C59.2543 93.7109 59.2227 93.7314 59.1986 93.7557C59.1745 93.78 59.1584 93.8075 59.1514 93.8363C59.1008 94.0171 59.1514 95.0493 59.1514 95.327C59.1514 95.6048 59.1514 96.003 59.1514 96.2676C59.1787 97.2448 59.3384 99.4429 59.3384 99.4429H59.6774C59.6789 98.7765 59.74 98.1107 59.8606 97.4492C60.0281 96.8047 60.7061 97.5671 61.0841 98.2954C61.462 99.0237 62.9855 99.7992 65.1987 99.8359C67.8016 99.8778 68.5809 99.718 68.1016 99.38Z" fill="#263238"/>
  <path d="M129.117 93.6089L135.079 93.6456L134.853 98.3771L129.873 98.3483L129.117 93.6089Z" fill="#FFC3BD"/>
  <path opacity="0.2" d="M129.125 93.6089L135.087 93.6482L134.958 96.2969L129.546 96.2655L129.125 93.6089Z" fill="black"/>
  <path d="M135.448 74.7717C137.528 68.5495 140.973 61.9788 137.345 56.3958L120.793 57.3677C120.793 57.3677 122.433 70.6113 122.874 76.2074C123.333 82.0262 128.952 95.4505 128.952 95.4505H135.771C135.771 95.4505 136.823 81.214 135.448 74.7717Z" fill="#263238"/>
  <path d="M135.81 99.839H134.251L133.862 99.4854L133.211 99.8443H124.42C124.334 99.4357 124.415 99.0191 124.654 98.6391C124.654 98.6391 127.705 98.3064 128.886 97.7615C128.986 97.7151 129.099 97.6828 129.218 97.6666C129.337 97.6503 129.46 97.6505 129.579 97.6671C130.643 97.8034 133.456 98.1099 134.98 97.7117C135.017 97.7042 135.057 97.7024 135.096 97.7065C135.134 97.7105 135.171 97.7203 135.204 97.7351C135.236 97.7499 135.263 97.7693 135.283 97.792C135.303 97.8147 135.315 97.84 135.319 97.8663C135.406 98.5314 135.57 99.191 135.81 99.839Z" fill="#263238"/>
  <path d="M154.824 90.8633L160.568 89.7812L162.781 94.2744L157.984 95.1835L154.824 90.8633Z" fill="#FFC3BD"/>
  <path opacity="0.2" d="M154.828 90.8659L160.572 89.7812L161.811 92.299L156.597 93.2841L154.828 90.8659Z" fill="black"/>
  <path d="M154.079 73.6374C153.744 67.5645 153.179 58.4813 149.793 55.885L131.258 56.7312C131.258 56.7312 138.182 69.6526 140.851 75.1124C143.629 80.7897 155.622 92.6264 155.622 92.6264L161.818 91.4291C161.818 91.4291 157.419 80.3941 154.079 73.6374Z" fill="#263238"/>
  <path d="M103.833 48.0697L104.343 49.7229C103.954 51.4756 100.673 50.7289 100.673 50.7289L98.892 50.7971C98.5761 50.7958 98.2712 50.7189 98.032 50.5801C97.7927 50.4414 97.6349 50.2499 97.5867 50.0399L97.2166 48.8872C97.1179 48.653 97.1593 48.4023 97.3318 48.1884C97.5044 47.9745 97.7944 47.8144 98.14 47.7423L99.6596 47.5143C100.101 47.4487 100.56 47.4568 100.996 47.5379L103.833 48.0697Z" fill="#FFC3BD"/>
  <path d="M94.4877 51.3997C93.1165 51.398 91.7858 51.0874 90.708 50.5175C89.6302 49.9476 88.8675 49.1513 88.5417 48.2558C88.505 48.1544 88.5297 48.0473 88.6105 47.9581C88.6912 47.8689 88.8214 47.805 88.9722 47.7803C89.1231 47.7556 89.2824 47.7723 89.415 47.8266C89.5476 47.8808 89.6428 47.9683 89.6794 48.0698C89.9895 48.9297 90.7948 49.6715 91.9183 50.1321C93.0418 50.5927 94.3914 50.7344 95.6702 50.5259C96.9491 50.3175 98.0524 49.776 98.7375 49.0206C99.4225 48.2652 99.6332 47.3577 99.3232 46.4978L83.1646 1.55877C83.1284 1.45732 83.1536 1.35037 83.2347 1.26144C83.3159 1.17251 83.4462 1.10889 83.5971 1.08457C83.7479 1.06025 83.907 1.07723 84.0393 1.13176C84.1715 1.1863 84.2662 1.27393 84.3023 1.37538L100.457 46.3066C100.648 46.8328 100.682 47.3792 100.558 47.9143C100.434 48.4495 100.154 48.963 99.7347 49.4254C99.3152 49.8877 98.7642 50.2899 98.1133 50.6089C97.4623 50.9279 96.7241 51.1575 95.9411 51.2844C95.4651 51.3614 94.9772 51.4001 94.4877 51.3997Z" fill="#263238"/>
  <path d="M41.9357 21.677C41.7564 20.595 44.5969 19.251 48.4466 18.6248C52.4327 17.9777 55.9707 18.3419 56.3681 19.4396C55.9785 18.3419 59.9607 16.7542 65.2754 15.8897C70.5902 15.0251 75.2036 15.2137 75.5933 16.3115C75.2036 15.2137 80.5768 13.4007 87.6022 12.2585C94.6275 11.1162 100.655 11.0769 101.049 12.1746C100.659 11.0769 104.637 9.48924 109.952 8.62468C115.267 7.76011 119.884 7.94874 120.278 9.04648C119.888 7.94874 122.795 6.53662 126.769 5.90261C130.619 5.27645 134.071 5.59608 134.644 6.61784C132.053 0.0130798 109.45 -1.9859 83.9668 2.16401C58.4839 6.31393 39.7458 15.0067 41.9357 21.677Z" fill="#407BFF"/>
  <path opacity="0.2" d="M56.3695 19.4395C55.9798 18.3418 59.962 16.7541 65.2768 15.8895C70.5916 15.025 75.205 15.2136 75.5946 16.3113C75.205 15.2136 80.5782 13.4006 87.6035 12.2584C94.6288 11.1161 100.657 11.0768 101.05 12.1745C100.661 11.0768 104.639 9.48913 109.954 8.62456C115.268 7.76 119.886 7.94863 120.279 9.04637C117.879 2.36563 101.623 -0.725845 83.9681 2.14556C66.3132 5.01697 53.9654 12.7561 56.3695 19.4395Z" fill="black"/>
  <path d="M75.5925 16.3116C75.2028 15.2139 80.5761 13.4009 87.6014 12.2586C94.6267 11.1163 100.655 11.077 101.048 12.1748C98.6556 5.49142 91.003 1.0114 83.9777 2.14581C76.9524 3.28023 73.2001 9.62824 75.5925 16.3116Z" fill="#407BFF"/>
  <path d="M104.427 48.2611C103.363 46.9983 101.43 47.0717 99.9067 46.8123C99.6495 46.7678 99.2404 47.1608 99.556 47.407C99.7305 47.5686 99.9514 47.705 100.206 47.808C100.46 47.9111 100.743 47.9788 101.037 48.007C101.111 48.4576 101.968 49.6366 103.862 49.5082C104.271 49.1531 104.472 48.7093 104.427 48.2611Z" fill="#FFC3BD"/>
  <path d="M131.527 37.8835C130.717 38.7009 129.883 39.4921 129.053 40.2912C128.223 41.0903 127.374 41.8789 126.513 42.6648C124.794 44.2368 123.037 45.7956 121.186 47.3492L120.407 48.0121L119.678 48.2243C119.289 48.3369 118.899 48.4548 118.537 48.5518L117.469 48.8137C116.783 48.9657 116.101 49.115 115.435 49.2434C114.102 49.5054 112.781 49.7307 111.472 49.9403C110.163 50.1499 108.846 50.3333 107.537 50.501C106.228 50.6686 104.918 50.8258 103.57 50.9542L101.977 46.841L109.162 44.9494C110.35 44.6402 111.5 44.3101 112.649 43.9879C113.218 43.8255 113.756 43.6578 114.289 43.4927L115.03 43.2307L115.661 42.995L114.141 43.87C115.68 42.2981 117.216 40.6763 118.759 39.0651L121.096 36.6443C121.876 35.8426 122.655 35.0278 123.434 34.2393L131.527 37.8835Z" fill="#407BFF"/>
  <g opacity="0.6">
    <path d="M131.527 37.8835C130.717 38.7009 129.883 39.4921 129.053 40.2912C128.223 41.0903 127.374 41.8789 126.513 42.6648C124.794 44.2368 123.037 45.7956 121.186 47.3492L120.407 48.0121L119.678 48.2243C119.289 48.3369 118.899 48.4548 118.537 48.5518L117.469 48.8137C116.783 48.9657 116.101 49.115 115.435 49.2434C114.102 49.5054 112.781 49.7307 111.472 49.9403C110.163 50.1499 108.846 50.3333 107.537 50.501C106.228 50.6686 104.918 50.8258 103.57 50.9542L101.977 46.841L109.162 44.9494C110.35 44.6402 111.5 44.3101 112.649 43.9879C113.218 43.8255 113.756 43.6578 114.289 43.4927L115.03 43.2307L115.661 42.995L114.141 43.87C115.68 42.2981 117.216 40.6763 118.759 39.0651L121.096 36.6443C121.876 35.8426 122.655 35.0278 123.434 34.2393L131.527 37.8835Z" fill="white"/>
  </g>
  <path d="M127.604 32.0648C133.051 31.3786 138.595 31.101 144.133 31.2369C144.892 31.2661 145.634 31.3991 146.314 31.6278C146.994 31.8565 147.597 32.1761 148.087 32.567C148.577 32.958 148.943 33.412 149.163 33.9014C149.383 34.3907 149.452 34.9051 149.366 35.413C147.971 44.2578 150.648 54.6535 150.613 56.3879C150.613 56.3879 126.455 63.0765 119.99 58.0096C116.873 47.4672 121.362 38.287 123.458 34.4489C123.787 33.8457 124.341 33.3096 125.067 32.8921C125.793 32.4745 126.667 32.1896 127.604 32.0648Z" fill="#407BFF"/>
  <path d="M149.573 32.8221C148.532 31.9261 146.682 30.7471 140.475 30.9619C135.09 34.132 131.337 38.4968 131.337 38.4968C131.337 38.4968 127.916 35.2455 131.162 31.554C127.589 31.6195 125.251 32.3636 124.41 32.7566C123.568 33.1496 119.442 38.4313 118.53 46.8149C117.618 55.1986 119.625 70.8761 120.404 74.8924C132.027 78.0362 151.248 74.4994 155.34 71.7485C154.821 65.3743 151.252 55.8117 150.602 51.7508C149.951 47.69 151.26 34.5905 149.573 32.8221Z" fill="#407BFF"/>
  <path opacity="0.7" d="M149.573 32.8221C148.532 31.9261 146.682 30.7471 140.475 30.9619C135.09 34.132 131.337 38.4968 131.337 38.4968C131.337 38.4968 127.916 35.2455 131.162 31.554C127.589 31.6195 125.251 32.3636 124.41 32.7566C123.568 33.1496 119.442 38.4313 118.53 46.8149C117.618 55.1986 119.625 70.8761 120.404 74.8924C132.027 78.0362 151.248 74.4994 155.34 71.7485C154.821 65.3743 151.252 55.8117 150.602 51.7508C149.951 47.69 151.26 34.5905 149.573 32.8221Z" fill="white"/>
  <path d="M130.288 32.5469C130.587 32.0548 131.123 31.6449 131.812 31.3837C132.017 30.9 131.967 30.3837 131.671 29.9218L139.57 27.687C139.153 29.534 138.833 30.9933 139.959 31.8107C138.447 32.5626 135.673 33.9197 132.474 34.0534C129.275 34.187 129.871 33.3355 130.288 32.5469Z" fill="#FFC3BD"/>
  <path opacity="0.2" d="M131.758 30.0921L137.828 29.479C136.106 30.9671 133.281 31.6588 131.89 31.1819C131.985 30.817 131.939 30.4418 131.758 30.0921Z" fill="black"/>
  <path d="M132.273 34.0587L133.493 33.2361L135.348 33.726C135.348 33.726 134.311 34.512 132.273 34.0587Z" fill="#407BFF"/>
  <path opacity="0.3" d="M132.273 34.0587L133.493 33.2361L135.348 33.726C135.348 33.726 134.311 34.512 132.273 34.0587Z" fill="black"/>
  <path d="M131.537 26.8644C129.943 26.6941 129.199 25.1457 130.243 24.2864C131.287 23.4271 128.809 23.097 129.631 22.2691C130.453 21.4412 132.811 20.6107 134.249 21.3731C135.686 22.1355 132.421 24.3912 133.126 25.7273C132.626 26.1246 132.095 26.5041 131.537 26.8644Z" fill="#263238"/>
  <path d="M140.776 24.8026C140.168 27.4042 139.673 29.1621 137.269 30.1236C132.476 32.0335 129.983 30.4354 129.421 27.7657C128.915 25.358 129.99 21.5094 133.949 20.7339C134.824 20.563 135.749 20.5438 136.637 20.6782C137.526 20.8126 138.35 21.0961 139.031 21.5024C139.713 21.9087 140.23 22.4244 140.535 23.0015C140.84 23.5786 140.923 24.1982 140.776 24.8026Z" fill="#FFC3BD"/>
  <path d="M139.049 27.5588C137.549 27.1632 137.311 25.5388 138.616 24.8551C139.922 24.1713 137.599 23.4849 138.671 22.7932C139.742 22.1015 142.891 21.4256 143.464 22.5915C144.364 24.4254 140.709 25.2742 140.966 26.6811C140.35 26.9958 139.71 27.2888 139.049 27.5588Z" fill="#263238"/>
  <path d="M139.434 22.6831C135.681 23.5529 136.574 21.7818 134.485 22.0281C132.397 22.2744 130.316 22.5154 129.891 21.2421C129.545 20.2151 130.558 19.2772 132.568 19.3689C131.528 19.8352 131.789 20.299 132.814 20.0658C133.838 19.8326 136.426 18.148 137.778 19.4894C139.13 20.8308 141.456 19.8012 142.543 20.6762C143.63 21.5513 141.889 23.0184 139.434 22.6831Z" fill="#263238"/>
  <path d="M130.312 29.6573C130.422 29.5312 130.57 29.422 130.746 29.3371C130.923 29.2522 131.124 29.1935 131.337 29.1648C131.863 29.2865 132.345 29.4811 132.752 29.7359C132.947 30.3699 130.803 31.0092 130.492 31.0957C130.383 30.5298 130.312 29.6573 130.312 29.6573Z" fill="#263238"/>
  <path opacity="0.2" d="M135.598 24.986C135.82 24.9316 136.056 24.9074 136.292 24.9146C136.528 24.9218 136.759 24.9603 136.973 25.0279C136.515 25.0733 136.048 25.059 135.598 24.986Z" fill="black"/>
  <path opacity="0.2" d="M135.598 25.2059C135.812 25.1867 136.029 25.1987 136.236 25.2412C136.442 25.2837 136.633 25.3557 136.794 25.4522C136.374 25.4286 135.966 25.3446 135.598 25.2059Z" fill="black"/>
  <path opacity="0.2" d="M130.233 24.6819C130.233 24.6819 129.913 24.4199 129.676 24.5666C129.832 24.6521 130.032 24.6934 130.233 24.6819Z" fill="black"/>
  <path opacity="0.2" d="M130.175 24.8864C130.175 24.8864 129.914 24.6559 129.746 24.8864C129.81 24.9146 129.884 24.9296 129.96 24.9296C130.037 24.9296 130.111 24.9146 130.175 24.8864Z" fill="black"/>
  <path opacity="0.2" d="M131.402 22.6674C132.54 22.5259 133.702 22.4907 134.855 22.5626C132.941 22.6831 131.402 22.6674 131.402 22.6674Z" fill="black"/>
  <path opacity="0.2" d="M130.957 23.0185C130.957 23.0185 133.595 22.9557 134.916 23.3067C133.587 23.282 132.263 23.1857 130.957 23.0185Z" fill="black"/>
  <path d="M142.263 27.4958C141.992 27.7664 141.643 27.9983 141.238 28.1781C140.833 28.358 140.379 28.4822 139.902 28.5437C138.62 28.7035 138.082 27.9149 138.523 27.1395C138.912 26.4426 140.081 25.5204 141.316 25.709C142.551 25.8976 142.922 26.8172 142.263 27.4958Z" fill="#FFC3BD"/>
  <path d="M134.548 25.0592C134.517 25.2714 134.326 25.4312 134.12 25.4181C133.913 25.405 133.769 25.219 133.796 25.0068C133.824 24.7946 134.018 24.6322 134.229 24.6453C134.439 24.6584 134.579 24.8522 134.548 25.0592Z" fill="#263238"/>
  <path d="M131.185 24.8759C131.154 25.0881 130.963 25.2479 130.756 25.2348C130.55 25.2217 130.406 25.0357 130.433 24.8235C130.46 24.6113 130.655 24.4488 130.866 24.4619C131.076 24.475 131.216 24.661 131.185 24.8759Z" fill="#263238"/>
  <path d="M134.142 27.4198C134.641 27.6661 136.059 27.5063 136.156 27.1578C137.072 27.577 136.324 28.2293 134.987 28.4285C133.651 28.6276 131.917 28.2634 131.535 27.9385L131.582 26.8618C132.595 26.7334 133.261 26.9901 134.142 27.4198Z" fill="#263238"/>
  <path d="M129.672 27.1501C129.13 27.3911 128.78 27.2365 128.799 26.8881C127.95 27.2339 128.02 27.7789 129.013 28.0749C130.007 28.371 131.156 28.2347 131.55 27.9439L131.643 26.8802C130.88 26.6864 130.49 26.7885 129.672 27.1501Z" fill="#263238"/>
  <path d="M132.253 25.1143L132.019 26.9063C132.019 26.9063 130.983 27.0006 130.426 26.66C130.817 26.0435 131.448 25.5094 132.253 25.1143Z" fill="#ED847E"/>
  <path d="M135.688 24.4253C135.721 24.4254 135.753 24.419 135.781 24.407C135.823 24.3892 135.853 24.361 135.864 24.3286C135.875 24.2962 135.866 24.2622 135.84 24.2341C135.691 24.0607 135.482 23.9139 135.231 23.8059C134.98 23.6979 134.695 23.6318 134.398 23.6131C134.374 23.6124 134.349 23.615 134.327 23.6207C134.304 23.6264 134.283 23.6352 134.265 23.6464C134.247 23.6576 134.233 23.6711 134.223 23.6861C134.213 23.7011 134.208 23.7173 134.207 23.7337C134.206 23.7502 134.21 23.7667 134.218 23.7822C134.227 23.7977 134.24 23.812 134.256 23.8242C134.273 23.8363 134.293 23.8462 134.315 23.8531C134.338 23.8601 134.362 23.864 134.386 23.8647C134.621 23.8819 134.847 23.9363 135.044 24.0232C135.242 24.1102 135.407 24.2273 135.524 24.3651C135.541 24.384 135.565 24.3997 135.594 24.4103C135.623 24.4209 135.655 24.4261 135.688 24.4253Z" fill="#263238"/>
  <path d="M129.449 24.1136C129.48 24.1152 129.512 24.1115 129.54 24.1028C129.569 24.0941 129.594 24.0807 129.613 24.0638C129.751 23.9369 129.932 23.8343 130.142 23.7645C130.352 23.6948 130.583 23.6599 130.817 23.663C130.841 23.6644 130.866 23.6626 130.89 23.6575C130.913 23.6525 130.935 23.6444 130.954 23.6337C130.973 23.623 130.988 23.6099 130.999 23.5951C131.011 23.5803 131.017 23.5642 131.019 23.5477C131.023 23.5145 131.007 23.4817 130.975 23.4563C130.943 23.4309 130.897 23.4148 130.848 23.4115C130.552 23.4054 130.258 23.4475 129.992 23.5342C129.725 23.6208 129.493 23.7495 129.317 23.9092C129.286 23.9354 129.273 23.9685 129.279 24.0013C129.284 24.0342 129.309 24.0642 129.348 24.0848C129.377 24.1002 129.412 24.1102 129.449 24.1136Z" fill="#263238"/>
  <path d="M157.132 53.9149L159.469 53.3018C162.107 53.2861 161.554 55.5707 161.554 55.5707L161.944 56.7418C161.994 56.9508 161.932 57.1651 161.768 57.3461C161.605 57.5271 161.35 57.663 161.051 57.7295L159.419 58.167C159.092 58.2707 158.718 58.2844 158.376 58.2051C158.035 58.1258 157.753 57.9598 157.591 57.7426L157.003 56.7732C156.833 56.4911 156.768 56.1852 156.816 55.8824L157.132 53.9149Z" fill="#FFC3BD"/>
  <path d="M149.079 32.4709L149.59 32.7329L150.049 32.9949C150.349 33.1626 150.638 33.3329 150.926 33.5032C151.503 33.8464 152.068 34.1922 152.621 34.5511C153.728 35.2611 154.791 36.013 155.82 36.799C156.339 37.192 156.842 37.5972 157.328 38.0146C157.814 38.4321 158.286 38.8687 158.746 39.3246C159.705 40.2604 160.537 41.252 161.232 42.2877L161.579 42.8117L161.622 43.1994C161.727 44.1111 161.809 45.0333 161.895 45.9425L162.156 48.6855C162.304 50.5194 162.452 52.3533 162.545 54.1873L155.699 54.6981C155.185 52.9009 154.729 51.0984 154.265 49.2985L153.611 46.5974C153.392 45.6962 153.174 44.7949 152.976 43.8937L153.365 44.8054C152.811 44.1389 152.173 43.506 151.456 42.9139C150.7 42.2877 149.866 41.6694 148.978 41.0642C148.089 40.459 147.143 39.8748 146.168 39.3089C145.683 39.0224 145.188 38.7439 144.684 38.4731L143.936 38.0749L143.566 37.8837L143.242 37.7212L149.079 32.4709Z" fill="#407BFF"/>
  <g opacity="0.7">
    <path d="M149.079 32.4714L149.59 32.7334L150.049 32.9954C150.349 33.1631 150.638 33.3334 150.926 33.5037C151.503 33.8469 152.068 34.1927 152.621 34.5516C153.728 35.2616 154.791 36.0135 155.82 36.7995C156.339 37.1925 156.842 37.5977 157.328 38.0151C157.814 38.4326 158.286 38.8692 158.746 39.3251C159.705 40.2609 160.537 41.2525 161.232 42.2882L161.579 42.8122L161.622 43.1999C161.727 44.1116 161.809 45.0338 161.895 45.9429L162.156 48.686C162.304 50.5199 162.452 52.3538 162.545 54.1878L155.699 54.6986C155.185 52.9014 154.729 51.0989 154.265 49.299L153.611 46.5979C153.392 45.6967 153.174 44.7954 152.976 43.8942L153.365 44.8059C152.811 44.1394 152.173 43.5065 151.456 42.9143C150.7 42.2882 149.866 41.6699 148.978 41.0647C148.089 40.4595 147.143 39.8753 146.168 39.3094C145.683 39.0229 145.188 38.7443 144.684 38.4736L143.936 38.0754L143.566 37.8841L143.242 37.7217L149.079 32.4714Z" fill="white"/>
  </g>
  <path d="M139.236 30.6658C139.236 30.6658 136.898 32.9215 133.496 33.2411C134.871 33.6224 136.098 34.2092 137.085 34.9572C137.085 34.9572 140.592 33.1232 141.071 31.326C140.732 30.6789 139.236 30.6658 139.236 30.6658Z" fill="#407BFF"/>
  <path opacity="0.3" d="M133.413 75.199C133.368 75.1995 133.324 75.1892 133.289 75.17C133.254 75.1509 133.231 75.124 133.222 75.0942C127.845 57.2605 131.033 38.992 131.064 38.8086C131.067 38.7914 131.075 38.7748 131.087 38.7597C131.1 38.7446 131.117 38.7313 131.137 38.7206C131.158 38.7099 131.181 38.702 131.206 38.6973C131.23 38.6926 131.256 38.6913 131.282 38.6933C131.307 38.6954 131.332 38.7008 131.355 38.7093C131.377 38.7178 131.397 38.7292 131.413 38.7428C131.429 38.7564 131.441 38.772 131.447 38.7887C131.454 38.8054 131.456 38.8228 131.453 38.84C131.422 39.0234 128.243 57.25 133.608 75.0418C133.617 75.0757 133.607 75.1108 133.578 75.1396C133.55 75.1685 133.506 75.1888 133.456 75.1963L133.413 75.199Z" fill="#407BFF"/>
  <path d="M139.162 43.362H133.298C133.197 43.3639 133.097 43.3506 133.005 43.3232C132.913 43.2957 132.831 43.2547 132.765 43.2033C132.699 43.1518 132.652 43.0912 132.625 43.0257C132.599 42.9603 132.594 42.8917 132.612 42.8249L133.002 41.0251C133.045 40.8804 133.16 40.7498 133.328 40.6546C133.495 40.5595 133.706 40.5053 133.926 40.5011H139.77C139.869 40.4996 139.967 40.5126 140.058 40.5393C140.149 40.566 140.229 40.6058 140.295 40.6557C140.36 40.7056 140.408 40.7645 140.436 40.8284C140.464 40.8922 140.471 40.9593 140.456 41.0251L140.066 42.8249C140.028 42.9699 139.918 43.1019 139.754 43.1994C139.589 43.2969 139.381 43.3542 139.162 43.362Z" fill="white"/>
  <path d="M137.083 40.9281H136.448C136.422 40.9288 136.396 40.9256 136.373 40.9187C136.349 40.9118 136.328 40.9015 136.311 40.8884C136.294 40.8753 136.282 40.8598 136.276 40.8431C136.269 40.8264 136.268 40.8089 136.272 40.7919L136.51 39.723C136.519 39.6855 136.548 39.6513 136.59 39.6264C136.633 39.6015 136.687 39.5875 136.744 39.5868H137.379C137.405 39.5861 137.43 39.5893 137.454 39.5962C137.478 39.6031 137.499 39.6134 137.515 39.6265C137.532 39.6396 137.545 39.6551 137.551 39.6718C137.558 39.6885 137.559 39.706 137.554 39.723L137.317 40.7919C137.308 40.8294 137.279 40.8636 137.236 40.8885C137.194 40.9134 137.139 40.9274 137.083 40.9281Z" fill="#407BFF"/>
  <path d="M132.276 34.0586L130.659 33.249L128.809 33.7442C128.809 33.7442 130.394 34.7502 132.276 34.0586Z" fill="#407BFF"/>
  <path opacity="0.3" d="M132.276 34.0586L130.659 33.249L128.809 33.7442C128.809 33.7442 130.394 34.7502 132.276 34.0586Z" fill="black"/>
  <path d="M131.81 31.3838C131.81 31.3838 130.641 32.4998 130.641 33.2491C129.472 33.6107 127.703 34.6141 127.703 34.6141C127.703 34.6141 127.933 33.0422 130.275 31.6719C130.732 31.4741 131.267 31.3736 131.81 31.3838Z" fill="#407BFF"/>
  <path d="M164.633 94.649L163.562 95.1415L162.977 94.9817L162.712 95.5345L156.252 98.5028C155.864 98.1792 155.61 97.7924 155.516 97.3815C155.516 97.3815 157.331 96.3755 157.413 95.3851C157.415 95.3481 157.433 95.3123 157.464 95.2817C157.495 95.2511 157.538 95.227 157.589 95.2122C158.325 95.0079 161.208 94.1643 162.264 93.1713C162.29 93.1465 162.325 93.1262 162.365 93.1122C162.405 93.0981 162.449 93.0908 162.494 93.0908C162.539 93.0908 162.584 93.0981 162.624 93.1122C162.664 93.1262 162.698 93.1465 162.724 93.1713C163.304 93.6957 163.942 94.1896 164.633 94.649Z" fill="#263238"/>
</svg>