<svg xmlns="http://www.w3.org/2000/svg" width="195" height="103" viewBox="0 0 195 103" fill="none">
  <path d="M175.299 95.7773H162.395V95.8471H175.299V95.7773Z" fill="#EBEBEB"/>
  <path d="M129.058 96.5361H125.672V96.6058H129.058V96.5361Z" fill="#EBEBEB"/>
  <path d="M162.005 93.1895H154.527V93.2592H162.005V93.1895Z" fill="#EBEBEB"/>
  <path d="M37.27 93.6582H20.4414V93.7279H37.27V93.6582Z" fill="#EBEBEB"/>
  <path d="M43.2086 93.6582H40.7422V93.7279H43.2086V93.6582Z" fill="#EBEBEB"/>
  <path d="M87.728 94.835H51.2266V94.9047H87.728V94.835Z" fill="#EBEBEB"/>
  <path d="M92.3433 78.8547H17.1116C16.5215 78.8547 15.9556 78.687 15.5384 78.3884C15.1211 78.0898 14.8867 77.6848 14.8867 77.2626V1.57821C14.8919 1.15837 15.1285 0.756969 15.5452 0.461391C15.9619 0.165813 16.5249 -1.60961e-05 17.1116 1.17182e-09H92.3433C92.9333 1.17182e-09 93.4992 0.167744 93.9165 0.466331C94.3337 0.764917 94.5681 1.16989 94.5681 1.59215V77.2626C94.5681 77.6848 94.3337 78.0898 93.9165 78.3884C93.4992 78.687 92.9333 78.8547 92.3433 78.8547ZM17.1116 0.0557673C16.5476 0.0565044 16.0071 0.217141 15.6084 0.502494C15.2096 0.787848 14.9852 1.17466 14.9841 1.57821V77.2626C14.9852 77.6661 15.2096 78.0529 15.6084 78.3383C16.0071 78.6236 16.5476 78.7843 17.1116 78.785H92.3433C92.9072 78.7843 93.4477 78.6236 93.8464 78.3383C94.2452 78.0529 94.4697 77.6661 94.4707 77.2626V1.57821C94.4697 1.17466 94.2452 0.787848 93.8464 0.502494C93.4477 0.217141 92.9072 0.0565044 92.3433 0.0557673H17.1116Z" fill="#EBEBEB"/>
  <path d="M176.628 78.8547H101.389C100.799 78.854 100.234 78.686 99.8168 78.3876C99.3998 78.0892 99.1651 77.6846 99.1641 77.2626V1.57821C99.1702 1.15859 99.4072 0.757618 99.8237 0.462196C100.24 0.166774 100.803 0.000710554 101.389 0H176.628C177.214 0.0014512 177.775 0.167929 178.19 0.463349C178.605 0.75877 178.84 1.15933 178.845 1.57821V77.2626C178.845 77.6839 178.612 78.088 178.197 78.3864C177.781 78.6849 177.217 78.8533 176.628 78.8547ZM101.389 0.0557673C100.825 0.0565044 100.284 0.217141 99.8857 0.502494C99.487 0.787848 99.2625 1.17466 99.2615 1.57821V77.2626C99.2625 77.6661 99.487 78.0529 99.8857 78.3383C100.284 78.6236 100.825 78.7843 101.389 78.785H176.628C177.192 78.7843 177.733 78.6236 178.132 78.3383C178.53 78.0529 178.755 77.6661 178.756 77.2626V1.57821C178.755 1.17466 178.53 0.787848 178.132 0.502494C177.733 0.217141 177.192 0.0565044 176.628 0.0557673H101.389Z" fill="#EBEBEB"/>
  <path d="M194.82 91.291H0V91.3607H194.82V91.291Z" fill="#EBEBEB"/>
  <path d="M96.8791 57.2595H95.7102V47.2493C95.7295 46.179 95.1746 45.1442 94.1599 44.3578C93.1451 43.5715 91.7477 43.0935 90.2553 43.0222C89.5013 42.9952 88.7472 43.0747 88.0362 43.2563C87.3251 43.4378 86.671 43.7179 86.1113 44.0804C85.5515 44.4429 85.097 44.8808 84.7738 45.369C84.4506 45.8573 84.265 46.3863 84.2275 46.9259C84.2245 46.9787 84.1934 47.0286 84.1405 47.0655C84.0875 47.1023 84.0169 47.1232 83.9431 47.1239H83.343C83.3048 47.1239 83.267 47.1184 83.2318 47.1079C83.1966 47.0974 83.1646 47.0819 83.1378 47.0624C83.1109 47.043 83.0898 47.0199 83.0755 46.9946C83.0613 46.9692 83.0542 46.9421 83.0547 46.9147C83.1327 45.6544 83.8788 44.4626 85.1412 43.582C86.4036 42.7014 88.0874 42.1981 89.85 42.1745C93.7153 42.1271 96.8636 44.4861 96.8636 47.2549L96.8791 57.2595Z" fill="#F0F0F0"/>
  <path d="M172.491 58.3525H164.184V91.2803H172.491V58.3525Z" fill="#E6E6E6"/>
  <path d="M166.452 58.3525H76.4453V91.2803H166.452V58.3525Z" fill="#F5F5F5"/>
  <path d="M166.452 65.208H76.4453V65.7657H98.5574V91.2791H99.3367V65.7657H120.845V91.2791H121.624V65.7657H143.136V91.2791H143.915V65.7657H166.452V65.208Z" fill="#E0E0E0"/>
  <path d="M96.3144 79.8475C96.1078 79.8475 95.9095 79.7888 95.7634 79.6842C95.6173 79.5796 95.5352 79.4378 95.5352 79.2898V76.7803C95.5352 76.6324 95.6173 76.4906 95.7634 76.386C95.9095 76.2814 96.1078 76.2227 96.3144 76.2227C96.5211 76.2227 96.7193 76.2814 96.8655 76.386C97.0116 76.4906 97.0937 76.6324 97.0937 76.7803V79.2898C97.0937 79.4378 97.0116 79.5796 96.8655 79.6842C96.7193 79.7888 96.5211 79.8475 96.3144 79.8475Z" fill="#E6E6E6"/>
  <path d="M101.576 79.8475C101.369 79.8475 101.171 79.7888 101.025 79.6842C100.879 79.5796 100.797 79.4378 100.797 79.2898V76.7803C100.797 76.6324 100.879 76.4906 101.025 76.386C101.171 76.2814 101.369 76.2227 101.576 76.2227C101.783 76.2227 101.981 76.2814 102.127 76.386C102.273 76.4906 102.355 76.6324 102.355 76.7803V79.2898C102.355 79.4378 102.273 79.5796 102.127 79.6842C101.981 79.7888 101.783 79.8475 101.576 79.8475Z" fill="#E6E6E6"/>
  <path d="M140.893 79.8475C140.686 79.8475 140.488 79.7888 140.342 79.6842C140.195 79.5796 140.113 79.4378 140.113 79.2898V76.7803C140.113 76.6324 140.195 76.4906 140.342 76.386C140.488 76.2814 140.686 76.2227 140.893 76.2227C141.099 76.2227 141.297 76.2814 141.444 76.386C141.59 76.4906 141.672 76.6324 141.672 76.7803V79.2898C141.672 79.4378 141.59 79.5796 141.444 79.6842C141.297 79.7888 141.099 79.8475 140.893 79.8475Z" fill="#E6E6E6"/>
  <path d="M146.154 79.8475C145.948 79.8475 145.749 79.7888 145.603 79.6842C145.457 79.5796 145.375 79.4378 145.375 79.2898V76.7803C145.375 76.6324 145.457 76.4906 145.603 76.386C145.749 76.2814 145.948 76.2227 146.154 76.2227C146.361 76.2227 146.559 76.2814 146.705 76.386C146.851 76.4906 146.934 76.6324 146.934 76.7803V79.2898C146.934 79.4378 146.851 79.5796 146.705 79.6842C146.559 79.7888 146.361 79.8475 146.154 79.8475Z" fill="#E6E6E6"/>
  <path d="M174.439 57.6299H164.113V59.0715H174.439V57.6299Z" fill="#E0E0E0"/>
  <path d="M167.23 57.6299H74.4961V59.0715H167.23V57.6299Z" fill="#EBEBEB"/>
  <path d="M107.627 57.7944H76.8887C76.6903 57.7944 76.5 57.738 76.3597 57.6376C76.2194 57.5372 76.1406 57.401 76.1406 57.259C76.1406 57.117 76.2194 56.9808 76.3597 56.8804C76.5 56.78 76.6903 56.7236 76.8887 56.7236H107.627C107.826 56.7236 108.016 56.78 108.156 56.8804C108.297 56.9808 108.376 57.117 108.376 57.259C108.376 57.401 108.297 57.5372 108.156 57.6376C108.016 57.738 107.826 57.7944 107.627 57.7944Z" fill="#E6E6E6"/>
  <path d="M99.8174 55.8232H98.6523V56.8828H99.8174V55.8232Z" fill="#E0E0E0"/>
  <path d="M100.319 56.0877H98.1523L98.5732 54.2334H99.8979L100.319 56.0877Z" fill="#F0F0F0"/>
  <path d="M93.9228 55.8232H92.7578V56.8828H93.9228V55.8232Z" fill="#E0E0E0"/>
  <path d="M94.4242 56.0877H92.2539L92.6786 54.2334H93.9995L94.4242 56.0877Z" fill="#F0F0F0"/>
  <path d="M118.636 4.85449H117.934V43.9947H118.636V4.85449Z" fill="#E0E0E0"/>
  <path d="M162.292 4.85449H161.59V43.9947H162.292V4.85449Z" fill="#E0E0E0"/>
  <path d="M165.039 7.31721H115.185L114.133 5.56055H166.091L165.039 7.31721Z" fill="#EBEBEB"/>
  <path d="M165.039 9.72835H115.185L114.133 7.97168H166.091L165.039 9.72835Z" fill="#EBEBEB"/>
  <path d="M165.039 12.1405H115.185L114.133 10.3838H166.091L165.039 12.1405Z" fill="#EBEBEB"/>
  <path d="M165.039 14.5526H115.185L114.133 12.7959H166.091L165.039 14.5526Z" fill="#EBEBEB"/>
  <path d="M165.039 16.9647H115.185L114.133 15.208H166.091L165.039 16.9647Z" fill="#EBEBEB"/>
  <path d="M165.039 19.3768H115.185L114.133 17.6201H166.091L165.039 19.3768Z" fill="#EBEBEB"/>
  <path d="M165.039 21.7879H115.185L114.133 20.0312H166.091L165.039 21.7879Z" fill="#EBEBEB"/>
  <path d="M165.039 24.1972H115.185L114.133 22.4434H166.091L165.039 24.1972Z" fill="#EBEBEB"/>
  <path d="M165.039 26.612H115.185L114.133 24.8525H166.091L165.039 26.612Z" fill="#EBEBEB"/>
  <path d="M165.039 29.0213H115.185L114.133 27.2646H166.091L165.039 29.0213Z" fill="#EBEBEB"/>
  <path d="M165.039 31.4334H115.185L114.133 29.6768H166.091L165.039 31.4334Z" fill="#EBEBEB"/>
  <path d="M165.039 33.8455H115.185L114.133 32.0889H166.091L165.039 33.8455Z" fill="#EBEBEB"/>
  <path d="M165.039 36.2567H115.185L114.133 34.5H166.091L165.039 36.2567Z" fill="#EBEBEB"/>
  <path d="M165.039 38.6697H115.185L114.133 36.9131H166.091L165.039 38.6697Z" fill="#EBEBEB"/>
  <path d="M165.039 41.0809H115.185L114.133 39.3242H166.091L165.039 41.0809Z" fill="#EBEBEB"/>
  <path d="M165.039 43.493H115.185L114.133 41.7363H166.091L165.039 43.493Z" fill="#EBEBEB"/>
  <path d="M166.091 43.4932H114.133V44.497H166.091V43.4932Z" fill="#E0E0E0"/>
  <path d="M167.902 3.36035H112.32V5.70257H167.902V3.36035Z" fill="#E0E0E0"/>
  <path d="M112.893 26.9384C112.743 26.9384 112.6 26.8958 112.494 26.8199C112.388 26.7441 112.328 26.6413 112.328 26.5341V12.8711C112.328 12.7639 112.388 12.661 112.494 12.5852C112.6 12.5094 112.743 12.4668 112.893 12.4668C113.043 12.4668 113.187 12.5094 113.293 12.5852C113.399 12.661 113.458 12.7639 113.458 12.8711V26.5341C113.458 26.6413 113.399 26.7441 113.293 26.8199C113.187 26.8958 113.043 26.9384 112.893 26.9384Z" fill="#E0E0E0"/>
  <path d="M113.097 5.2334H112.688V13.3475H113.097V5.2334Z" fill="#E0E0E0"/>
  <path d="M47.5455 73.3613H64.0078V71.5489H47.5455V73.3613Z" fill="#E0E0E0"/>
  <path d="M64.9805 91.2773H47.0571V73.5071C47.0571 73.2653 47.1913 73.0334 47.4302 72.8624C47.6692 72.6914 47.9933 72.5954 48.3312 72.5954H63.722C64.0599 72.5954 64.384 72.6914 64.6229 72.8624C64.8619 73.0334 64.9961 73.2653 64.9961 73.5071V91.2773H64.9805Z" fill="#F0F0F0"/>
  <path d="M48.4636 72.1074H63.5739C64.3507 72.1074 64.9805 71.6567 64.9805 71.1008V70.3257C64.9805 69.7697 64.3507 69.3191 63.5739 69.3191H48.4636C47.6868 69.3191 47.057 69.7697 47.057 70.3257V71.1008C47.057 71.6567 47.6868 72.1074 48.4636 72.1074Z" fill="#F0F0F0"/>
  <path d="M59.7188 91.2799H68.096V90.4434L59.7188 89.8857V91.2799Z" fill="#E0E0E0"/>
  <path d="M159.018 46.5996H151.767C151.055 46.6003 150.373 46.803 149.869 47.1631C149.366 47.5233 149.083 48.0115 149.082 48.5208V49.1621H150.528V48.518C150.527 48.4013 150.559 48.2857 150.621 48.1778C150.683 48.0699 150.774 47.9718 150.889 47.8892C151.004 47.8066 151.141 47.741 151.292 47.6963C151.442 47.6515 151.604 47.6285 151.767 47.6285H159.018C159.347 47.6293 159.662 47.7233 159.894 47.89C160.127 48.0568 160.257 48.2826 160.257 48.518V49.1593H161.702V48.518C161.701 48.009 161.418 47.521 160.915 47.1613C160.411 46.8016 159.729 46.5996 159.018 46.5996Z" fill="#E0E0E0"/>
  <path d="M167.606 50.5641V56.3779C167.606 56.7476 167.4 57.1022 167.035 57.3637C166.67 57.6252 166.174 57.7721 165.658 57.7721H148.015C147.498 57.7721 147.002 57.6252 146.637 57.3637C146.272 57.1022 146.066 56.7476 146.066 56.3779V50.5641C146.066 50.1944 146.272 49.8398 146.637 49.5783C147.002 49.3169 147.498 49.17 148.015 49.17H165.642C165.899 49.1685 166.154 49.2035 166.392 49.2729C166.63 49.3423 166.847 49.4447 167.03 49.5743C167.212 49.704 167.357 49.8581 167.456 50.028C167.555 50.1979 167.606 50.3801 167.606 50.5641Z" fill="#E6E6E6"/>
  <path d="M164.86 50.5641V56.3779C164.86 56.7476 164.654 57.1022 164.289 57.3637C163.924 57.6252 163.428 57.7721 162.911 57.7721H145.269C144.752 57.7721 144.256 57.6252 143.891 57.3637C143.526 57.1022 143.32 56.7476 143.32 56.3779V50.5641C143.32 50.1944 143.526 49.8398 143.891 49.5783C144.256 49.3169 144.752 49.17 145.269 49.17H162.896C163.153 49.1685 163.408 49.2035 163.646 49.2729C163.884 49.3423 164.101 49.4447 164.284 49.5743C164.466 49.704 164.611 49.8581 164.71 50.028C164.809 50.1979 164.86 50.3801 164.86 50.5641Z" fill="#F5F5F5"/>
  <path d="M158.75 50.1602H149.551V56.7435H158.75V50.1602Z" fill="white"/>
  <path d="M154.937 51.6406H153.383V55.469H154.937V51.6406Z" fill="#E0E0E0"/>
  <path d="M151.484 52.9958V54.1084H156.834V52.9958H151.484Z" fill="#E0E0E0"/>
  <path d="M95.5317 102.81C137.255 102.81 171.079 101.397 171.079 99.6535C171.079 97.9102 137.255 96.4971 95.5317 96.4971C53.808 96.4971 19.9844 97.9102 19.9844 99.6535C19.9844 101.397 53.808 102.81 95.5317 102.81Z" fill="#F5F5F5"/>
  <path d="M135.115 50.778C135.372 50.7557 142.822 51.2827 143.297 56.996L142.023 60.9555C136.001 59.3551 129.362 59.4188 123.402 61.1339L123.312 61.1618L123.831 56.6391C123.831 56.6391 125.74 51.5643 135.115 50.778Z" fill="#263238"/>
  <path d="M119.473 78.3722L120.969 78.4642C121.515 71.6651 122.589 64.893 124.183 58.1789C124.471 57.094 125.056 56.0606 125.905 55.1387C126.755 54.2168 127.851 53.4248 129.132 52.8086C129.673 52.5293 130.262 52.3015 130.885 52.131C132.03 51.7799 133.259 51.5906 134.505 51.5733C135.011 51.5734 135.516 51.5985 136.017 51.6486C137.147 51.7728 138.226 52.0726 139.177 52.5269C139.623 52.7711 140.049 53.0327 140.455 53.3105C140.669 53.469 140.868 53.6376 141.051 53.8152C141.708 54.4898 142.161 55.2551 142.381 56.0623C142.601 56.8694 142.583 57.7005 142.329 58.5024C140.743 64.64 139.636 70.836 139.013 77.0617L140.509 77.1342C141.121 70.9575 142.213 64.8099 143.778 58.7199C144.077 57.771 144.096 56.7879 143.832 55.8337C143.568 54.8795 143.028 53.9754 142.247 53.1794C141.477 52.4031 140.477 51.7577 139.319 51.2893C138.16 50.8208 136.872 50.5408 135.545 50.4691C129.701 50.1903 123.618 53.5893 122.718 57.9503C121.111 64.7096 120.028 71.5273 119.473 78.3722Z" fill="#263238"/>
  <path opacity="0.3" d="M119.473 78.3722L120.969 78.4642C121.515 71.6651 122.589 64.893 124.183 58.1789C124.471 57.094 125.056 56.0606 125.905 55.1387C126.755 54.2168 127.851 53.4248 129.132 52.8086C129.673 52.5293 130.262 52.3015 130.885 52.131C132.03 51.7799 133.259 51.5906 134.505 51.5733C135.011 51.5734 135.516 51.5985 136.017 51.6486C137.147 51.7728 138.226 52.0726 139.177 52.5269C139.623 52.7711 140.049 53.0327 140.455 53.3105C140.669 53.469 140.868 53.6376 141.051 53.8152C141.708 54.4898 142.161 55.2551 142.381 56.0623C142.601 56.8694 142.583 57.7005 142.329 58.5024C140.743 64.64 139.636 70.836 139.013 77.0617L140.509 77.1342C141.121 70.9575 142.213 64.8099 143.778 58.7199C144.077 57.771 144.096 56.7879 143.832 55.8337C143.568 54.8795 143.028 53.9754 142.247 53.1794C141.477 52.4031 140.477 51.7577 139.319 51.2893C138.16 50.8208 136.872 50.5408 135.545 50.4691C129.701 50.1903 123.618 53.5893 122.718 57.9503C121.111 64.7096 120.028 71.5273 119.473 78.3722Z" fill="white"/>
  <path d="M140.535 77.7246H106.114V77.153C106.114 76.6109 106.415 76.0911 106.951 75.7078C107.486 75.3245 108.213 75.1091 108.97 75.1091H137.675C138.433 75.1091 139.159 75.3245 139.695 75.7078C140.23 76.0911 140.531 76.6109 140.531 77.153V77.7246H140.535Z" fill="#263238"/>
  <path d="M139.37 99.2425H141.197L139.701 77.7275H137.371L139.37 99.2425Z" fill="#263238"/>
  <path opacity="0.3" d="M139.37 99.2425H141.197L139.701 77.7275H137.371L139.37 99.2425Z" fill="white"/>
  <path d="M127.149 99.2425H128.976L127.978 77.7275H125.652L127.149 99.2425Z" fill="#263238"/>
  <path opacity="0.3" d="M127.149 99.2425H128.976L127.978 77.7275H125.652L127.149 99.2425Z" fill="white"/>
  <path d="M117.672 99.2425H119.499L120.996 77.7275H118.669L117.672 99.2425Z" fill="#263238"/>
  <path opacity="0.3" d="M117.672 99.2425H119.499L120.996 77.7275H118.669L117.672 99.2425Z" fill="white"/>
  <path d="M105.449 99.2425H107.281L109.275 77.7275H106.945L105.449 99.2425Z" fill="#263238"/>
  <path opacity="0.3" d="M105.449 99.2425H107.281L109.275 77.7275H106.945L105.449 99.2425Z" fill="white"/>
  <path d="M104.614 78.6787H125.066V76.7743H104.614V78.6787Z" fill="#263238"/>
  <path opacity="0.7" d="M104.614 78.6787H125.066V76.7743H104.614V78.6787Z" fill="white"/>
  <path d="M125.066 78.6787H142.035V76.7743H125.066V78.6787Z" fill="#263238"/>
  <path opacity="0.4" d="M125.066 78.6787H142.035V76.7743H125.066V78.6787Z" fill="white"/>
  <path d="M118.917 47.3649C115.2 47.8891 107.836 50.1532 107.789 50.0305C107.789 50.0305 101.59 48.9793 99.0414 46.9633C99.0414 46.9633 96.6062 46.7486 95.332 46.5674C96.2555 48.1261 98.0595 50.0166 100.062 50.9172C102.607 52.0604 103.3 52.4062 105.817 53.0921C108.966 53.951 113.785 53.0392 116.906 52.1246C118.056 51.7872 119.244 51.3578 119.911 50.6105C120.577 49.8632 119.949 47.864 118.917 47.3649Z" fill="#407BFF"/>
  <path opacity="0.7" d="M118.917 47.3649C115.2 47.8891 107.836 50.1532 107.789 50.0305C107.789 50.0305 101.59 48.9793 99.0414 46.9633C99.0414 46.9633 96.6062 46.7486 95.332 46.5674C96.2555 48.1261 98.0595 50.0166 100.062 50.9172C102.607 52.0604 103.3 52.4062 105.817 53.0921C108.966 53.951 113.785 53.0392 116.906 52.1246C118.056 51.7872 119.244 51.3578 119.911 50.6105C120.577 49.8632 119.949 47.864 118.917 47.3649Z" fill="white"/>
  <path d="M109.045 47.2349H99.7832C98.4896 43.8889 101.081 40.5233 99.7832 37.1689H109.045C110.342 40.5233 107.747 43.8805 109.045 47.2349Z" fill="#407BFF"/>
  <g opacity="0.7">
    <path d="M109.045 47.2349H99.7832C98.4896 43.8889 101.081 40.5233 99.7832 37.1689H109.045C110.342 40.5233 107.747 43.8805 109.045 47.2349Z" fill="white"/>
  </g>
  <path d="M101.231 45.4497L99.7461 45.96C99.5813 46.3075 99.2678 46.609 98.8499 46.8216C98.4334 46.9898 97.9916 47.1235 97.5329 47.2204C97.2044 47.2943 96.8531 47.2986 96.5212 47.2328C96.1893 47.167 95.8912 47.0339 95.6627 46.8495C95.5631 46.7777 95.4959 46.6862 95.4695 46.5869C95.4431 46.4875 95.4588 46.3848 95.5146 46.2918L96.9368 44.3902C97.017 44.2831 97.1309 44.1908 97.2696 44.1206C97.4082 44.0504 97.5677 44.0043 97.7356 43.9859L100.073 43.721C100.219 43.7034 100.369 43.7146 100.506 43.7534C100.643 43.7923 100.763 43.8572 100.853 43.9412L101.538 44.5854C101.609 44.6541 101.657 44.7332 101.68 44.8169C101.703 44.9007 101.699 44.987 101.67 45.0696C101.641 45.1523 101.586 45.2292 101.51 45.295C101.434 45.3607 101.339 45.4136 101.231 45.4497Z" fill="#CE7A63"/>
  <path d="M132.406 63.1029L134.6 68.8302L122.552 70.6789L115.277 67.9212L117.311 62.9941L132.406 63.1029Z" fill="#407BFF"/>
  <path opacity="0.1" d="M132.406 63.1029L134.6 68.8302L122.552 70.6789L115.277 67.9212L117.311 62.9941L132.406 63.1029Z" fill="black"/>
  <path d="M116.14 50.6593C115.921 52.127 115.912 53.607 116.113 55.076C116.226 57.0502 116.826 59.1247 117.578 62.3258C119.086 62.9587 126.727 62.6966 131.605 62.2449C131.309 59.4566 131.796 56.2444 134.446 49.9455C135.061 48.4844 133.69 47.0818 131.5 46.934C130.915 46.8922 130.292 46.8588 129.657 46.8392C127.425 46.7333 125.187 46.7333 122.955 46.8392C122.242 46.8866 121.471 46.948 120.75 47.0121C118.151 47.2491 116.619 48.6823 116.14 50.6593Z" fill="#407BFF"/>
  <path d="M117.31 62.9955C122.238 63.3841 127.211 63.3766 132.136 62.9732C132.182 62.966 132.225 62.9523 132.263 62.9331C132.301 62.9139 132.334 62.8895 132.359 62.8612C132.384 62.833 132.401 62.8015 132.409 62.7686C132.417 62.7356 132.415 62.7019 132.405 62.6693V62.6358C132.284 62.4323 132.16 62.2287 132.047 62.0252C132.022 61.9803 131.977 61.9425 131.919 61.9173C131.862 61.8922 131.794 61.8811 131.727 61.8858C126.99 62.2566 122.211 62.2566 117.474 61.8858C117.433 61.8818 117.391 61.8838 117.351 61.8915C117.311 61.8992 117.273 61.9125 117.24 61.9306C117.207 61.9488 117.18 61.9714 117.159 61.9972C117.138 62.023 117.125 62.0514 117.12 62.0809C117.121 62.0864 117.121 62.0922 117.12 62.0977C117.088 62.3096 117.061 62.5187 117.034 62.7306C117.028 62.7618 117.032 62.7934 117.043 62.8236C117.055 62.8539 117.075 62.8822 117.102 62.9068C117.13 62.9315 117.163 62.952 117.202 62.9672C117.24 62.9824 117.282 62.9921 117.326 62.9955H117.31Z" fill="#407BFF"/>
  <path d="M122.778 46.752C119.135 50.098 118.882 58.3682 119.797 74.6132C119.879 76.0297 117.982 75.9265 116.123 75.6533C113.357 75.2434 112.258 75.3912 112.258 75.3912C112.258 75.3912 116.672 67.0958 115.956 59.6565C115.239 52.2171 115.737 49.5877 117.424 48.2242C119.112 46.8607 122.778 46.752 122.778 46.752Z" fill="#407BFF"/>
  <path opacity="0.7" d="M122.778 46.752C119.135 50.098 118.882 58.3683 119.797 74.6132C119.875 76.0297 118.075 75.8763 116.119 75.6533C114.845 75.4871 113.553 75.3994 112.258 75.3912C112.258 75.3912 116.672 67.0958 115.956 59.6565C115.239 52.2171 115.737 49.5877 117.424 48.2242C119.112 46.8607 122.778 46.752 122.778 46.752Z" fill="white"/>
  <path d="M129.192 41.4346C128.612 42.971 127.895 45.8067 129.298 46.8384C129.298 46.8384 127.447 47.9008 123.523 48.9241C122.354 48.7094 122.6 46.8384 122.6 46.8384C125.05 46.4257 125.121 45.1654 124.824 43.9525L129.192 41.4346Z" fill="#CE7A63"/>
  <path opacity="0.2" d="M127.411 42.4609L124.82 43.9499C124.893 44.2258 124.932 44.5057 124.937 44.7864C125.868 44.6916 127.205 43.9722 127.376 43.2807C127.454 43.0109 127.466 42.7336 127.411 42.4609Z" fill="black"/>
  <path d="M125.171 35.7888C122.62 38.2568 121.519 41.3412 122.105 44.3825C120.874 42.7095 119.767 43.6212 119.677 41.7363C119.638 40.7883 120.328 36.9431 120.916 36.0927C121.505 35.2422 122.709 34.5563 124.034 34.5953C124.512 34.5974 124.971 34.7312 125.315 34.969C125.639 35.2171 125.464 35.5183 125.171 35.7888Z" fill="#263238"/>
  <path d="M131.036 38.3371C130.385 40.8298 130.178 41.895 128.18 43.0773C125.187 44.8674 121.08 43.9138 120.675 41.3847C120.321 39.0955 121.454 35.4037 125.043 34.5811C125.807 34.3815 126.631 34.3322 127.43 34.4385C128.23 34.5448 128.974 34.8027 129.587 35.1854C130.199 35.568 130.657 36.0613 130.911 36.6138C131.166 37.1662 131.209 37.7575 131.036 38.3259V38.3371Z" fill="#CE7A63"/>
  <path d="M124.986 38.9077C124.905 39.1113 124.682 39.2535 124.503 39.2256C124.323 39.1977 124.234 39.0081 124.316 38.8046C124.398 38.601 124.62 38.456 124.803 38.4839C124.986 38.5118 125.072 38.7014 124.986 38.9077Z" fill="#263238"/>
  <path d="M122.028 38.3987C121.947 38.6023 121.728 38.7445 121.545 38.7166C121.362 38.6887 121.276 38.4963 121.362 38.2955C121.447 38.0948 121.662 37.947 121.845 37.9777C122.028 38.0083 122.114 38.2007 122.028 38.3987Z" fill="#263238"/>
  <path d="M121.921 38.0001L121.297 37.752C121.297 37.752 121.492 38.2009 121.921 38.0001Z" fill="#263238"/>
  <path d="M122.855 38.8867C122.412 39.3137 121.895 39.6987 121.316 40.0327C121.432 40.131 121.579 40.2088 121.743 40.2601C121.908 40.3113 122.088 40.3347 122.267 40.3283L122.855 38.8867Z" fill="#BA4D3C"/>
  <path d="M123.583 41.3365C123.42 41.331 123.259 41.3142 123.1 41.2863C123.09 41.2851 123.079 41.2822 123.07 41.2779C123.061 41.2736 123.053 41.268 123.047 41.2614C123.042 41.2548 123.038 41.2474 123.036 41.2397C123.034 41.232 123.035 41.2242 123.038 41.2166C123.045 41.2008 123.06 41.1875 123.08 41.1793C123.101 41.171 123.124 41.1684 123.147 41.172C123.509 41.2291 123.884 41.2275 124.245 41.1671C124.605 41.1068 124.943 40.9894 125.232 40.8235C125.248 40.8121 125.269 40.8057 125.292 40.8057C125.315 40.8057 125.336 40.8121 125.352 40.8235C125.367 40.8353 125.376 40.8507 125.376 40.8667C125.376 40.8827 125.367 40.8981 125.352 40.9099C124.857 41.2035 124.226 41.3555 123.583 41.3365Z" fill="#263238"/>
  <path d="M122.539 34.9155C123.63 33.842 126.595 33.5492 128.333 33.8448C134.489 34.896 131.664 38.5571 135.23 40.6149C134.193 41.945 133.196 41.6634 131.988 42.2629C131.283 42.6142 129.412 43.71 128.567 43.657C128.61 42.4106 129.373 40.9774 129.019 39.7533C128.71 38.5352 127.959 37.3967 126.841 36.4519C125.707 35.5597 124.176 34.8542 122.539 34.9155Z" fill="#263238"/>
  <path opacity="0.2" d="M122.539 34.9155C123.63 33.842 126.595 33.5492 128.333 33.8448C134.489 34.896 131.664 38.5571 135.23 40.6149C134.193 41.945 133.196 41.6634 131.988 42.2629C131.283 42.6142 129.412 43.71 128.567 43.657C128.61 42.4106 129.373 40.9774 129.019 39.7533C128.71 38.5352 127.959 37.3967 126.841 36.4519C125.707 35.5597 124.176 34.8542 122.539 34.9155Z" fill="black"/>
  <path d="M122.539 34.9155C123.63 33.842 126.595 33.5492 128.333 33.8448C134.489 34.896 131.664 38.5571 135.23 40.6149C134.193 41.945 133.196 41.6634 131.988 42.2629C131.283 42.6142 129.412 43.71 128.567 43.657C128.61 42.4106 129.373 40.9774 129.019 39.7533C128.71 38.5352 127.959 37.3967 126.841 36.4519C125.707 35.5597 124.176 34.8542 122.539 34.9155Z" fill="#263238"/>
  <path opacity="0.1" d="M122.539 34.9155C123.63 33.842 126.595 33.5492 128.333 33.8448C134.489 34.896 131.664 38.5571 135.23 40.6149C134.193 41.945 133.196 41.6634 131.988 42.2629C131.283 42.6142 129.412 43.71 128.567 43.657C128.61 42.4106 129.373 40.9774 129.019 39.7533C128.71 38.5352 127.959 37.3967 126.841 36.4519C125.707 35.5597 124.176 34.8542 122.539 34.9155Z" fill="black"/>
  <path d="M130.829 40.8609C130.651 41.0672 130.413 41.2443 130.133 41.3808C129.852 41.5172 129.535 41.6099 129.201 41.6528C128.371 41.7364 128.129 41.0449 128.515 40.4092C128.873 39.8515 129.703 39.1042 130.463 39.3161C131.223 39.5281 131.309 40.3172 130.829 40.8609Z" fill="#CE7A63"/>
  <path d="M126.315 38.094C126.294 38.0893 126.275 38.081 126.259 38.0699C126.244 38.0587 126.232 38.045 126.225 38.0299C126.154 37.888 126.034 37.7611 125.877 37.6604C125.72 37.5597 125.53 37.4883 125.325 37.4527C125.285 37.4486 125.248 37.433 125.223 37.4095C125.198 37.386 125.187 37.3564 125.193 37.3272C125.191 37.3227 125.191 37.3179 125.193 37.3133C125.203 37.2804 125.231 37.2516 125.27 37.2329C125.309 37.2143 125.357 37.2071 125.403 37.2129C125.664 37.2541 125.906 37.342 126.106 37.4683C126.307 37.5946 126.459 37.7552 126.549 37.9351C126.564 37.9662 126.561 38.0002 126.542 38.03C126.522 38.0597 126.487 38.0827 126.444 38.094C126.402 38.1057 126.356 38.1057 126.315 38.094Z" fill="#263238"/>
  <path d="M121.371 37.1913C121.35 37.191 121.329 37.1876 121.309 37.1813C121.29 37.1751 121.272 37.1661 121.258 37.1549C121.243 37.1437 121.232 37.1306 121.225 37.1162C121.217 37.1019 121.214 37.0867 121.215 37.0714C121.216 37.0537 121.223 37.0364 121.235 37.0209C121.248 37.0054 121.265 36.9921 121.285 36.9822C121.493 36.8468 121.742 36.7477 122.012 36.6925C122.283 36.6374 122.567 36.6278 122.844 36.6643C122.885 36.6728 122.92 36.6923 122.942 36.7188C122.964 36.7452 122.97 36.7766 122.961 36.8065C122.945 36.8378 122.913 36.8639 122.872 36.8798C122.832 36.8957 122.784 36.9004 122.739 36.893C122.52 36.8667 122.297 36.8765 122.085 36.9214C121.873 36.9663 121.678 37.0453 121.515 37.1523C121.496 37.1658 121.474 37.1762 121.449 37.1829C121.424 37.1897 121.397 37.1925 121.371 37.1913Z" fill="#263238"/>
  <path d="M124.882 38.5099L124.258 38.2617C124.258 38.2617 124.453 38.6995 124.882 38.5099Z" fill="#263238"/>
  <path d="M123.072 34.8101C122.807 35.0159 122.596 35.2539 122.449 35.5128C122.375 35.6421 122.343 35.7814 122.354 35.9207C122.364 36.06 122.418 36.1959 122.511 36.3186C122.707 36.522 122.988 36.6762 123.314 36.7592C123.632 36.8588 123.966 36.9327 124.307 36.9795C124.127 36.8724 123.995 36.7304 123.926 36.5705C123.857 36.4106 123.854 36.2398 123.918 36.0788C123.956 36.2368 124.041 36.3871 124.167 36.5194C124.293 36.6517 124.458 36.763 124.65 36.8456C125.001 36.9934 125.394 37.0743 125.757 37.2053C126.898 37.6152 129.026 39.7622 127.452 44.2264C128.843 43.8583 130.795 40.3534 130.471 39.3161C130.148 38.2788 130.082 35.6132 126.376 34.6818C125.375 34.4337 124.089 34.6038 123.072 34.8101Z" fill="#263238"/>
  <path d="M105.076 96.8622L101.729 97.0936L99.7461 90.3458L103.693 90.0195L105.076 96.8622Z" fill="#CE7A63"/>
  <path d="M100.344 96.535C100.654 96.309 101.071 96.1738 101.513 96.1558L105.101 95.9774C105.182 95.9701 105.264 95.9855 105.329 96.0203C105.394 96.0551 105.439 96.1067 105.452 96.1642L106.146 98.5482C106.185 98.6791 106.151 98.8158 106.05 98.9286C105.949 99.0414 105.79 99.1212 105.608 99.1505H105.592C104.236 99.4015 103.383 99.1979 101.306 99.3011C100.028 99.3652 97.3124 99.7277 95.5707 99.5214C93.829 99.315 94.0511 98.0798 94.7914 98.0547C97.4643 97.9933 99.6541 97.0341 100.344 96.535Z" fill="#263238"/>
  <g opacity="0.2">
    <path d="M99.7422 90.3487L100.896 94.2719L104.445 93.7421L103.693 90.0225L99.7422 90.3487Z" fill="black"/>
  </g>
  <path d="M120.721 76.3562C120.588 76.3562 120.452 76.3562 120.312 76.3562C120.084 76.3538 119.856 76.3417 119.63 76.3199L101.706 75.634C104.601 77.5328 105.077 92.7489 105.077 92.7489L104.219 92.88L100.323 93.4739L99.61 93.5826C99.61 93.5826 97.9852 88.5998 96.1033 82.8837C95.1526 79.9894 93.9213 76.9975 93.3758 74.1255C93.2275 73.362 93.1416 72.5929 93.1186 71.8223C93.1186 71.5853 93.1186 71.3511 93.1186 71.1168C93.1167 71.0927 93.1167 71.0685 93.1186 71.0443C93.1186 70.944 93.1186 70.8492 93.1498 70.7655C93.2401 70.3016 93.5101 69.865 93.9291 69.5052L94.0616 69.3964C94.1053 69.36 94.1522 69.3255 94.2018 69.2933C94.2958 69.2237 94.3947 69.1577 94.498 69.0953C94.6071 69.0311 94.7162 68.967 94.8331 68.9057L95.1331 68.7579C95.2578 68.7021 95.3825 68.6491 95.5227 68.5962C95.5882 68.5683 95.6558 68.5432 95.7253 68.5209C95.9279 68.4428 96.1384 68.3703 96.3604 68.3034L96.5514 68.2448L96.8124 68.1751C96.8904 68.15 96.9683 68.1305 97.0462 68.111C97.2839 68.0496 97.5294 67.9911 97.7826 67.9437L97.9112 67.9158H97.9463C104.746 66.5384 116.31 67.6007 116.31 67.6007C116.31 67.6007 119.365 65.9835 122.61 65.6768L123.07 65.713L124.516 65.8273C124.537 65.826 124.557 65.826 124.578 65.8273C129.359 71.786 126.394 76.3115 120.721 76.3562Z" fill="#407BFF"/>
  <g opacity="0.1">
    <path d="M120.721 76.3562C120.588 76.3562 120.452 76.3562 120.312 76.3562C120.084 76.3538 119.856 76.3417 119.63 76.3199L101.706 75.634C104.601 77.5328 105.077 92.7489 105.077 92.7489L104.219 92.88L100.323 93.4739L99.61 93.5826C99.61 93.5826 97.9852 88.5998 96.1033 82.8837C95.1526 79.9894 93.9213 76.9975 93.3758 74.1255C93.2275 73.362 93.1416 72.5929 93.1186 71.8223C93.1186 71.5853 93.1186 71.3511 93.1186 71.1168C93.1167 71.0927 93.1167 71.0685 93.1186 71.0443C93.1186 70.944 93.1186 70.8492 93.1498 70.7655C93.2401 70.3016 93.5101 69.865 93.9291 69.5052L94.0616 69.3964C94.1053 69.36 94.1522 69.3255 94.2018 69.2933C94.2958 69.2237 94.3947 69.1577 94.498 69.0953C94.6071 69.0311 94.7162 68.967 94.8331 68.9057L95.1331 68.7579C95.2578 68.7021 95.3825 68.6491 95.5227 68.5962C95.5882 68.5683 95.6558 68.5432 95.7253 68.5209C95.9279 68.4428 96.1384 68.3703 96.3604 68.3034L96.5514 68.2448L96.8124 68.1751C96.8904 68.15 96.9683 68.1305 97.0462 68.111C97.2839 68.0496 97.5294 67.9911 97.7826 67.9437L97.9112 67.9158H97.9463C104.746 66.5384 116.31 67.6007 116.31 67.6007C116.31 67.6007 119.365 65.9835 122.61 65.6768L123.07 65.713L124.516 65.8273C124.537 65.826 124.557 65.826 124.578 65.8273C129.359 71.786 126.394 76.3115 120.721 76.3562Z" fill="black"/>
  </g>
  <path d="M82.9167 85.4042L81.9582 86.4554L79.823 88.7976L76.25 89.0653L78.958 84.9943L80.7971 82.2227L82.9167 85.4042Z" fill="#CE7A63"/>
  <path d="M77.1495 87.3117L80.1068 88.6334C80.1732 88.6599 80.2237 88.703 80.2488 88.7543C80.2739 88.8057 80.2719 88.8618 80.2432 88.9122L78.7938 91.3325C78.7529 91.3904 78.6964 91.4419 78.6277 91.4842C78.5589 91.5264 78.4792 91.5586 78.3931 91.5788C78.3069 91.599 78.2161 91.6068 78.1257 91.6019C78.0354 91.597 77.9472 91.5793 77.8664 91.55H77.8469C76.4676 90.9505 75.8481 90.6131 74.0986 89.877L69.7463 88.0701C68.2579 87.4455 69.0605 86.3692 69.7658 86.5337C72.8829 87.2754 74.9987 87.3702 76.3897 87.2141C76.6511 87.1811 76.9204 87.2156 77.1495 87.3117Z" fill="#263238"/>
  <g opacity="0.2">
    <path d="M82.9158 85.4051L81.9612 86.4564H81.9573L78.957 84.9953L80.7961 82.2236L82.9158 85.4051Z" fill="black"/>
  </g>
  <path d="M121.876 76.5913C121.481 76.5575 121.09 76.5034 120.707 76.4296C120.574 76.4073 120.438 76.3794 120.298 76.3488C117.009 75.6712 112.275 73.8169 107.868 71.9906C103.808 70.3175 100.04 68.6445 97.9518 67.9642H97.9167L97.7881 67.9921C97.5348 68.0422 97.2894 68.1008 97.0517 68.1621C96.972 68.1789 96.8939 68.1994 96.8179 68.2235L96.5568 68.2932L96.3659 68.3518C96.1438 68.4187 95.9334 68.494 95.7308 68.5692C95.6607 68.5916 95.5944 68.6194 95.5282 68.6445C95.3957 68.6975 95.271 68.7505 95.1386 68.8063L94.8385 68.9568C94.7216 69.0182 94.6125 69.0795 94.5034 69.1436C94.4001 69.206 94.3013 69.2721 94.2073 69.3416C94.1567 69.3751 94.1099 69.4113 94.067 69.4448L93.9346 69.5535C93.5155 69.9134 93.2456 70.3499 93.1553 70.8139C93.1553 70.9087 93.128 71.0063 93.1241 71.0927C93.1241 71.3269 93.1241 71.5612 93.1241 71.7982C93.1433 72.5733 93.2252 73.347 93.3696 74.1153V74.1738C88.4757 80.4895 83.387 86.2168 83.387 86.2168L82.522 85.7901L79.4049 84.2621L78.8672 83.9833C78.8672 83.9833 84.2988 74.8765 88.0354 66.7624C88.7188 65.2703 90.0474 63.9724 91.8292 63.0561C93.611 62.1399 95.7538 61.6528 97.9479 61.6653C107.171 61.7238 119.281 65.371 119.281 65.371L122.604 65.6247L123.064 65.661L124.51 65.7753C124.53 65.774 124.551 65.774 124.572 65.7753C125.351 65.8367 126.224 65.8813 127.07 65.9259C128.004 65.9741 128.894 66.2289 129.617 66.655C130.34 67.0811 130.861 67.6574 131.106 68.3044C133.584 74.7678 127.689 77.1016 121.876 76.5913Z" fill="#407BFF"/>
  <path d="M121.876 76.5913C121.481 76.5575 121.09 76.5034 120.707 76.4296C120.574 76.4073 120.438 76.3794 120.298 76.3488C117.009 75.6712 112.275 73.8169 107.868 71.9906C103.808 70.3175 100.04 68.6445 97.9518 67.9642H97.9167L97.7881 67.9921C97.5348 68.0422 97.2894 68.1008 97.0517 68.1621C96.972 68.1789 96.8939 68.1994 96.8179 68.2235L96.5568 68.2932L96.3659 68.3518C96.1438 68.4187 95.9334 68.494 95.7308 68.5692C95.6607 68.5916 95.5944 68.6194 95.5282 68.6445C95.3957 68.6975 95.271 68.7505 95.1386 68.8063L94.8385 68.9568C94.7216 69.0182 94.6125 69.0795 94.5034 69.1436C94.4001 69.206 94.3013 69.2721 94.2073 69.3416C94.1567 69.3751 94.1099 69.4113 94.067 69.4448L93.9346 69.5535C93.5155 69.9134 93.2456 70.3499 93.1553 70.8139C93.1553 70.9087 93.128 71.0063 93.1241 71.0927C93.1241 71.3269 93.1241 71.5612 93.1241 71.7982C93.1433 72.5733 93.2252 73.347 93.3696 74.1153V74.1738C88.4757 80.4895 83.387 86.2168 83.387 86.2168L82.522 85.7901L79.4049 84.2621L78.8672 83.9833C78.8672 83.9833 84.2988 74.8765 88.0354 66.7624C88.7188 65.2703 90.0474 63.9724 91.8292 63.0561C93.611 62.1399 95.7538 61.6528 97.9479 61.6653C107.171 61.7238 119.281 65.371 119.281 65.371L122.604 65.6247L123.064 65.661L124.51 65.7753C124.53 65.774 124.551 65.774 124.572 65.7753C125.351 65.8367 126.224 65.8813 127.07 65.9259C128.004 65.9741 128.894 66.2289 129.617 66.655C130.34 67.0811 130.861 67.6574 131.106 68.3044C133.584 74.7678 127.689 77.1016 121.876 76.5913Z" fill="#407BFF"/>
  <path d="M129.452 46.5987C129.452 46.5987 126.915 48.2103 126.159 52.1001C124.952 58.3711 125.583 70.4614 126.035 77.3682C126.051 77.6039 126.145 77.8335 126.309 78.0383C126.472 78.2432 126.702 78.4174 126.977 78.5468C127.253 78.6762 127.568 78.7571 127.896 78.7829C128.223 78.8088 128.555 78.7788 128.864 78.6954C131.875 77.8924 136.797 78.5226 138.994 77.1591C139.154 75.0789 134.096 64.4497 134.587 58.9483C135.078 53.4469 136.037 48.6537 135.043 47.6164C134.05 46.5791 129.452 46.5987 129.452 46.5987Z" fill="#407BFF"/>
  <path opacity="0.7" d="M129.45 46.5987C129.45 46.5987 126.913 48.2103 126.157 52.1001C124.949 58.3711 125.647 70.4614 126.103 77.3682C126.118 77.6038 126.212 77.8334 126.375 78.0383C126.538 78.2431 126.767 78.4174 127.043 78.5469C127.318 78.6763 127.633 78.7573 127.96 78.7831C128.288 78.8089 128.619 78.7789 128.928 78.6954C131.939 77.8924 136.794 78.5226 139.004 77.1591C139.163 75.0789 134.106 64.4497 134.597 58.9483C135.088 53.4469 136.046 48.6537 135.053 47.6164C134.059 46.5791 129.45 46.5987 129.45 46.5987Z" fill="white"/>
  <path d="M129.336 54.8523C129.319 54.8516 129.303 54.8485 129.287 54.8432C129.272 54.8379 129.259 54.8305 129.247 54.8214C129.236 54.8124 129.228 54.8018 129.222 54.7903C129.217 54.7789 129.214 54.7668 129.215 54.7547C129.216 54.7384 129.223 54.7226 129.236 54.7088C129.248 54.6951 129.265 54.684 129.285 54.6766L129.827 54.487C130.333 54.3134 130.753 54.0337 131.032 53.685C131.31 53.3364 131.434 52.9353 131.386 52.5351L130.945 48.7625C130.913 48.4816 130.749 48.2167 130.48 48.0106C130.212 47.8044 129.854 47.669 129.464 47.6262C129.075 47.5834 128.677 47.6356 128.334 47.7745C127.991 47.9133 127.724 48.1307 127.575 48.3916L125.564 51.8882C125.349 52.259 125.296 52.6678 125.412 53.0607C125.528 53.4535 125.808 53.8119 126.215 54.0883L126.655 54.3866C126.679 54.4043 126.692 54.4277 126.692 54.4521C126.692 54.4766 126.679 54.5 126.655 54.5177C126.643 54.5264 126.629 54.5332 126.613 54.5379C126.598 54.5427 126.581 54.5451 126.564 54.5451C126.547 54.5451 126.53 54.5427 126.514 54.5379C126.499 54.5332 126.484 54.5264 126.472 54.5177L126.032 54.2193C125.588 53.9165 125.283 53.5241 125.157 53.0943C125.032 52.6645 125.093 52.2176 125.331 51.813L127.357 48.3247C127.529 48.026 127.837 47.7774 128.231 47.6189C128.624 47.4603 129.081 47.4011 129.527 47.4506C129.974 47.5002 130.384 47.6556 130.692 47.892C131 48.1284 131.188 48.432 131.226 48.7541L131.662 52.5212C131.713 52.9592 131.575 53.3978 131.268 53.7784C130.961 54.159 130.499 54.4636 129.944 54.6515L129.402 54.8383C129.383 54.8486 129.36 54.8536 129.336 54.8523Z" fill="#263238"/>
  <path d="M131.151 49.5879C131.12 49.5867 131.09 49.5777 131.067 49.5624C131.045 49.547 131.03 49.5265 131.026 49.5042C130.939 49.2084 130.727 48.9388 130.421 48.7309C130.114 48.523 129.726 48.3867 129.308 48.3402C128.891 48.2936 128.463 48.3389 128.083 48.4701C127.702 48.6013 127.386 48.8122 127.177 49.0748C127.173 49.0884 127.166 49.1012 127.154 49.1124C127.143 49.1236 127.129 49.133 127.112 49.1398C127.095 49.1466 127.077 49.1508 127.058 49.1519C127.038 49.1531 127.019 49.1512 127.001 49.1465C126.983 49.1418 126.967 49.1343 126.953 49.1246C126.939 49.1148 126.929 49.1031 126.922 49.0902C126.916 49.0772 126.913 49.0634 126.915 49.0497C126.916 49.036 126.922 49.0227 126.931 49.0107C127.162 48.7091 127.517 48.4658 127.948 48.3139C128.379 48.1619 128.865 48.1087 129.34 48.1614C129.815 48.2141 130.255 48.3702 130.602 48.6085C130.948 48.8468 131.183 49.1556 131.276 49.4931C131.279 49.5171 131.269 49.541 131.248 49.5598C131.227 49.5786 131.196 49.5906 131.163 49.5934L131.151 49.5879Z" fill="#263238"/>
  <path d="M129.476 47.6249C129.459 47.6242 129.443 47.6211 129.428 47.6157C129.413 47.6104 129.399 47.603 129.388 47.5939C129.377 47.5848 129.369 47.5742 129.364 47.5627C129.359 47.5513 129.357 47.5392 129.359 47.5273C129.413 47.0728 129.359 46.2418 128.762 46.016C128.747 46.0101 128.734 46.0022 128.724 45.9928C128.713 45.9833 128.705 45.9724 128.7 45.9608C128.696 45.9491 128.694 45.9369 128.696 45.9249C128.698 45.9128 128.703 45.9011 128.711 45.8905C128.72 45.8799 128.731 45.8705 128.744 45.863C128.757 45.8554 128.772 45.8498 128.789 45.8464C128.805 45.843 128.822 45.842 128.839 45.8433C128.856 45.8447 128.872 45.8484 128.887 45.8543C129.745 46.1889 129.62 47.4046 129.601 47.544C129.598 47.5662 129.583 47.5868 129.56 47.6018C129.537 47.6167 129.507 47.625 129.476 47.6249Z" fill="#263238"/>
  <path d="M126.851 54.4812C126.812 54.6569 126.653 54.7824 126.493 54.7601C126.333 54.7378 126.235 54.59 126.274 54.4171C126.313 54.2442 126.469 54.116 126.629 54.1383C126.789 54.1606 126.887 54.3111 126.851 54.4812Z" fill="#263238"/>
  <path d="M129.629 54.7945C129.594 54.9646 129.434 55.0901 129.274 55.0734C129.114 55.0567 129.016 54.9005 129.055 54.7276C129.094 54.5547 129.25 54.4321 129.41 54.4488C129.57 54.4655 129.668 54.6189 129.629 54.7945Z" fill="#263238"/>
  <path d="M122.606 51.1776C122.473 51.5652 122.076 51.8301 121.733 51.7687C121.39 51.7074 121.195 51.3505 121.343 50.9517C121.491 50.553 121.873 50.2993 122.216 50.3634C122.559 50.4275 122.738 50.79 122.606 51.1776Z" fill="#263238"/>
  <path d="M121.5 51.0432H121.473C121.456 51.0425 121.439 51.0394 121.424 51.0341C121.409 51.0288 121.395 51.0214 121.384 51.0124C121.373 51.0033 121.364 50.9927 121.359 50.9813C121.353 50.9698 121.351 50.9577 121.352 50.9456C121.488 49.3841 122.786 46.7993 124.208 45.9544C124.22 45.9454 124.234 45.9382 124.249 45.9333C124.265 45.9283 124.282 45.9258 124.299 45.9258C124.317 45.9258 124.334 45.9283 124.349 45.9333C124.365 45.9382 124.379 45.9454 124.391 45.9544C124.403 45.963 124.413 45.9732 124.419 45.9845C124.426 45.9957 124.429 46.0078 124.429 46.02C124.429 46.0322 124.426 46.0442 124.419 46.0555C124.413 46.0667 124.403 46.0769 124.391 46.0855C124.382 46.0926 124.372 46.0983 124.36 46.1022C122.988 46.9387 121.726 49.4232 121.597 50.9595C121.596 50.9792 121.586 50.9981 121.568 51.0132C121.551 51.0284 121.527 51.0389 121.5 51.0432Z" fill="#263238"/>
  <path d="M122.988 51.2163C122.899 51.5481 122.556 51.774 122.209 51.7377C122.026 51.6863 121.877 51.5873 121.792 51.4607C121.707 51.334 121.692 51.189 121.749 51.0546C121.835 50.72 122.182 50.4969 122.529 50.5331C122.711 50.5846 122.86 50.6835 122.946 50.8102C123.031 50.9369 123.046 51.0819 122.988 51.2163Z" fill="white"/>
  <path d="M123.017 51.2467C122.896 51.6566 122.58 51.9577 122.319 51.9187C122.058 51.8796 121.929 51.5116 122.069 51.0989C122.21 50.6862 122.506 50.3879 122.767 50.4297C123.029 50.4715 123.126 50.834 123.017 51.2467Z" fill="#263238"/>
  <path d="M117.756 60.1648L109.628 60.2708C109.474 60.2711 109.326 60.2315 109.209 60.1591C109.093 60.0868 109.018 59.9868 108.997 59.8776L107.439 50.9772C107.428 50.9265 107.434 50.8749 107.454 50.8258C107.474 50.7768 107.509 50.7314 107.556 50.6928C107.603 50.6542 107.661 50.6232 107.726 50.6021C107.791 50.5809 107.862 50.57 107.933 50.5701L116.073 50.4697C116.227 50.4694 116.376 50.5091 116.492 50.5814C116.608 50.6537 116.683 50.7537 116.704 50.8629L118.263 59.7633C118.272 59.8143 118.265 59.866 118.244 59.915C118.222 59.964 118.186 60.0091 118.138 60.0472C118.09 60.0853 118.031 60.1156 117.965 60.1359C117.899 60.1562 117.828 60.1661 117.756 60.1648Z" fill="#263238"/>
  <path d="M113.106 51.2084L111.158 51.2335C110.966 51.2345 110.781 51.185 110.637 51.0945C110.494 51.004 110.402 50.8788 110.379 50.7427L110.23 49.9118L113.581 49.8672L113.722 50.687C113.738 50.7511 113.734 50.817 113.71 50.88C113.687 50.9429 113.644 51.0014 113.585 51.0512C113.526 51.101 113.453 51.1409 113.37 51.1681C113.287 51.1952 113.197 51.209 113.106 51.2084Z" fill="#263238"/>
  <path opacity="0.7" d="M113.106 51.2084L111.158 51.2335C110.966 51.2345 110.781 51.185 110.637 51.0945C110.494 51.004 110.402 50.8788 110.379 50.7427L110.23 49.9118L113.581 49.8672L113.722 50.687C113.738 50.7511 113.734 50.817 113.71 50.88C113.687 50.9429 113.644 51.0014 113.585 51.0512C113.526 51.101 113.453 51.1409 113.37 51.1681C113.287 51.1952 113.197 51.209 113.106 51.2084Z" fill="white"/>
  <path d="M116.448 50.4834H116.059C116.212 50.4842 116.36 50.5243 116.476 50.5964C116.592 50.6685 116.668 50.7679 116.69 50.8766L118.248 59.7798C118.258 59.8305 118.253 59.8821 118.233 59.9311C118.213 59.9802 118.178 60.0256 118.131 60.0642C118.084 60.1028 118.026 60.1338 117.961 60.1549C117.896 60.1761 117.825 60.187 117.754 60.1869H118.143C118.215 60.1871 118.285 60.1762 118.35 60.155C118.415 60.1338 118.473 60.1028 118.519 60.0641C118.566 60.0255 118.601 59.98 118.62 59.9309C118.64 59.8819 118.645 59.8303 118.634 59.7798L117.076 50.8766C117.053 50.7684 116.978 50.6694 116.863 50.5973C116.748 50.5253 116.601 50.4849 116.448 50.4834Z" fill="white"/>
  <path opacity="0.2" d="M132.248 48.9248C132.368 49.1144 129.734 56.6262 129.734 56.6262L131.741 57.2592L132.248 48.9248Z" fill="black"/>
  <path d="M136.567 53.7758C136.111 56.7231 135.691 57.8747 135.398 58.1953C133.887 62.191 129.078 60.1806 128.385 60.0161C127.185 59.7373 125.946 59.1517 124.8 58.7725C122.571 58.0503 120.467 57.4787 118.383 56.5613L119.45 54.9134C119.45 54.9134 127.45 56.157 128.498 56.3076C128.954 56.3801 131.225 56.6478 131.175 55.775C131.408 55.4795 131.615 50.4298 132.27 48.4138C132.345 48.1879 132.485 47.9754 132.679 47.7892L132.745 47.7278C133.181 47.304 133.47 47.3068 134.268 47.3291C136.01 47.3793 136.832 48.3413 137.015 49.5821C137.187 50.7476 136.762 52.627 136.567 53.7758Z" fill="#407BFF"/>
  <g opacity="0.7">
    <path d="M136.567 53.7758C136.111 56.7231 135.691 57.8747 135.398 58.1953C133.887 62.191 129.078 60.1806 128.385 60.0161C127.185 59.7373 125.946 59.1517 124.8 58.7725C122.571 58.0503 120.467 57.4787 118.383 56.5613L119.45 54.9134C119.45 54.9134 127.45 56.157 128.498 56.3076C128.954 56.3801 131.225 56.6478 131.175 55.775C131.408 55.4795 131.615 50.4298 132.27 48.4138C132.345 48.1879 132.485 47.9754 132.679 47.7892L132.745 47.7278C133.181 47.304 133.47 47.3068 134.268 47.3291C136.01 47.3793 136.832 48.3413 137.015 49.5821C137.187 50.7476 136.762 52.627 136.567 53.7758Z" fill="white"/>
  </g>
  <path d="M119.545 55.1093C119.608 55.3102 119.612 55.5181 119.558 55.7201C119.503 55.9222 119.392 56.1141 119.229 56.2841C119.067 56.454 118.858 56.5983 118.615 56.7079C118.371 56.8176 118.099 56.8904 117.815 56.9217C117.178 56.9888 116.533 57.0066 115.89 56.9747L115.742 54.1445L118.77 54.5684C118.959 54.5945 119.133 54.6597 119.27 54.7558C119.408 54.8519 119.504 54.9748 119.545 55.1093Z" fill="#CE7A63"/>
  <path d="M115.744 54.1445L115.904 56.9831L114.435 57.0444C114.003 57.0639 113.576 56.9735 113.229 56.7893C112.882 56.6051 112.636 56.3389 112.537 56.0378L112.518 55.9709C112.461 55.7982 112.453 55.619 112.496 55.4442C112.539 55.2694 112.631 55.1026 112.766 54.954C112.902 54.8054 113.078 54.678 113.285 54.5796C113.491 54.4812 113.723 54.4138 113.967 54.3815L115.744 54.1445Z" fill="#CE7A63"/>
  <path d="M79.9505 52.5098L78.8945 60.1722H80.6206L79.9505 52.5098Z" fill="#263238"/>
  <path d="M92.8343 60.1287L80.4399 60.1649L79.8359 52.5136L92.2265 52.4746L92.8343 60.1287Z" fill="#407BFF"/>
  <path opacity="0.6" d="M92.8343 60.1287L80.4399 60.1649L79.8359 52.5136L92.2265 52.4746L92.8343 60.1287Z" fill="white"/>
  <path d="M92.2262 52.4744L79.8356 52.5134L79.7188 51.0802L92.1132 51.0439L92.2262 52.4744Z" fill="#263238"/>
  <path d="M81.5741 50.6005C81.5682 50.5373 81.5291 50.4781 81.4648 50.4347C81.4004 50.3912 81.3155 50.3668 81.227 50.3662C81.1841 50.3658 81.1416 50.3717 81.1022 50.3836C81.0627 50.3955 81.0272 50.4132 80.9978 50.4355C80.9684 50.4578 80.9459 50.4843 80.9316 50.5131C80.9174 50.542 80.9117 50.5727 80.915 50.6032C80.915 50.6869 80.9813 51.4648 80.9891 51.5485C80.9949 51.6119 81.0338 51.6714 81.0981 51.7153C81.1623 51.7592 81.2473 51.7843 81.3362 51.7855C81.3788 51.7856 81.421 51.7794 81.4602 51.7673C81.4994 51.7552 81.5347 51.7375 81.564 51.7153C81.5932 51.6931 81.6158 51.6668 81.6302 51.6382C81.6447 51.6095 81.6508 51.5789 81.6482 51.5485C81.6443 51.4816 81.5819 50.6674 81.5741 50.6005Z" fill="#407BFF"/>
  <path d="M83.9608 50.5944C83.9558 50.5308 83.9172 50.4709 83.8527 50.4269C83.7883 50.3829 83.7028 50.358 83.6137 50.3574C83.5706 50.3573 83.5281 50.3636 83.4886 50.3758C83.4491 50.3881 83.4136 50.406 83.3843 50.4286C83.355 50.4511 83.3326 50.4777 83.3183 50.5067C83.3041 50.5357 83.2984 50.5666 83.3017 50.5972C83.3017 50.6809 83.368 51.4588 83.3758 51.5425C83.3826 51.6059 83.4225 51.6651 83.4875 51.7085C83.5525 51.7518 83.6379 51.7762 83.7268 51.7767C83.7694 51.7768 83.8117 51.7706 83.8508 51.7585C83.89 51.7464 83.9253 51.7287 83.9546 51.7065C83.9838 51.6843 84.0064 51.658 84.0209 51.6293C84.0353 51.6006 84.0414 51.5701 84.0388 51.5397C84.031 51.4728 83.9686 50.6614 83.9608 50.5944Z" fill="#407BFF"/>
  <path d="M86.3475 50.5868C86.3406 50.5234 86.3008 50.4642 86.2358 50.4208C86.1708 50.3774 86.0854 50.3531 85.9965 50.3526C85.9537 50.3521 85.9111 50.358 85.8717 50.3699C85.8322 50.3819 85.7967 50.3995 85.7673 50.4218C85.738 50.4441 85.7154 50.4706 85.7012 50.4995C85.6869 50.5283 85.6812 50.559 85.6845 50.5896C85.6845 50.6732 85.7547 51.4512 85.7586 51.5348C85.7645 51.5987 85.8039 51.6586 85.869 51.7026C85.9341 51.7465 86.0201 51.7713 86.1096 51.7718C86.1524 51.7715 86.1947 51.765 86.2339 51.7526C86.2731 51.7402 86.3084 51.7223 86.3376 51.6998C86.3668 51.6774 86.3893 51.651 86.4037 51.6221C86.4182 51.5933 86.4242 51.5626 86.4216 51.532C86.4138 51.4651 86.3514 50.6537 86.3475 50.5868Z" fill="#407BFF"/>
  <path d="M88.7337 50.5817C88.7278 50.5179 88.6883 50.4579 88.6233 50.414C88.5582 50.37 88.4722 50.3453 88.3827 50.3447C88.3402 50.3451 88.2982 50.3515 88.2593 50.3637C88.2204 50.3759 88.1853 50.3936 88.1562 50.4158C88.127 50.4379 88.1045 50.464 88.0898 50.4925C88.0751 50.521 88.0686 50.5514 88.0707 50.5817C88.0707 50.6654 88.1409 51.4461 88.1487 51.5298C88.1546 51.5929 88.1936 51.6521 88.258 51.6956C88.3224 51.739 88.4073 51.7634 88.4958 51.764C88.5386 51.7645 88.5811 51.7586 88.6206 51.7466C88.66 51.7347 88.6956 51.717 88.7249 51.6947C88.7543 51.6724 88.7768 51.646 88.7911 51.6171C88.8054 51.5882 88.8111 51.5575 88.8078 51.527C88.8039 51.4601 88.7376 50.6487 88.7337 50.5817Z" fill="#407BFF"/>
  <path d="M91.117 50.5721C91.1111 50.509 91.0721 50.4498 91.0077 50.4064C90.9434 50.3629 90.8584 50.3385 90.7699 50.3379C90.7271 50.3374 90.6846 50.3434 90.6451 50.3553C90.6057 50.3672 90.5701 50.3849 90.5408 50.4072C90.5114 50.4295 90.4889 50.4559 90.4746 50.4848C90.4604 50.5137 90.4547 50.5444 90.4579 50.5749C90.4579 50.6586 90.5242 51.4365 90.532 51.5202C90.5361 51.5838 90.5745 51.6438 90.6393 51.6875C90.7041 51.7312 90.7901 51.7552 90.8791 51.7544C90.922 51.7549 90.9645 51.749 91.0039 51.737C91.0434 51.7251 91.0789 51.7074 91.1083 51.6851C91.1376 51.6628 91.1602 51.6364 91.1744 51.6075C91.1887 51.5786 91.1944 51.5479 91.1911 51.5174C91.1755 51.4505 91.1209 50.6391 91.117 50.5721Z" fill="#407BFF"/>
  <g opacity="0.7">
    <path d="M81.5741 50.6005C81.5682 50.5373 81.5291 50.4781 81.4648 50.4347C81.4004 50.3912 81.3155 50.3668 81.227 50.3662C81.1841 50.3658 81.1416 50.3717 81.1022 50.3836C81.0627 50.3955 81.0272 50.4132 80.9978 50.4355C80.9684 50.4578 80.9459 50.4843 80.9316 50.5131C80.9174 50.542 80.9117 50.5727 80.915 50.6032C80.915 50.6869 80.9813 51.4648 80.9891 51.5485C80.9949 51.6119 81.0338 51.6714 81.0981 51.7153C81.1623 51.7592 81.2473 51.7843 81.3362 51.7855C81.3788 51.7856 81.421 51.7794 81.4602 51.7673C81.4994 51.7552 81.5347 51.7375 81.564 51.7153C81.5932 51.6931 81.6158 51.6668 81.6302 51.6382C81.6447 51.6095 81.6508 51.5789 81.6482 51.5485C81.6443 51.4816 81.5819 50.6674 81.5741 50.6005Z" fill="white"/>
    <path d="M83.9569 50.5944C83.9519 50.5308 83.9133 50.4709 83.8488 50.4269C83.7844 50.3829 83.6989 50.358 83.6098 50.3574C83.5667 50.3573 83.5242 50.3636 83.4847 50.3758C83.4452 50.3881 83.4097 50.406 83.3804 50.4286C83.3511 50.4511 83.3287 50.4777 83.3144 50.5067C83.3002 50.5357 83.2945 50.5666 83.2978 50.5972C83.2978 50.6809 83.3641 51.4588 83.3719 51.5425C83.3787 51.6059 83.4186 51.6651 83.4836 51.7085C83.5486 51.7518 83.634 51.7762 83.7229 51.7767C83.7655 51.7768 83.8078 51.7706 83.8469 51.7585C83.8861 51.7464 83.9214 51.7287 83.9507 51.7065C83.9799 51.6843 84.0025 51.658 84.0169 51.6293C84.0314 51.6006 84.0375 51.5701 84.0349 51.5397C84.0271 51.4728 83.9647 50.6614 83.9569 50.5944Z" fill="white"/>
    <path d="M86.3475 50.5868C86.3406 50.5234 86.3008 50.4642 86.2358 50.4208C86.1708 50.3774 86.0854 50.3531 85.9965 50.3526C85.9537 50.3521 85.9111 50.358 85.8717 50.3699C85.8322 50.3819 85.7967 50.3995 85.7673 50.4218C85.738 50.4441 85.7154 50.4706 85.7012 50.4995C85.6869 50.5283 85.6812 50.559 85.6845 50.5896C85.6845 50.6732 85.7547 51.4512 85.7586 51.5348C85.7645 51.5987 85.8039 51.6586 85.869 51.7026C85.9341 51.7465 86.0201 51.7713 86.1096 51.7718C86.1524 51.7715 86.1947 51.765 86.2339 51.7526C86.2731 51.7402 86.3084 51.7223 86.3376 51.6998C86.3668 51.6774 86.3893 51.651 86.4037 51.6221C86.4182 51.5933 86.4242 51.5626 86.4216 51.532C86.4138 51.4651 86.3514 50.6537 86.3475 50.5868Z" fill="white"/>
    <path d="M88.7337 50.5798C88.7278 50.5159 88.6883 50.456 88.6233 50.412C88.5582 50.3681 88.4722 50.3433 88.3827 50.3428C88.3402 50.3431 88.2982 50.3496 88.2593 50.3618C88.2204 50.374 88.1853 50.3917 88.1562 50.4138C88.127 50.436 88.1045 50.4621 88.0898 50.4906C88.0751 50.5191 88.0686 50.5494 88.0707 50.5798C88.0707 50.6634 88.1409 51.4442 88.1487 51.5278C88.1546 51.591 88.1936 51.6502 88.258 51.6936C88.3224 51.737 88.4073 51.7615 88.4958 51.762C88.5386 51.7625 88.5811 51.7566 88.6206 51.7447C88.66 51.7327 88.6956 51.7151 88.7249 51.6928C88.7543 51.6705 88.7768 51.644 88.7911 51.6151C88.8054 51.5863 88.8111 51.5556 88.8078 51.525C88.8039 51.4581 88.7376 50.6467 88.7337 50.5798Z" fill="white"/>
    <path d="M91.117 50.5721C91.1111 50.509 91.0721 50.4498 91.0077 50.4064C90.9434 50.3629 90.8584 50.3385 90.7699 50.3379C90.7271 50.3374 90.6846 50.3434 90.6451 50.3553C90.6057 50.3672 90.5701 50.3849 90.5408 50.4072C90.5114 50.4295 90.4889 50.4559 90.4746 50.4848C90.4604 50.5137 90.4547 50.5444 90.4579 50.5749C90.4579 50.6586 90.5242 51.4365 90.532 51.5202C90.5361 51.5838 90.5745 51.6438 90.6393 51.6875C90.7041 51.7312 90.7901 51.7552 90.8791 51.7544C90.922 51.7549 90.9645 51.749 91.0039 51.737C91.0434 51.7251 91.0789 51.7074 91.1083 51.6851C91.1376 51.6628 91.1602 51.6364 91.1744 51.6075C91.1887 51.5786 91.1944 51.5479 91.1911 51.5174C91.1755 51.4505 91.1209 50.6391 91.117 50.5721Z" fill="white"/>
  </g>
  <path d="M93.1811 59.9139L80.7867 59.9502L79.8359 52.5136L92.2265 52.4746L93.1811 59.9139Z" fill="#407BFF"/>
  <path opacity="0.8" d="M93.1811 59.9139L80.7867 59.9502L79.8359 52.5136L92.2265 52.4746L93.1811 59.9139Z" fill="white"/>
  <path d="M89.6052 54.3115L83.4683 54.3282L83.3008 53.0205L89.4376 53.001L89.6052 54.3115Z" fill="#407BFF"/>
  <path opacity="0.6" d="M89.6052 54.3115L83.4683 54.3282L83.3008 53.0205L89.4376 53.001L89.6052 54.3115Z" fill="white"/>
  <path d="M82.6556 56.0245L81.0152 56.0301L80.8633 54.8562L82.5037 54.8506L82.6556 56.0245Z" fill="white"/>
  <path d="M84.9759 56.0149L83.3395 56.0204L83.1875 54.8493L84.8279 54.8438L84.9759 56.0149Z" fill="white"/>
  <path d="M82.8549 57.6046L81.2184 57.6101L81.0664 56.4362L82.7068 56.4307L82.8549 57.6046Z" fill="#407BFF"/>
  <path d="M83.058 59.1858L81.4215 59.1913L81.2695 58.0174L82.9099 58.0146L83.058 59.1858Z" fill="#407BFF"/>
  <path d="M85.1791 57.5987L83.5426 57.6015L83.3906 56.4304L85.0271 56.4248L85.1791 57.5987Z" fill="#407BFF"/>
  <path opacity="0.2" d="M85.1791 57.5987L83.5426 57.6015L83.3906 56.4304L85.0271 56.4248L85.1791 57.5987Z" fill="white"/>
  <path d="M87.5033 57.5909L85.8629 57.5965L85.7148 56.4226L87.3513 56.417L87.5033 57.5909Z" fill="#407BFF"/>
  <path opacity="0.2" d="M87.5033 57.5909L85.8629 57.5965L85.7148 56.4226L87.3513 56.417L87.5033 57.5909Z" fill="white"/>
  <path d="M89.8275 57.585L88.191 57.5878L88.0391 56.4167L89.6794 56.4111L89.8275 57.585Z" fill="#407BFF"/>
  <path opacity="0.2" d="M89.8275 57.585L88.191 57.5878L88.0391 56.4167L89.6794 56.4111L89.8275 57.585Z" fill="white"/>
  <path d="M92.1517 57.5764L90.5113 57.582L90.3633 56.4081L91.9998 56.4053L92.1517 57.5764Z" fill="#407BFF"/>
  <path opacity="0.2" d="M92.1517 57.5764L90.5113 57.582L90.3633 56.4081L91.9998 56.4053L92.1517 57.5764Z" fill="white"/>
  <path d="M85.3822 59.1807L83.7418 59.1863L83.5938 58.0124L85.2341 58.0068L85.3822 59.1807Z" fill="#407BFF"/>
  <path opacity="0.2" d="M85.3822 59.1807L83.7418 59.1863L83.5938 58.0124L85.2341 58.0068L85.3822 59.1807Z" fill="white"/>
  <path d="M87.7025 59.1711L86.066 59.1767L85.9141 58.0028L87.5544 58L87.7025 59.1711Z" fill="#407BFF"/>
  <path opacity="0.2" d="M87.7025 59.1711L86.066 59.1767L85.9141 58.0028L87.5544 58L87.7025 59.1711Z" fill="white"/>
  <path d="M90.0306 59.1661L88.3941 59.1717L88.2422 57.9978L89.8826 57.9922L90.0306 59.1661Z" fill="#407BFF"/>
  <path opacity="0.2" d="M90.0306 59.1661L88.3941 59.1717L88.2422 57.9978L89.8826 57.9922L90.0306 59.1661Z" fill="white"/>
  <path d="M87.3041 56.0098L85.6637 56.0154L85.5156 54.8415L87.1521 54.8359L87.3041 56.0098Z" fill="#407BFF"/>
  <path opacity="0.2" d="M87.3041 56.0098L85.6637 56.0154L85.5156 54.8415L87.1521 54.8359L87.3041 56.0098Z" fill="white"/>
  <path d="M89.6244 56.0012L87.9879 56.0068L87.8359 54.8357L89.4763 54.8301L89.6244 56.0012Z" fill="#407BFF"/>
  <path opacity="0.2" d="M89.6244 56.0012L87.9879 56.0068L87.8359 54.8357L89.4763 54.8301L89.6244 56.0012Z" fill="white"/>
  <path d="M91.9525 55.9952L90.3121 56.0008L90.1641 54.8269L91.8006 54.8213L91.9525 55.9952Z" fill="#407BFF"/>
  <path opacity="0.2" d="M91.9525 55.9952L90.3121 56.0008L90.1641 54.8269L91.8006 54.8213L91.9525 55.9952Z" fill="white"/>
  <path d="M92.3549 59.1584L90.7145 59.164L90.5664 57.9929L92.2029 57.9873L92.3549 59.1584Z" fill="white"/>
  <path d="M63.6608 62.3906V64.0915H49.6961L48.1882 99.5678H46.9062V62.3906H63.6608Z" fill="#263238"/>
  <path opacity="0.7" d="M63.6608 62.3906V64.0915H49.6961L48.1882 99.5678H46.9062V62.3906H63.6608Z" fill="white"/>
  <path d="M46.9061 99.5678H45.6943L45.3047 62.3906H46.9061V99.5678Z" fill="#263238"/>
  <g opacity="0.3">
    <path d="M46.9061 99.5668H45.6943L45.3047 62.3896H46.9061V99.5668Z" fill="white"/>
  </g>
  <path d="M67.6347 62.3906V99.5678H66.3645L65.2345 64.0915H63.7383V62.3906H67.6347Z" fill="#263238"/>
  <path d="M66.5086 99.5678H65.2968L63.7383 62.3906H65.3397L66.5086 99.5678Z" fill="#263238"/>
  <g opacity="0.3">
    <path d="M66.5086 99.5668H65.2968L63.7383 62.3896H65.3397L66.5086 99.5668Z" fill="white"/>
  </g>
  <path opacity="0.7" d="M67.6347 62.3906V99.5678H66.3645L65.2345 64.0915H63.7383V62.3906H67.6347Z" fill="white"/>
  <path d="M143.837 99.5678H142.629L141.07 62.3906H142.668L143.837 99.5678Z" fill="#263238"/>
  <path opacity="0.3" d="M141.07 62.3906H142.668L143.837 99.5678H142.629" fill="white"/>
  <path d="M123.077 62.3906H46.9141V65.2096H123.077V62.3906Z" fill="#263238"/>
  <path opacity="0.5" d="M123.077 62.3906H46.9141V65.2096H123.077V62.3906Z" fill="white"/>
  <path d="M124.312 62.3906V99.5678H125.591L127.098 64.0887H142.563L143.693 99.5678H144.963V62.3906H124.312Z" fill="#263238"/>
  <path opacity="0.7" d="M124.312 62.3906V99.5678H125.591L127.098 64.0887H142.563L143.693 99.5678H144.963V62.3906H124.312Z" fill="white"/>
  <path d="M124.312 99.5678H123.101L122.711 62.3906H124.312V99.5678Z" fill="#263238"/>
  <path opacity="0.3" d="M124.312 99.5678H123.101L122.711 62.3906H124.312V99.5678Z" fill="white"/>
  <path d="M123.313 60.25H43.1836V62.3887H123.313V60.25Z" fill="#263238"/>
  <path opacity="0.6" d="M123.313 60.25H43.1836V62.3887H123.313V60.25Z" fill="white"/>
  <path d="M147.084 60.25H121.453V62.3887H147.084V60.25Z" fill="#263238"/>
  <path opacity="0.7" d="M147.084 60.25H121.453V62.3887H147.084V60.25Z" fill="white"/>
  <path d="M76.0381 55.7118H29.258C35.8078 38.7585 22.7081 21.8137 29.258 4.86328H76.0381C69.4883 21.8137 82.6036 38.7585 76.0381 55.7118Z" fill="#407BFF"/>
  <path opacity="0.7" d="M76.0381 55.7118H29.258C35.8078 38.7585 22.7081 21.8137 29.258 4.86328H76.0381C69.4883 21.8137 82.6036 38.7585 76.0381 55.7118Z" fill="white"/>
  <path d="M70.5984 15.5094H49.4604C49.4056 15.5094 49.3531 15.4939 49.3144 15.4661C49.2757 15.4384 49.2539 15.4008 49.2539 15.3616C49.2539 15.3225 49.2757 15.2849 49.3144 15.2572C49.3531 15.2294 49.4056 15.2139 49.4604 15.2139H70.5984C70.6532 15.2139 70.7057 15.2294 70.7444 15.2572C70.7831 15.2849 70.8049 15.3225 70.8049 15.3616C70.8049 15.4008 70.7831 15.4384 70.7444 15.4661C70.7057 15.4939 70.6532 15.5094 70.5984 15.5094Z" fill="#263238"/>
  <path d="M70.7003 18.5153H49.5623C49.5071 18.5146 49.4543 18.499 49.4145 18.4716C49.3747 18.4442 49.351 18.407 49.348 18.3675C49.3464 18.3485 49.3503 18.3295 49.3593 18.3116C49.3684 18.2937 49.3825 18.2773 49.4008 18.2635C49.419 18.2496 49.441 18.2386 49.4655 18.2311C49.4899 18.2236 49.5162 18.2197 49.5428 18.2197H70.6808C70.7364 18.2203 70.7897 18.2358 70.8301 18.2632C70.8705 18.2906 70.8951 18.3278 70.899 18.3675C70.9 18.3867 70.8957 18.4057 70.8862 18.4236C70.8767 18.4415 70.8622 18.4579 70.8436 18.4717C70.8251 18.4855 70.8028 18.4965 70.7782 18.504C70.7535 18.5115 70.727 18.5153 70.7003 18.5153Z" fill="#263238"/>
  <path d="M70.9742 21.5348H31.2309C31.1747 21.5338 31.1209 21.5182 31.0794 21.4911C31.0379 21.4639 31.0115 21.427 31.0049 21.387C31.0022 21.3683 31.005 21.3494 31.0132 21.3315C31.0213 21.3137 31.0347 21.2972 31.0523 21.2833C31.07 21.2693 31.0915 21.2582 31.1156 21.2506C31.1396 21.243 31.1657 21.2392 31.192 21.2393H70.9352C70.9913 21.2398 71.045 21.2552 71.0861 21.2825C71.1271 21.3098 71.1525 21.3471 71.1573 21.387C71.16 21.4055 71.1573 21.4242 71.1494 21.4419C71.1415 21.4596 71.1285 21.4759 71.1113 21.4898C71.094 21.5037 71.0729 21.5149 71.0493 21.5226C71.0257 21.5304 71.0002 21.5345 70.9742 21.5348Z" fill="#263238"/>
  <path d="M74.2783 47.3104H34.5233C34.4964 47.3108 34.4696 47.3072 34.4447 47.2999C34.4198 47.2925 34.3973 47.2816 34.3787 47.2677C34.36 47.2538 34.3455 47.2373 34.3362 47.2192C34.3269 47.2011 34.323 47.1818 34.3246 47.1626C34.3285 47.1232 34.3532 47.0863 34.3937 47.0593C34.4342 47.0324 34.4875 47.0175 34.5428 47.0176H74.2861C74.3125 47.0172 74.3387 47.0207 74.3631 47.0279C74.3876 47.0351 74.4096 47.0459 74.4279 47.0595C74.4462 47.0731 74.4604 47.0893 74.4695 47.1071C74.4786 47.1248 74.4825 47.1437 74.4809 47.1626C74.479 47.2009 74.4572 47.2373 74.4197 47.2647C74.3822 47.292 74.3317 47.3083 74.2783 47.3104Z" fill="#263238"/>
  <path d="M47.146 52.4773H33.7268C33.7011 52.4778 33.6756 52.474 33.6523 52.4663C33.6289 52.4587 33.6083 52.4472 33.5921 52.4329C33.5759 52.4187 33.5645 52.4019 33.5588 52.3839C33.5532 52.366 33.5533 52.3474 33.5593 52.3295C33.5706 52.289 33.6006 52.2525 33.6444 52.2257C33.6882 52.1989 33.7433 52.1834 33.8009 52.1817H47.2084C47.2341 52.1812 47.2596 52.1849 47.283 52.1926C47.3063 52.2003 47.3269 52.2117 47.3431 52.226C47.3593 52.2403 47.3707 52.2571 47.3764 52.275C47.3821 52.2929 47.3819 52.3116 47.3759 52.3295C47.3652 52.3686 47.3369 52.4042 47.2955 52.4308C47.254 52.4575 47.2016 52.4738 47.146 52.4773Z" fill="#263238"/>
  <path d="M73.6187 52.4773H60.2112C60.1855 52.4778 60.16 52.474 60.1366 52.4663C60.1133 52.4587 60.0927 52.4472 60.0765 52.4329C60.0603 52.4187 60.0489 52.4019 60.0432 52.3839C60.0375 52.366 60.0377 52.3474 60.0437 52.3295C60.0543 52.2888 60.0841 52.252 60.128 52.2251C60.172 52.1982 60.2275 52.1829 60.2852 52.1817H73.6928C73.7185 52.1812 73.744 52.1849 73.7673 52.1926C73.7907 52.2003 73.8113 52.2117 73.8275 52.226C73.8437 52.2403 73.8551 52.2571 73.8608 52.275C73.8664 52.2929 73.8663 52.3116 73.8603 52.3295C73.849 52.3699 73.819 52.4065 73.7752 52.4333C73.7314 52.4601 73.6763 52.4756 73.6187 52.4773Z" fill="#263238"/>
  <path d="M41.7717 11.7452C41.7717 13.0083 40.443 13.7946 38.3273 13.7946H36.7297V15.3589H34.8945V9.68457H38.3273C40.443 9.68457 41.7717 10.4709 41.7717 11.7452ZM39.9131 11.7452C39.9131 11.1206 39.3442 10.7553 38.226 10.7553H36.7297V12.7239H38.226C39.352 12.7239 39.9131 12.3614 39.9131 11.7452Z" fill="#407BFF"/>
  <path d="M43.032 18.602L41.1188 16.6335L39.2369 18.602H37.1289L40.0629 15.7161L37.277 12.9277H39.3538L41.1773 14.768L42.9696 12.9277H44.9529L42.1864 15.6687L45.1438 18.602H43.032Z" fill="#407BFF"/>
  <path d="M33.734 23.4222C33.734 23.7345 33.4067 23.9297 32.8807 23.9297H32.491V24.3172H32.0312V22.9231H32.8807C33.4067 22.898 33.734 23.0931 33.734 23.4222ZM33.2742 23.4222C33.2742 23.2688 33.1339 23.1768 32.8573 23.1768H32.4676V23.6648H32.8573C33.1183 23.6508 33.2742 23.5616 33.2742 23.4222Z" fill="#263238"/>
  <path d="M34.9633 23.2088V23.4876H34.8619C34.808 23.4875 34.7546 23.4954 34.7051 23.5108C34.6556 23.5262 34.6112 23.5487 34.5745 23.577C34.5379 23.6053 34.5098 23.6388 34.4922 23.6752C34.4745 23.7117 34.4676 23.7503 34.4719 23.7888V24.2991H34.0234V23.22H34.4407V23.3622C34.5042 23.3085 34.5849 23.2665 34.6758 23.2398C34.7668 23.2131 34.8654 23.2025 34.9633 23.2088Z" fill="#263238"/>
  <path d="M36.6718 23.8525H35.5341C35.5547 23.9204 35.6101 23.9804 35.6894 24.0207C35.7687 24.0609 35.8662 24.0785 35.9627 24.07C36.0344 24.0729 36.1062 24.065 36.1733 24.0467C36.2404 24.0285 36.3014 24.0003 36.3523 23.964L36.5861 24.1452C36.4683 24.2267 36.3208 24.283 36.1606 24.3076C36.0003 24.3322 35.8337 24.3241 35.6795 24.2843C35.5253 24.2445 35.3898 24.1746 35.2883 24.0825C35.1869 23.9904 35.1235 23.8798 35.1055 23.7632C35.1054 23.6886 35.1263 23.6147 35.1669 23.5459C35.2076 23.4771 35.2671 23.4149 35.3419 23.3629C35.4168 23.3109 35.5055 23.2701 35.6027 23.2431C35.7 23.2161 35.8038 23.2033 35.9081 23.2056C36.0116 23.2024 36.1149 23.2147 36.2115 23.2416C36.308 23.2685 36.3957 23.3095 36.469 23.3619C36.5422 23.4143 36.5995 23.4771 36.6371 23.5461C36.6747 23.6152 36.6918 23.6892 36.6874 23.7632C36.6835 23.7911 36.6757 23.8274 36.6718 23.8525ZM35.5263 23.6684H36.2705C36.2458 23.6116 36.1964 23.5619 36.1295 23.5266C36.0625 23.4913 35.9815 23.4723 35.8984 23.4723C35.8152 23.4723 35.7343 23.4913 35.6673 23.5266C35.6004 23.5619 35.5509 23.6116 35.5263 23.6684Z" fill="#263238"/>
  <path d="M36.8242 24.2036L36.9723 23.9778C37.1293 24.047 37.31 24.0836 37.4944 24.0837C37.697 24.0837 37.7749 24.0447 37.7749 23.9834C37.7749 23.8077 36.8632 23.9834 36.8632 23.5567C36.8632 23.3532 37.1203 23.2082 37.5606 23.2082C37.7621 23.2052 37.9615 23.2378 38.1412 23.303L37.9931 23.5261C37.8617 23.4718 37.7123 23.4439 37.5606 23.4452C37.3658 23.4452 37.2801 23.4898 37.2801 23.5456C37.2801 23.7296 38.1919 23.5456 38.1919 23.9778C38.1919 24.1758 37.9308 24.3208 37.4788 24.3208C37.25 24.3238 37.0241 24.2834 36.8242 24.2036Z" fill="#263238"/>
  <path d="M38.3477 23.7634C38.3474 23.6865 38.3693 23.6104 38.4121 23.5399C38.4549 23.4693 38.5176 23.4059 38.5962 23.3535C38.6749 23.3011 38.7679 23.261 38.8693 23.2355C38.9706 23.2101 39.0783 23.2 39.1854 23.2057C39.3246 23.1976 39.4639 23.2199 39.585 23.2697C39.706 23.3195 39.8031 23.3944 39.8634 23.4846L39.5244 23.6128C39.4916 23.5687 39.4428 23.5317 39.3832 23.5057C39.3236 23.4797 39.2553 23.4657 39.1854 23.465C39.0749 23.465 38.9688 23.4965 38.8906 23.5524C38.8125 23.6084 38.7685 23.6843 38.7685 23.7634C38.7685 23.8425 38.8125 23.9184 38.8906 23.9744C38.9688 24.0303 39.0749 24.0617 39.1854 24.0617C39.2558 24.063 39.3252 24.0498 39.3853 24.0236C39.4455 23.9974 39.4938 23.9593 39.5244 23.914L39.8634 24.0478C39.8019 24.1372 39.7045 24.2115 39.5838 24.2611C39.463 24.3108 39.3244 24.3336 39.1854 24.3266C39.0776 24.3325 38.9693 24.3221 38.8674 24.2964C38.7655 24.2706 38.6721 24.2299 38.5933 24.177C38.5146 24.124 38.452 24.0599 38.4097 23.9887C38.3675 23.9175 38.3463 23.8408 38.3477 23.7634Z" fill="#263238"/>
  <path d="M41.0493 23.2082V23.487H40.9518C40.8979 23.4869 40.8445 23.4948 40.795 23.5102C40.7455 23.5256 40.7011 23.5481 40.6644 23.5764C40.6277 23.6047 40.5997 23.6382 40.582 23.6746C40.5644 23.7111 40.5575 23.7497 40.5618 23.7882V24.2984H40.1328V23.2194H40.5228V23.3616C40.5865 23.3073 40.6677 23.2649 40.7595 23.2382C40.8512 23.2115 40.9507 23.2012 41.0493 23.2082Z" fill="#263238"/>
  <path d="M41.2539 22.8986C41.2548 22.8742 41.2628 22.8501 41.2772 22.8279C41.2917 22.8058 41.3123 22.786 41.3379 22.7698C41.3635 22.7536 41.3935 22.7413 41.426 22.7337C41.4585 22.7261 41.4929 22.7234 41.5269 22.7257C41.5604 22.723 41.5944 22.7253 41.6266 22.7324C41.6588 22.7394 41.6887 22.7512 41.7143 22.7669C41.7399 22.7826 41.7607 22.8019 41.7755 22.8236C41.7902 22.8453 41.7985 22.8689 41.7999 22.893C41.7999 22.9448 41.7711 22.9944 41.7199 23.031C41.6687 23.0676 41.5993 23.0882 41.5269 23.0882C41.4545 23.0882 41.3851 23.0676 41.3339 23.031C41.2827 22.9944 41.2539 22.9448 41.2539 22.893V22.8986ZM41.3085 23.2248H41.7453V24.3039H41.3007L41.3085 23.2248Z" fill="#263238"/>
  <path d="M43.7966 23.7636C43.8026 23.8363 43.7874 23.909 43.7521 23.9773C43.7168 24.0456 43.662 24.1079 43.5914 24.1603C43.5207 24.2127 43.4357 24.2541 43.3416 24.2818C43.2475 24.3095 43.1463 24.3229 43.0446 24.3212C42.96 24.3237 42.8757 24.3132 42.7971 24.2906C42.7185 24.268 42.6475 24.2338 42.5887 24.1902V24.6921H42.1523V23.2254H42.5693V23.3481C42.629 23.301 42.7026 23.264 42.7849 23.2399C42.8671 23.2158 42.9559 23.2051 43.0446 23.2087C43.146 23.2071 43.2468 23.2204 43.3406 23.2479C43.4344 23.2755 43.5193 23.3166 43.5899 23.3687C43.6605 23.4207 43.7153 23.4827 43.7509 23.5507C43.7864 23.6186 43.802 23.6911 43.7966 23.7636ZM43.3524 23.7636C43.3471 23.7094 43.3198 23.6576 43.2739 23.6143C43.228 23.5711 43.1655 23.5384 43.094 23.5203C43.0225 23.5021 42.9451 23.4993 42.8714 23.5122C42.7977 23.5251 42.7309 23.553 42.6791 23.5927C42.6273 23.6324 42.5928 23.682 42.5798 23.7355C42.5669 23.789 42.576 23.844 42.6062 23.8938C42.6363 23.9436 42.6861 23.9861 42.7494 24.016C42.8128 24.0458 42.8869 24.0618 42.9628 24.0619C43.0163 24.062 43.0693 24.0542 43.1185 24.039C43.1676 24.0238 43.2119 24.0015 43.2484 23.9735C43.285 23.9455 43.3131 23.9124 43.331 23.8763C43.3489 23.8402 43.3562 23.8018 43.3524 23.7636Z" fill="#263238"/>
  <path d="M45.0596 24.2591C44.9528 24.3078 44.8277 24.3322 44.7011 24.3288C44.6267 24.3363 44.5508 24.3315 44.4793 24.3149C44.4079 24.2983 44.3426 24.2703 44.2885 24.2329C44.2344 24.1955 44.193 24.1499 44.1672 24.0993C44.1415 24.0488 44.1322 23.9947 44.14 23.9412V23.4979H43.9062V23.2553H44.14V22.9932H44.5764V23.2553H44.9661V23.4979H44.5764V23.9356C44.5729 23.9542 44.5752 23.9731 44.5831 23.9909C44.5911 24.0087 44.6045 24.0251 44.6225 24.0387C44.6404 24.0524 44.6624 24.0629 44.6868 24.0697C44.7112 24.0765 44.7374 24.0793 44.7635 24.0778C44.8262 24.0786 44.8877 24.065 44.9388 24.0388L45.0596 24.2591Z" fill="#263238"/>
  <path d="M45.25 22.8993C45.2509 22.8748 45.2588 22.8508 45.2733 22.8286C45.2878 22.8065 45.3084 22.7867 45.334 22.7705C45.3596 22.7543 45.3896 22.742 45.4221 22.7344C45.4546 22.7268 45.489 22.7241 45.523 22.7264C45.5562 22.7241 45.5897 22.7267 45.6215 22.7339C45.6533 22.7412 45.6827 22.753 45.7079 22.7687C45.733 22.7843 45.7535 22.8035 45.768 22.825C45.7825 22.8465 45.7907 22.8699 45.7921 22.8937C45.7841 22.9411 45.7522 22.9848 45.7022 23.0164C45.6523 23.0481 45.5878 23.0656 45.521 23.0656C45.4543 23.0656 45.3898 23.0481 45.3399 23.0164C45.2899 22.9848 45.258 22.9411 45.25 22.8937V22.8993ZM45.3007 23.2255H45.7414V24.3046H45.3007V23.2255Z" fill="#263238"/>
  <path d="M46.0328 23.763C46.0227 23.6442 46.0626 23.5261 46.1474 23.4237C46.2322 23.3214 46.358 23.2397 46.5085 23.1891C46.6589 23.1386 46.8272 23.1215 46.9913 23.1402C47.1555 23.1588 47.3081 23.2123 47.4293 23.2938C47.5505 23.3752 47.6347 23.4808 47.671 23.5969C47.7074 23.713 47.6942 23.8342 47.6331 23.9448C47.5721 24.0555 47.466 24.1505 47.3286 24.2175C47.1913 24.2845 47.029 24.3204 46.8627 24.3207C46.7562 24.3256 46.6494 24.3149 46.5489 24.2891C46.4485 24.2633 46.3565 24.223 46.2787 24.1707C46.2008 24.1184 46.1389 24.0552 46.0966 23.9851C46.0543 23.915 46.0326 23.8394 46.0328 23.763ZM47.2446 23.763C47.2393 23.7088 47.212 23.657 47.1661 23.6137C47.1202 23.5705 47.0576 23.5378 46.9861 23.5197C46.9146 23.5016 46.8373 23.4987 46.7636 23.5116C46.6899 23.5245 46.623 23.5524 46.5712 23.5921C46.5194 23.6318 46.4849 23.6814 46.472 23.7349C46.459 23.7884 46.4682 23.8434 46.4983 23.8932C46.5284 23.9431 46.5782 23.9855 46.6416 24.0154C46.7049 24.0452 46.7791 24.0612 46.8549 24.0613C46.9085 24.0614 46.9615 24.0536 47.0106 24.0384C47.0598 24.0232 47.104 24.0009 47.1406 23.9729C47.1771 23.9449 47.2052 23.9118 47.2231 23.8757C47.241 23.8396 47.2483 23.8012 47.2446 23.763Z" fill="#263238"/>
  <path d="M49.5196 23.6854V24.3045H49.0949V23.7468C49.0949 23.5739 48.9819 23.493 48.787 23.493C48.5922 23.493 48.4286 23.5851 48.4286 23.7719V24.3072H47.9883V23.2281H48.4091V23.3536C48.4736 23.3062 48.5514 23.269 48.6373 23.2445C48.7232 23.22 48.8154 23.2087 48.9078 23.2114C48.9937 23.2085 49.0794 23.219 49.1589 23.2423C49.2385 23.2656 49.3099 23.3011 49.3682 23.3463C49.4265 23.3915 49.4703 23.4453 49.4964 23.5039C49.5226 23.5625 49.5305 23.6244 49.5196 23.6854Z" fill="#263238"/>
  <path d="M49.8089 23.4035C49.8072 23.3779 49.813 23.3524 49.826 23.3285C49.8389 23.3046 49.8587 23.2829 49.884 23.2648C49.9093 23.2467 49.9396 23.2326 49.9731 23.2234C50.0065 23.2141 50.0422 23.2099 50.078 23.2111C50.1139 23.21 50.1498 23.2141 50.1834 23.2233C50.217 23.2326 50.2476 23.2467 50.2732 23.2647C50.2989 23.2828 50.319 23.3044 50.3324 23.3283C50.3458 23.3522 50.3521 23.3778 50.351 23.4035C50.3521 23.4294 50.3457 23.4551 50.3324 23.4791C50.3191 23.5032 50.299 23.525 50.2734 23.5433C50.2478 23.5615 50.2173 23.5759 50.1837 23.5854C50.1501 23.595 50.1141 23.5995 50.078 23.5987C50.0422 23.5991 50.0066 23.5943 49.9734 23.5846C49.9403 23.5749 49.9102 23.5605 49.8851 23.5422C49.8599 23.524 49.8402 23.5023 49.8271 23.4785C49.814 23.4546 49.8078 23.4291 49.8089 23.4035ZM49.8089 24.1229C49.8072 24.0973 49.813 24.0718 49.826 24.0479C49.8389 24.024 49.8587 24.0023 49.884 23.9842C49.9093 23.9661 49.9396 23.952 49.9731 23.9427C50.0065 23.9335 50.0422 23.9293 50.078 23.9305C50.1139 23.9294 50.1498 23.9335 50.1834 23.9427C50.217 23.952 50.2476 23.966 50.2732 23.9841C50.2989 24.0022 50.319 24.0238 50.3324 24.0477C50.3458 24.0716 50.3521 24.0972 50.351 24.1229C50.352 24.1489 50.3457 24.1747 50.3324 24.1989C50.3191 24.2231 50.2991 24.2451 50.2736 24.2636C50.2481 24.2821 50.2176 24.2967 50.184 24.3066C50.1504 24.3164 50.1143 24.3213 50.078 24.3209C50.0418 24.3213 50.0059 24.3164 49.9725 24.3065C49.9391 24.2967 49.9088 24.282 49.8836 24.2635C49.8584 24.2449 49.8388 24.2229 49.8259 24.1987C49.8131 24.1746 49.8073 24.1488 49.8089 24.1229Z" fill="#263238"/>
  <path d="M85.9114 23.1334L78.9834 21.5549C77.7305 21.2695 76.3915 21.7649 75.9926 22.6615L68.4287 39.6633C68.0298 40.5599 68.7221 41.5181 69.975 41.8036L76.903 43.382C78.1559 43.6675 79.4949 43.172 79.8938 42.2755L87.4577 25.2736C87.8565 24.377 87.1642 23.4188 85.9114 23.1334Z" fill="black"/>
  <path opacity="0.8" d="M87.5665 24.8166C87.5622 24.9748 87.5254 25.1317 87.4574 25.2822L79.8944 42.2912C79.8686 42.349 79.8387 42.4057 79.8048 42.4613C79.5688 42.8462 79.142 43.1549 78.6066 43.3279C78.0713 43.5009 77.4655 43.526 76.9059 43.3982L69.9742 41.82C69.3833 41.6844 68.8897 41.3891 68.5985 40.9969C68.3074 40.6047 68.2418 40.1467 68.4156 39.7203L72.7796 29.9137L75.9786 22.6612C76.0722 22.4474 76.2238 22.2489 76.4247 22.0771C76.6256 21.9053 76.8719 21.7635 77.1495 21.6599C77.4271 21.5563 77.7306 21.4929 78.0424 21.4733C78.3543 21.4537 78.6685 21.4784 78.9671 21.5458L85.9144 23.1436C86.066 23.1782 86.2123 23.224 86.3508 23.2802C86.7311 23.4317 87.0457 23.6552 87.2602 23.9262C87.4746 24.1972 87.5806 24.5053 87.5665 24.8166Z" fill="white"/>
  <g opacity="0.6">
    <path opacity="0.5" d="M70.8047 34.3289L73.9491 27.266L82.8524 22.4365L86.3591 23.273C86.74 23.4247 87.055 23.6487 87.2695 23.9202C87.484 24.1918 87.5896 24.5004 87.5748 24.8122L70.8047 34.3289Z" fill="white"/>
  </g>
  <path opacity="0.5" d="M75.1992 24.4262L75.9785 22.6612C76.0721 22.4474 76.2237 22.2489 76.4246 22.0771C76.6256 21.9053 76.8719 21.7635 77.1495 21.6599C77.4271 21.5563 77.7305 21.4929 78.0424 21.4733C78.3543 21.4537 78.6685 21.4784 78.967 21.5458L80.0074 21.7828L75.1992 24.4262Z" fill="white"/>
  <path d="M79.9797 24.3564C79.925 24.4793 79.8206 24.5879 79.6796 24.6684C79.5387 24.7489 79.3675 24.7976 79.1878 24.8085C79.0082 24.8194 78.828 24.7919 78.6702 24.7295C78.5123 24.6671 78.3839 24.5726 78.3011 24.458C78.2182 24.3434 78.1848 24.2137 78.2049 24.0855C78.225 23.9573 78.2979 23.8362 78.4141 23.7376C78.5304 23.6389 78.685 23.5672 78.8582 23.5314C79.0315 23.4957 79.2156 23.4975 79.3875 23.5366C79.5019 23.5623 79.6081 23.6039 79.6999 23.6591C79.7917 23.7143 79.8673 23.7819 79.9223 23.8581C79.9774 23.9344 80.0108 24.0176 80.0207 24.1031C80.0305 24.1887 80.0166 24.2747 79.9797 24.3564Z" fill="#407BFF"/>
  <path d="M78.2412 28.255C78.1865 28.3774 78.0823 28.4854 77.9418 28.5654C77.8013 28.6453 77.6308 28.6937 77.4519 28.7044C77.273 28.715 77.0936 28.6875 76.9366 28.6252C76.7796 28.5629 76.6519 28.4687 76.5696 28.3545C76.4874 28.2403 76.4543 28.1112 76.4746 27.9836C76.4948 27.8559 76.5675 27.7354 76.6835 27.6373C76.7994 27.5393 76.9534 27.468 77.1259 27.4325C77.2985 27.397 77.4819 27.3989 77.6529 27.438C77.7665 27.464 77.8718 27.5058 77.9629 27.5609C78.054 27.616 78.129 27.6834 78.1836 27.7593C78.2382 27.8352 78.2715 27.918 78.2813 28.0031C78.2912 28.0881 78.2776 28.1737 78.2412 28.255Z" fill="#407BFF"/>
  <path d="M76.5082 32.1566C76.4541 32.2798 76.3501 32.3888 76.2094 32.4697C76.0686 32.5506 75.8975 32.5998 75.7177 32.6111C75.5378 32.6223 75.3574 32.5951 75.1992 32.5329C75.0409 32.4706 74.9121 32.3762 74.829 32.2615C74.7459 32.1469 74.7122 32.0171 74.7322 31.8887C74.7522 31.7603 74.825 31.6391 74.9414 31.5403C75.0579 31.4416 75.2126 31.3698 75.3861 31.3341C75.5596 31.2983 75.744 31.3002 75.9159 31.3396C76.0299 31.3653 76.1357 31.4068 76.2272 31.4618C76.3186 31.5168 76.3941 31.5842 76.4491 31.6601C76.5041 31.736 76.5377 31.8189 76.5478 31.9041C76.5579 31.9893 76.5445 32.0751 76.5082 32.1566Z" fill="#407BFF"/>
  <path d="M74.7727 36.0566C74.718 36.1795 74.6135 36.2881 74.4726 36.3686C74.3316 36.449 74.1605 36.4978 73.9808 36.5087C73.8011 36.5196 73.621 36.4921 73.4631 36.4297C73.3053 36.3673 73.1768 36.2728 73.094 36.1582C73.0112 36.0436 72.9778 35.9139 72.9979 35.7857C73.018 35.6575 73.0908 35.5364 73.2071 35.4378C73.3234 35.3391 73.4779 35.2674 73.6512 35.2316C73.8244 35.1959 74.0086 35.1976 74.1804 35.2368C74.2949 35.2624 74.401 35.3041 74.4928 35.3593C74.5846 35.4145 74.6602 35.4821 74.7153 35.5583C74.7704 35.6346 74.8038 35.7178 74.8136 35.8033C74.8235 35.8889 74.8096 35.9749 74.7727 36.0566Z" fill="#407BFF"/>
  <path d="M73.0434 39.9544C72.9893 40.0777 72.8853 40.1867 72.7445 40.2676C72.6038 40.3485 72.4327 40.3977 72.2528 40.4089C72.073 40.4202 71.8925 40.3929 71.7343 40.3307C71.5761 40.2685 71.4473 40.1741 71.3641 40.0594C71.281 39.9447 71.2473 39.8149 71.2673 39.6866C71.2874 39.5582 71.3602 39.4369 71.4766 39.3382C71.593 39.2394 71.7478 39.1676 71.9213 39.1319C72.0947 39.0962 72.2791 39.0981 72.4511 39.1374C72.6801 39.1906 72.8706 39.3061 72.9814 39.459C73.0922 39.6119 73.1145 39.7899 73.0434 39.9544Z" fill="#407BFF"/>
  <path d="M84.3592 25.3556C84.2752 25.5104 84.1118 25.6365 83.9024 25.708C83.693 25.7796 83.4533 25.7914 83.2322 25.7409C83.0112 25.6904 82.8253 25.5815 82.7125 25.4363C82.5998 25.2912 82.5686 25.1207 82.6254 24.9597C82.6558 24.8733 82.7106 24.7923 82.7865 24.7217C82.8623 24.6511 82.9576 24.5923 83.0664 24.549C83.1752 24.5057 83.2952 24.4788 83.4191 24.47C83.5429 24.4612 83.668 24.4706 83.7866 24.4977C83.9052 24.5248 84.0148 24.5689 84.1086 24.6275C84.2024 24.686 84.2785 24.7577 84.3321 24.838C84.3858 24.9184 84.4159 25.0058 84.4205 25.0948C84.4252 25.1838 84.4043 25.2726 84.3592 25.3556Z" fill="#407BFF"/>
  <path d="M82.6283 29.2532C82.5738 29.3756 82.4699 29.4836 82.3297 29.5637C82.1894 29.6438 82.0192 29.6924 81.8404 29.7033C81.6616 29.7142 81.4823 29.6869 81.3252 29.625C81.168 29.563 81.0401 29.4691 80.9575 29.3551C80.8748 29.2411 80.8413 29.1122 80.861 28.9846C80.8807 28.8569 80.9528 28.7364 81.0682 28.6381C81.1836 28.5397 81.3371 28.4681 81.5094 28.4322C81.6816 28.3963 81.8649 28.3977 82.0361 28.4363C82.2656 28.4888 82.4568 28.6042 82.5678 28.7573C82.6788 28.9104 82.7005 29.0887 82.6283 29.2532Z" fill="#407BFF"/>
  <path d="M80.891 33.1536C80.8369 33.2769 80.7329 33.3859 80.5922 33.4668C80.4514 33.5477 80.2803 33.5969 80.1005 33.6081C79.9206 33.6194 79.7402 33.5922 79.582 33.5299C79.4238 33.4677 79.2949 33.3733 79.2118 33.2586C79.1287 33.1439 79.095 33.0142 79.115 32.8858C79.135 32.7574 79.2079 32.6361 79.3243 32.5374C79.4407 32.4387 79.5954 32.3669 79.7689 32.3311C79.9424 32.2954 80.1268 32.2973 80.2987 32.3366C80.5277 32.3898 80.7182 32.5053 80.8291 32.6582C80.9399 32.8111 80.9622 32.9891 80.891 33.1536Z" fill="#407BFF"/>
  <path d="M79.1561 37.0548C79.0721 37.2096 78.9087 37.3357 78.6993 37.4072C78.4899 37.4788 78.2502 37.4906 78.0291 37.4401C77.808 37.3896 77.6222 37.2807 77.5094 37.1355C77.3966 36.9904 77.3655 36.8199 77.4222 36.6589C77.4527 36.5725 77.5075 36.4915 77.5834 36.4209C77.6592 36.3503 77.7545 36.2915 77.8633 36.2482C77.9721 36.2049 78.0921 36.1781 78.2159 36.1692C78.3398 36.1604 78.4649 36.1698 78.5835 36.1969C78.7021 36.224 78.8116 36.2681 78.9055 36.3267C78.9993 36.3852 79.0754 36.4569 79.129 36.5373C79.1827 36.6176 79.2127 36.705 79.2174 36.794C79.2221 36.8831 79.2012 36.9718 79.1561 37.0548Z" fill="#407BFF"/>
  <path d="M77.4213 40.9534C77.3668 41.0758 77.2629 41.1838 77.1226 41.2639C76.9824 41.344 76.8121 41.3926 76.6334 41.4035C76.4546 41.4144 76.2753 41.3871 76.1182 41.3252C75.961 41.2632 75.833 41.1693 75.7504 41.0553C75.6678 40.9413 75.6342 40.8124 75.6539 40.6848C75.6736 40.5571 75.7458 40.4366 75.8612 40.3382C75.9766 40.2399 76.1301 40.1683 76.3024 40.1324C76.4746 40.0965 76.6579 40.0979 76.829 40.1365C77.0586 40.189 77.2498 40.3044 77.3607 40.4575C77.4717 40.6106 77.4935 40.7889 77.4213 40.9534Z" fill="#407BFF"/>
  <g opacity="0.4">
    <path d="M79.9836 24.3573C79.9289 24.4803 79.8245 24.5889 79.6835 24.6693C79.5426 24.7498 79.3714 24.7986 79.1917 24.8095C79.0121 24.8203 78.8319 24.7928 78.6741 24.7305C78.5162 24.6681 78.3878 24.5736 78.305 24.459C78.2222 24.3443 78.1887 24.2147 78.2088 24.0865C78.229 23.9582 78.3018 23.8372 78.418 23.7385C78.5343 23.6399 78.6889 23.5682 78.8621 23.5324C79.0354 23.4966 79.2196 23.4984 79.3914 23.5376C79.5058 23.5632 79.612 23.6049 79.7038 23.6601C79.7956 23.7152 79.8712 23.7829 79.9262 23.8591C79.9813 23.9353 80.0147 24.0186 80.0246 24.1041C80.0344 24.1896 80.0205 24.2757 79.9836 24.3573Z" fill="white"/>
    <path d="M78.2451 28.256C78.1904 28.3784 78.0862 28.4864 77.9457 28.5663C77.8052 28.6463 77.6347 28.6947 77.4558 28.7053C77.2769 28.716 77.0976 28.6884 76.9405 28.6262C76.7835 28.5639 76.6558 28.4697 76.5735 28.3555C76.4913 28.2413 76.4582 28.1122 76.4785 27.9846C76.4987 27.8569 76.5714 27.7364 76.6874 27.6383C76.8033 27.5402 76.9573 27.4689 77.1298 27.4335C77.3024 27.398 77.4858 27.3999 77.6568 27.439C77.7704 27.465 77.8757 27.5067 77.9668 27.5619C78.0579 27.617 78.1329 27.6844 78.1875 27.7603C78.2422 27.8361 78.2754 27.919 78.2853 28.004C78.2951 28.0891 78.2815 28.1747 78.2451 28.256Z" fill="white"/>
    <path d="M76.5121 32.1566C76.458 32.2798 76.354 32.3888 76.2133 32.4697C76.0725 32.5506 75.9014 32.5998 75.7216 32.6111C75.5417 32.6223 75.3613 32.5951 75.2031 32.5329C75.0449 32.4706 74.916 32.3762 74.8329 32.2615C74.7498 32.1469 74.7161 32.0171 74.7361 31.8887C74.7561 31.7603 74.8289 31.6391 74.9454 31.5403C75.0618 31.4416 75.2165 31.3698 75.39 31.3341C75.5635 31.2983 75.7479 31.3002 75.9198 31.3396C76.0338 31.3653 76.1396 31.4068 76.2311 31.4618C76.3226 31.5168 76.398 31.5842 76.453 31.6601C76.508 31.736 76.5416 31.8189 76.5517 31.9041C76.5618 31.9893 76.5484 32.0751 76.5121 32.1566Z" fill="white"/>
    <path d="M74.7766 36.0566C74.7219 36.1795 74.6174 36.2881 74.4765 36.3686C74.3355 36.449 74.1644 36.4978 73.9847 36.5087C73.805 36.5196 73.6249 36.4921 73.467 36.4297C73.3092 36.3673 73.1807 36.2728 73.0979 36.1582C73.0151 36.0436 72.9817 35.9139 73.0018 35.7857C73.0219 35.6575 73.0947 35.5364 73.211 35.4378C73.3273 35.3391 73.4818 35.2674 73.6551 35.2316C73.8283 35.1959 74.0125 35.1976 74.1844 35.2368C74.2988 35.2624 74.4049 35.3041 74.4967 35.3593C74.5885 35.4145 74.6641 35.4821 74.7192 35.5583C74.7743 35.6346 74.8077 35.7178 74.8176 35.8033C74.8274 35.8889 74.8135 35.9749 74.7766 36.0566Z" fill="white"/>
    <path d="M73.0434 39.9554C72.9893 40.0786 72.8853 40.1876 72.7445 40.2685C72.6038 40.3495 72.4327 40.3987 72.2528 40.4099C72.073 40.4211 71.8925 40.3939 71.7343 40.3317C71.5761 40.2695 71.4473 40.175 71.3641 40.0604C71.281 39.9457 71.2473 39.8159 71.2673 39.6875C71.2874 39.5591 71.3602 39.4379 71.4766 39.3392C71.593 39.2404 71.7478 39.1686 71.9213 39.1329C72.0947 39.0971 72.2791 39.0991 72.4511 39.1384C72.6801 39.1915 72.8706 39.3071 72.9814 39.46C73.0922 39.6129 73.1145 39.7908 73.0434 39.9554Z" fill="white"/>
  </g>
  <g opacity="0.4">
    <path d="M84.3592 25.3546C84.2752 25.5094 84.1118 25.6355 83.9024 25.7071C83.693 25.7786 83.4533 25.7904 83.2322 25.7399C83.0112 25.6894 82.8253 25.5805 82.7125 25.4353C82.5998 25.2902 82.5686 25.1197 82.6254 24.9587C82.6558 24.8723 82.7106 24.7913 82.7865 24.7207C82.8623 24.6501 82.9576 24.5913 83.0664 24.548C83.1752 24.5047 83.2952 24.4779 83.4191 24.469C83.5429 24.4602 83.668 24.4696 83.7866 24.4967C83.9052 24.5238 84.0148 24.5679 84.1086 24.6265C84.2024 24.685 84.2785 24.7567 84.3321 24.8371C84.3858 24.9174 84.4159 25.0048 84.4205 25.0939C84.4252 25.1829 84.4043 25.2716 84.3592 25.3546Z" fill="white"/>
    <path d="M82.6283 29.2523C82.5738 29.3746 82.4699 29.4826 82.3297 29.5627C82.1894 29.6428 82.0192 29.6914 81.8404 29.7023C81.6616 29.7132 81.4823 29.6859 81.3252 29.624C81.168 29.562 81.0401 29.4681 80.9575 29.3541C80.8748 29.2402 80.8413 29.1112 80.861 28.9836C80.8807 28.856 80.9528 28.7354 81.0682 28.6371C81.1836 28.5388 81.3371 28.4671 81.5094 28.4312C81.6816 28.3953 81.8649 28.3967 82.0361 28.4353C82.2656 28.4878 82.4568 28.6032 82.5678 28.7563C82.6788 28.9094 82.7005 29.0877 82.6283 29.2523Z" fill="white"/>
    <path d="M80.891 33.1536C80.8369 33.2769 80.7329 33.3859 80.5922 33.4668C80.4514 33.5477 80.2803 33.5969 80.1005 33.6081C79.9206 33.6194 79.7402 33.5922 79.582 33.5299C79.4238 33.4677 79.2949 33.3733 79.2118 33.2586C79.1287 33.1439 79.095 33.0142 79.115 32.8858C79.135 32.7574 79.2079 32.6361 79.3243 32.5374C79.4407 32.4387 79.5954 32.3669 79.7689 32.3311C79.9424 32.2954 80.1268 32.2973 80.2987 32.3366C80.5277 32.3898 80.7182 32.5053 80.8291 32.6582C80.9399 32.8111 80.9622 32.9891 80.891 33.1536Z" fill="white"/>
    <path d="M79.1561 37.0539C79.0721 37.2087 78.9087 37.3347 78.6993 37.4063C78.4899 37.4779 78.2502 37.4896 78.0291 37.4391C77.808 37.3886 77.6222 37.2797 77.5094 37.1346C77.3966 36.9894 77.3655 36.819 77.4222 36.6579C77.4527 36.5716 77.5075 36.4906 77.5834 36.4199C77.6592 36.3493 77.7545 36.2905 77.8633 36.2472C77.9721 36.204 78.0921 36.1771 78.2159 36.1683C78.3398 36.1594 78.4649 36.1688 78.5835 36.1959C78.7021 36.223 78.8116 36.2672 78.9055 36.3257C78.9993 36.3842 79.0754 36.4559 79.129 36.5363C79.1827 36.6167 79.2127 36.7041 79.2174 36.7931C79.2221 36.8821 79.2012 36.9708 79.1561 37.0539Z" fill="white"/>
    <path d="M77.4213 40.9525C77.3668 41.0748 77.2629 41.1828 77.1226 41.2629C76.9824 41.343 76.8121 41.3916 76.6334 41.4025C76.4546 41.4134 76.2753 41.3861 76.1182 41.3242C75.961 41.2622 75.833 41.1683 75.7504 41.0543C75.6678 40.9404 75.6342 40.8114 75.6539 40.6838C75.6736 40.5562 75.7458 40.4356 75.8612 40.3373C75.9766 40.239 76.1301 40.1673 76.3024 40.1314C76.4746 40.0955 76.6579 40.0969 76.829 40.1355C77.0586 40.188 77.2498 40.3034 77.3607 40.4565C77.4717 40.6096 77.4935 40.7879 77.4213 40.9525Z" fill="white"/>
  </g>
  <path opacity="0.7" d="M72.7995 42.6622L60.8298 44.43C60.2791 44.5107 59.7061 44.4319 59.2364 44.2108C58.7668 43.9897 58.4388 43.6444 58.3244 43.2505L54.88 31.2996C54.6557 30.5295 54.7876 29.7281 55.2557 29.0164C55.7238 28.3046 56.5028 27.7212 57.475 27.3541C57.8978 27.1936 58.3504 27.0772 58.8192 27.0083L65.0028 26.0965C65.6553 25.9995 66.3281 25.9956 66.9827 26.085C67.6373 26.1744 68.2608 26.3554 68.8175 26.6175C69.3742 26.8796 69.8531 27.2178 70.2268 27.6126C70.6006 28.0074 70.8618 28.4512 70.9955 28.9184L74.4438 40.8693C74.5008 41.0643 74.5034 41.2654 74.4516 41.4611C74.3998 41.6569 74.2944 41.8434 74.1417 42.0099C73.9889 42.1765 73.7918 42.3199 73.5614 42.4318C73.3311 42.5437 73.0722 42.622 72.7995 42.6622Z" fill="white"/>
  <path d="M71.15 29.4663L55.0312 31.8467L57.589 40.7164L73.7077 38.336L71.15 29.4663Z" fill="#407BFF"/>
  <path opacity="0.4" d="M71.15 29.4663L55.0312 31.8467L57.589 40.7164L73.7077 38.336L71.15 29.4663Z" fill="white"/>
  <path d="M56.9155 24.4311L65.6923 23.135C65.8341 23.114 65.9803 23.1133 66.1225 23.1328C66.2648 23.1523 66.4002 23.1916 66.5212 23.2486C66.6422 23.3055 66.7463 23.379 66.8276 23.4647C66.9089 23.5505 66.9658 23.6468 66.9951 23.7483L67.3376 24.9362L56.3857 26.5536L56.04 25.3547C56.0128 25.253 56.0138 25.1483 56.043 25.0468C56.0722 24.9453 56.1291 24.8489 56.2104 24.7632C56.2917 24.6774 56.3959 24.6039 56.5168 24.5469C56.6378 24.49 56.7733 24.4506 56.9155 24.4311Z" fill="#407BFF"/>
  <path opacity="0.7" d="M66.8896 26.0716C66.2643 25.9964 65.6248 26.0049 65.0038 26.0967L58.8358 27.0085C58.367 27.0773 57.9143 27.1937 57.4915 27.3542L57.2266 26.4313L66.6091 25.0371L66.8896 26.0716Z" fill="white"/>
  <path opacity="0.3" d="M57.3142 28.0127C57.309 27.9673 57.2838 27.9242 57.2421 27.8898C57.2005 27.8553 57.1446 27.8312 57.0826 27.8209C57.0205 27.8107 56.9555 27.8148 56.897 27.8328C56.8385 27.8507 56.7894 27.8815 56.757 27.9207C56.3217 28.4203 56.1222 29.0068 56.1881 29.5937C56.3985 30.5975 59.3909 41.5419 59.8507 43.2177C59.8904 43.3555 59.9949 43.4795 60.1468 43.569C60.248 43.6266 60.3663 43.6669 60.4926 43.6868C60.6189 43.7066 60.7499 43.7054 60.8755 43.6833L61.3313 43.6024L57.4349 29.2954C57.4349 29.2954 57.3648 28.6095 57.3142 28.0127Z" fill="white"/>
</svg>