<svg xmlns="http://www.w3.org/2000/svg" width="195" height="109" viewBox="0 0 195 109" fill="none">
  <path d="M175.304 101.545H162.398V101.614H175.304V101.545Z" fill="#EBEBEB"/>
  <path d="M129.058 102.351H125.672V102.42H129.058V102.351Z" fill="#EBEBEB"/>
  <path d="M162.009 98.8H154.531V98.8692H162.009V98.8Z" fill="#EBEBEB"/>
  <path d="M37.2702 99.2981H20.4414V99.3673H37.2702V99.2981Z" fill="#EBEBEB"/>
  <path d="M43.2086 99.2981H40.7422V99.3673H43.2086V99.2981Z" fill="#EBEBEB"/>
  <path d="M87.7286 100.547H51.2266V100.616H87.7286V100.547Z" fill="#EBEBEB"/>
  <path d="M92.3444 83.6027H17.1116C16.5215 83.6027 15.9556 83.4249 15.5384 83.1083C15.1211 82.7917 14.8867 82.3624 14.8867 81.9147V1.67324C14.8919 1.22811 15.1285 0.802547 15.5452 0.489172C15.9619 0.175797 16.5249 -1.70652e-05 17.1116 1.24238e-09H92.3444C92.9345 1.24238e-09 93.5004 0.177844 93.9177 0.494409C94.3349 0.810974 94.5693 1.24033 94.5693 1.68802V81.9147C94.5693 82.3624 94.3349 82.7917 93.9177 83.1083C93.5004 83.4249 92.9345 83.6027 92.3444 83.6027ZM17.1116 0.0591252C16.5477 0.0599067 16.0071 0.230215 15.6084 0.53275C15.2096 0.835286 14.9852 1.24539 14.9841 1.67324V81.9147C14.9852 82.3425 15.2096 82.7526 15.6084 83.0552C16.0071 83.3577 16.5477 83.528 17.1116 83.5288H92.3444C92.9084 83.528 93.4489 83.3577 93.8477 83.0552C94.2464 82.7526 94.4709 82.3425 94.4719 81.9147V1.67324C94.4709 1.24539 94.2464 0.835286 93.8477 0.53275C93.4489 0.230215 92.9084 0.0599067 92.3444 0.0591252H17.1116Z" fill="#EBEBEB"/>
  <path d="M176.63 83.6027H101.389C100.799 83.6019 100.234 83.4238 99.8169 83.1074C99.3998 82.7911 99.1651 82.3621 99.1641 81.9147V1.67324C99.1702 1.22835 99.4072 0.803236 99.8237 0.490026C100.24 0.176816 100.803 0.000753338 101.389 0H176.63C177.215 0.00153858 177.776 0.17804 178.191 0.491248C178.606 0.804456 178.842 1.22913 178.847 1.67324V81.9147C178.847 82.3614 178.613 82.7898 178.198 83.1062C177.782 83.4226 177.218 83.6011 176.63 83.6027ZM101.389 0.0591252C100.825 0.0599067 100.284 0.230215 99.8857 0.53275C99.487 0.835286 99.2625 1.24539 99.2615 1.67324V81.9147C99.2625 82.3425 99.487 82.7526 99.8857 83.0552C100.284 83.3577 100.825 83.528 101.389 83.5288H176.63C177.193 83.528 177.734 83.3577 178.133 83.0552C178.532 82.7526 178.756 82.3425 178.757 81.9147V1.67324C178.756 1.24539 178.532 0.835286 178.133 0.53275C177.734 0.230215 177.193 0.0599067 176.63 0.0591252H101.389Z" fill="#EBEBEB"/>
  <path d="M194.823 96.7874H0V96.8565H194.823V96.7874Z" fill="#EBEBEB"/>
  <path d="M162.397 12.0596H115.328V96.8241H162.397V12.0596Z" fill="#F0F0F0"/>
  <path d="M160.396 13.5977H117.328V96.8279H160.396V13.5977Z" fill="#F5F5F5"/>
  <path d="M137.851 24.5762H120.586V55.058H137.851V24.5762Z" fill="#FAFAFA"/>
  <path d="M157.367 24.5762H140.102V55.058H157.367V24.5762Z" fill="#FAFAFA"/>
  <path d="M157.365 64.2766H120.586V94.7585H157.365V64.2766Z" fill="#EBEBEB"/>
  <path d="M127.319 15.8047H150.632C152.417 15.8047 154.13 16.3429 155.393 17.3009C156.655 18.2589 157.365 19.5583 157.365 20.9131V22.9972H120.586V20.9131C120.586 19.5583 121.295 18.2589 122.558 17.3009C123.821 16.3429 125.533 15.8047 127.319 15.8047Z" fill="#FAFAFA"/>
  <path d="M123.726 56.4287H120.586V62.6368H123.726V56.4287Z" fill="#E6E6E6"/>
  <path d="M123.728 62.6379H124.344V56.4298H123.728V62.6379Z" fill="#E0E0E0"/>
  <path d="M122.693 58.8696C122.693 59.0685 122.616 59.2631 122.471 59.4288C122.326 59.5945 122.119 59.7238 121.877 59.8003C121.635 59.8768 121.369 59.8972 121.112 59.8587C120.854 59.8203 120.618 59.7248 120.432 59.5843C120.247 59.4439 120.12 59.2648 120.069 59.0697C120.017 58.8747 120.043 58.6724 120.143 58.4886C120.244 58.3048 120.413 58.1476 120.631 58.037C120.849 57.9265 121.106 57.8674 121.368 57.8674C121.718 57.8674 122.055 57.9729 122.303 58.1608C122.551 58.3486 122.692 58.6035 122.693 58.8696Z" fill="#E0E0E0"/>
  <path d="M122.44 60.6047H121.758V61.8611H122.44V60.6047Z" fill="#E0E0E0"/>
  <path d="M120.198 60.2735C121.221 60.2735 122.049 59.6448 122.049 58.8693C122.049 58.0938 121.221 57.4651 120.198 57.4651C119.176 57.4651 118.348 58.0938 118.348 58.8693C118.348 59.6448 119.176 60.2735 120.198 60.2735Z" fill="#EBEBEB"/>
  <path d="M31.5273 19.5303L48.2159 12.1633H61.0742L78.0394 19.1815V84.0682H31.5273V19.5303Z" fill="#FAFAFA"/>
  <path d="M78.5186 84.0682H31.5273V19.5304L32.0066 19.1816C38.1869 14.6639 46.4409 12.1471 55.023 12.1634C63.6053 12.1462 71.8597 14.6631 78.0394 19.1816L78.5186 19.5304V84.0682ZM34.6445 81.7032H75.4015V20.5444C69.8402 16.675 62.5687 14.5283 55.023 14.5283C47.4773 14.5283 40.2058 16.675 34.6445 20.5444V81.7032Z" fill="#F5F5F5"/>
  <path d="M75.9923 31.023V29.2492H56.1905V14.2285H53.8526V29.2492H34.0547V31.023H53.8526V47.2291H34.0547V49.0029H53.8526V65.2061H34.0547V66.9798H53.8526V82.0035H56.1905V66.9798H75.9923V65.2061H56.1905V49.0029H75.9923V47.2291H56.1905V31.023H75.9923Z" fill="#F0F0F0"/>
  <path d="M80.0772 85.2518H29.9688V19.0496L30.4246 18.7037C36.9536 13.7613 45.8 10.9856 55.023 10.9856C64.246 10.9856 73.0924 13.7613 79.6213 18.7037L80.0772 19.0496V85.2518ZM33.0859 82.8868H76.9601V20.034C71.0576 15.7424 63.1983 13.3465 55.023 13.3465C46.8477 13.3465 38.9884 15.7424 33.0859 20.034V82.8868Z" fill="#EBEBEB"/>
  <path d="M95.5328 109C137.257 109 171.081 107.502 171.081 105.654C171.081 103.805 137.257 102.307 95.5328 102.307C53.8086 102.307 19.9844 103.805 19.9844 105.654C19.9844 107.502 53.8086 109 95.5328 109Z" fill="#F5F5F5"/>
  <path d="M93.4233 90.8937L94.0038 91.3756L94.639 90.9351L95.2156 91.414L95.8508 90.9736L96.4274 91.4554L97.0626 91.0149L97.6431 91.4939L98.2744 91.0534L98.8549 91.5352L99.4862 91.0948L100.067 91.5737L100.698 91.1362L101.279 91.6151L101.91 91.1746L102.49 91.6564L103.122 91.216L103.702 91.6949L104.333 91.2544L104.914 91.7363L105.549 91.2958L106.126 91.7747L106.761 91.3342L107.338 91.8161L107.973 91.3756L108.549 91.8545L109.184 91.417L109.765 91.8959L110.396 91.4554L110.977 91.9343L111.608 91.4968L112.189 91.9757L112.82 91.5352L113.4 92.0142L114.032 91.5766L114.343 91.8309L115.282 91.2041L113.28 88.7298L113.007 86.4712L92.4219 89.6226L92.8622 91.2869L93.4233 90.8937Z" fill="#263238"/>
  <path opacity="0.7" d="M93.4233 90.8937L94.0038 91.3756L94.639 90.9351L95.2156 91.414L95.8508 90.9736L96.4274 91.4554L97.0626 91.0149L97.6431 91.4939L98.2744 91.0534L98.8549 91.5352L99.4862 91.0948L100.067 91.5737L100.698 91.1362L101.279 91.6151L101.91 91.1746L102.49 91.6564L103.122 91.216L103.702 91.6949L104.333 91.2544L104.914 91.7363L105.549 91.2958L106.126 91.7747L106.761 91.3342L107.338 91.8161L107.973 91.3756L108.549 91.8545L109.184 91.417L109.765 91.8959L110.396 91.4554L110.977 91.9343L111.608 91.4968L112.189 91.9757L112.82 91.5352L113.4 92.0142L114.032 91.5766L114.343 91.8309L115.282 91.2041L113.28 88.7298L113.007 86.4712L92.4219 89.6226L92.8622 91.2869L93.4233 90.8937Z" fill="white"/>
  <path d="M119.623 90.4821C118.59 89.6573 117.242 87.4342 117.285 86.299C117.289 86.2547 117.301 86.211 117.32 86.169C117.351 86.0929 117.356 86.0119 117.334 85.934C117.312 85.856 117.264 85.7837 117.194 85.7241C117.124 85.6646 117.035 85.6198 116.936 85.5941C116.836 85.5685 116.73 85.5628 116.626 85.5777L113.455 86.0625C113.148 86.1097 112.872 86.2341 112.67 86.4155C112.469 86.5969 112.354 86.8246 112.344 87.0617L112.258 89.0188C112.249 89.2648 112.354 89.5056 112.555 89.6987L114.682 91.7681C114.84 91.9222 115.052 92.0398 115.294 92.1076C115.535 92.1755 115.797 92.191 116.05 92.1524L119.806 91.5759C119.923 91.558 120.03 91.5144 120.114 91.4506C120.198 91.3868 120.256 91.3057 120.28 91.2172C120.304 91.1287 120.294 91.0368 120.25 90.9529C120.205 90.869 120.13 90.7968 120.032 90.7452C119.885 90.6673 119.748 90.5792 119.623 90.4821ZM115.968 91.0882C115.118 90.6033 114.382 88.9567 114.183 88.1644C114.117 87.8984 114.027 87.2775 114.261 87.0854C114.425 86.9435 114.99 86.8844 115.399 86.8607C115.448 86.8577 115.498 86.8639 115.543 86.8786C115.588 86.8934 115.628 86.9163 115.659 86.9454C115.691 86.9745 115.712 87.009 115.721 87.0457C115.731 87.0825 115.729 87.1204 115.715 87.1563C115.646 87.2908 115.622 87.4359 115.644 87.5791C115.73 87.7831 116.396 87.9427 116.494 88.1437C116.591 88.3448 116.276 88.6936 116.381 88.8562C116.486 89.0188 117.086 89.0809 117.215 89.2375C117.343 89.3942 117.141 89.8761 117.25 90.0653C117.399 90.2328 117.583 90.3806 117.795 90.5028C117.831 90.5241 117.86 90.5513 117.88 90.5823C117.899 90.6133 117.91 90.6472 117.91 90.6817C117.91 90.7161 117.899 90.7501 117.88 90.7811C117.86 90.8121 117.831 90.8392 117.795 90.8605C117.561 91.0088 117.298 91.1284 117.016 91.2153C116.653 91.2584 116.281 91.2139 115.952 91.0882H115.968Z" fill="#407BFF"/>
  <path opacity="0.3" d="M119.623 90.4821C118.59 89.6573 117.242 87.4342 117.285 86.299C117.289 86.2547 117.301 86.211 117.32 86.169C117.351 86.0929 117.356 86.0119 117.334 85.934C117.312 85.856 117.264 85.7837 117.194 85.7241C117.124 85.6646 117.035 85.6198 116.936 85.5941C116.836 85.5685 116.73 85.5628 116.626 85.5777L113.455 86.0625C113.148 86.1097 112.872 86.2341 112.67 86.4155C112.469 86.5969 112.354 86.8246 112.344 87.0617L112.258 89.0188C112.249 89.2648 112.354 89.5056 112.555 89.6987L114.682 91.7681C114.84 91.9222 115.052 92.0398 115.294 92.1076C115.535 92.1755 115.797 92.191 116.05 92.1524L119.806 91.5759C119.923 91.558 120.03 91.5144 120.114 91.4506C120.198 91.3868 120.256 91.3057 120.28 91.2172C120.304 91.1287 120.294 91.0368 120.25 90.9529C120.205 90.869 120.13 90.7968 120.032 90.7452C119.885 90.6673 119.748 90.5792 119.623 90.4821ZM115.968 91.0882C115.118 90.6033 114.382 88.9567 114.183 88.1644C114.117 87.8984 114.027 87.2775 114.261 87.0854C114.425 86.9435 114.99 86.8844 115.399 86.8607C115.448 86.8577 115.498 86.8639 115.543 86.8786C115.588 86.8934 115.628 86.9163 115.659 86.9454C115.691 86.9745 115.712 87.009 115.721 87.0457C115.731 87.0825 115.729 87.1204 115.715 87.1563C115.646 87.2908 115.622 87.4359 115.644 87.5791C115.73 87.7831 116.396 87.9427 116.494 88.1437C116.591 88.3448 116.276 88.6936 116.381 88.8562C116.486 89.0188 117.086 89.0809 117.215 89.2375C117.343 89.3942 117.141 89.8761 117.25 90.0653C117.399 90.2328 117.583 90.3806 117.795 90.5028C117.831 90.5241 117.86 90.5513 117.88 90.5823C117.899 90.6133 117.91 90.6472 117.91 90.6817C117.91 90.7161 117.899 90.7501 117.88 90.7811C117.86 90.8121 117.831 90.8392 117.795 90.8605C117.561 91.0088 117.298 91.1284 117.016 91.2153C116.653 91.2584 116.281 91.2139 115.952 91.0882H115.968Z" fill="white"/>
  <path d="M138.964 29.6962C140.091 29.6603 141.155 29.296 141.937 28.6793C142.804 28.0213 143.29 27.1292 143.29 26.199C143.29 25.2688 142.804 24.3767 141.937 23.7187C141.261 23.1712 140.351 22.8226 139.369 22.7343C138.476 22.6973 137.581 22.6973 136.688 22.7343C135.706 22.8203 134.796 23.1681 134.121 23.7157L130.852 26.196L134.121 28.6763C134.799 29.2215 135.707 29.5697 136.688 29.6607C137.257 29.7051 138.395 29.708 138.964 29.6962Z" fill="#407BFF"/>
  <path opacity="0.3" d="M138.964 29.6962C140.091 29.6603 141.155 29.296 141.937 28.6793C142.804 28.0213 143.29 27.1292 143.29 26.199C143.29 25.2688 142.804 24.3767 141.937 23.7187C141.261 23.1712 140.351 22.8226 139.369 22.7343C138.476 22.6973 137.581 22.6973 136.688 22.7343C135.706 22.8203 134.796 23.1681 134.121 23.7157L130.852 26.196L134.121 28.6763C134.799 29.2215 135.707 29.5697 136.688 29.6607C137.257 29.7051 138.395 29.708 138.964 29.6962Z" fill="white"/>
  <path d="M135.398 23.7195C136.045 23.2284 136.869 22.8939 137.766 22.7583C138.663 22.6227 139.594 22.692 140.439 22.9575C141.284 23.223 142.007 23.6728 142.515 24.2499C143.024 24.827 143.295 25.5056 143.295 26.1997C143.295 26.8939 143.024 27.5724 142.515 28.1496C142.007 28.7267 141.284 29.1765 140.439 29.442C139.594 29.7075 138.663 29.7768 137.766 29.6412C136.869 29.5056 136.045 29.1711 135.398 28.68L132.129 26.1997L135.398 23.7195Z" fill="#407BFF"/>
  <path opacity="0.6" d="M135.398 23.7195C136.045 23.2284 136.869 22.8939 137.766 22.7583C138.663 22.6227 139.594 22.692 140.439 22.9575C141.284 23.223 142.007 23.6728 142.515 24.2499C143.024 24.827 143.295 25.5056 143.295 26.1997C143.295 26.8939 143.024 27.5724 142.515 28.1496C142.007 28.7267 141.284 29.1765 140.439 29.442C139.594 29.7075 138.663 29.7768 137.766 29.6412C136.869 29.5056 136.045 29.1711 135.398 28.68L132.129 26.1997L135.398 23.7195Z" fill="white"/>
  <path d="M127.086 23.2202L130.967 26.1646H132.054L128.173 23.2202H127.086Z" fill="#263238"/>
  <path opacity="0.7" d="M127.086 23.2202L130.967 26.1646H132.054L128.173 23.2202H127.086Z" fill="white"/>
  <path d="M127.086 23.22L127.351 23.019C127.438 22.9524 127.542 22.8996 127.656 22.8635C127.771 22.8275 127.893 22.809 128.017 22.8091H128.298C128.332 22.8094 128.365 22.8173 128.393 22.8318C128.422 22.8462 128.444 22.8666 128.457 22.8905C128.47 22.9143 128.474 22.9406 128.468 22.966C128.462 22.9915 128.446 23.015 128.422 23.0338L128.173 23.22H127.086Z" fill="#263238"/>
  <path opacity="0.5" d="M127.086 23.22L127.351 23.019C127.438 22.9524 127.542 22.8996 127.656 22.8635C127.771 22.8275 127.893 22.809 128.017 22.8091H128.298C128.332 22.8094 128.365 22.8173 128.393 22.8318C128.422 22.8462 128.444 22.8666 128.457 22.8905C128.47 22.9143 128.474 22.9406 128.468 22.966C128.462 22.9915 128.446 23.015 128.422 23.0338L128.173 23.22H127.086Z" fill="white"/>
  <g opacity="0.7">
    <path d="M140.733 27.3341C141.087 26.9617 141.255 26.5058 141.207 26.0481C141.158 25.5904 140.896 25.1607 140.468 24.8361C140.04 24.5114 139.474 24.3128 138.871 24.276C138.268 24.2392 137.667 24.3665 137.176 24.6351L140.733 27.3341Z" fill="white"/>
    <path d="M136.599 25.0754C136.245 25.4479 136.077 25.9037 136.125 26.3615C136.174 26.8192 136.436 27.2488 136.864 27.5735C137.292 27.8982 137.858 28.0967 138.461 28.1336C139.064 28.1704 139.665 28.0431 140.156 27.7745L136.599 25.0754Z" fill="white"/>
  </g>
  <path d="M156.929 27.2002L154.93 27.892C154.93 27.892 157.575 31.9361 158.378 33.3137C159.227 34.7623 161.211 38.5788 161.998 40.0953C162.04 40.1768 162.103 40.2509 162.184 40.313C162.266 40.3752 162.363 40.4241 162.469 40.4567C162.576 40.4894 162.691 40.5052 162.806 40.503C162.921 40.5008 163.035 40.4808 163.14 40.4442L164.04 40.119C164.144 40.0823 164.238 40.0297 164.315 39.9644C164.392 39.8991 164.451 39.8226 164.487 39.7395C164.524 39.6564 164.537 39.5685 164.527 39.4813C164.517 39.394 164.484 39.3092 164.429 39.2321C163.432 37.7865 160.922 34.1267 160.026 32.684C159.204 31.3389 156.929 27.2002 156.929 27.2002Z" fill="#407BFF"/>
  <path opacity="0.5" d="M156.929 27.2002L154.93 27.892C154.93 27.892 157.575 31.9361 158.378 33.3137C159.227 34.7623 161.211 38.5788 161.998 40.0953C162.04 40.1768 162.103 40.2509 162.184 40.313C162.266 40.3752 162.363 40.4241 162.469 40.4567C162.576 40.4894 162.691 40.5052 162.806 40.503C162.921 40.5008 163.035 40.4808 163.14 40.4442L164.04 40.119C164.144 40.0823 164.238 40.0297 164.315 39.9644C164.392 39.8991 164.451 39.8226 164.487 39.7395C164.524 39.6564 164.537 39.5685 164.527 39.4813C164.517 39.394 164.484 39.3092 164.429 39.2321C163.432 37.7865 160.922 34.1267 160.026 32.684C159.204 31.3389 156.929 27.2002 156.929 27.2002Z" fill="white"/>
  <path d="M151.996 26.6513C152.441 26.3161 152.911 26.0003 153.403 25.7053C153.834 25.4609 154.33 25.2895 154.856 25.2028C155.982 25.0224 157.771 24.9426 159.797 26.4887L159.298 26.6602C159.298 26.6602 157.147 25.2028 156.598 26.0956C156.438 26.3587 156.948 27.2249 156.948 27.2249L154.95 27.9166C154.834 27.7538 154.676 27.6102 154.486 27.4943C154.296 27.3785 154.077 27.2926 153.842 27.2419C153.608 27.1913 153.362 27.1767 153.12 27.1992C152.878 27.2216 152.644 27.2806 152.432 27.3727L151.996 26.6513Z" fill="#263238"/>
  <path opacity="0.6" d="M151.996 26.6513C152.441 26.3161 152.911 26.0003 153.403 25.7053C153.834 25.4609 154.33 25.2895 154.856 25.2028C155.982 25.0224 157.771 24.9426 159.797 26.4887L159.298 26.6602C159.298 26.6602 157.147 25.2028 156.598 26.0956C156.438 26.3587 156.948 27.2249 156.948 27.2249L154.95 27.9166C154.834 27.7538 154.676 27.6102 154.486 27.4943C154.296 27.3785 154.077 27.2926 153.842 27.2419C153.608 27.1913 153.362 27.1767 153.12 27.1992C152.878 27.2216 152.644 27.2806 152.432 27.3727L151.996 26.6513Z" fill="white"/>
  <path d="M151.424 26.3274L151.226 26.3961C150.905 26.5073 150.763 26.7949 150.91 27.0385L151.347 27.7646C151.493 28.0082 151.872 28.1156 152.193 28.0044L152.392 27.9357C152.713 27.8245 152.854 27.5369 152.708 27.2933L152.271 26.5672C152.125 26.3236 151.745 26.2162 151.424 26.3274Z" fill="#263238"/>
  <path opacity="0.4" d="M151.424 26.3274L151.226 26.3961C150.905 26.5073 150.763 26.7949 150.91 27.0385L151.347 27.7646C151.493 28.0082 151.872 28.1156 152.193 28.0044L152.392 27.9357C152.713 27.8245 152.854 27.5369 152.708 27.2933L152.271 26.5672C152.125 26.3236 151.745 26.2162 151.424 26.3274Z" fill="white"/>
  <path d="M133.878 31.3206H36.9531V81.3403H133.878V31.3206Z" fill="#263238"/>
  <path opacity="0.5" d="M133.878 31.3206H36.9531V81.3403H133.878V31.3206Z" fill="white"/>
  <path opacity="0.9" d="M131.736 32.9485H39.1016V79.7134H131.736V32.9485Z" fill="white"/>
  <path d="M79.9631 55.5366H54.3906V71.6837H79.9631V55.5366Z" fill="#263238"/>
  <path opacity="0.7" d="M79.9631 55.5366H54.3906V71.6837H79.9631V55.5366Z" fill="white"/>
  <path d="M76.6877 59.8374H65.8828V70.0217H76.6877V59.8374Z" fill="#407BFF"/>
  <path d="M64.2327 59.8374H57.3555V68.31H64.2327V59.8374Z" fill="#407BFF"/>
  <path opacity="0.7" d="M63.6069 60.312H57.9766V67.8386H63.6069V60.312Z" fill="white"/>
  <path opacity="0.5" d="M58.8594 67.8386H61.205L63.6092 61.0215V60.312H61.5129L58.8594 67.8386Z" fill="white"/>
  <path opacity="0.7" d="M70.8802 60.4868H66.7383V70.0207H70.8802V60.4868Z" fill="white"/>
  <path opacity="0.7" d="M75.8255 60.4868H71.6836V70.0207H75.8255V60.4868Z" fill="white"/>
  <path d="M79.3523 48.1606H57.8906V55.7582H79.3523V48.1606Z" fill="#263238"/>
  <path opacity="0.7" d="M79.3523 48.1606H57.8906V55.7582H79.3523V48.1606Z" fill="white"/>
  <path d="M68.4827 50.5288H61.6055V52.8169H68.4827V50.5288Z" fill="#407BFF"/>
  <path opacity="0.7" d="M67.8609 51.0015H62.2305V52.3436H67.8609V51.0015Z" fill="white"/>
  <path d="M76.0101 50.5288H69.1328V52.8169H76.0101V50.5288Z" fill="#407BFF"/>
  <path opacity="0.7" d="M75.3882 51.0015H69.7578V52.3436H75.3882V51.0015Z" fill="white"/>
  <path opacity="0.5" d="M63.6367 52.3436H65.9824L66.4539 51.0015H64.1082L63.6367 52.3436Z" fill="white"/>
  <path opacity="0.5" d="M71.1641 52.3436H73.5097L73.9812 51.0015H71.6355L71.1641 52.3436Z" fill="white"/>
  <path d="M85.4917 57.7321H51.1094L54.1135 53.3391H84.6345L85.4917 57.7321Z" fill="#407BFF"/>
  <path opacity="0.3" d="M85.4917 57.7321H51.1094L54.1135 53.3391H84.6345L85.4917 57.7321Z" fill="black"/>
  <path d="M80.4806 50.0074H55.6562L57.5928 47.1724H79.9273L80.4806 50.0074Z" fill="#407BFF"/>
  <path opacity="0.3" d="M80.4806 50.0074H55.6562L57.5928 47.1724H79.9273L80.4806 50.0074Z" fill="black"/>
  <path d="M79.9627 70.0239H51.1094V71.6853H79.9627V70.0239Z" fill="#263238"/>
  <path opacity="0.5" d="M79.9627 70.0239H51.1094V71.6853H79.9627V70.0239Z" fill="white"/>
  <path d="M78.5586 43.8653V56.8728H110.369V43.8653L94.4639 37.4709L78.5586 43.8653Z" fill="#407BFF"/>
  <path opacity="0.5" d="M78.5586 43.8653V56.8728H110.369V43.8653L94.4639 37.4709L78.5586 43.8653Z" fill="white"/>
  <path d="M110.369 55.7632H78.5586V71.6885H110.369V55.7632Z" fill="#407BFF"/>
  <path opacity="0.5" d="M110.369 55.7632H78.5586V71.6885H110.369V55.7632Z" fill="white"/>
  <path d="M106.424 53.1761H82.5039V45.2001L94.466 40.1538L106.424 45.2001V53.1761Z" fill="#407BFF"/>
  <path opacity="0.8" d="M106.424 53.1761H82.5039V45.2001L94.466 40.1538L106.424 45.2001V53.1761Z" fill="white"/>
  <path d="M94.139 46.3188H87.2617V51.5366H94.139V46.3188Z" fill="#407BFF"/>
  <path opacity="0.7" d="M93.5132 46.7944H87.8828V51.0662H93.5132V46.7944Z" fill="white"/>
  <path d="M101.666 46.3188H94.7891V51.5366H101.666V46.3188Z" fill="#407BFF"/>
  <path opacity="0.7" d="M101.044 46.7944H95.4141V51.0662H101.044V46.7944Z" fill="white"/>
  <path d="M107.279 59.6047H81.6445V71.684H107.279V59.6047Z" fill="#263238"/>
  <path opacity="0.3" d="M107.279 59.6047H81.6445V71.684H107.279V59.6047Z" fill="white"/>
  <path opacity="0.5" d="M88.7812 51.0643H91.1269L92.6309 46.7925H90.2853L88.7812 51.0643Z" fill="white"/>
  <path opacity="0.5" d="M96.3086 51.0643H98.6543L100.162 46.7925H97.8126L96.3086 51.0643Z" fill="white"/>
  <path d="M113.402 46.4641L94.4655 38.6419L75.5287 46.4641L74.5039 45.0333L94.4655 36.7883L114.427 45.0333L113.402 46.4641Z" fill="#407BFF"/>
  <path d="M111.656 57.7314H77.2695L78.1307 54.6392H110.799L111.656 57.7314Z" fill="#407BFF"/>
  <path d="M107.476 46.3196L94.4652 40.9452L81.4511 46.3196L80.6328 45.1756L94.4652 39.4641L108.298 45.1756L107.476 46.3196Z" fill="#407BFF"/>
  <path opacity="0.5" d="M86.6458 60.2571H82.5039V71.6859H86.6458V60.2571Z" fill="white"/>
  <path opacity="0.5" d="M91.5873 60.2571H87.4453V71.6859H91.5873V60.2571Z" fill="white"/>
  <path opacity="0.5" d="M96.5326 60.2571H92.3906V71.6859H96.5326V60.2571Z" fill="white"/>
  <path opacity="0.5" d="M101.478 60.2571H97.3359V71.6859H101.478V60.2571Z" fill="white"/>
  <path opacity="0.5" d="M106.423 60.2571H102.281V71.6859H106.423V60.2571Z" fill="white"/>
  <path d="M110.156 73.3143H78.7737V72.6226H78.3451V73.3143H51.3231V72.6226H50.8945V73.6395H78.3451V74.4968H110.584V72.6255H110.156V73.3143ZM110.156 74.1687H78.7737V73.6395H110.156V74.1687Z" fill="#263238"/>
  <path d="M115.542 54.478V36.6252H96.3086V36.9534H115.113V54.481H111.657V54.8062H115.113V71.5238H111.657V71.8371H116.613V54.478H115.542ZM116.184 71.5208H115.542V54.8032H116.184V71.5208Z" fill="#263238"/>
  <path d="M58.1942 41.9524H78.3467V42.7624H78.7753V41.6243H57.7656V46.3188H58.1942V41.9524Z" fill="#263238"/>
  <path d="M53.7577 53.178H52.5771V47.3364H56.6527V47.0112H52.1484V53.5031H53.7577V53.178Z" fill="#263238"/>
  <g opacity="0.2">
    <path d="M110.156 73.3143H78.7737V72.6226H78.3451V73.3143H51.3231V72.6226H50.8945V73.6395H78.3451V74.4968H110.584V72.6255H110.156V73.3143ZM110.156 74.1687H78.7737V73.6395H110.156V74.1687Z" fill="white"/>
    <path d="M115.542 54.4783V36.6255H96.3086V36.9536H115.113V54.4812H111.657V54.8064H115.113V71.524H111.657V71.8374H116.613V54.4783H115.542ZM116.184 71.521H115.542V54.8035H116.184V71.521Z" fill="white"/>
    <path d="M58.1942 41.9524H78.3467V42.7624H78.7753V41.6243H57.7656V46.3188H58.1942V41.9524Z" fill="white"/>
    <path d="M53.7577 53.1799H52.5771V47.3384H56.6527V47.0132H52.1484V53.5051H53.7577V53.1799Z" fill="white"/>
  </g>
  <path d="M115.88 75.4507H110.156V79.8851H131.949V75.4507H115.88ZM110.585 75.7759H115.452V77.4994H110.585V75.7759ZM115.452 79.551H110.585V77.8246H115.452V79.551ZM123.486 79.551H115.88V77.8246H123.486V79.551ZM131.521 79.551H123.907V77.8246H131.513L131.521 79.551ZM123.907 77.4994H115.88V75.7759H131.521V77.4994H123.907Z" fill="#263238"/>
  <path opacity="0.2" d="M115.88 75.4507H110.156V79.8851H131.949V75.4507H115.88ZM110.585 75.7759H115.452V77.4994H110.585V75.7759ZM115.452 79.551H110.585V77.8246H115.452V79.551ZM123.486 79.551H115.88V77.8246H123.486V79.551ZM131.521 79.551H123.907V77.8246H131.513L131.521 79.551ZM123.907 77.4994H115.88V75.7759H131.521V77.4994H123.907Z" fill="white"/>
  <path d="M56.6907 90.9824C56.6907 90.9824 58.7753 87.3639 56.7648 87.2811C54.7542 87.1983 56.6907 90.9824 56.6907 90.9824Z" fill="#407BFF"/>
  <path d="M60.457 88.2289C60.457 88.2289 64.3925 86.0679 62.5377 84.9771C60.683 83.8862 60.457 88.2289 60.457 88.2289Z" fill="#407BFF"/>
  <path d="M70.7344 89.122C70.7344 89.122 75.6322 90.4819 75.3127 88.7672C74.9932 87.0526 70.7344 89.122 70.7344 89.122Z" fill="#407BFF"/>
  <path d="M62.6055 87.6372C62.6055 87.6372 68.1151 88.3999 65.9681 90.2328C63.8212 92.0657 62.6055 87.6372 62.6055 87.6372Z" fill="#407BFF"/>
  <path d="M54.623 94.1934C54.623 94.1934 54.5334 90.2764 52.8034 91.0982C51.0734 91.92 54.623 94.1934 54.623 94.1934Z" fill="#407BFF"/>
  <path d="M64.8125 87.5388C64.8125 87.5388 70.4974 88.1714 69.7065 86.2233C68.9155 84.2751 64.8125 87.5388 64.8125 87.5388Z" fill="#407BFF"/>
  <path d="M68.9066 88.3914C68.9066 88.3914 72.1056 91.2027 69.6859 91.5841C67.2662 91.9655 68.9066 88.3914 68.9066 88.3914Z" fill="#407BFF"/>
  <path d="M58.0234 89.6884C58.0234 89.6884 62.2589 88.0329 62.0797 90.1732C61.9004 92.3135 58.0234 89.6884 58.0234 89.6884Z" fill="#407BFF"/>
  <g opacity="0.4">
    <path d="M54.623 94.1956C54.623 94.1956 54.5334 90.2786 52.8034 91.1004C51.0734 91.9222 54.623 94.1956 54.623 94.1956Z" fill="white"/>
    <path d="M64.8125 87.5407C64.8125 87.5407 70.4974 88.1734 69.7065 86.2252C68.9155 84.277 64.8125 87.5407 64.8125 87.5407Z" fill="white"/>
    <path d="M68.9027 88.3916C68.9027 88.3916 72.1017 91.203 69.682 91.5843C67.2623 91.9657 68.9027 88.3916 68.9027 88.3916Z" fill="white"/>
    <path d="M58.0195 89.6886C58.0195 89.6886 62.255 88.0331 62.0757 90.1734C61.8965 92.3137 58.0195 89.6886 58.0195 89.6886Z" fill="white"/>
  </g>
  <path d="M55.3984 92.7604C55.3984 92.7604 59.2403 90.1382 59.93 92.3081C60.6197 94.478 55.3984 92.7604 55.3984 92.7604Z" fill="#407BFF"/>
  <path d="M53.5078 96.2041C54.0874 93.8802 55.4122 91.7004 57.3653 89.857C61.2929 86.3095 66.8688 86.9658 71.6186 89.2273C72.0082 89.4077 71.5523 89.8186 71.1783 89.6353C68.6611 88.4351 65.6297 87.4211 62.606 87.9059C60.4201 88.2577 58.6667 89.384 57.3731 90.7114C55.8058 92.3767 54.7245 94.2764 54.2014 96.2839C54.1157 96.615 53.4221 96.5352 53.5195 96.2041H53.5078Z" fill="#407BFF"/>
  <g opacity="0.3">
    <path d="M53.5078 96.2007C54.0874 93.8768 55.4122 91.697 57.3653 89.8536C61.2929 86.3061 66.8688 86.9624 71.6186 89.2239C72.0082 89.4042 71.5523 89.8152 71.1783 89.6319C68.6611 88.4316 65.6297 87.4176 62.606 87.9025C60.4201 88.2543 58.6667 89.3806 57.3731 90.7079C55.8058 92.3733 54.7245 94.273 54.2014 96.2805C54.1157 96.6116 53.4221 96.5318 53.5195 96.2007H53.5078Z" fill="black"/>
  </g>
  <path d="M50.5863 91.4838C50.5863 91.4838 48.5875 87.688 47.0484 88.7493C45.5092 89.8106 50.5863 91.4838 50.5863 91.4838Z" fill="#407BFF"/>
  <path d="M50.656 87.3784C50.656 87.3784 51.4353 83.6062 49.0156 83.8486C46.5959 84.091 50.656 87.3784 50.656 87.3784Z" fill="#407BFF"/>
  <path d="M58.9883 82.2825C58.9883 82.2825 63.8705 80.5354 61.9769 79.4681C60.0832 78.4009 58.9883 82.2825 58.9883 82.2825Z" fill="#407BFF"/>
  <path d="M51.6406 85.7463C51.6406 85.7463 56.3904 83.2217 56.6086 85.7463C56.8268 88.271 51.6406 85.7463 51.6406 85.7463Z" fill="#407BFF"/>
  <path d="M52.2116 94.9718C52.2116 94.9718 48.3425 92.1722 47.8827 93.7361C47.4229 95.3 52.2116 94.9718 52.2116 94.9718Z" fill="#407BFF"/>
  <path d="M53.1512 84.4386C53.1512 84.4386 57.9009 81.7218 55.4384 80.7492C52.9758 79.7766 53.1512 84.4386 53.1512 84.4386Z" fill="#407BFF"/>
  <path d="M56.9531 82.7778C56.9531 82.7778 62.0185 83.035 60.6197 84.6639C59.2209 86.2928 56.9531 82.7778 56.9531 82.7778Z" fill="#407BFF"/>
  <path d="M50.2969 89.7947C50.2969 89.7947 51.7736 86.2265 53.718 87.879C55.6623 89.5316 50.2969 89.7947 50.2969 89.7947Z" fill="#407BFF"/>
  <g opacity="0.4">
    <path d="M52.2116 94.9769C52.2116 94.9769 48.3425 92.1774 47.8827 93.7412C47.4229 95.3051 52.2116 94.9769 52.2116 94.9769Z" fill="white"/>
    <path d="M53.1512 84.4425C53.1512 84.4425 57.9009 81.7257 55.4384 80.7531C52.9758 79.7805 53.1512 84.4425 53.1512 84.4425Z" fill="white"/>
    <path d="M56.9531 82.7761C56.9531 82.7761 62.0185 83.0333 60.6197 84.6622C59.2209 86.2911 56.9531 82.7761 56.9531 82.7761Z" fill="white"/>
    <path d="M50.2969 89.7986C50.2969 89.7986 51.7736 86.2304 53.718 87.8829C55.6623 89.5355 50.2969 89.7986 50.2969 89.7986Z" fill="white"/>
  </g>
  <path d="M51.3711 93.4966C51.3711 93.4966 51.6205 89.4436 54.2311 90.6379C56.8417 91.8323 51.3711 93.4966 51.3711 93.4966Z" fill="#407BFF"/>
  <path d="M53.3338 97.0568C51.5017 95.0427 50.3496 92.718 49.979 90.287C49.3945 85.5127 54.0897 82.8757 59.7201 81.8647C60.1682 81.7848 60.2423 82.3288 59.7981 82.4057C56.8017 82.9407 53.6105 83.8986 51.8766 85.9532C50.6258 87.4313 50.4349 89.205 50.7933 90.9167C51.2727 93.0045 52.3356 94.9902 53.9105 96.7405C54.1716 97.0361 53.5949 97.3554 53.3338 97.0627V97.0568Z" fill="#407BFF"/>
  <g opacity="0.3">
    <path d="M53.3338 97.0568C51.5017 95.0427 50.3496 92.718 49.979 90.287C49.3945 85.5127 54.0897 82.8757 59.7201 81.8647C60.1682 81.7848 60.2423 82.3288 59.7981 82.4057C56.8017 82.9407 53.6105 83.8986 51.8766 85.9532C50.6258 87.4313 50.4349 89.205 50.7933 90.9167C51.2727 93.0045 52.3356 94.9902 53.9105 96.7405C54.1716 97.0361 53.5949 97.3554 53.3338 97.0627V97.0568Z" fill="black"/>
  </g>
  <path d="M47.9531 92.238C47.9531 92.238 46.8154 88.9329 48.5454 89.0659C50.2754 89.199 47.9531 92.238 47.9531 92.238Z" fill="#407BFF"/>
  <path d="M45.2256 89.496C45.2256 89.496 42.2409 87.2463 44.0177 86.5043C45.7945 85.7623 45.2256 89.496 45.2256 89.496Z" fill="#407BFF"/>
  <path d="M36.2804 89.2069C36.2804 89.2069 31.8541 89.8691 32.4307 88.4383C33.0074 87.0074 36.2804 89.2069 36.2804 89.2069Z" fill="#407BFF"/>
  <path d="M43.4947 88.7739C43.4947 88.7739 38.6475 88.8626 40.1594 90.6482C41.6712 92.4338 43.4947 88.7739 43.4947 88.7739Z" fill="#407BFF"/>
  <path d="M49.1484 95.193C49.1484 95.193 49.9277 91.8525 51.2525 92.7334C52.5773 93.6144 49.1484 95.193 49.1484 95.193Z" fill="#407BFF"/>
  <path d="M41.6204 88.4645C41.6204 88.4645 36.6485 88.4261 37.6694 86.8416C38.6903 85.257 41.6204 88.4645 41.6204 88.4645Z" fill="#407BFF"/>
  <path d="M37.9716 88.7739C37.9716 88.7739 34.7415 90.8433 36.7365 91.4345C38.7315 92.0258 37.9716 88.7739 37.9716 88.7739Z" fill="#407BFF"/>
  <path d="M47.0477 90.99C47.0477 90.99 43.7201 89.1453 43.4941 90.99C43.2681 92.8347 47.0477 90.99 47.0477 90.99Z" fill="#407BFF"/>
  <g opacity="0.4">
    <path d="M49.1484 95.1872C49.1484 95.1872 49.9277 91.8466 51.2525 92.7276C52.5773 93.6085 49.1484 95.1872 49.1484 95.1872Z" fill="white"/>
    <path d="M41.6204 88.4597C41.6204 88.4597 36.6485 88.4212 37.6694 86.8367C38.6903 85.2521 41.6204 88.4597 41.6204 88.4597Z" fill="white"/>
    <path d="M37.9716 88.7683C37.9716 88.7683 34.7415 90.8377 36.7365 91.4289C38.7315 92.0202 37.9716 88.7683 37.9716 88.7683Z" fill="white"/>
    <path d="M47.0477 90.9849C47.0477 90.9849 43.7201 89.1402 43.4941 90.9849C43.2681 92.8296 47.0477 90.9849 47.0477 90.9849Z" fill="white"/>
  </g>
  <path d="M48.7437 93.8867C48.7437 93.8867 45.9265 91.2527 44.9485 93.0383C43.9705 94.8239 48.7437 93.8867 48.7437 93.8867Z" fill="#407BFF"/>
  <path d="M49.7552 97.0248C49.6674 94.9799 48.921 92.9824 47.581 91.2069C44.8534 87.7717 39.9673 87.7658 35.5019 89.2144C35.1473 89.3296 35.4513 89.7228 35.802 89.6075C38.1671 88.8389 40.9414 88.2802 43.4468 89.0163C45.2548 89.5395 46.564 90.6718 47.4251 91.9489C48.4691 93.5327 49.0563 95.2671 49.1473 97.0366C49.1473 97.3322 49.763 97.3322 49.7474 97.0366L49.7552 97.0248Z" fill="#407BFF"/>
  <g opacity="0.3">
    <path d="M49.7552 97.0211C49.6674 94.9762 48.921 92.9787 47.581 91.2032C44.8534 87.768 39.9673 87.7621 35.5019 89.2107C35.1473 89.326 35.4513 89.7192 35.802 89.6039C38.1671 88.8353 40.9414 88.2765 43.4468 89.0126C45.2548 89.5359 46.564 90.6681 47.4251 91.9452C48.4691 93.529 49.0563 95.2634 49.1473 97.0329C49.1473 97.3286 49.763 97.3286 49.7474 97.0329L49.7552 97.0211Z" fill="black"/>
  </g>
  <path d="M59.9698 95.0845L58.4463 103.714C58.3527 104.251 58.0051 104.743 57.4681 105.1C56.9312 105.457 56.2416 105.653 55.5278 105.653H46.1647C45.4509 105.653 44.7613 105.457 44.2244 105.1C43.6875 104.743 43.3398 104.251 43.2462 103.714L41.7383 95.0845H59.9698Z" fill="#407BFF"/>
  <path opacity="0.3" d="M59.9698 95.0845L58.4463 103.714C58.3527 104.251 58.0051 104.743 57.4681 105.1C56.9312 105.457 56.2416 105.653 55.5278 105.653H46.1647C45.4509 105.653 44.7613 105.457 44.2244 105.1C43.6875 104.743 43.3398 104.251 43.2462 103.714L41.7383 95.0845H59.9698Z" fill="white"/>
  <path d="M124.071 47.3796L122.723 45.529L122.189 42.8477L121.145 42.96L119.766 44.8963L121.667 46.3981L122.668 48.2901L124.071 47.3796Z" fill="#FFC3BD"/>
  <path d="M135.423 47.3727C135.416 47.3363 135.397 47.3018 135.367 47.2724C135.338 47.2431 135.299 47.2198 135.255 47.2048C135.211 47.1897 135.162 47.1834 135.114 47.1864C135.066 47.1894 135.019 47.2016 134.978 47.2219C133.81 47.8132 130.217 49.5869 128.253 49.5869C125.884 49.5869 123.577 46.2434 123.577 46.2434L121.754 47.0919C121.754 47.0919 124.501 52.5047 128.273 52.5047C132.044 52.5047 135.992 50.1397 135.992 50.1397L135.423 47.3727Z" fill="#407BFF"/>
  <path opacity="0.5" d="M135.423 47.3727C135.416 47.3363 135.397 47.3018 135.367 47.2724C135.338 47.2431 135.299 47.2198 135.255 47.2048C135.211 47.1897 135.162 47.1834 135.114 47.1864C135.066 47.1894 135.019 47.2016 134.978 47.2219C133.81 47.8132 130.217 49.5869 128.253 49.5869C125.884 49.5869 123.577 46.2434 123.577 46.2434L121.754 47.0919C121.754 47.0919 124.501 52.5047 128.273 52.5047C132.044 52.5047 135.992 50.1397 135.992 50.1397L135.423 47.3727Z" fill="white"/>
  <path d="M121.43 47.0337L123.553 45.9961L124.071 46.5134L121.734 47.6072L121.43 47.0337Z" fill="#407BFF"/>
  <path opacity="0.1" d="M131.289 52.0854C132.963 51.6207 134.539 50.9723 135.965 50.1609L135.505 47.8254H134.897L131.289 52.0854Z" fill="black"/>
  <path d="M131.926 98.5852L132.167 103.664H134.607L135.187 98.7655L131.926 98.5852Z" fill="#FFC3BD"/>
  <path d="M145.086 98.7592L146.154 103.776L148.573 103.545L148.351 98.635L145.086 98.7592Z" fill="#FFC3BD"/>
  <path d="M133.473 61.2678C133.473 61.2678 130.246 73.9797 131.895 101.473H135.148C135.148 101.473 137.326 88.2377 137.096 83.0347C137.096 82.9046 137.096 82.7805 137.077 82.6622C136.984 81.5695 137.116 80.4725 137.467 79.4103L137.49 79.3483L141.231 68.5047C141.231 68.5047 147.683 66.9941 144.924 61.2649L133.473 61.2678Z" fill="#407BFF"/>
  <path opacity="0.1" d="M140.435 67.3578L139.033 64.5464C138.403 68.3605 138.273 72.2126 138.643 76.0462L141.086 68.9719L140.435 67.3578Z" fill="black"/>
  <path d="M131.547 100.794L131.601 102.021L135.303 102.157L135.611 100.886L131.547 100.794Z" fill="#263238"/>
  <path d="M138.532 61.2678C138.532 61.2678 138.271 75.0499 145.593 102.014L148.807 101.627C148.807 101.627 148.215 89.2103 147.05 83.7619C146.993 83.4959 146.934 83.2475 146.875 83.0169C146.506 81.6358 146.34 80.2279 146.38 78.8191V78.7659C146.489 75.6027 146.734 70.5711 147.202 68.4367C147.592 66.7339 147.627 65.1849 146.812 61.5546L138.532 61.2678Z" fill="#407BFF"/>
  <path d="M145.109 101.189L145.456 102.386L149.127 102.011V100.719L145.109 101.189Z" fill="#263238"/>
  <path d="M156.929 54.4897L159.563 54.2916L160.689 53.6028L163.319 53.8748V54.5872L162.567 55.7402L159.711 55.3854L156.746 55.8111L156.929 54.4897Z" fill="#FFC3BD"/>
  <path d="M139.963 38.0752C139.963 38.0752 137.068 37.8535 138.147 40.3959L140.364 38.4625L139.963 38.0752Z" fill="#263238"/>
  <path opacity="0.3" d="M139.963 38.0752C139.963 38.0752 137.068 37.8535 138.147 40.3959L140.364 38.4625L139.963 38.0752Z" fill="white"/>
  <path d="M143.119 42.9648C142.854 44.0941 142.613 46.0482 143.376 47.0652C143.468 47.1831 143.503 47.3215 143.476 47.4568C143.448 47.5922 143.359 47.716 143.224 47.8072C142.278 48.5281 141.014 48.9578 139.675 49.0133C137.96 49.0843 137.824 48.3866 138.147 47.8308C138.191 47.7581 138.253 47.6929 138.331 47.6391C138.409 47.5852 138.5 47.5438 138.599 47.5175C140.208 47.0977 140.294 46.0186 139.963 45.0786L143.119 42.9648Z" fill="#FFC3BD"/>
  <path opacity="0.2" d="M141.831 43.8352L139.961 45.0827C140.036 45.3138 140.085 45.5491 140.109 45.7863C140.826 45.6976 143.779 44.5477 141.831 43.8352Z" fill="black"/>
  <path d="M144.117 41.2922C143.63 42.9832 143.455 43.9913 142.142 44.7303C140.162 45.8478 137.544 44.7303 137.361 42.9566C137.193 41.3572 138.019 38.8681 140.361 38.4483C140.876 38.3558 141.414 38.3644 141.924 38.4735C142.434 38.5825 142.899 38.7883 143.275 39.0714C143.651 39.3545 143.925 39.7056 144.073 40.0916C144.22 40.4776 144.235 40.8857 144.117 41.2774V41.2922Z" fill="#FFC3BD"/>
  <path d="M140.498 41.3672C140.467 41.5061 140.35 41.6096 140.229 41.5948C140.109 41.58 140.035 41.4559 140.066 41.3169C140.097 41.178 140.214 41.0775 140.335 41.0923C140.455 41.107 140.525 41.2282 140.498 41.3672Z" fill="#263238"/>
  <path d="M138.432 41.124C138.401 41.263 138.284 41.3635 138.163 41.3487C138.042 41.3339 137.968 41.2127 137.999 41.0738C138.03 40.9348 138.147 40.8314 138.268 40.8461C138.389 40.8609 138.459 40.9851 138.432 41.124Z" fill="#263238"/>
  <path d="M139.185 41.2686C138.88 41.6678 138.502 42.0321 138.062 42.3505C138.175 42.4333 138.309 42.4967 138.456 42.5365C138.603 42.5763 138.76 42.5915 138.916 42.5811L139.185 41.2686Z" fill="#ED847E"/>
  <path d="M141.346 40.797C141.363 40.8013 141.382 40.8013 141.4 40.797C141.425 40.7858 141.443 40.768 141.451 40.7472C141.459 40.7263 141.456 40.704 141.443 40.6846C141.364 40.5681 141.25 40.4675 141.109 40.391C140.969 40.3144 140.807 40.2641 140.636 40.2441C140.608 40.2441 140.58 40.2529 140.559 40.2684C140.539 40.2839 140.527 40.305 140.527 40.3269C140.527 40.3489 140.539 40.3699 140.559 40.3854C140.58 40.401 140.608 40.4097 140.636 40.4097C140.771 40.4268 140.898 40.4679 141.008 40.5296C141.118 40.5912 141.207 40.6717 141.268 40.7644C141.277 40.7738 141.288 40.7816 141.302 40.7873C141.315 40.7929 141.33 40.7962 141.346 40.797Z" fill="#263238"/>
  <path d="M137.757 40.3961C137.775 40.3963 137.792 40.3932 137.808 40.387C137.824 40.3808 137.837 40.3717 137.847 40.3606C137.921 40.2742 138.021 40.2024 138.139 40.151C138.257 40.0996 138.389 40.0701 138.525 40.065C138.539 40.0654 138.553 40.0636 138.566 40.0598C138.58 40.0559 138.592 40.0501 138.602 40.0427C138.612 40.0352 138.62 40.0263 138.626 40.0164C138.631 40.0065 138.634 39.9959 138.634 39.9851C138.635 39.9743 138.632 39.9634 138.627 39.9532C138.622 39.943 138.615 39.9337 138.605 39.9257C138.595 39.9178 138.583 39.9113 138.57 39.9068C138.557 39.9023 138.543 39.8998 138.529 39.8994C138.356 39.905 138.187 39.9413 138.036 40.0055C137.885 40.0697 137.756 40.1599 137.66 40.2689C137.652 40.2776 137.646 40.2875 137.643 40.2979C137.64 40.3083 137.64 40.319 137.642 40.3295C137.645 40.3399 137.65 40.3499 137.658 40.3588C137.666 40.3677 137.676 40.3753 137.687 40.3813C137.708 40.3909 137.733 40.396 137.757 40.3961Z" fill="#263238"/>
  <path d="M138.59 43.1392C139.326 43.0758 140.068 43.0609 140.808 43.0949C140.589 43.426 140.215 43.6861 139.378 43.6714C138.54 43.6566 138.59 43.1392 138.59 43.1392Z" fill="#263238"/>
  <path d="M139.787 43.4146C139.467 43.3944 139.147 43.4436 138.863 43.5565C139.016 43.6326 139.195 43.6718 139.378 43.6688C139.696 43.6893 140.015 43.64 140.297 43.5269C140.145 43.452 139.968 43.4129 139.787 43.4146Z" fill="#FF5652"/>
  <path d="M138.664 43.1316C138.679 43.1749 138.709 43.2141 138.752 43.245C138.795 43.2758 138.848 43.2969 138.906 43.306C139.39 43.3153 139.875 43.2965 140.355 43.2498C140.432 43.2495 140.507 43.2351 140.575 43.2078C140.643 43.1806 140.701 43.1412 140.745 43.0931C140.051 43.0701 139.356 43.0829 138.664 43.1316Z" fill="white"/>
  <path d="M143.65 39.0508C143.65 39.0508 142.181 39.577 142.722 40.6324C143.264 41.6878 142.602 42.3322 142.602 42.3322L143.65 42.4505C143.65 42.4505 145.988 41.2118 145.45 39.4617L143.65 39.0508Z" fill="#263238"/>
  <path opacity="0.3" d="M143.65 39.0508C143.65 39.0508 142.181 39.577 142.722 40.6324C143.264 41.6878 142.602 42.3322 142.602 42.3322L143.65 42.4505C143.65 42.4505 145.988 41.2118 145.45 39.4617L143.65 39.0508Z" fill="white"/>
  <path d="M144.892 43.009C144.706 43.1714 144.479 43.3044 144.225 43.4002C143.971 43.4961 143.695 43.553 143.412 43.5678C142.652 43.6032 142.43 43.0593 142.777 42.5804C143.084 42.1488 143.852 41.6078 144.55 41.7999C144.702 41.8428 144.838 41.9141 144.944 42.0073C145.05 42.1005 145.124 42.2126 145.158 42.3331C145.192 42.4536 145.186 42.5788 145.139 42.6969C145.093 42.8151 145.008 42.9224 144.892 43.009Z" fill="#FFC3BD"/>
  <path d="M145.312 39.7554C146.092 39.4598 146.754 37.9639 143.695 37.42C139.908 36.743 138.63 35.3506 138.63 35.3506C138.63 35.3506 138.47 36.6779 139.585 37.1864C139.585 37.1864 138.069 36.542 137.5 37.5973C137.5 37.5973 138.439 37.3815 139.585 38.5729C141.096 40.1368 143.98 40.258 145.312 39.7554Z" fill="#263238"/>
  <path d="M140.013 38.6578C140.013 38.6578 137.636 37.2122 137.492 39.1515C137.492 39.1515 138.244 38.6844 140.013 38.6578Z" fill="#263238"/>
  <path d="M147.185 47.6702C147.222 47.6411 147.267 47.6195 147.317 47.6076C147.368 47.5956 147.421 47.5937 147.473 47.602C147.525 47.6103 147.573 47.6286 147.612 47.655C147.652 47.6815 147.682 47.7152 147.7 47.753C148.175 48.7493 150.217 52.4239 151.701 53.2428C153.517 54.2449 158.551 54.1592 158.551 54.1592L158.656 55.7763C158.656 55.7763 152.675 56.8937 149.78 55.2974C146.885 53.701 144.758 49.5415 144.758 49.5415L147.185 47.6702Z" fill="#407BFF"/>
  <path opacity="0.5" d="M147.185 47.6702C147.222 47.6411 147.267 47.6195 147.317 47.6076C147.368 47.5956 147.421 47.5937 147.473 47.602C147.525 47.6103 147.573 47.6286 147.612 47.655C147.652 47.6815 147.682 47.7152 147.7 47.753C148.175 48.7493 150.217 52.4239 151.701 53.2428C153.517 54.2449 158.551 54.1592 158.551 54.1592L158.656 55.7763C158.656 55.7763 152.675 56.8937 149.78 55.2974C146.885 53.701 144.758 49.5415 144.758 49.5415L147.185 47.6702Z" fill="white"/>
  <path opacity="0.1" d="M145.461 50.2591V50.7173C146.24 51.9708 147.659 53.9189 149.385 55.0394L147.288 48.512L145.461 50.2591Z" fill="black"/>
  <path d="M158.234 53.9668L158.375 56.0155L159.076 55.8824L158.955 53.9668H158.234Z" fill="#407BFF"/>
  <path d="M146.697 47.2444C145.661 47.1231 144.106 46.9635 142.368 46.8541L140.837 47.4454L140.136 46.7595C138.747 46.7105 137.355 46.7332 135.97 46.8275C135.624 46.8548 135.299 46.9667 135.044 47.1464C134.789 47.3261 134.617 47.5638 134.556 47.8238C134.022 50.0646 132.382 56.8344 133.095 62.6287C133.095 62.6287 136.905 63.2524 138.55 62.4188C138.55 62.4188 143.471 63.69 147.176 62.5962L147.956 48.4298C147.98 48.1484 147.865 47.8703 147.631 47.6507C147.398 47.4311 147.065 47.286 146.697 47.2444Z" fill="#407BFF"/>
  <path opacity="0.5" d="M146.697 47.2444C145.661 47.1231 144.106 46.9635 142.368 46.8541L140.837 47.4454L140.136 46.7595C138.747 46.7105 137.355 46.7332 135.97 46.8275C135.624 46.8548 135.299 46.9667 135.044 47.1464C134.789 47.3261 134.617 47.5638 134.556 47.8238C134.022 50.0646 132.382 56.8344 133.095 62.6287C133.095 62.6287 136.905 63.2524 138.55 62.4188C138.55 62.4188 143.471 63.69 147.176 62.5962L147.956 48.4298C147.98 48.1484 147.865 47.8703 147.631 47.6507C147.398 47.4311 147.065 47.286 146.697 47.2444Z" fill="white"/>
  <path d="M140.273 46.4536L140.928 47.175L143.086 46.2881C143.223 46.2337 143.379 46.214 143.531 46.2321C143.683 46.2502 143.824 46.3051 143.932 46.3886L144.754 47.0331L142.627 48.8512C142.604 48.8719 142.574 48.8869 142.54 48.894C142.506 48.9011 142.469 48.9001 142.436 48.891C142.403 48.882 142.374 48.8653 142.354 48.8434C142.333 48.8214 142.323 48.7952 142.323 48.7684C142.323 48.2481 142.116 47.3671 140.928 47.5534C140.928 47.5534 139.794 47.0272 139.128 48.1446C139.111 48.1703 139.084 48.1911 139.05 48.2042C139.017 48.2173 138.979 48.2218 138.942 48.2172C138.905 48.2125 138.87 48.199 138.844 48.1784C138.818 48.1579 138.801 48.1316 138.796 48.1032L138.582 46.7227L139.256 46.3295C139.333 46.2854 139.421 46.2536 139.514 46.236C139.607 46.2184 139.705 46.2152 139.8 46.2268C139.895 46.2384 139.986 46.2645 140.067 46.3035C140.148 46.3425 140.218 46.3936 140.273 46.4536Z" fill="#407BFF"/>
  <path d="M140.92 48.1215C140.92 48.1683 140.902 48.214 140.868 48.2529C140.834 48.2918 140.785 48.3221 140.728 48.34C140.671 48.3579 140.608 48.3626 140.548 48.3535C140.487 48.3443 140.432 48.3218 140.388 48.2887C140.345 48.2557 140.315 48.2135 140.303 48.1676C140.291 48.1218 140.297 48.0742 140.321 48.031C140.344 47.9878 140.384 47.9509 140.435 47.9249C140.487 47.8989 140.547 47.885 140.609 47.885C140.65 47.885 140.69 47.8911 140.728 47.903C140.766 47.9149 140.8 47.9323 140.829 47.9543C140.858 47.9762 140.881 48.0023 140.897 48.031C140.912 48.0597 140.92 48.0905 140.92 48.1215Z" fill="#263238"/>
  <path d="M139.881 51.8764C139.881 51.9232 139.863 51.9689 139.829 52.0078C139.794 52.0467 139.746 52.077 139.689 52.0949C139.632 52.1128 139.569 52.1175 139.509 52.1084C139.448 52.0992 139.393 52.0767 139.349 52.0436C139.306 52.0106 139.276 51.9684 139.264 51.9225C139.252 51.8767 139.258 51.8291 139.282 51.7859C139.305 51.7427 139.345 51.7057 139.396 51.6798C139.448 51.6538 139.508 51.6399 139.57 51.6399C139.652 51.6399 139.731 51.6648 139.79 51.7092C139.848 51.7535 139.881 51.8137 139.881 51.8764Z" fill="#263238"/>
  <path d="M139.213 56.0639C139.213 56.1266 139.18 56.1868 139.122 56.2311C139.064 56.2755 138.984 56.3004 138.902 56.3004C138.819 56.3004 138.74 56.2755 138.681 56.2311C138.623 56.1868 138.59 56.1266 138.59 56.0639C138.59 56.0012 138.623 55.941 138.681 55.8967C138.74 55.8523 138.819 55.8274 138.902 55.8274C138.984 55.8274 139.064 55.8523 139.122 55.8967C139.18 55.941 139.213 56.0012 139.213 56.0639Z" fill="#263238"/>
  <path d="M138.589 60.4586C138.761 60.4586 138.901 60.3527 138.901 60.2221C138.901 60.0915 138.761 59.9856 138.589 59.9856C138.417 59.9856 138.277 60.0915 138.277 60.2221C138.277 60.3527 138.417 60.4586 138.589 60.4586Z" fill="#263238"/>
  <path d="M132.159 103.102H134.886C134.944 103.103 135 103.118 135.045 103.146C135.09 103.174 135.12 103.213 135.132 103.256L136.071 105.249C136.094 105.331 136.073 105.418 136.012 105.489C135.952 105.56 135.856 105.609 135.747 105.627H135.658C134.524 105.598 133.515 105.535 132.104 105.521C130.437 105.5 130.857 105.654 128.897 105.651C127.729 105.651 127.526 104.628 128.025 104.584C130.32 104.394 130.569 103.874 131.469 103.262C131.666 103.147 131.911 103.09 132.159 103.102Z" fill="#263238"/>
  <path d="M146.038 103.102H148.765C148.823 103.103 148.879 103.118 148.924 103.146C148.968 103.174 148.999 103.213 149.011 103.256L149.95 105.249C149.973 105.331 149.952 105.418 149.891 105.489C149.831 105.56 149.735 105.609 149.626 105.627C149.597 105.63 149.567 105.63 149.537 105.627C148.403 105.598 147.394 105.535 145.983 105.521C144.319 105.5 144.736 105.654 142.776 105.651C141.607 105.651 141.405 104.628 141.904 104.584C144.202 104.394 144.452 103.874 145.348 103.262C145.545 103.147 145.79 103.09 146.038 103.102Z" fill="#263238"/>
  <path d="M138.862 43.9521C139.086 44.0616 139.346 44.1198 139.612 44.1198C139.878 44.1198 140.139 44.0616 140.362 43.9521C140.362 43.9521 140.292 44.7326 140.015 44.8095C139.926 44.8331 139.696 44.6557 139.696 44.6557C139.696 44.6557 139.544 45.043 139.4 45.0371C139.256 45.0312 139.131 44.5996 139.131 44.5996C139.131 44.5996 138.952 44.8361 138.862 44.8095C138.601 44.7296 138.862 43.9521 138.862 43.9521Z" fill="#263238"/>
  <path opacity="0.5" d="M138.862 43.9521C139.086 44.0616 139.346 44.1198 139.612 44.1198C139.878 44.1198 140.139 44.0616 140.362 43.9521C140.362 43.9521 140.292 44.7326 140.015 44.8095C139.926 44.8331 139.696 44.6557 139.696 44.6557C139.696 44.6557 139.544 45.043 139.4 45.0371C139.256 45.0312 139.131 44.5996 139.131 44.5996C139.131 44.5996 138.952 44.8361 138.862 44.8095C138.601 44.7296 138.862 43.9521 138.862 43.9521Z" fill="white"/>
  <path d="M145.584 77.0496L144.875 103.821H147.384C147.384 103.821 152.173 86.5569 150.837 80.9312L154.955 70.061L146.508 70.7735L145.584 77.0496Z" fill="#FFB573"/>
  <path d="M155.356 77.5304L159.366 103.903H161.82C161.82 103.903 163.457 86.3488 161.216 80.8916L161.4 69.9683L154.055 70.7753L155.356 77.5304Z" fill="#FFB573"/>
  <path d="M145.091 103.256H147.651C147.705 103.257 147.756 103.271 147.797 103.297C147.838 103.323 147.867 103.359 147.877 103.398L148.758 105.267C148.769 105.305 148.77 105.345 148.761 105.384C148.752 105.422 148.733 105.459 148.704 105.492C148.676 105.526 148.639 105.554 148.596 105.576C148.553 105.598 148.505 105.614 148.454 105.621C148.427 105.624 148.399 105.624 148.372 105.621C147.308 105.595 146.365 105.538 145.041 105.521C143.482 105.503 143.872 105.648 142.036 105.645C140.93 105.645 140.751 104.684 141.218 104.646C143.369 104.468 143.603 103.978 144.444 103.407C144.628 103.298 144.859 103.244 145.091 103.256Z" fill="#407BFF"/>
  <path d="M159.437 103.256H161.997C162.051 103.257 162.103 103.271 162.145 103.297C162.186 103.323 162.215 103.358 162.227 103.398L163.103 105.267C163.115 105.305 163.116 105.345 163.107 105.384C163.098 105.422 163.078 105.459 163.05 105.492C163.022 105.526 162.985 105.554 162.942 105.576C162.899 105.598 162.85 105.614 162.8 105.621C162.772 105.624 162.745 105.624 162.718 105.621C161.654 105.595 160.711 105.539 159.39 105.521C157.832 105.503 158.221 105.648 156.382 105.645C155.279 105.645 155.096 104.684 155.568 104.646C157.719 104.468 157.952 103.978 158.794 103.407C158.976 103.298 159.205 103.244 159.437 103.256Z" fill="#407BFF"/>
  <path d="M147.025 61.6294C145.33 68.5309 144.634 75.5523 144.948 82.5685C150.863 82.7342 156.785 82.6038 162.677 82.1783C162.003 79.8713 161.795 77.4998 162.062 75.1454C162.627 70.8145 161.442 65.6854 157.939 61.6294H147.025Z" fill="#407BFF"/>
  <path opacity="0.5" d="M147.025 61.6294C145.33 68.5309 144.634 75.5523 144.948 82.5685C150.863 82.7342 156.785 82.6038 162.677 82.1783C162.003 79.8713 161.795 77.4998 162.062 75.1454C162.627 70.8145 161.442 65.6854 157.939 61.6294H147.025Z" fill="white"/>
  <path d="M148.118 49.9106C148.118 49.9106 145.873 51.0311 145.09 55.1255C144.139 60.1067 147.264 58.401 147.264 58.401L148.118 49.9106Z" fill="#FFB573"/>
  <path d="M157.989 41.0441C159.158 41.588 159.419 42.8356 159.497 43.5835C159.575 44.3314 158.597 43.5835 159.38 44.8576C160.163 46.1318 160.669 47.2758 158.055 47.1044C155.928 46.9428 153.78 47.1366 151.762 47.672C150.091 48.1154 148.883 47.5419 149.814 45.9455C150.745 44.3492 149.424 43.3352 148.785 42.8296C148.146 42.3241 147.492 40.4646 149.522 39.9059C151.552 39.3472 149.619 38.6525 152.097 38.4278C154.575 38.2031 159.493 38.9363 157.989 41.0441Z" fill="#263238"/>
  <path d="M152.352 48.5811L155.332 48.516C155.052 47.5286 155.399 46.1185 155.703 45.2642L152.659 46.9877C152.8 47.5671 152.819 48.1642 152.352 48.5811Z" fill="#FFB573"/>
  <path opacity="0.2" d="M154.971 46.0103L152.656 47.0036C152.712 47.2149 152.742 47.4296 152.746 47.6451C153.397 47.5948 154.784 47.4825 154.971 46.0103Z" fill="black"/>
  <path d="M157.137 42.8044C156.747 44.7111 156.662 45.5241 155.274 46.4228C153.186 47.7768 150.182 47.0141 149.796 45.0629C149.449 43.304 150.116 40.4837 152.672 39.8806C153.235 39.7452 153.835 39.7216 154.414 39.8119C154.994 39.9022 155.533 40.1034 155.98 40.3965C156.428 40.6896 156.769 41.0648 156.972 41.4862C157.174 41.9077 157.231 42.3615 157.137 42.8044Z" fill="#FFB573"/>
  <path d="M157.561 44.3599C157.472 44.5315 157.339 44.688 157.17 44.8205C157.001 44.9529 156.799 45.0586 156.575 45.1315C155.975 45.3237 155.594 44.9335 155.691 44.4693C155.777 44.0554 156.194 43.4524 156.833 43.4553C156.971 43.4591 157.106 43.4888 157.225 43.5418C157.345 43.5948 157.445 43.6695 157.517 43.7591C157.589 43.8487 157.631 43.9505 157.639 44.0553C157.647 44.1602 157.62 44.2648 157.561 44.3599Z" fill="#FFB573"/>
  <path d="M155.469 39.172C155.987 39.707 155.048 40.8511 152.741 40.9457C151.004 41.0107 149.04 42.5982 148.997 41.061C148.931 39.6597 153.174 38.6398 155.469 39.172Z" fill="#263238"/>
  <path d="M154.255 39.695C153.16 40.4873 154.138 41.6875 154.792 42.2108C155.447 42.734 156.413 43.1923 155.848 44.0939C155.283 44.9956 155.147 47.3458 157.278 46.7545C159.41 46.1633 158.915 43.4022 158.093 42.1753C157.271 40.9485 155.56 38.752 154.255 39.695Z" fill="#263238"/>
  <path d="M151.51 43.2454C151.286 43.5896 151.002 43.9089 150.664 44.1943C150.762 44.2586 150.877 44.3056 151.002 44.3322C151.126 44.3588 151.257 44.3642 151.385 44.348L151.51 43.2454Z" fill="#ED893E"/>
  <path d="M154.271 42.3738C154.288 42.3767 154.305 42.3767 154.322 42.3738C154.342 42.3611 154.355 42.3431 154.359 42.3234C154.362 42.3038 154.356 42.2838 154.341 42.2674C154.231 42.1508 154.085 42.0563 153.916 41.992C153.747 41.9276 153.56 41.8953 153.371 41.8978C153.345 41.9001 153.321 41.91 153.304 41.9254C153.288 41.9409 153.279 41.9607 153.282 41.9806C153.284 42.0005 153.296 42.019 153.315 42.0322C153.335 42.0455 153.361 42.0524 153.387 42.0516C153.543 42.0517 153.697 42.0798 153.835 42.1338C153.974 42.1878 154.094 42.266 154.186 42.362C154.198 42.3689 154.212 42.3735 154.227 42.3756C154.241 42.3776 154.257 42.377 154.271 42.3738Z" fill="#263238"/>
  <path d="M149.908 42.1161H149.958C150.082 42.0446 150.226 41.9967 150.38 41.9761C150.533 41.9555 150.69 41.963 150.839 41.9978C150.864 42.0049 150.891 42.0045 150.916 41.9969C150.94 41.9892 150.96 41.9747 150.971 41.9564C150.98 41.9372 150.978 41.9162 150.967 41.8979C150.955 41.8796 150.934 41.8656 150.909 41.8589C150.729 41.8153 150.538 41.8047 150.352 41.8278C150.166 41.851 149.99 41.9072 149.837 41.9919C149.815 42.0033 149.8 42.0209 149.795 42.0408C149.79 42.0608 149.795 42.0814 149.81 42.0983C149.82 42.1109 149.834 42.1209 149.852 42.1272C149.869 42.1336 149.889 42.1358 149.908 42.1338V42.1161Z" fill="#263238"/>
  <path d="M152.99 43.0788C152.99 43.2325 152.849 43.3508 152.713 43.3449C152.577 43.3389 152.483 43.203 152.503 43.0492C152.522 42.8955 152.647 42.7743 152.779 42.7832C152.912 42.792 153.005 42.9221 152.99 43.0788Z" fill="#263238"/>
  <path d="M150.665 42.9311C150.665 43.0849 150.525 43.2031 150.393 43.1942C150.26 43.1854 150.163 43.0553 150.182 42.8986C150.202 42.7419 150.322 42.6237 150.455 42.6325C150.587 42.6414 150.685 42.7715 150.665 42.9311Z" fill="#263238"/>
  <path d="M150.511 42.645L150.027 42.5061C150.027 42.5061 150.249 42.8136 150.511 42.645Z" fill="#263238"/>
  <path d="M152.839 42.7935L152.352 42.6545C152.352 42.6545 152.578 42.962 152.839 42.7935Z" fill="#263238"/>
  <path d="M146.671 62.104C146.671 62.104 146.46 59.9696 146.542 57.0784C146.542 56.629 146.273 56.1413 146.273 55.1036C146.273 54.066 146.663 52.9337 146.722 52.4962C146.932 50.6456 147.345 50.3529 148.116 49.9302C150.622 48.5467 158.208 48.5585 159.027 49.9302C160.289 52.0291 157.787 57.2735 158.61 62.1188C158.614 62.104 152.64 63.1978 146.671 62.104Z" fill="#263238"/>
  <path opacity="0.5" d="M159.147 50.1636H157.826C157.826 50.1636 156.929 51.3668 158.722 56.6525C159.119 53.9239 159.731 51.5264 159.147 50.1636Z" fill="black"/>
  <path d="M152.277 47.8178C153.41 47.917 154.557 47.8741 155.671 47.6906C155.724 47.6806 155.78 47.6806 155.833 47.6906C155.886 47.7006 155.935 47.7203 155.976 47.748C156.017 47.7757 156.048 47.8106 156.067 47.8495C156.086 47.8885 156.092 47.9303 156.084 47.9715C156.014 48.3647 156.018 48.9234 156.575 49.015C155.703 49.4145 154.708 49.6357 153.69 49.6569C152.671 49.6782 151.662 49.4988 150.762 49.1362C150.762 49.1362 152.032 48.9648 151.931 48.1134C151.923 48.076 151.927 48.0379 151.941 48.0017C151.955 47.9654 151.979 47.932 152.013 47.9038C152.046 47.8756 152.087 47.8532 152.132 47.8384C152.178 47.8235 152.228 47.8165 152.277 47.8178Z" fill="#263238"/>
  <path d="M146.65 56.7561C148.092 56.0525 149.377 55.5263 149.377 55.5263L150.433 53.9122C150.472 53.8527 150.533 53.8034 150.608 53.7707C150.684 53.738 150.771 53.7234 150.858 53.7289L151.563 53.7762C151.674 53.7845 151.776 53.8247 151.849 53.8885C151.921 53.9524 151.959 54.035 151.953 54.1191L151.832 56.0821C151.824 56.1518 151.788 56.2178 151.727 56.2708C151.667 56.3239 151.587 56.3613 151.497 56.3777L149.993 56.6497C149.993 56.6497 146.677 59.3576 145.878 58.9171C144.678 58.2697 145.586 57.2764 146.65 56.7561Z" fill="#FFB573"/>
  <path opacity="0.1" d="M152.893 70.771L152.457 82.6196C153.447 82.6049 154.503 82.5812 155.613 82.5487L152.893 70.771Z" fill="black"/>
  <path d="M158.193 49.787C159.168 49.3435 161.131 50.5172 161.95 54.99C162.694 59.0785 161.205 59.6254 159.062 58.4784C157.628 57.7175 156.136 57.0216 154.593 56.3942L152.98 56.1607L151.831 56.0927C151.67 56.0825 151.52 56.0277 151.409 55.9388C151.298 55.8499 151.235 55.7331 151.23 55.6108L151.18 54.1327C151.178 54.0633 151.195 53.9945 151.23 53.9305C151.266 53.8666 151.318 53.8089 151.385 53.7613C151.451 53.7137 151.53 53.6771 151.616 53.654C151.702 53.6309 151.794 53.6218 151.885 53.6271L152.98 53.6892L154.823 55.1437L159.752 56.4977C159.752 56.4977 159.46 54.2805 158.735 53.1926C157.964 52.0426 157.278 50.1949 158.193 49.787Z" fill="#FFB573"/>
  <path opacity="0.1" d="M151.572 53.7762L151.015 53.7378C150.939 53.7943 150.879 53.862 150.839 53.9367C150.799 54.0115 150.779 54.0917 150.781 54.1724L150.84 55.9461C150.843 56.0473 150.881 56.1461 150.949 56.233C151.017 56.32 151.114 56.3922 151.23 56.4428L151.502 56.3925C151.592 56.3761 151.672 56.3387 151.733 56.2856C151.793 56.2326 151.829 56.1666 151.837 56.0969L151.958 54.1339C151.969 54.0478 151.935 53.9618 151.862 53.8948C151.79 53.8278 151.686 53.7852 151.572 53.7762Z" fill="black"/>
  <path d="M158.193 49.787C159.168 49.3435 161.131 50.5172 161.95 54.99C162.694 59.0785 161.205 59.6254 159.062 58.4784C157.628 57.7175 156.136 57.0216 154.593 56.3942L152.98 56.1607L151.831 56.0927C151.67 56.0825 151.52 56.0277 151.409 55.9388C151.298 55.8499 151.235 55.7331 151.23 55.6108L151.18 54.1327C151.178 54.0633 151.195 53.9945 151.23 53.9305C151.266 53.8666 151.318 53.8089 151.385 53.7613C151.451 53.7137 151.53 53.6771 151.616 53.654C151.702 53.6309 151.794 53.6218 151.885 53.6271L152.98 53.6892L154.823 55.1437L159.752 56.4977C159.752 56.4977 159.46 54.2805 158.735 53.1926C157.964 52.0426 157.278 50.1949 158.193 49.787Z" fill="#FFB573"/>
  <path d="M154.332 40.4983C154.332 40.4983 152.774 41.9764 151.535 41.6039C150.296 41.2314 152.22 41.5625 154.332 40.4983Z" fill="#263238"/>
  <path d="M151.871 45.2593C151.752 45.2589 151.633 45.251 151.516 45.2357C151.5 45.2335 151.486 45.2267 151.477 45.2168C151.467 45.2069 151.463 45.1946 151.465 45.1825C151.468 45.1704 151.477 45.1597 151.49 45.1525C151.503 45.1453 151.52 45.1423 151.536 45.144C151.793 45.1844 152.059 45.1787 152.312 45.1274C152.566 45.0761 152.8 44.9805 152.997 44.8484C153.008 44.8401 153.024 44.8354 153.04 44.8354C153.056 44.8354 153.071 44.8401 153.082 44.8484C153.089 44.8528 153.093 44.8581 153.097 44.8639C153.1 44.8698 153.101 44.8761 153.101 44.8824C153.101 44.8887 153.1 44.895 153.097 44.9009C153.093 44.9067 153.089 44.912 153.082 44.9164C152.751 45.1434 152.317 45.266 151.871 45.2593Z" fill="#263238"/>
  <path opacity="0.6" d="M151.707 49.249C153.031 49.5158 154.432 49.461 155.713 49.0923C155.713 49.0923 152.268 50.7064 151.707 49.249Z" fill="black"/>
</svg>