<svg xmlns="http://www.w3.org/2000/svg" viewBox="0 0 1144 470"><defs><style>.cls-1{fill:#f0f0f4;}</style></defs><g id="Layer_2" data-name="Layer 2"><g id="Layer_1-2" data-name="Layer 1"><circle class="cls-1" cx="32.5" cy="111.5" r="4.5"/><circle class="cls-1" cx="86.5" cy="111.5" r="4.5"/><rect class="cls-1" x="55" y="107" width="9" height="9" rx="2"/><circle class="cls-1" cx="140.5" cy="111.5" r="4.5"/><rect class="cls-1" x="109" y="107" width="9" height="9" rx="2"/><circle class="cls-1" cx="194.5" cy="111.5" r="4.5"/><rect class="cls-1" x="163" y="107" width="9" height="9" rx="2"/><circle class="cls-1" cx="248.5" cy="111.5" r="4.5"/><rect class="cls-1" x="217" y="107" width="9" height="9" rx="2"/><circle class="cls-1" cx="302.5" cy="111.5" r="4.5"/><rect class="cls-1" x="271" y="107" width="9" height="9" rx="2"/><circle class="cls-1" cx="356.5" cy="111.5" r="4.5"/><rect class="cls-1" x="325" y="107" width="9" height="9" rx="2"/><circle class="cls-1" cx="410.5" cy="111.5" r="4.5"/><rect class="cls-1" x="379" y="107" width="9" height="9" rx="2"/><circle class="cls-1" cx="464.5" cy="111.5" r="4.5"/><rect class="cls-1" x="433" y="107" width="9" height="9" rx="2"/><circle class="cls-1" cx="518.5" cy="111.5" r="4.5"/><rect class="cls-1" x="487" y="107" width="9" height="9" rx="2"/><circle class="cls-1" cx="572.5" cy="111.5" r="4.5"/><rect class="cls-1" x="541" y="107" width="9" height="9" rx="2"/><circle class="cls-1" cx="4.5" cy="139.5" r="4.5"/><circle class="cls-1" cx="58.5" cy="139.5" r="4.5"/><rect class="cls-1" x="27" y="135" width="9" height="9" rx="2"/><circle class="cls-1" cx="112.5" cy="139.5" r="4.5"/><rect class="cls-1" x="81" y="135" width="9" height="9" rx="2"/><circle class="cls-1" cx="166.5" cy="139.5" r="4.5"/><rect class="cls-1" x="135" y="135" width="9" height="9" rx="2"/><circle class="cls-1" cx="220.5" cy="139.5" r="4.5"/><rect class="cls-1" x="189" y="135" width="9" height="9" rx="2"/><circle class="cls-1" cx="274.5" cy="139.5" r="4.5"/><rect class="cls-1" x="243" y="135" width="9" height="9" rx="2"/><circle class="cls-1" cx="328.5" cy="139.5" r="4.5"/><rect class="cls-1" x="297" y="135" width="9" height="9" rx="2"/><circle class="cls-1" cx="382.5" cy="139.5" r="4.5"/><rect class="cls-1" x="351" y="135" width="9" height="9" rx="2"/><circle class="cls-1" cx="436.5" cy="139.5" r="4.5"/><rect class="cls-1" x="405" y="135" width="9" height="9" rx="2"/><circle class="cls-1" cx="490.5" cy="139.5" r="4.5"/><rect class="cls-1" x="459" y="135" width="9" height="9" rx="2"/><circle class="cls-1" cx="544.5" cy="139.5" r="4.5"/><rect class="cls-1" x="513" y="135" width="9" height="9" rx="2"/><circle class="cls-1" cx="32.5" cy="165.5" r="4.5"/><circle class="cls-1" cx="86.5" cy="165.5" r="4.5"/><rect class="cls-1" x="55" y="161" width="9" height="9" rx="2"/><circle class="cls-1" cx="140.5" cy="165.5" r="4.5"/><rect class="cls-1" x="109" y="161" width="9" height="9" rx="2"/><circle class="cls-1" cx="194.5" cy="165.5" r="4.5"/><rect class="cls-1" x="163" y="161" width="9" height="9" rx="2"/><circle class="cls-1" cx="248.5" cy="165.5" r="4.5"/><rect class="cls-1" x="217" y="161" width="9" height="9" rx="2"/><circle class="cls-1" cx="302.5" cy="165.5" r="4.5"/><rect class="cls-1" x="271" y="161" width="9" height="9" rx="2"/><circle class="cls-1" cx="356.5" cy="165.5" r="4.5"/><rect class="cls-1" x="325" y="161" width="9" height="9" rx="2"/><circle class="cls-1" cx="410.5" cy="165.5" r="4.5"/><rect class="cls-1" x="379" y="161" width="9" height="9" rx="2"/><circle class="cls-1" cx="464.5" cy="165.5" r="4.5"/><rect class="cls-1" x="433" y="161" width="9" height="9" rx="2"/><circle class="cls-1" cx="518.5" cy="165.5" r="4.5"/><rect class="cls-1" x="487" y="161" width="9" height="9" rx="2"/><circle class="cls-1" cx="572.5" cy="165.5" r="4.5"/><rect class="cls-1" x="541" y="161" width="9" height="9" rx="2"/><circle class="cls-1" cx="4.5" cy="193.5" r="4.5"/><circle class="cls-1" cx="58.5" cy="193.5" r="4.5"/><rect class="cls-1" x="27" y="189" width="9" height="9" rx="2"/><circle class="cls-1" cx="112.5" cy="193.5" r="4.5"/><rect class="cls-1" x="81" y="189" width="9" height="9" rx="2"/><circle class="cls-1" cx="166.5" cy="193.5" r="4.5"/><rect class="cls-1" x="135" y="189" width="9" height="9" rx="2"/><circle class="cls-1" cx="220.5" cy="193.5" r="4.5"/><rect class="cls-1" x="189" y="189" width="9" height="9" rx="2"/><circle class="cls-1" cx="274.5" cy="193.5" r="4.5"/><rect class="cls-1" x="243" y="189" width="9" height="9" rx="2"/><circle class="cls-1" cx="328.5" cy="193.5" r="4.5"/><rect class="cls-1" x="297" y="189" width="9" height="9" rx="2"/><circle class="cls-1" cx="382.5" cy="193.5" r="4.5"/><rect class="cls-1" x="351" y="189" width="9" height="9" rx="2"/><circle class="cls-1" cx="436.5" cy="193.5" r="4.5"/><rect class="cls-1" x="405" y="189" width="9" height="9" rx="2"/><circle class="cls-1" cx="490.5" cy="193.5" r="4.5"/><rect class="cls-1" x="459" y="189" width="9" height="9" rx="2"/><circle class="cls-1" cx="544.5" cy="193.5" r="4.5"/><rect class="cls-1" x="513" y="189" width="9" height="9" rx="2"/><circle class="cls-1" cx="32.5" cy="219.5" r="4.5"/><circle class="cls-1" cx="86.5" cy="219.5" r="4.5"/><rect class="cls-1" x="55" y="215" width="9" height="9" rx="2"/><circle class="cls-1" cx="140.5" cy="219.5" r="4.5"/><rect class="cls-1" x="109" y="215" width="9" height="9" rx="2"/><circle class="cls-1" cx="194.5" cy="219.5" r="4.5"/><rect class="cls-1" x="163" y="215" width="9" height="9" rx="2"/><circle class="cls-1" cx="248.5" cy="219.5" r="4.5"/><rect class="cls-1" x="217" y="215" width="9" height="9" rx="2"/><circle class="cls-1" cx="302.5" cy="219.5" r="4.5"/><rect class="cls-1" x="271" y="215" width="9" height="9" rx="2"/><circle class="cls-1" cx="356.5" cy="219.5" r="4.5"/><rect class="cls-1" x="325" y="215" width="9" height="9" rx="2"/><circle class="cls-1" cx="410.5" cy="219.5" r="4.5"/><rect class="cls-1" x="379" y="215" width="9" height="9" rx="2"/><circle class="cls-1" cx="464.5" cy="219.5" r="4.5"/><rect class="cls-1" x="433" y="215" width="9" height="9" rx="2"/><circle class="cls-1" cx="518.5" cy="219.5" r="4.5"/><rect class="cls-1" x="487" y="215" width="9" height="9" rx="2"/><circle class="cls-1" cx="572.5" cy="219.5" r="4.5"/><rect class="cls-1" x="541" y="215" width="9" height="9" rx="2"/><circle class="cls-1" cx="4.5" cy="247.5" r="4.5"/><circle class="cls-1" cx="58.5" cy="247.5" r="4.5"/><rect class="cls-1" x="27" y="243" width="9" height="9" rx="2"/><circle class="cls-1" cx="112.5" cy="247.5" r="4.5"/><rect class="cls-1" x="81" y="243" width="9" height="9" rx="2"/><circle class="cls-1" cx="166.5" cy="247.5" r="4.5"/><rect class="cls-1" x="135" y="243" width="9" height="9" rx="2"/><circle class="cls-1" cx="220.5" cy="247.5" r="4.5"/><rect class="cls-1" x="189" y="243" width="9" height="9" rx="2"/><circle class="cls-1" cx="274.5" cy="247.5" r="4.5"/><rect class="cls-1" x="243" y="243" width="9" height="9" rx="2"/><circle class="cls-1" cx="328.5" cy="247.5" r="4.5"/><rect class="cls-1" x="297" y="243" width="9" height="9" rx="2"/><circle class="cls-1" cx="382.5" cy="247.5" r="4.5"/><rect class="cls-1" x="351" y="243" width="9" height="9" rx="2"/><circle class="cls-1" cx="436.5" cy="247.5" r="4.5"/><rect class="cls-1" x="405" y="243" width="9" height="9" rx="2"/><circle class="cls-1" cx="490.5" cy="247.5" r="4.5"/><rect class="cls-1" x="459" y="243" width="9" height="9" rx="2"/><circle class="cls-1" cx="544.5" cy="247.5" r="4.5"/><rect class="cls-1" x="513" y="243" width="9" height="9" rx="2"/><circle class="cls-1" cx="32.5" cy="273.5" r="4.5"/><circle class="cls-1" cx="86.5" cy="273.5" r="4.5"/><rect class="cls-1" x="55" y="269" width="9" height="9" rx="2"/><circle class="cls-1" cx="140.5" cy="273.5" r="4.5"/><rect class="cls-1" x="109" y="269" width="9" height="9" rx="2"/><circle class="cls-1" cx="194.5" cy="273.5" r="4.5"/><rect class="cls-1" x="163" y="269" width="9" height="9" rx="2"/><circle class="cls-1" cx="248.5" cy="273.5" r="4.5"/><rect class="cls-1" x="217" y="269" width="9" height="9" rx="2"/><circle class="cls-1" cx="302.5" cy="273.5" r="4.5"/><rect class="cls-1" x="271" y="269" width="9" height="9" rx="2"/><circle class="cls-1" cx="356.5" cy="273.5" r="4.5"/><rect class="cls-1" x="325" y="269" width="9" height="9" rx="2"/><circle class="cls-1" cx="410.5" cy="273.5" r="4.5"/><rect class="cls-1" x="379" y="269" width="9" height="9" rx="2"/><circle class="cls-1" cx="464.5" cy="273.5" r="4.5"/><rect class="cls-1" x="433" y="269" width="9" height="9" rx="2"/><circle class="cls-1" cx="518.5" cy="273.5" r="4.5"/><rect class="cls-1" x="487" y="269" width="9" height="9" rx="2"/><circle class="cls-1" cx="572.5" cy="273.5" r="4.5"/><rect class="cls-1" x="541" y="269" width="9" height="9" rx="2"/><circle class="cls-1" cx="4.5" cy="301.5" r="4.5"/><circle class="cls-1" cx="58.5" cy="301.5" r="4.5"/><rect class="cls-1" x="27" y="297" width="9" height="9" rx="2"/><circle class="cls-1" cx="112.5" cy="301.5" r="4.5"/><rect class="cls-1" x="81" y="297" width="9" height="9" rx="2"/><circle class="cls-1" cx="166.5" cy="301.5" r="4.5"/><rect class="cls-1" x="135" y="297" width="9" height="9" rx="2"/><circle class="cls-1" cx="220.5" cy="301.5" r="4.5"/><rect class="cls-1" x="189" y="297" width="9" height="9" rx="2"/><circle class="cls-1" cx="274.5" cy="301.5" r="4.5"/><rect class="cls-1" x="243" y="297" width="9" height="9" rx="2"/><circle class="cls-1" cx="328.5" cy="301.5" r="4.5"/><rect class="cls-1" x="297" y="297" width="9" height="9" rx="2"/><circle class="cls-1" cx="382.5" cy="301.5" r="4.5"/><rect class="cls-1" x="351" y="297" width="9" height="9" rx="2"/><circle class="cls-1" cx="436.5" cy="301.5" r="4.5"/><rect class="cls-1" x="405" y="297" width="9" height="9" rx="2"/><circle class="cls-1" cx="490.5" cy="301.5" r="4.5"/><rect class="cls-1" x="459" y="297" width="9" height="9" rx="2"/><circle class="cls-1" cx="544.5" cy="301.5" r="4.5"/><rect class="cls-1" x="513" y="297" width="9" height="9" rx="2"/><circle class="cls-1" cx="32.5" cy="327.5" r="4.5"/><circle class="cls-1" cx="86.5" cy="327.5" r="4.5"/><rect class="cls-1" x="55" y="323" width="9" height="9" rx="2"/><circle class="cls-1" cx="140.5" cy="327.5" r="4.5"/><rect class="cls-1" x="109" y="323" width="9" height="9" rx="2"/><circle class="cls-1" cx="194.5" cy="327.5" r="4.5"/><rect class="cls-1" x="163" y="323" width="9" height="9" rx="2"/><circle class="cls-1" cx="248.5" cy="327.5" r="4.5"/><rect class="cls-1" x="217" y="323" width="9" height="9" rx="2"/><circle class="cls-1" cx="302.5" cy="327.5" r="4.5"/><rect class="cls-1" x="271" y="323" width="9" height="9" rx="2"/><circle class="cls-1" cx="356.5" cy="327.5" r="4.5"/><rect class="cls-1" x="325" y="323" width="9" height="9" rx="2"/><circle class="cls-1" cx="410.5" cy="327.5" r="4.5"/><rect class="cls-1" x="379" y="323" width="9" height="9" rx="2"/><circle class="cls-1" cx="464.5" cy="327.5" r="4.5"/><rect class="cls-1" x="433" y="323" width="9" height="9" rx="2"/><circle class="cls-1" cx="518.5" cy="327.5" r="4.5"/><rect class="cls-1" x="487" y="323" width="9" height="9" rx="2"/><circle class="cls-1" cx="572.5" cy="327.5" r="4.5"/><rect class="cls-1" x="541" y="323" width="9" height="9" rx="2"/><circle class="cls-1" cx="4.5" cy="355.5" r="4.5"/><circle class="cls-1" cx="58.5" cy="355.5" r="4.5"/><rect class="cls-1" x="27" y="351" width="9" height="9" rx="2"/><circle class="cls-1" cx="112.5" cy="355.5" r="4.5"/><rect class="cls-1" x="81" y="351" width="9" height="9" rx="2"/><circle class="cls-1" cx="166.5" cy="355.5" r="4.5"/><rect class="cls-1" x="135" y="351" width="9" height="9" rx="2"/><circle class="cls-1" cx="220.5" cy="355.5" r="4.5"/><rect class="cls-1" x="189" y="351" width="9" height="9" rx="2"/><circle class="cls-1" cx="274.5" cy="355.5" r="4.5"/><rect class="cls-1" x="243" y="351" width="9" height="9" rx="2"/><circle class="cls-1" cx="328.5" cy="355.5" r="4.5"/><rect class="cls-1" x="297" y="351" width="9" height="9" rx="2"/><circle class="cls-1" cx="382.5" cy="355.5" r="4.5"/><rect class="cls-1" x="351" y="351" width="9" height="9" rx="2"/><circle class="cls-1" cx="436.5" cy="355.5" r="4.5"/><rect class="cls-1" x="405" y="351" width="9" height="9" rx="2"/><circle class="cls-1" cx="490.5" cy="355.5" r="4.5"/><rect class="cls-1" x="459" y="351" width="9" height="9" rx="2"/><circle class="cls-1" cx="544.5" cy="355.5" r="4.5"/><rect class="cls-1" x="513" y="351" width="9" height="9" rx="2"/><circle class="cls-1" cx="599.5" cy="111.5" r="4.5"/><circle class="cls-1" cx="653.5" cy="111.5" r="4.5"/><rect class="cls-1" x="622" y="107" width="9" height="9" rx="2"/><circle class="cls-1" cx="707.5" cy="111.5" r="4.5"/><rect class="cls-1" x="676" y="107" width="9" height="9" rx="2"/><circle class="cls-1" cx="761.5" cy="111.5" r="4.5"/><rect class="cls-1" x="730" y="107" width="9" height="9" rx="2"/><circle class="cls-1" cx="815.5" cy="111.5" r="4.5"/><rect class="cls-1" x="784" y="107" width="9" height="9" rx="2"/><circle class="cls-1" cx="869.5" cy="111.5" r="4.5"/><rect class="cls-1" x="838" y="107" width="9" height="9" rx="2"/><circle class="cls-1" cx="923.5" cy="111.5" r="4.5"/><rect class="cls-1" x="892" y="107" width="9" height="9" rx="2"/><circle class="cls-1" cx="977.5" cy="111.5" r="4.5"/><rect class="cls-1" x="946" y="107" width="9" height="9" rx="2"/><circle class="cls-1" cx="1031.5" cy="111.5" r="4.5"/><rect class="cls-1" x="1000" y="107" width="9" height="9" rx="2"/><circle class="cls-1" cx="1085.5" cy="111.5" r="4.5"/><rect class="cls-1" x="1054" y="107" width="9" height="9" rx="2"/><circle class="cls-1" cx="1139.5" cy="111.5" r="4.5"/><rect class="cls-1" x="1108" y="107" width="9" height="9" rx="2"/><circle class="cls-1" cx="571.5" cy="139.5" r="4.5"/><circle class="cls-1" cx="625.5" cy="139.5" r="4.5"/><rect class="cls-1" x="594" y="135" width="9" height="9" rx="2"/><circle class="cls-1" cx="679.5" cy="139.5" r="4.5"/><rect class="cls-1" x="648" y="135" width="9" height="9" rx="2"/><circle class="cls-1" cx="733.5" cy="139.5" r="4.5"/><rect class="cls-1" x="702" y="135" width="9" height="9" rx="2"/><circle class="cls-1" cx="787.5" cy="139.5" r="4.5"/><rect class="cls-1" x="756" y="135" width="9" height="9" rx="2"/><circle class="cls-1" cx="841.5" cy="139.5" r="4.5"/><rect class="cls-1" x="810" y="135" width="9" height="9" rx="2"/><circle class="cls-1" cx="895.5" cy="139.5" r="4.5"/><rect class="cls-1" x="864" y="135" width="9" height="9" rx="2"/><circle class="cls-1" cx="949.5" cy="139.5" r="4.5"/><rect class="cls-1" x="918" y="135" width="9" height="9" rx="2"/><circle class="cls-1" cx="1003.5" cy="139.5" r="4.5"/><rect class="cls-1" x="972" y="135" width="9" height="9" rx="2"/><circle class="cls-1" cx="1057.5" cy="139.5" r="4.5"/><rect class="cls-1" x="1026" y="135" width="9" height="9" rx="2"/><circle class="cls-1" cx="1111.5" cy="139.5" r="4.5"/><rect class="cls-1" x="1080" y="135" width="9" height="9" rx="2"/><circle class="cls-1" cx="599.5" cy="165.5" r="4.5"/><circle class="cls-1" cx="653.5" cy="165.5" r="4.5"/><rect class="cls-1" x="622" y="161" width="9" height="9" rx="2"/><circle class="cls-1" cx="707.5" cy="165.5" r="4.5"/><rect class="cls-1" x="676" y="161" width="9" height="9" rx="2"/><circle class="cls-1" cx="761.5" cy="165.5" r="4.5"/><rect class="cls-1" x="730" y="161" width="9" height="9" rx="2"/><circle class="cls-1" cx="815.5" cy="165.5" r="4.5"/><rect class="cls-1" x="784" y="161" width="9" height="9" rx="2"/><circle class="cls-1" cx="869.5" cy="165.5" r="4.5"/><rect class="cls-1" x="838" y="161" width="9" height="9" rx="2"/><circle class="cls-1" cx="923.5" cy="165.5" r="4.5"/><rect class="cls-1" x="892" y="161" width="9" height="9" rx="2"/><circle class="cls-1" cx="977.5" cy="165.5" r="4.5"/><rect class="cls-1" x="946" y="161" width="9" height="9" rx="2"/><circle class="cls-1" cx="1031.5" cy="165.5" r="4.5"/><rect class="cls-1" x="1000" y="161" width="9" height="9" rx="2"/><circle class="cls-1" cx="1085.5" cy="165.5" r="4.5"/><rect class="cls-1" x="1054" y="161" width="9" height="9" rx="2"/><circle class="cls-1" cx="1139.5" cy="165.5" r="4.5"/><rect class="cls-1" x="1108" y="161" width="9" height="9" rx="2"/><circle class="cls-1" cx="571.5" cy="193.5" r="4.5"/><circle class="cls-1" cx="625.5" cy="193.5" r="4.5"/><rect class="cls-1" x="594" y="189" width="9" height="9" rx="2"/><circle class="cls-1" cx="679.5" cy="193.5" r="4.5"/><rect class="cls-1" x="648" y="189" width="9" height="9" rx="2"/><circle class="cls-1" cx="733.5" cy="193.5" r="4.5"/><rect class="cls-1" x="702" y="189" width="9" height="9" rx="2"/><circle class="cls-1" cx="787.5" cy="193.5" r="4.5"/><rect class="cls-1" x="756" y="189" width="9" height="9" rx="2"/><circle class="cls-1" cx="841.5" cy="193.5" r="4.5"/><rect class="cls-1" x="810" y="189" width="9" height="9" rx="2"/><circle class="cls-1" cx="895.5" cy="193.5" r="4.5"/><rect class="cls-1" x="864" y="189" width="9" height="9" rx="2"/><circle class="cls-1" cx="949.5" cy="193.5" r="4.5"/><rect class="cls-1" x="918" y="189" width="9" height="9" rx="2"/><circle class="cls-1" cx="1003.5" cy="193.5" r="4.5"/><rect class="cls-1" x="972" y="189" width="9" height="9" rx="2"/><circle class="cls-1" cx="1057.5" cy="193.5" r="4.5"/><rect class="cls-1" x="1026" y="189" width="9" height="9" rx="2"/><circle class="cls-1" cx="1111.5" cy="193.5" r="4.5"/><rect class="cls-1" x="1080" y="189" width="9" height="9" rx="2"/><circle class="cls-1" cx="32.5" cy="4.5" r="4.5"/><circle class="cls-1" cx="86.5" cy="4.5" r="4.5"/><rect class="cls-1" x="55" width="9" height="9" rx="2"/><circle class="cls-1" cx="140.5" cy="4.5" r="4.5"/><rect class="cls-1" x="109" width="9" height="9" rx="2"/><circle class="cls-1" cx="194.5" cy="4.5" r="4.5"/><rect class="cls-1" x="163" width="9" height="9" rx="2"/><circle class="cls-1" cx="248.5" cy="4.5" r="4.5"/><rect class="cls-1" x="217" width="9" height="9" rx="2"/><circle class="cls-1" cx="302.5" cy="4.5" r="4.5"/><rect class="cls-1" x="271" width="9" height="9" rx="2"/><circle class="cls-1" cx="356.5" cy="4.5" r="4.5"/><rect class="cls-1" x="325" width="9" height="9" rx="2"/><circle class="cls-1" cx="410.5" cy="4.5" r="4.5"/><rect class="cls-1" x="379" width="9" height="9" rx="2"/><circle class="cls-1" cx="464.5" cy="4.5" r="4.5"/><rect class="cls-1" x="433" width="9" height="9" rx="2"/><circle class="cls-1" cx="518.5" cy="4.5" r="4.5"/><rect class="cls-1" x="487" width="9" height="9" rx="2"/><circle class="cls-1" cx="572.5" cy="4.5" r="4.5"/><rect class="cls-1" x="541" width="9" height="9" rx="2"/><circle class="cls-1" cx="4.5" cy="32.5" r="4.5"/><circle class="cls-1" cx="58.5" cy="32.5" r="4.5"/><rect class="cls-1" x="27" y="28" width="9" height="9" rx="2"/><circle class="cls-1" cx="112.5" cy="32.5" r="4.5"/><rect class="cls-1" x="81" y="28" width="9" height="9" rx="2"/><circle class="cls-1" cx="166.5" cy="32.5" r="4.5"/><rect class="cls-1" x="135" y="28" width="9" height="9" rx="2"/><circle class="cls-1" cx="220.5" cy="32.5" r="4.5"/><rect class="cls-1" x="189" y="28" width="9" height="9" rx="2"/><circle class="cls-1" cx="274.5" cy="32.5" r="4.5"/><rect class="cls-1" x="243" y="28" width="9" height="9" rx="2"/><circle class="cls-1" cx="328.5" cy="32.5" r="4.5"/><rect class="cls-1" x="297" y="28" width="9" height="9" rx="2"/><circle class="cls-1" cx="382.5" cy="32.5" r="4.5"/><rect class="cls-1" x="351" y="28" width="9" height="9" rx="2"/><circle class="cls-1" cx="436.5" cy="32.5" r="4.5"/><rect class="cls-1" x="405" y="28" width="9" height="9" rx="2"/><circle class="cls-1" cx="490.5" cy="32.5" r="4.5"/><rect class="cls-1" x="459" y="28" width="9" height="9" rx="2"/><circle class="cls-1" cx="544.5" cy="32.5" r="4.5"/><rect class="cls-1" x="513" y="28" width="9" height="9" rx="2"/><circle class="cls-1" cx="32.5" cy="58.5" r="4.5"/><circle class="cls-1" cx="86.5" cy="58.5" r="4.5"/><rect class="cls-1" x="55" y="54" width="9" height="9" rx="2"/><circle class="cls-1" cx="140.5" cy="58.5" r="4.5"/><rect class="cls-1" x="109" y="54" width="9" height="9" rx="2"/><circle class="cls-1" cx="194.5" cy="58.5" r="4.5"/><rect class="cls-1" x="163" y="54" width="9" height="9" rx="2"/><circle class="cls-1" cx="248.5" cy="58.5" r="4.5"/><rect class="cls-1" x="217" y="54" width="9" height="9" rx="2"/><circle class="cls-1" cx="302.5" cy="58.5" r="4.5"/><rect class="cls-1" x="271" y="54" width="9" height="9" rx="2"/><circle class="cls-1" cx="356.5" cy="58.5" r="4.5"/><rect class="cls-1" x="325" y="54" width="9" height="9" rx="2"/><circle class="cls-1" cx="410.5" cy="58.5" r="4.5"/><rect class="cls-1" x="379" y="54" width="9" height="9" rx="2"/><circle class="cls-1" cx="464.5" cy="58.5" r="4.5"/><rect class="cls-1" x="433" y="54" width="9" height="9" rx="2"/><circle class="cls-1" cx="518.5" cy="58.5" r="4.5"/><rect class="cls-1" x="487" y="54" width="9" height="9" rx="2"/><circle class="cls-1" cx="572.5" cy="58.5" r="4.5"/><rect class="cls-1" x="541" y="54" width="9" height="9" rx="2"/><circle class="cls-1" cx="4.5" cy="86.5" r="4.5"/><circle class="cls-1" cx="58.5" cy="86.5" r="4.5"/><rect class="cls-1" x="27" y="82" width="9" height="9" rx="2"/><circle class="cls-1" cx="112.5" cy="86.5" r="4.5"/><rect class="cls-1" x="81" y="82" width="9" height="9" rx="2"/><circle class="cls-1" cx="166.5" cy="86.5" r="4.5"/><rect class="cls-1" x="135" y="82" width="9" height="9" rx="2"/><circle class="cls-1" cx="220.5" cy="86.5" r="4.5"/><rect class="cls-1" x="189" y="82" width="9" height="9" rx="2"/><circle class="cls-1" cx="274.5" cy="86.5" r="4.5"/><rect class="cls-1" x="243" y="82" width="9" height="9" rx="2"/><circle class="cls-1" cx="328.5" cy="86.5" r="4.5"/><rect class="cls-1" x="297" y="82" width="9" height="9" rx="2"/><circle class="cls-1" cx="382.5" cy="86.5" r="4.5"/><rect class="cls-1" x="351" y="82" width="9" height="9" rx="2"/><circle class="cls-1" cx="436.5" cy="86.5" r="4.5"/><rect class="cls-1" x="405" y="82" width="9" height="9" rx="2"/><circle class="cls-1" cx="490.5" cy="86.5" r="4.5"/><rect class="cls-1" x="459" y="82" width="9" height="9" rx="2"/><circle class="cls-1" cx="544.5" cy="86.5" r="4.5"/><rect class="cls-1" x="513" y="82" width="9" height="9" rx="2"/><circle class="cls-1" cx="599.5" cy="4.5" r="4.5"/><circle class="cls-1" cx="653.5" cy="4.5" r="4.5"/><rect class="cls-1" x="622" width="9" height="9" rx="2"/><circle class="cls-1" cx="707.5" cy="4.5" r="4.5"/><rect class="cls-1" x="676" width="9" height="9" rx="2"/><circle class="cls-1" cx="761.5" cy="4.5" r="4.5"/><rect class="cls-1" x="730" width="9" height="9" rx="2"/><circle class="cls-1" cx="815.5" cy="4.5" r="4.5"/><rect class="cls-1" x="784" width="9" height="9" rx="2"/><circle class="cls-1" cx="869.5" cy="4.5" r="4.5"/><rect class="cls-1" x="838" width="9" height="9" rx="2"/><circle class="cls-1" cx="923.5" cy="4.5" r="4.5"/><rect class="cls-1" x="892" width="9" height="9" rx="2"/><circle class="cls-1" cx="977.5" cy="4.5" r="4.5"/><rect class="cls-1" x="946" width="9" height="9" rx="2"/><circle class="cls-1" cx="1031.5" cy="4.5" r="4.5"/><rect class="cls-1" x="1000" width="9" height="9" rx="2"/><circle class="cls-1" cx="1085.5" cy="4.5" r="4.5"/><rect class="cls-1" x="1054" width="9" height="9" rx="2"/><circle class="cls-1" cx="1139.5" cy="4.5" r="4.5"/><rect class="cls-1" x="1108" width="9" height="9" rx="2"/><circle class="cls-1" cx="571.5" cy="32.5" r="4.5"/><circle class="cls-1" cx="625.5" cy="32.5" r="4.5"/><rect class="cls-1" x="594" y="28" width="9" height="9" rx="2"/><circle class="cls-1" cx="679.5" cy="32.5" r="4.5"/><rect class="cls-1" x="648" y="28" width="9" height="9" rx="2"/><circle class="cls-1" cx="733.5" cy="32.5" r="4.5"/><rect class="cls-1" x="702" y="28" width="9" height="9" rx="2"/><circle class="cls-1" cx="787.5" cy="32.5" r="4.5"/><rect class="cls-1" x="756" y="28" width="9" height="9" rx="2"/><circle class="cls-1" cx="841.5" cy="32.5" r="4.5"/><rect class="cls-1" x="810" y="28" width="9" height="9" rx="2"/><circle class="cls-1" cx="895.5" cy="32.5" r="4.5"/><rect class="cls-1" x="864" y="28" width="9" height="9" rx="2"/><circle class="cls-1" cx="949.5" cy="32.5" r="4.5"/><rect class="cls-1" x="918" y="28" width="9" height="9" rx="2"/><circle class="cls-1" cx="1003.5" cy="32.5" r="4.5"/><rect class="cls-1" x="972" y="28" width="9" height="9" rx="2"/><circle class="cls-1" cx="1057.5" cy="32.5" r="4.5"/><rect class="cls-1" x="1026" y="28" width="9" height="9" rx="2"/><circle class="cls-1" cx="1111.5" cy="32.5" r="4.5"/><rect class="cls-1" x="1080" y="28" width="9" height="9" rx="2"/><circle class="cls-1" cx="599.5" cy="58.5" r="4.5"/><circle class="cls-1" cx="653.5" cy="58.5" r="4.5"/><rect class="cls-1" x="622" y="54" width="9" height="9" rx="2"/><circle class="cls-1" cx="707.5" cy="58.5" r="4.5"/><rect class="cls-1" x="676" y="54" width="9" height="9" rx="2"/><circle class="cls-1" cx="761.5" cy="58.5" r="4.5"/><rect class="cls-1" x="730" y="54" width="9" height="9" rx="2"/><circle class="cls-1" cx="815.5" cy="58.5" r="4.5"/><rect class="cls-1" x="784" y="54" width="9" height="9" rx="2"/><circle class="cls-1" cx="869.5" cy="58.5" r="4.5"/><rect class="cls-1" x="838" y="54" width="9" height="9" rx="2"/><circle class="cls-1" cx="923.5" cy="58.5" r="4.5"/><rect class="cls-1" x="892" y="54" width="9" height="9" rx="2"/><circle class="cls-1" cx="977.5" cy="58.5" r="4.5"/><rect class="cls-1" x="946" y="54" width="9" height="9" rx="2"/><circle class="cls-1" cx="1031.5" cy="58.5" r="4.5"/><rect class="cls-1" x="1000" y="54" width="9" height="9" rx="2"/><circle class="cls-1" cx="1085.5" cy="58.5" r="4.5"/><rect class="cls-1" x="1054" y="54" width="9" height="9" rx="2"/><circle class="cls-1" cx="1139.5" cy="58.5" r="4.5"/><rect class="cls-1" x="1108" y="54" width="9" height="9" rx="2"/><circle class="cls-1" cx="571.5" cy="86.5" r="4.5"/><circle class="cls-1" cx="625.5" cy="86.5" r="4.5"/><rect class="cls-1" x="594" y="82" width="9" height="9" rx="2"/><circle class="cls-1" cx="679.5" cy="86.5" r="4.5"/><rect class="cls-1" x="648" y="82" width="9" height="9" rx="2"/><circle class="cls-1" cx="733.5" cy="86.5" r="4.5"/><rect class="cls-1" x="702" y="82" width="9" height="9" rx="2"/><circle class="cls-1" cx="787.5" cy="86.5" r="4.5"/><rect class="cls-1" x="756" y="82" width="9" height="9" rx="2"/><circle class="cls-1" cx="841.5" cy="86.5" r="4.5"/><rect class="cls-1" x="810" y="82" width="9" height="9" rx="2"/><circle class="cls-1" cx="895.5" cy="86.5" r="4.5"/><rect class="cls-1" x="864" y="82" width="9" height="9" rx="2"/><circle class="cls-1" cx="949.5" cy="86.5" r="4.5"/><rect class="cls-1" x="918" y="82" width="9" height="9" rx="2"/><circle class="cls-1" cx="1003.5" cy="86.5" r="4.5"/><rect class="cls-1" x="972" y="82" width="9" height="9" rx="2"/><circle class="cls-1" cx="1057.5" cy="86.5" r="4.5"/><rect class="cls-1" x="1026" y="82" width="9" height="9" rx="2"/><circle class="cls-1" cx="1111.5" cy="86.5" r="4.5"/><rect class="cls-1" x="1080" y="82" width="9" height="9" rx="2"/><circle class="cls-1" cx="599.5" cy="219.5" r="4.5"/><circle class="cls-1" cx="653.5" cy="219.5" r="4.5"/><rect class="cls-1" x="622" y="215" width="9" height="9" rx="2"/><circle class="cls-1" cx="707.5" cy="219.5" r="4.5"/><rect class="cls-1" x="676" y="215" width="9" height="9" rx="2"/><circle class="cls-1" cx="761.5" cy="219.5" r="4.5"/><rect class="cls-1" x="730" y="215" width="9" height="9" rx="2"/><circle class="cls-1" cx="815.5" cy="219.5" r="4.5"/><rect class="cls-1" x="784" y="215" width="9" height="9" rx="2"/><circle class="cls-1" cx="869.5" cy="219.5" r="4.5"/><rect class="cls-1" x="838" y="215" width="9" height="9" rx="2"/><circle class="cls-1" cx="923.5" cy="219.5" r="4.5"/><rect class="cls-1" x="892" y="215" width="9" height="9" rx="2"/><circle class="cls-1" cx="977.5" cy="219.5" r="4.5"/><rect class="cls-1" x="946" y="215" width="9" height="9" rx="2"/><circle class="cls-1" cx="1031.5" cy="219.5" r="4.5"/><rect class="cls-1" x="1000" y="215" width="9" height="9" rx="2"/><circle class="cls-1" cx="1085.5" cy="219.5" r="4.5"/><rect class="cls-1" x="1054" y="215" width="9" height="9" rx="2"/><circle class="cls-1" cx="1139.5" cy="219.5" r="4.5"/><rect class="cls-1" x="1108" y="215" width="9" height="9" rx="2"/><circle class="cls-1" cx="571.5" cy="247.5" r="4.5"/><circle class="cls-1" cx="625.5" cy="247.5" r="4.5"/><rect class="cls-1" x="594" y="243" width="9" height="9" rx="2"/><circle class="cls-1" cx="679.5" cy="247.5" r="4.5"/><rect class="cls-1" x="648" y="243" width="9" height="9" rx="2"/><circle class="cls-1" cx="733.5" cy="247.5" r="4.5"/><rect class="cls-1" x="702" y="243" width="9" height="9" rx="2"/><circle class="cls-1" cx="787.5" cy="247.5" r="4.5"/><rect class="cls-1" x="756" y="243" width="9" height="9" rx="2"/><circle class="cls-1" cx="841.5" cy="247.5" r="4.5"/><rect class="cls-1" x="810" y="243" width="9" height="9" rx="2"/><circle class="cls-1" cx="895.5" cy="247.5" r="4.5"/><rect class="cls-1" x="864" y="243" width="9" height="9" rx="2"/><circle class="cls-1" cx="949.5" cy="247.5" r="4.5"/><rect class="cls-1" x="918" y="243" width="9" height="9" rx="2"/><circle class="cls-1" cx="1003.5" cy="247.5" r="4.5"/><rect class="cls-1" x="972" y="243" width="9" height="9" rx="2"/><circle class="cls-1" cx="1057.5" cy="247.5" r="4.5"/><rect class="cls-1" x="1026" y="243" width="9" height="9" rx="2"/><circle class="cls-1" cx="1111.5" cy="247.5" r="4.5"/><rect class="cls-1" x="1080" y="243" width="9" height="9" rx="2"/><circle class="cls-1" cx="599.5" cy="273.5" r="4.5"/><circle class="cls-1" cx="653.5" cy="273.5" r="4.5"/><rect class="cls-1" x="622" y="269" width="9" height="9" rx="2"/><circle class="cls-1" cx="707.5" cy="273.5" r="4.5"/><rect class="cls-1" x="676" y="269" width="9" height="9" rx="2"/><circle class="cls-1" cx="761.5" cy="273.5" r="4.5"/><rect class="cls-1" x="730" y="269" width="9" height="9" rx="2"/><circle class="cls-1" cx="815.5" cy="273.5" r="4.5"/><rect class="cls-1" x="784" y="269" width="9" height="9" rx="2"/><circle class="cls-1" cx="869.5" cy="273.5" r="4.5"/><rect class="cls-1" x="838" y="269" width="9" height="9" rx="2"/><circle class="cls-1" cx="923.5" cy="273.5" r="4.5"/><rect class="cls-1" x="892" y="269" width="9" height="9" rx="2"/><circle class="cls-1" cx="977.5" cy="273.5" r="4.5"/><rect class="cls-1" x="946" y="269" width="9" height="9" rx="2"/><circle class="cls-1" cx="1031.5" cy="273.5" r="4.5"/><rect class="cls-1" x="1000" y="269" width="9" height="9" rx="2"/><circle class="cls-1" cx="1085.5" cy="273.5" r="4.5"/><rect class="cls-1" x="1054" y="269" width="9" height="9" rx="2"/><circle class="cls-1" cx="1139.5" cy="273.5" r="4.5"/><rect class="cls-1" x="1108" y="269" width="9" height="9" rx="2"/><circle class="cls-1" cx="571.5" cy="301.5" r="4.5"/><circle class="cls-1" cx="625.5" cy="301.5" r="4.5"/><rect class="cls-1" x="594" y="297" width="9" height="9" rx="2"/><circle class="cls-1" cx="679.5" cy="301.5" r="4.5"/><rect class="cls-1" x="648" y="297" width="9" height="9" rx="2"/><circle class="cls-1" cx="733.5" cy="301.5" r="4.5"/><rect class="cls-1" x="702" y="297" width="9" height="9" rx="2"/><circle class="cls-1" cx="787.5" cy="301.5" r="4.5"/><rect class="cls-1" x="756" y="297" width="9" height="9" rx="2"/><circle class="cls-1" cx="841.5" cy="301.5" r="4.5"/><rect class="cls-1" x="810" y="297" width="9" height="9" rx="2"/><circle class="cls-1" cx="895.5" cy="301.5" r="4.5"/><rect class="cls-1" x="864" y="297" width="9" height="9" rx="2"/><circle class="cls-1" cx="949.5" cy="301.5" r="4.5"/><rect class="cls-1" x="918" y="297" width="9" height="9" rx="2"/><circle class="cls-1" cx="1003.5" cy="301.5" r="4.5"/><rect class="cls-1" x="972" y="297" width="9" height="9" rx="2"/><circle class="cls-1" cx="1057.5" cy="301.5" r="4.5"/><rect class="cls-1" x="1026" y="297" width="9" height="9" rx="2"/><circle class="cls-1" cx="1111.5" cy="301.5" r="4.5"/><rect class="cls-1" x="1080" y="297" width="9" height="9" rx="2"/><circle class="cls-1" cx="599.5" cy="327.5" r="4.5"/><circle class="cls-1" cx="653.5" cy="327.5" r="4.5"/><rect class="cls-1" x="622" y="323" width="9" height="9" rx="2"/><circle class="cls-1" cx="707.5" cy="327.5" r="4.5"/><rect class="cls-1" x="676" y="323" width="9" height="9" rx="2"/><circle class="cls-1" cx="761.5" cy="327.5" r="4.5"/><rect class="cls-1" x="730" y="323" width="9" height="9" rx="2"/><circle class="cls-1" cx="815.5" cy="327.5" r="4.5"/><rect class="cls-1" x="784" y="323" width="9" height="9" rx="2"/><circle class="cls-1" cx="869.5" cy="327.5" r="4.5"/><rect class="cls-1" x="838" y="323" width="9" height="9" rx="2"/><circle class="cls-1" cx="923.5" cy="327.5" r="4.5"/><rect class="cls-1" x="892" y="323" width="9" height="9" rx="2"/><circle class="cls-1" cx="977.5" cy="327.5" r="4.5"/><rect class="cls-1" x="946" y="323" width="9" height="9" rx="2"/><circle class="cls-1" cx="1031.5" cy="327.5" r="4.5"/><rect class="cls-1" x="1000" y="323" width="9" height="9" rx="2"/><circle class="cls-1" cx="1085.5" cy="327.5" r="4.5"/><rect class="cls-1" x="1054" y="323" width="9" height="9" rx="2"/><circle class="cls-1" cx="1139.5" cy="327.5" r="4.5"/><rect class="cls-1" x="1108" y="323" width="9" height="9" rx="2"/><circle class="cls-1" cx="571.5" cy="355.5" r="4.5"/><circle class="cls-1" cx="625.5" cy="355.5" r="4.5"/><rect class="cls-1" x="594" y="351" width="9" height="9" rx="2"/><circle class="cls-1" cx="679.5" cy="355.5" r="4.5"/><rect class="cls-1" x="648" y="351" width="9" height="9" rx="2"/><circle class="cls-1" cx="733.5" cy="355.5" r="4.5"/><rect class="cls-1" x="702" y="351" width="9" height="9" rx="2"/><circle class="cls-1" cx="787.5" cy="355.5" r="4.5"/><rect class="cls-1" x="756" y="351" width="9" height="9" rx="2"/><circle class="cls-1" cx="841.5" cy="355.5" r="4.5"/><rect class="cls-1" x="810" y="351" width="9" height="9" rx="2"/><circle class="cls-1" cx="895.5" cy="355.5" r="4.5"/><rect class="cls-1" x="864" y="351" width="9" height="9" rx="2"/><circle class="cls-1" cx="949.5" cy="355.5" r="4.5"/><rect class="cls-1" x="918" y="351" width="9" height="9" rx="2"/><circle class="cls-1" cx="1003.5" cy="355.5" r="4.5"/><rect class="cls-1" x="972" y="351" width="9" height="9" rx="2"/><circle class="cls-1" cx="1057.5" cy="355.5" r="4.5"/><rect class="cls-1" x="1026" y="351" width="9" height="9" rx="2"/><circle class="cls-1" cx="1111.5" cy="355.5" r="4.5"/><rect class="cls-1" x="1080" y="351" width="9" height="9" rx="2"/><circle class="cls-1" cx="32.5" cy="383.5" r="4.5"/><circle class="cls-1" cx="86.5" cy="383.5" r="4.5"/><rect class="cls-1" x="55" y="379" width="9" height="9" rx="2"/><circle class="cls-1" cx="140.5" cy="383.5" r="4.5"/><rect class="cls-1" x="109" y="379" width="9" height="9" rx="2"/><circle class="cls-1" cx="194.5" cy="383.5" r="4.5"/><rect class="cls-1" x="163" y="379" width="9" height="9" rx="2"/><circle class="cls-1" cx="248.5" cy="383.5" r="4.5"/><rect class="cls-1" x="217" y="379" width="9" height="9" rx="2"/><circle class="cls-1" cx="302.5" cy="383.5" r="4.5"/><rect class="cls-1" x="271" y="379" width="9" height="9" rx="2"/><circle class="cls-1" cx="356.5" cy="383.5" r="4.5"/><rect class="cls-1" x="325" y="379" width="9" height="9" rx="2"/><circle class="cls-1" cx="410.5" cy="383.5" r="4.5"/><rect class="cls-1" x="379" y="379" width="9" height="9" rx="2"/><circle class="cls-1" cx="464.5" cy="383.5" r="4.5"/><rect class="cls-1" x="433" y="379" width="9" height="9" rx="2"/><circle class="cls-1" cx="518.5" cy="383.5" r="4.5"/><rect class="cls-1" x="487" y="379" width="9" height="9" rx="2"/><circle class="cls-1" cx="572.5" cy="383.5" r="4.5"/><rect class="cls-1" x="541" y="379" width="9" height="9" rx="2"/><circle class="cls-1" cx="4.5" cy="411.5" r="4.5"/><circle class="cls-1" cx="58.5" cy="411.5" r="4.5"/><rect class="cls-1" x="27" y="407" width="9" height="9" rx="2"/><circle class="cls-1" cx="112.5" cy="411.5" r="4.5"/><rect class="cls-1" x="81" y="407" width="9" height="9" rx="2"/><circle class="cls-1" cx="166.5" cy="411.5" r="4.5"/><rect class="cls-1" x="135" y="407" width="9" height="9" rx="2"/><circle class="cls-1" cx="220.5" cy="411.5" r="4.5"/><rect class="cls-1" x="189" y="407" width="9" height="9" rx="2"/><circle class="cls-1" cx="274.5" cy="411.5" r="4.5"/><rect class="cls-1" x="243" y="407" width="9" height="9" rx="2"/><circle class="cls-1" cx="328.5" cy="411.5" r="4.5"/><rect class="cls-1" x="297" y="407" width="9" height="9" rx="2"/><circle class="cls-1" cx="382.5" cy="411.5" r="4.5"/><rect class="cls-1" x="351" y="407" width="9" height="9" rx="2"/><circle class="cls-1" cx="436.5" cy="411.5" r="4.5"/><rect class="cls-1" x="405" y="407" width="9" height="9" rx="2"/><circle class="cls-1" cx="490.5" cy="411.5" r="4.5"/><rect class="cls-1" x="459" y="407" width="9" height="9" rx="2"/><circle class="cls-1" cx="544.5" cy="411.5" r="4.5"/><rect class="cls-1" x="513" y="407" width="9" height="9" rx="2"/><circle class="cls-1" cx="32.5" cy="437.5" r="4.5"/><circle class="cls-1" cx="86.5" cy="437.5" r="4.5"/><rect class="cls-1" x="55" y="433" width="9" height="9" rx="2"/><circle class="cls-1" cx="140.5" cy="437.5" r="4.5"/><rect class="cls-1" x="109" y="433" width="9" height="9" rx="2"/><circle class="cls-1" cx="194.5" cy="437.5" r="4.5"/><rect class="cls-1" x="163" y="433" width="9" height="9" rx="2"/><circle class="cls-1" cx="248.5" cy="437.5" r="4.5"/><rect class="cls-1" x="217" y="433" width="9" height="9" rx="2"/><circle class="cls-1" cx="302.5" cy="437.5" r="4.5"/><rect class="cls-1" x="271" y="433" width="9" height="9" rx="2"/><circle class="cls-1" cx="356.5" cy="437.5" r="4.5"/><rect class="cls-1" x="325" y="433" width="9" height="9" rx="2"/><circle class="cls-1" cx="410.5" cy="437.5" r="4.5"/><rect class="cls-1" x="379" y="433" width="9" height="9" rx="2"/><circle class="cls-1" cx="464.5" cy="437.5" r="4.5"/><rect class="cls-1" x="433" y="433" width="9" height="9" rx="2"/><circle class="cls-1" cx="518.5" cy="437.5" r="4.5"/><rect class="cls-1" x="487" y="433" width="9" height="9" rx="2"/><circle class="cls-1" cx="572.5" cy="437.5" r="4.5"/><rect class="cls-1" x="541" y="433" width="9" height="9" rx="2"/><circle class="cls-1" cx="4.5" cy="465.5" r="4.5"/><circle class="cls-1" cx="58.5" cy="465.5" r="4.5"/><rect class="cls-1" x="27" y="461" width="9" height="9" rx="2"/><circle class="cls-1" cx="112.5" cy="465.5" r="4.5"/><rect class="cls-1" x="81" y="461" width="9" height="9" rx="2"/><circle class="cls-1" cx="166.5" cy="465.5" r="4.5"/><rect class="cls-1" x="135" y="461" width="9" height="9" rx="2"/><circle class="cls-1" cx="220.5" cy="465.5" r="4.5"/><rect class="cls-1" x="189" y="461" width="9" height="9" rx="2"/><circle class="cls-1" cx="274.5" cy="465.5" r="4.5"/><rect class="cls-1" x="243" y="461" width="9" height="9" rx="2"/><circle class="cls-1" cx="328.5" cy="465.5" r="4.5"/><rect class="cls-1" x="297" y="461" width="9" height="9" rx="2"/><circle class="cls-1" cx="382.5" cy="465.5" r="4.5"/><rect class="cls-1" x="351" y="461" width="9" height="9" rx="2"/><circle class="cls-1" cx="436.5" cy="465.5" r="4.5"/><rect class="cls-1" x="405" y="461" width="9" height="9" rx="2"/><circle class="cls-1" cx="490.5" cy="465.5" r="4.5"/><rect class="cls-1" x="459" y="461" width="9" height="9" rx="2"/><circle class="cls-1" cx="544.5" cy="465.5" r="4.5"/><rect class="cls-1" x="513" y="461" width="9" height="9" rx="2"/><circle class="cls-1" cx="599.5" cy="383.5" r="4.5"/><circle class="cls-1" cx="653.5" cy="383.5" r="4.5"/><rect class="cls-1" x="622" y="379" width="9" height="9" rx="2"/><circle class="cls-1" cx="707.5" cy="383.5" r="4.5"/><rect class="cls-1" x="676" y="379" width="9" height="9" rx="2"/><circle class="cls-1" cx="761.5" cy="383.5" r="4.5"/><rect class="cls-1" x="730" y="379" width="9" height="9" rx="2"/><circle class="cls-1" cx="815.5" cy="383.5" r="4.5"/><rect class="cls-1" x="784" y="379" width="9" height="9" rx="2"/><circle class="cls-1" cx="869.5" cy="383.5" r="4.5"/><rect class="cls-1" x="838" y="379" width="9" height="9" rx="2"/><circle class="cls-1" cx="923.5" cy="383.5" r="4.5"/><rect class="cls-1" x="892" y="379" width="9" height="9" rx="2"/><circle class="cls-1" cx="977.5" cy="383.5" r="4.5"/><rect class="cls-1" x="946" y="379" width="9" height="9" rx="2"/><circle class="cls-1" cx="1031.5" cy="383.5" r="4.5"/><rect class="cls-1" x="1000" y="379" width="9" height="9" rx="2"/><circle class="cls-1" cx="1085.5" cy="383.5" r="4.5"/><rect class="cls-1" x="1054" y="379" width="9" height="9" rx="2"/><circle class="cls-1" cx="1139.5" cy="383.5" r="4.5"/><rect class="cls-1" x="1108" y="379" width="9" height="9" rx="2"/><circle class="cls-1" cx="571.5" cy="411.5" r="4.5"/><circle class="cls-1" cx="625.5" cy="411.5" r="4.5"/><rect class="cls-1" x="594" y="407" width="9" height="9" rx="2"/><circle class="cls-1" cx="679.5" cy="411.5" r="4.5"/><rect class="cls-1" x="648" y="407" width="9" height="9" rx="2"/><circle class="cls-1" cx="733.5" cy="411.5" r="4.5"/><rect class="cls-1" x="702" y="407" width="9" height="9" rx="2"/><circle class="cls-1" cx="787.5" cy="411.5" r="4.5"/><rect class="cls-1" x="756" y="407" width="9" height="9" rx="2"/><circle class="cls-1" cx="841.5" cy="411.5" r="4.5"/><rect class="cls-1" x="810" y="407" width="9" height="9" rx="2"/><circle class="cls-1" cx="895.5" cy="411.5" r="4.5"/><rect class="cls-1" x="864" y="407" width="9" height="9" rx="2"/><circle class="cls-1" cx="949.5" cy="411.5" r="4.5"/><rect class="cls-1" x="918" y="407" width="9" height="9" rx="2"/><circle class="cls-1" cx="1003.5" cy="411.5" r="4.5"/><rect class="cls-1" x="972" y="407" width="9" height="9" rx="2"/><circle class="cls-1" cx="1057.5" cy="411.5" r="4.5"/><rect class="cls-1" x="1026" y="407" width="9" height="9" rx="2"/><circle class="cls-1" cx="1111.5" cy="411.5" r="4.5"/><rect class="cls-1" x="1080" y="407" width="9" height="9" rx="2"/><circle class="cls-1" cx="599.5" cy="437.5" r="4.5"/><circle class="cls-1" cx="653.5" cy="437.5" r="4.5"/><rect class="cls-1" x="622" y="433" width="9" height="9" rx="2"/><circle class="cls-1" cx="707.5" cy="437.5" r="4.5"/><rect class="cls-1" x="676" y="433" width="9" height="9" rx="2"/><circle class="cls-1" cx="761.5" cy="437.5" r="4.5"/><rect class="cls-1" x="730" y="433" width="9" height="9" rx="2"/><circle class="cls-1" cx="815.5" cy="437.5" r="4.5"/><rect class="cls-1" x="784" y="433" width="9" height="9" rx="2"/><circle class="cls-1" cx="869.5" cy="437.5" r="4.5"/><rect class="cls-1" x="838" y="433" width="9" height="9" rx="2"/><circle class="cls-1" cx="923.5" cy="437.5" r="4.5"/><rect class="cls-1" x="892" y="433" width="9" height="9" rx="2"/><circle class="cls-1" cx="977.5" cy="437.5" r="4.5"/><rect class="cls-1" x="946" y="433" width="9" height="9" rx="2"/><circle class="cls-1" cx="1031.5" cy="437.5" r="4.5"/><rect class="cls-1" x="1000" y="433" width="9" height="9" rx="2"/><circle class="cls-1" cx="1085.5" cy="437.5" r="4.5"/><rect class="cls-1" x="1054" y="433" width="9" height="9" rx="2"/><circle class="cls-1" cx="1139.5" cy="437.5" r="4.5"/><rect class="cls-1" x="1108" y="433" width="9" height="9" rx="2"/><circle class="cls-1" cx="571.5" cy="465.5" r="4.5"/><circle class="cls-1" cx="625.5" cy="465.5" r="4.5"/><rect class="cls-1" x="594" y="461" width="9" height="9" rx="2"/><circle class="cls-1" cx="679.5" cy="465.5" r="4.5"/><rect class="cls-1" x="648" y="461" width="9" height="9" rx="2"/><circle class="cls-1" cx="733.5" cy="465.5" r="4.5"/><rect class="cls-1" x="702" y="461" width="9" height="9" rx="2"/><circle class="cls-1" cx="787.5" cy="465.5" r="4.5"/><rect class="cls-1" x="756" y="461" width="9" height="9" rx="2"/><circle class="cls-1" cx="841.5" cy="465.5" r="4.5"/><rect class="cls-1" x="810" y="461" width="9" height="9" rx="2"/><circle class="cls-1" cx="895.5" cy="465.5" r="4.5"/><rect class="cls-1" x="864" y="461" width="9" height="9" rx="2"/><circle class="cls-1" cx="949.5" cy="465.5" r="4.5"/><rect class="cls-1" x="918" y="461" width="9" height="9" rx="2"/><circle class="cls-1" cx="1003.5" cy="465.5" r="4.5"/><rect class="cls-1" x="972" y="461" width="9" height="9" rx="2"/><circle class="cls-1" cx="1057.5" cy="465.5" r="4.5"/><rect class="cls-1" x="1026" y="461" width="9" height="9" rx="2"/><circle class="cls-1" cx="1111.5" cy="465.5" r="4.5"/><rect class="cls-1" x="1080" y="461" width="9" height="9" rx="2"/></g></g></svg>