<svg width="16" height="17" viewBox="0 0 16 17" fill="none" xmlns="http://www.w3.org/2000/svg">
<g id="Arrow">
<path id="Vector" d="M8.34098 10.3304C8.34598 10.3244 8.34798 10.3164 8.35298 10.3104L11.844 6.45341C12.039 6.23641 12.039 5.88441 11.844 5.66741C11.842 5.66541 11.84 5.66441 11.838 5.66341C11.7946 5.61086 11.7403 5.56843 11.6788 5.53906C11.6173 5.5097 11.5501 5.49412 11.482 5.49341H4.49899C4.4296 5.49453 4.3613 5.51087 4.29892 5.54128C4.23655 5.5717 4.18161 5.61543 4.13799 5.66941L4.13599 5.66741C4.04162 5.77659 3.98969 5.91609 3.98969 6.06041C3.98969 6.20472 4.04162 6.34422 4.13599 6.45341L7.63499 10.3304C7.67855 10.3815 7.73266 10.4225 7.79361 10.4506C7.85455 10.4787 7.92087 10.4933 7.98799 10.4933C8.0551 10.4933 8.12142 10.4787 8.18236 10.4506C8.24331 10.4225 8.29743 10.3815 8.34098 10.3304Z" fill="#334CAB"/>
</g>
</svg>
