<svg width="24" height="21" viewBox="0 0 24 21" fill="none" xmlns="http://www.w3.org/2000/svg">
<g id="Camera" clip-path="url(#clip0_193_27589)">
<path id="Vector" d="M17.8555 2.5125H19.6606C20.8546 2.5125 21.9396 3.00063 22.7256 3.78649C23.5114 4.57234 23.9995 5.65767 23.9995 6.85129V16.6143C23.9995 17.8082 23.5115 18.8932 22.7257 19.6791C21.9398 20.4651 20.8546 20.9532 19.6606 20.9532H4.33841C3.14446 20.9532 2.05946 20.4651 1.27361 19.6791C0.487646 18.8932 -0.000488281 17.8082 -0.000488281 16.6143V6.85129C-0.000488281 5.65734 0.487646 4.57223 1.27361 3.78638C2.05946 3.00041 3.14446 2.5125 4.33841 2.5125H6.14367C6.31427 1.95976 6.64757 1.47349 7.05753 1.0804C7.75458 0.411596 8.71147 0 9.45232 0H14.5466C15.2875 0 16.2445 0.411596 16.9414 1.0804C17.3513 1.47349 17.6846 1.95976 17.8554 2.5125H17.8555ZM11.9995 6.44473C13.4594 6.44473 14.7818 7.03677 15.7387 7.99366C16.6957 8.95066 17.2878 10.2729 17.2878 11.733C17.2878 13.1929 16.6957 14.5151 15.7387 15.4721C14.7816 16.429 13.4597 17.0211 11.9995 17.0211C10.5394 17.0211 9.21745 16.429 8.26034 15.4721C7.30346 14.515 6.71141 13.193 6.71141 11.733C6.71141 10.2728 7.30346 8.95077 8.26034 7.99366C9.21723 7.03677 10.5396 6.44473 11.9995 6.44473ZM14.5885 9.14403C13.9261 8.48168 13.0107 8.07206 11.9995 8.07206C10.9884 8.07206 10.0729 8.48168 9.4106 9.14403C8.74848 9.80637 8.33863 10.7219 8.33863 11.733C8.33863 12.7439 8.74848 13.6595 9.4106 14.3218C10.0729 14.984 10.9884 15.3938 11.9995 15.3938C13.0105 15.3938 13.9261 14.984 14.5885 14.3218C15.2508 13.6595 15.6604 12.744 15.6604 11.733C15.6604 10.7218 15.2508 9.80637 14.5885 9.14403ZM19.6606 4.13972H17.1656C16.7163 4.13972 16.352 3.77543 16.352 3.32617C16.352 2.92453 16.1265 2.5471 15.8165 2.24982C15.4149 1.8645 14.9093 1.62733 14.5467 1.62733H9.45243C9.08989 1.62733 8.58423 1.8645 8.18271 2.24982C7.87262 2.54721 7.64716 2.92453 7.64716 3.32617C7.64716 3.77543 7.28287 4.13972 6.83361 4.13972H4.33852C3.59351 4.13972 2.91561 4.44511 2.42398 4.93674C1.93234 5.42849 1.62684 6.10638 1.62684 6.85139V16.6144C1.62684 17.3592 1.93234 18.0373 2.42398 18.5289C2.91572 19.0206 3.59361 19.3261 4.33852 19.3261H19.6608C20.4058 19.3261 21.0839 19.0206 21.5754 18.5289C22.0672 18.0372 22.3724 17.3594 22.3724 16.6144V6.85139C22.3724 6.1066 22.067 5.42849 21.5753 4.93696C21.0835 4.44522 20.4057 4.13972 19.6608 4.13972H19.6606Z" fill="#334CAB"/>
</g>
<defs>
<clipPath id="clip0_193_27589">
<rect width="24" height="20.9532" fill="white"/>
</clipPath>
</defs>
</svg>
