<svg width="18" height="18" viewBox="0 0 18 18" fill="none" xmlns="http://www.w3.org/2000/svg">
<g id="&#217;&#132;&#217;&#132;">
<path id="Vector" d="M2.63611 2.65901C1.75743 3.53769 1.75743 4.96231 2.63611 5.84099L10.9459 14.1508C11.3063 14.5112 11.758 14.7669 12.2525 14.8905L14.8299 15.5349C15.2418 15.6379 15.615 15.2647 15.512 14.8528L14.8676 12.2754C14.744 11.7809 14.4883 11.3292 14.1279 10.9688L5.81809 2.65901C4.93941 1.78033 3.51479 1.78033 2.63611 2.65901ZM6.61367 5.04537L13.3324 11.7643C13.5486 11.9805 13.7021 12.2515 13.7762 12.5482L14.1932 14.2161L12.5253 13.7991C12.2286 13.725 11.9576 13.5715 11.7414 13.3553L5.02292 6.63612L6.61367 5.04537ZM5.0226 3.4545L5.8183 4.25L4.22755 5.84075L3.43161 5.0455C2.99227 4.60616 2.99227 3.89384 3.43161 3.4545C3.87095 3.01516 4.58326 3.01516 5.0226 3.4545Z" fill="#ABABAB"/>
</g>
</svg>
