<svg width="24" height="24" viewBox="0 0 24 24" fill="none" xmlns="http://www.w3.org/2000/svg">
<g id="star (1) 5">
<path id="Vector" d="M21.3894 11.6C21.6641 11.3192 21.8554 10.9676 21.9419 10.5845C22.0285 10.2013 22.0068 9.80161 21.8794 9.43002C21.7599 9.05733 21.5381 8.72569 21.2393 8.47288C20.9406 8.22006 20.5768 8.05622 20.1894 8.00002L15.8994 7.34002C15.8794 7.33422 15.861 7.32403 15.8454 7.31019C15.8298 7.29635 15.8176 7.27921 15.8094 7.26002L13.9294 3.26002C13.7646 2.88546 13.4944 2.56692 13.1517 2.34321C12.809 2.11949 12.4087 2.00025 11.9994 2.00002C11.5949 1.99835 11.1986 2.11353 10.858 2.33173C10.5174 2.54993 10.247 2.86186 10.0794 3.23002L8.19945 7.23002C8.18919 7.24952 8.17501 7.26669 8.1578 7.28046C8.14059 7.29423 8.12073 7.30429 8.09945 7.31002L3.81945 8.00002C3.43154 8.05781 3.06727 8.22206 2.76715 8.47452C2.46702 8.72698 2.24281 9.05774 2.11945 9.43002C1.99675 9.8029 1.97847 10.2023 2.06662 10.5848C2.15476 10.9673 2.34594 11.3184 2.61945 11.6L5.77945 14.85C5.78855 14.8705 5.79325 14.8926 5.79325 14.915C5.79325 14.9374 5.78855 14.9596 5.77945 14.98L5.03945 19.52C4.97066 19.9154 5.0155 20.3222 5.16877 20.6931C5.32205 21.064 5.57745 21.3838 5.90528 21.6152C6.23312 21.8467 6.61993 21.9804 7.02073 22.0007C7.42154 22.021 7.81988 21.9272 8.16945 21.73L11.8994 19.66C11.918 19.6504 11.9386 19.6453 11.9594 19.6453C11.9803 19.6453 12.0009 19.6504 12.0194 19.66L15.7494 21.73C16.0995 21.9229 16.4967 22.0134 16.8958 21.9913C17.2948 21.9691 17.6796 21.835 18.006 21.6045C18.3325 21.374 18.5876 21.0563 18.742 20.6877C18.8965 20.319 18.9441 19.9144 18.8794 19.52L18.1894 15C18.1789 14.9818 18.1734 14.9611 18.1734 14.94C18.1734 14.919 18.1789 14.8983 18.1894 14.88L21.3894 11.6Z" fill="#E1E1E1"/>
</g>
</svg>
