<svg width="129" height="85" viewBox="0 0 129 85" fill="none" xmlns="http://www.w3.org/2000/svg">
<g id="Mastercard" clip-path="url(#clip0_25_3346)">
<g id="Group">
<path id="Vector" fill-rule="evenodd" clip-rule="evenodd" d="M0 0H129V85H0V0Z" fill="white"/>
<path id="Vector_2" fill-rule="evenodd" clip-rule="evenodd" d="M64.5281 58.6672C70.3284 62.1888 78.1177 64.3249 86.5902 64.3249C104.786 64.3249 119.513 54.5459 119.513 42.5184C119.513 30.4542 104.786 20.6748 86.5902 20.6748C78.1177 20.6748 70.3284 22.8104 64.5281 26.3325C57.8752 30.3414 53.667 36.1115 53.667 42.5184C53.6677 48.9252 57.8752 54.6958 64.5281 58.6672Z" fill="#E9B040"/>
<path id="Vector_3" fill-rule="evenodd" clip-rule="evenodd" d="M115.137 54.6581C115.137 54.2833 115.592 53.9839 116.16 53.9839C116.785 53.9839 117.239 54.2837 117.239 54.6581C117.239 55.0709 116.784 55.3703 116.16 55.3703C115.592 55.3703 115.137 55.0709 115.137 54.6581ZM116.16 55.2208C116.615 55.2208 117.012 54.958 117.012 54.6586C117.012 54.3592 116.614 54.1343 116.16 54.1343C115.761 54.1343 115.364 54.3592 115.364 54.6586C115.364 54.958 115.762 55.2208 116.16 55.2208ZM116.046 54.9959H115.819V54.3587H116.216C116.274 54.3587 116.388 54.3587 116.444 54.3966C116.558 54.4337 116.558 54.4716 116.558 54.5466C116.558 54.6215 116.501 54.6965 116.388 54.6965L116.615 54.9964H116.33L116.216 54.7335H116.046V54.9959V54.6211H116.274C116.33 54.6211 116.33 54.5832 116.33 54.5461C116.33 54.5082 116.33 54.5082 116.274 54.4712H116.046V54.9959Z" fill="#E9B040"/>
<path id="Vector_4" fill-rule="evenodd" clip-rule="evenodd" d="M75.1617 40.1958C75.0479 39.4091 74.8204 38.6598 74.5928 37.8727H54.4634C54.691 37.086 55.0323 36.3368 55.3729 35.5872H73.6265C73.2302 34.7984 72.7748 34.0231 72.2619 33.2641H56.7951C57.364 32.4705 57.9902 31.6953 58.6716 30.9411H70.3291C69.579 30.1409 68.743 29.3771 67.8275 28.6555H61.1739C62.2031 27.8273 63.3245 27.0508 64.5288 26.3325C58.6723 22.8479 50.9386 20.6748 42.4091 20.6748C24.27 20.6748 9.48584 30.4542 9.48584 42.5184C9.48584 54.5459 24.27 64.3249 42.4091 64.3249C50.9386 64.3249 58.6716 62.1888 64.5288 58.6672C65.7147 57.9614 66.8175 57.1972 67.8275 56.3812H61.1739C60.2637 55.632 59.468 54.8828 58.6716 54.0581H70.3291C71.0621 53.3172 71.7085 52.5407 72.2625 51.7351H56.7951C56.2831 50.9859 55.7718 50.2367 55.3729 49.4491H73.6265C74.024 48.6999 74.3091 47.9136 74.5922 47.1261C74.8197 46.3769 75.0472 45.5906 75.161 44.803C75.2763 44.0434 75.3335 43.2804 75.3323 42.517C75.3323 41.7317 75.2755 40.945 75.1617 40.1958Z" fill="#CC2131"/>
<path id="Vector_5" fill-rule="evenodd" clip-rule="evenodd" d="M115.137 47.577C115.137 47.1651 115.592 46.8657 116.16 46.8657C116.785 46.8657 117.239 47.1656 117.239 47.577C117.239 47.9518 116.784 48.2892 116.16 48.2892C115.592 48.2892 115.137 47.9514 115.137 47.577ZM116.16 48.1013C116.615 48.1013 117.012 47.8764 117.012 47.577C117.012 47.2776 116.614 47.0527 116.16 47.0527C115.761 47.0527 115.364 47.2776 115.364 47.577C115.364 47.8764 115.762 48.1013 116.16 48.1013ZM116.046 47.8764H115.819V47.2771H116.444C116.558 47.3151 116.558 47.39 116.558 47.465C116.558 47.502 116.501 47.577 116.388 47.6149L116.615 47.8769H116.33L116.216 47.652H116.046V47.8764V47.5395H116.16C116.216 47.5395 116.274 47.5395 116.274 47.5016C116.33 47.5016 116.33 47.4646 116.33 47.4266C116.33 47.4266 116.33 47.3896 116.274 47.3896C116.274 47.3517 116.216 47.3896 116.16 47.3896H116.046V47.8764Z" fill="white"/>
<path id="Vector_6" fill-rule="evenodd" clip-rule="evenodd" d="M53.3263 48.8132C52.2461 49.0002 51.4497 49.1131 50.654 49.1131C48.9481 49.1131 47.9242 48.4009 47.9242 47.1269C47.9242 46.865 47.981 46.6026 48.0379 46.3027L48.2655 45.4415L48.4361 44.7294L49.9714 38.5849H53.3831L52.9849 39.9338H55.1459L54.634 42.1819H52.473L51.5635 45.8534C51.5066 46.0412 51.5066 46.1533 51.5066 46.2282C51.5066 46.7155 51.8479 46.9025 52.7005 46.9025C53.0987 46.9025 53.4394 46.8654 53.7807 46.8275L53.3263 48.8132ZM64.358 48.7382C63.1072 48.9631 61.9702 49.0751 60.7187 49.0751C56.8518 49.0751 54.634 47.7262 54.634 45.0667C54.634 41.9565 57.25 39.7084 60.8887 39.7084C63.7885 39.7084 65.665 40.9824 65.665 42.9677C65.665 43.6428 65.5513 44.2796 65.2675 45.1787H58.1595C58.1026 45.3286 58.1026 45.4036 58.1026 45.4786C58.1026 46.5276 59.1828 47.052 61.23 47.052C62.5377 47.052 63.6747 46.865 64.9262 46.4906L64.358 48.7382ZM62.2539 43.3804V42.9306C62.2539 42.1814 61.6282 41.7691 60.548 41.7691C59.4103 41.7691 58.6146 42.3309 58.2733 43.38L62.2539 43.3804ZM26.032 48.9252H22.5064L24.5536 40.4206L19.9479 48.9252H17.5032L17.2188 40.4581L15.0578 48.9252H11.5891L14.3752 37.8727H19.5497L19.6635 44.6923L23.1322 37.8727H28.8187L26.032 48.9252ZM34.619 44.9168C34.2777 44.8788 34.1639 44.8788 33.9364 44.8788C31.8892 44.8788 30.8659 45.4032 30.8659 46.2278C30.8659 46.79 31.3779 47.1648 32.1736 47.1648C33.8795 47.1648 34.5614 46.2278 34.619 44.9168ZM37.4619 48.9252H34.3915L34.4483 47.989C33.6519 48.7003 32.5718 49.0751 30.6952 49.0751C28.9893 49.0751 27.511 48.064 27.511 46.6026C27.511 46.1907 27.6248 45.8164 27.7954 45.4415C28.3636 44.0547 30.4677 43.1934 33.7088 43.1555C34.107 43.1555 34.7321 43.1555 35.3009 43.1934C35.4141 42.8936 35.414 42.7807 35.414 42.5937C35.414 41.994 34.6752 41.8066 33.0262 41.8066C32.0029 41.8066 30.8652 41.919 30.0695 42.1065L29.5575 42.1814L29.33 42.2185L29.842 40.1953C31.491 39.8579 32.6849 39.7084 33.9933 39.7084C37.0637 39.7084 38.7127 40.6451 38.7127 42.3684C38.7127 42.8182 38.7696 43.1555 38.5421 44.1296L37.7464 47.3518L37.6326 47.9141L37.5757 48.3638L37.5188 48.6637L37.4619 48.9252ZM81.5307 40.0083C82.554 40.0083 83.4641 40.1957 84.7149 40.6076L85.34 38.2096C84.9987 38.0971 84.8849 38.0971 84.4305 37.9847L83.0097 37.7223C82.5546 37.6473 81.9865 37.6099 81.36 37.6099C79.5966 37.6099 78.5733 37.6473 77.4938 38.0597C76.925 38.322 76.1855 38.6594 75.3891 39.2587L74.934 39.1837L71.2947 40.8695L71.466 39.9329H67.7122L65.4957 48.9248H69.0788L70.3858 44.0922C70.3858 44.0922 70.8985 43.417 71.1254 43.193C71.808 42.6308 72.3762 42.6308 73.115 42.6308H73.4001C73.2808 43.2018 73.2235 43.7777 73.2288 44.3541C73.2288 47.2764 75.7304 49.1126 79.5973 49.1126C80.5643 49.1126 81.4183 49.0377 82.7253 48.8128L83.3517 46.2653C82.2147 46.6771 81.1907 46.8645 80.3374 46.8645C78.234 46.8645 76.9819 45.8155 76.9819 44.1671C76.9805 41.7316 78.8578 40.0083 81.5307 40.0083ZM111.723 37.8727L110.928 41.0199C110.075 40.1582 109.051 39.7459 107.687 39.7459C105.809 39.7459 104.047 40.4577 102.966 41.8066V41.7696L100.692 40.87L100.92 39.9333H97.1099L94.949 48.9252H98.4745L99.6691 44.0926C99.6691 44.0926 100.579 43.4175 100.806 43.1934C101.375 42.7437 101.943 42.6683 102.398 42.6312C102.001 43.3804 101.773 44.2796 101.773 45.2916C101.773 47.5397 103.535 49.0381 106.151 49.0381C107.459 49.0381 108.482 48.7382 109.449 48.0261L109.279 48.9252H112.634L115.363 37.8727H111.723ZM107.346 46.79C106.151 46.79 105.526 46.1907 105.526 45.0288C105.526 43.2675 106.663 41.994 108.312 41.994C109.562 41.994 110.189 42.6312 110.189 43.7552C110.189 45.5535 109.052 46.79 107.346 46.79ZM90.9134 44.9168C90.5721 44.8788 90.4584 44.8788 90.2308 44.8788C88.1823 44.8788 87.159 45.4032 87.159 46.2278C87.159 46.79 87.6716 47.1648 88.4674 47.1648C90.1733 47.1648 90.8559 46.2278 90.9134 44.9168ZM93.7564 48.9252H90.6283L90.7421 47.989C89.9464 48.7003 88.8649 49.0751 86.9897 49.0751C85.2262 49.0751 83.6917 48.101 83.6917 46.6026C83.6917 44.4674 86.1357 43.156 90.0026 43.156C90.4015 43.156 91.0259 43.156 91.5385 43.1939C91.6523 42.894 91.7098 42.7811 91.7098 42.5942C91.7098 41.9944 90.9703 41.807 89.2644 41.807C88.2974 41.807 87.1035 41.9195 86.3077 42.1069L85.8527 42.1819L85.6251 42.2189L86.1364 40.1957C87.7861 39.8584 88.9807 39.7089 90.2877 39.7089C93.3582 39.7089 94.9503 40.6455 94.9503 42.3688C94.9503 42.8186 95.0641 43.156 94.7803 44.1301L94.0408 47.3523L93.927 47.9145L93.8133 48.3643L93.757 48.6641V48.9252H93.7564ZM44.9106 41.8441C45.5932 41.8441 46.5596 41.8816 47.5835 41.994L48.0955 39.8959C47.0715 39.8209 45.707 39.7084 44.9106 39.7084C40.9306 39.7084 39.6229 41.1323 39.6229 42.7807C39.6229 43.8677 40.3617 44.654 42.2952 45.2532C43.7166 45.703 43.9442 45.7775 43.9442 46.1903C43.9442 46.7517 43.2053 47.0894 41.8401 47.0894C40.7599 47.0894 39.736 46.9765 38.599 46.7146L38.2008 48.7748L38.257 48.8128L38.9396 48.8877C39.1672 48.9248 39.4516 48.9627 39.8498 48.9997C40.7024 49.0377 41.4419 49.0747 41.897 49.0747C45.8776 49.0747 47.5266 48.0635 47.5266 46.0774C47.5266 44.8414 46.6165 44.0922 44.8537 43.5678C43.3184 43.1176 43.1478 43.0435 43.1478 42.6308C43.1478 42.2189 43.8304 41.8441 44.9106 41.8441Z" fill="#1B3771"/>
<path id="Vector_7" fill-rule="evenodd" clip-rule="evenodd" d="M86.3073 37.4978L85.6809 39.8958C84.4301 39.4835 83.5199 39.2966 82.4966 39.2966C79.8237 39.2966 77.9478 41.0199 77.9478 43.4554C77.9478 45.1416 79.1986 46.1528 81.3034 46.1528C82.1553 46.1528 83.1793 45.9658 84.3163 45.5914L83.6912 48.101C82.3829 48.3259 81.5303 48.4388 80.5632 48.4388C76.697 48.4388 74.3085 46.6026 74.3085 43.6432C74.3085 39.7089 77.6065 36.936 82.326 36.936C82.9511 36.936 83.5192 36.9735 83.9743 37.0485L85.3965 37.2734C85.8522 37.3858 85.966 37.4233 86.3073 37.4978ZM74.8205 39.1466H74.4791C73.2859 39.1466 72.6033 39.5215 71.5224 40.6076L71.8638 39.2212H68.622L66.4054 48.2135H69.9886C71.2956 42.7057 71.6369 41.7691 73.3428 41.7691H73.5703C73.9116 40.6825 74.366 39.8954 74.9349 39.1837L74.8205 39.1466ZM54.2367 48.101C53.2703 48.3259 52.4739 48.4009 51.6782 48.4009C49.8585 48.4009 48.8345 47.7266 48.8345 46.4156C48.8345 46.1907 48.8914 45.8913 48.9483 45.6285L49.1759 44.7293L49.3465 44.018L50.8818 37.8727H54.4073L54.0091 39.2216H55.8288L55.3737 41.4322H53.554L52.5876 45.1791C52.5308 45.3291 52.5308 45.4419 52.5308 45.554C52.5308 46.0037 52.8721 46.1912 53.7247 46.1912C54.1229 46.1912 54.4635 46.1912 54.6911 46.1162L54.2367 48.101ZM40.5326 42.0689C40.5326 43.1934 41.3284 43.9797 43.2049 44.5794C44.6833 45.0292 44.9108 45.1787 44.9108 45.5535C44.9108 46.1157 44.2851 46.3777 42.8636 46.3777C41.7834 46.3777 40.8164 46.2657 39.6793 46.0408L39.1674 48.101L39.338 48.1389L39.9638 48.2139C40.1906 48.2509 40.4757 48.2889 40.9302 48.2889C41.7259 48.3638 42.4085 48.3638 42.8636 48.3638C46.616 48.3638 48.3795 47.4268 48.3795 45.3665C48.3795 44.1296 47.6406 43.4174 45.8778 42.8561C44.3426 42.4063 44.172 42.2943 44.172 41.882C44.172 41.3951 44.7977 41.1702 45.9347 41.1702C46.6174 41.1702 47.5837 41.2077 48.4939 41.2827L49.0052 39.222C48.0957 39.1096 46.6742 39.0346 45.8778 39.0346C41.8972 39.0342 40.4757 40.4206 40.5326 42.0689ZM113.545 48.2139H110.189L110.36 47.3518C109.393 48.026 108.369 48.3259 107.061 48.3259C104.446 48.3259 102.74 46.8654 102.74 44.6173C102.74 41.6196 105.413 39.0717 108.539 39.0717C109.962 39.0717 110.985 39.484 111.953 40.3081L112.748 37.1609H116.274L113.545 48.2139ZM108.313 46.1158C109.962 46.1158 111.099 44.8418 111.099 43.0805C111.099 41.919 110.473 41.3193 109.222 41.3193C107.63 41.3193 106.437 42.5558 106.437 44.317C106.437 45.5165 107.062 46.1158 108.313 46.1158ZM65.154 48.026C63.9025 48.2889 62.7654 48.4009 61.4577 48.4009C57.4771 48.4009 55.4299 47.0149 55.4299 44.3545C55.4299 41.2823 58.046 38.9967 61.6284 38.9967C64.5851 38.9967 66.461 40.2707 66.461 42.2564C66.461 42.931 66.3472 43.5683 66.0059 44.5044H58.9561C58.8992 44.6173 58.8992 44.6923 58.8992 44.7673C58.8992 45.8163 59.9801 46.3406 62.0266 46.3406C63.3343 46.3406 64.4713 46.1907 65.7228 45.7784L65.154 48.026ZM63.1636 42.6682V42.2189C63.1636 41.4697 62.5379 41.0574 61.4577 41.0574C60.3207 41.0574 59.5243 41.6196 59.183 42.6682H63.1636ZM26.9424 48.2139H23.4168L25.464 39.7084L20.8583 48.2139H18.4129L18.1285 39.7834L15.9682 48.2139H12.6702L15.4562 37.1609H20.5739L20.7445 44.0176L24.1557 37.1609H29.7284L26.9424 48.2139ZM35.7563 44.2046C35.415 44.2046 35.2443 44.1675 34.9599 44.1675C32.9695 44.1675 31.9463 44.6544 31.9463 45.5535C31.9463 46.1157 32.4014 46.4527 33.1971 46.4527C34.6754 46.4527 35.6994 45.5535 35.7563 44.2046ZM38.3717 48.2139H35.4143L35.4712 47.2768C34.561 48.026 33.3671 48.3638 31.7181 48.3638C29.7846 48.3638 28.4769 47.3897 28.4769 45.9283C28.4769 43.7182 30.751 42.4442 34.7317 42.4442C35.1299 42.4442 35.6418 42.4817 36.21 42.5187C36.3238 42.2193 36.3238 42.1069 36.3238 41.9569C36.3238 41.3577 35.698 41.1328 34.049 41.1328C33.0258 41.1328 31.8881 41.2077 31.0923 41.3577L30.5804 41.4701L30.239 41.5076L30.751 39.4844C32.5138 39.1471 33.7077 39.0346 35.0161 39.0346C38.0866 39.0346 39.7356 39.9338 39.7356 41.6571C39.7356 42.1069 39.6787 42.4442 39.4511 43.4558L38.6547 46.6409L38.541 47.2023L38.4841 47.6521L38.4272 47.9899L38.3717 48.2139ZM92.0507 44.2046C91.6518 44.2046 91.4819 44.1675 91.255 44.1675C89.2078 44.1675 88.1832 44.6544 88.1832 45.5535C88.1832 46.1157 88.6958 46.4527 89.4915 46.4527C90.9137 46.4527 91.9932 45.5535 92.0507 44.2046ZM94.6661 48.2139H91.7094L91.7656 47.2768C90.8561 48.026 89.6622 48.3638 88.0132 48.3638C86.0798 48.3638 84.7714 47.3897 84.7714 45.9283C84.7714 43.7182 87.0455 42.4442 91.0261 42.4442C91.425 42.4442 91.9369 42.4817 92.4482 42.5187C92.562 42.2193 92.6196 42.1069 92.6196 41.9569C92.6196 41.3577 91.9931 41.1328 90.3455 41.1328C89.3209 41.1328 88.1276 41.2077 87.3312 41.3577L86.8762 41.4701L86.5348 41.5076L87.0461 39.4844C88.8096 39.1471 90.0028 39.0346 91.3112 39.0346C94.3817 39.0346 95.9738 39.9338 95.9738 41.6571C95.9738 42.1069 95.9738 42.4442 95.69 43.4558L94.9505 46.6409L94.8367 47.2023L94.723 47.6521L94.6668 47.9899L94.6661 48.2139ZM104.219 39.1466H103.878C102.684 39.1466 102.002 39.5215 100.921 40.6076L101.262 39.2212H98.0203L95.8593 48.2135H99.3849C100.693 42.7057 101.035 41.7691 102.74 41.7691H102.968C103.309 40.6825 103.764 39.8954 104.333 39.1837L104.219 39.1466Z" fill="white"/>
</g>
</g>
<defs>
<clipPath id="clip0_25_3346">
<rect width="129" height="85" fill="white"/>
</clipPath>
</defs>
</svg>
