<svg width="176" height="179" viewBox="0 0 176 179" fill="none" xmlns="http://www.w3.org/2000/svg">
<g id="done/pana">
<g id="background-complete">
<path id="Vector" d="M44.1933 1.03076H10.0508V36.6208H44.1933V1.03076Z" fill="#E0E0E0"/>
<path id="Vector_2" d="M41.8827 1.03076H7.74023V36.6208H41.8827V1.03076Z" fill="#EBEBEB"/>
<path id="Vector_3" d="M37.2926 5.81592H12.3301V31.8359H37.2926V5.81592Z" fill="#FAFAFA"/>
<path id="Vector_4" d="M12.3291 32.0088C12.1455 32.271 11.9367 32.5148 11.7059 32.7366C11.3038 33.1387 10.7408 33.7217 10.0975 34.345C9.45411 34.9683 8.89116 35.5191 8.48906 35.9092C8.27158 36.1348 8.03328 36.3395 7.77734 36.5204C7.95381 36.2573 8.15731 36.0133 8.38452 35.7926C8.78662 35.3905 9.34956 34.8034 9.99292 34.1842C10.6363 33.5649 11.1992 33.01 11.6214 32.616C11.8344 32.3883 12.0717 32.1847 12.3291 32.0088Z" fill="#E0E0E0"/>
<path id="Vector_5" d="M37.293 31.9321C37.5482 32.1168 37.7852 32.3255 38.0007 32.5554C38.4028 32.9575 38.9858 33.5204 39.6091 34.1638C40.2323 34.8072 40.7792 35.3701 41.1732 35.7722C41.4001 35.9886 41.6048 36.227 41.7844 36.4839C41.5272 36.3032 41.29 36.0957 41.0767 35.8647C40.6746 35.4626 40.0916 34.8996 39.4683 34.2563C38.8451 33.6129 38.2982 33.05 37.9042 32.6479C37.6758 32.4315 37.4709 32.1916 37.293 31.9321Z" fill="#E0E0E0"/>
<path id="Vector_6" d="M37.2227 5.88406C37.4058 5.62759 37.6146 5.39046 37.8459 5.17636C38.248 4.77426 38.8069 4.19121 39.4342 3.56795C40.0615 2.94469 40.6405 2.39381 41.0627 2.00377C41.281 1.77735 41.5207 1.57266 41.7785 1.39258C41.5945 1.64717 41.3857 1.88289 41.1552 2.09626C40.7531 2.49836 40.1942 3.08543 39.5468 3.70466C38.8994 4.3239 38.3405 4.8788 37.9143 5.27286C37.705 5.49942 37.4732 5.7042 37.2227 5.88406Z" fill="#E0E0E0"/>
<path id="Vector_7" d="M12.263 5.94828C12.0077 5.76358 11.7707 5.55487 11.5553 5.32502C11.1532 4.92292 10.5661 4.35998 9.94685 3.71661C9.32762 3.07325 8.77272 2.51031 8.37866 2.1082C8.15223 1.89257 7.94876 1.65405 7.77148 1.39648C8.02576 1.57935 8.26145 1.78676 8.47516 2.01572C8.87726 2.41782 9.46433 2.98076 10.0836 3.62413C10.7028 4.26749 11.2577 4.83043 11.6518 5.23254C11.8802 5.44891 12.085 5.68882 12.263 5.94828Z" fill="#E0E0E0"/>
<path id="Vector_8" d="M37.222 31.8358C37.222 31.8358 37.222 31.7915 37.222 31.7111C37.222 31.6307 37.222 31.502 37.222 31.3492C37.222 31.0235 37.222 30.545 37.222 29.9459C37.222 28.7154 37.222 26.9221 37.222 24.6422C37.222 20.0863 37.1979 13.5924 37.1778 5.81574L37.2622 5.89616H12.3681L12.4606 5.80368C12.4606 15.3536 12.4606 24.3004 12.4606 31.8237L12.3802 31.7433L30.4104 31.7835L35.4689 31.8076H36.8079H35.489H30.4426L12.348 31.8478H12.2676V31.7674C12.2676 24.232 12.2676 15.2812 12.2676 5.74738V5.65088H12.3641H37.2582H37.3386V5.73532C37.3386 13.5321 37.3065 20.0461 37.2984 24.6341C37.2984 26.906 37.2984 28.6913 37.2743 29.9177C37.2743 30.5209 37.2743 30.9873 37.2743 31.305C37.2743 31.4578 37.2743 31.5744 37.2743 31.6588C37.2743 31.7433 37.222 31.8358 37.222 31.8358Z" fill="#E0E0E0"/>
<path id="Vector_9" d="M18.9177 16.6846C18.9177 16.6846 18.3829 23.1182 25.3513 23.1182C25.3593 19.6883 22.5245 16.9741 18.9177 16.6846Z" fill="#EBEBEB"/>
<path id="Vector_10" d="M31.6817 16.6887C31.6817 16.6887 25.248 16.1539 25.248 23.1223C28.678 23.1344 31.3922 20.2955 31.6817 16.6887Z" fill="#EBEBEB"/>
<path id="Vector_11" d="M25.0508 13.1621C25.0508 13.1621 19.7873 17.8868 25.3403 23.1262C27.9218 20.3919 27.6886 16.1015 25.0508 13.1621Z" fill="#E0E0E0"/>
<path id="Vector_12" d="M132.098 131.356C129.973 130.028 127.573 129.203 125.081 128.943C123.935 128.827 122.669 128.859 121.76 129.555C121.654 129.617 121.567 129.706 121.507 129.812C121.447 129.919 121.417 130.039 121.418 130.162C121.475 130.33 121.591 130.473 121.744 130.564C124.599 132.739 128.917 133.017 132.098 131.348" fill="#E0E0E0"/>
<path id="Vector_13" d="M131.916 131.155C130.291 129.963 128.775 128.629 127.385 127.17C125.989 125.7 125.008 123.887 124.542 121.914C124.421 121.315 124.385 120.632 124.767 120.157C128.386 122.972 131.201 126.627 131.916 131.155Z" fill="#E0E0E0"/>
<path id="Vector_14" d="M132.061 131.328C131.725 129.355 131.753 127.339 132.141 125.376C132.596 123.434 133.653 121.577 135.314 120.467C135.937 121.926 135.668 123.607 135.229 125.131C134.548 127.494 133.486 129.729 132.085 131.75" fill="#E0E0E0"/>
<path id="Vector_15" d="M135.598 137.685C133.451 137.946 131.577 139.08 129.969 140.532C128.358 142.002 127.235 143.93 126.752 146.057C128.863 145.928 130.652 144.448 131.947 142.776C133.242 141.103 134.147 139.277 135.566 137.717" fill="#E0E0E0"/>
<path id="Vector_16" d="M136.37 138.686C135.524 136.537 135.228 134.212 135.509 131.92C135.79 129.628 136.639 127.442 137.978 125.562C139.205 129.916 138.754 134.838 136.37 138.686Z" fill="#E0E0E0"/>
<path id="Vector_17" d="M141.045 144.259C139.08 144.137 137.123 144.595 135.417 145.578C133.711 146.56 132.332 148.023 131.451 149.784C131.331 150.021 131.226 150.323 131.387 150.536C131.47 150.616 131.571 150.675 131.682 150.707C131.792 150.74 131.909 150.744 132.022 150.721C133.912 150.6 135.589 149.462 136.972 148.168C138.355 146.873 139.562 145.373 141.09 144.255" fill="#E0E0E0"/>
<path id="Vector_18" d="M140.897 143.958C139.89 140.714 139.829 137.251 140.72 133.974C141.07 132.687 141.661 131.336 142.851 130.733C142.898 130.701 142.952 130.679 143.008 130.669C143.064 130.66 143.122 130.662 143.177 130.676C143.272 130.727 143.346 130.811 143.382 130.914C143.78 131.813 143.953 132.795 143.884 133.777C143.813 134.754 143.662 135.723 143.434 136.676C143.06 138.449 142.863 140.355 141.89 141.883C141.659 142.25 141.452 142.631 141.271 143.025C141.086 143.427 141.086 143.552 140.917 143.861" fill="#E0E0E0"/>
<path id="Vector_19" d="M153.285 145.804C152.368 142.309 153.341 138.079 155.541 135.216C155.706 135.007 155.919 134.782 156.184 134.814C156.586 134.85 156.695 135.393 156.675 135.799C156.51 139.389 155.335 142.86 153.285 145.812" fill="#E0E0E0"/>
<path id="Vector_20" d="M154.402 146.563C158.645 147.669 163.51 146.596 167.036 143.994C164.923 142.935 162.507 142.639 160.201 143.158C157.917 143.68 155.83 144.702 154.406 146.563" fill="#E0E0E0"/>
<path id="Vector_21" d="M155.342 144.239C157.718 140.367 162.27 137.842 166.81 137.613C166.287 139.458 164.767 140.89 163.058 141.758C161.349 142.627 159.439 143.001 157.553 143.367C156.822 143.508 155.816 143.664 155.342 144.239Z" fill="#E0E0E0"/>
<path id="Vector_22" d="M153.52 132.964C154.164 130.761 154.811 128.541 154.988 126.249C155.165 123.957 154.835 121.573 153.649 119.606C151.429 123.901 151.208 128.915 153.452 133.193" fill="#E0E0E0"/>
<path id="Vector_23" d="M160.992 129.189C163.586 124.472 168.877 120.709 174.233 120.178C172.167 125.325 166.533 129.297 160.992 129.189Z" fill="#E0E0E0"/>
<path id="Vector_24" d="M159.359 130.113C163.228 130.7 166.525 133.173 170.14 134.669C170.897 135.037 171.737 135.197 172.576 135.136C172.968 135.134 173.349 135.011 173.668 134.785C173.988 134.559 174.23 134.24 174.362 133.871C174.493 133.503 174.508 133.103 174.405 132.725C174.301 132.348 174.084 132.012 173.783 131.762C173.27 131.29 172.669 130.925 172.014 130.688C168.073 129.048 163.851 129.008 159.701 130.001" fill="#E0E0E0"/>
<path id="Vector_25" d="M157.119 132.828C157.996 133.077 158.293 133.531 158.989 134.123C161.354 136.133 164.152 137.569 167.164 138.32C167.477 138.397 167.883 138.429 168.04 138.148C168.197 137.866 168.004 137.601 167.827 137.384C166.514 135.842 164.81 134.684 162.893 134.03C161.003 133.33 159.371 132.482 157.119 132.663" fill="#E0E0E0"/>
<path id="Vector_26" d="M154.59 116.434C156.178 117.895 158.054 119.008 160.097 119.7C162.141 120.393 164.307 120.65 166.456 120.455C166.653 120.459 166.845 120.391 166.995 120.262C167.292 119.937 166.934 119.434 166.593 119.165C163.102 116.446 158.88 115.316 154.594 116.418" fill="#E0E0E0"/>
<path id="Vector_27" d="M157.584 115.34C159.684 113.794 162.12 112.766 164.693 112.342C167.266 111.917 169.904 112.106 172.389 112.895C170.524 114.733 167.938 115.71 165.332 115.992C162.731 116.23 160.109 116.009 157.584 115.34Z" fill="#E0E0E0"/>
<path id="Vector_28" d="M156.395 107.809C156.053 104.327 156.274 101.58 156.033 98.0822C156.033 97.8007 155.957 97.467 155.695 97.3664C155.329 97.2257 155.028 97.672 154.891 98.042C154.384 99.6636 154.254 101.38 154.511 103.059C154.768 104.738 155.406 106.337 156.375 107.733" fill="#E0E0E0"/>
<path id="Vector_29" d="M156.145 108.191C158.505 106.731 160.274 104.829 161.911 102.59C163.049 101.03 164.01 99.1639 163.752 97.2499C162.144 97.2177 160.632 98.0983 159.591 99.3167C158.598 100.578 157.877 102.03 157.471 103.583C157.009 105.115 156.687 106.687 156.145 108.191Z" fill="#E0E0E0"/>
<path id="Vector_30" d="M161.811 106.619C167.001 104.697 171.807 101.863 176.001 98.2511C174.308 97.5675 172.382 97.9777 170.673 98.6532C166.801 100.217 163.636 102.855 161.738 106.571" fill="#E0E0E0"/>
<path id="Vector_31" d="M157.738 110.097C160.36 110.382 163.022 110.571 165.619 110.137C168.217 109.703 170.589 108.697 172.974 107.692C173.187 107.627 173.366 107.483 173.477 107.29C173.514 107.179 173.516 107.06 173.484 106.948C173.451 106.836 173.386 106.737 173.296 106.663C173.113 106.517 172.898 106.416 172.668 106.369C170.075 105.641 167.272 105.967 164.719 106.844C162.286 107.669 159.946 108.747 157.738 110.06" fill="#E0E0E0"/>
<path id="Vector_32" d="M142.78 116.555C140.995 112.936 141.111 108.738 142.651 105.019C143.741 106.675 143.858 108.782 143.673 110.757C143.488 112.731 142.869 114.753 142.836 116.736" fill="#E0E0E0"/>
<path id="Vector_33" d="M135.64 112.952C133.403 112.923 131.184 113.361 129.125 114.238C127.067 115.116 125.214 116.413 123.686 118.047C125.913 118.397 128.205 117.821 130.232 116.84C132.258 115.859 134.06 114.464 135.861 113.085" fill="#E0E0E0"/>
<path id="Vector_34" d="M130.842 111.347C128.659 111.17 126.556 110.901 124.457 111.544C122.358 112.188 120.436 113.647 119.596 115.67C121.655 115.835 123.722 115.445 125.579 114.54C127.425 113.635 129.187 112.566 130.842 111.347Z" fill="#E0E0E0"/>
<path id="Vector_35" d="M137.945 111.42C135.983 110.133 133.965 108.826 131.681 108.291C129.397 107.757 126.743 108.151 125.146 109.876C127 110.961 129.244 111.082 131.391 111.082C133.538 111.082 136.168 111.054 138.191 111.77" fill="#E0E0E0"/>
<path id="Vector_36" d="M137.959 111.525C134.602 108.227 133.331 102.304 134.682 97.8008C137.332 101.857 138.49 106.708 137.959 111.525Z" fill="#E0E0E0"/>
<path id="Vector_37" d="M147.191 102.184C147.827 100.712 148.269 99.1679 148.84 97.6681C149.357 96.1477 150.152 94.7365 151.184 93.5063C152.236 92.2704 153.73 91.4965 155.346 91.3511C154.829 93.622 153.844 95.7602 152.454 97.6294C151.065 99.4986 149.301 101.058 147.276 102.208" fill="#E0E0E0"/>
<path id="Vector_38" d="M145.523 104.13C144.474 102.69 143.263 100.732 141.844 99.6542C140.425 98.5765 138.571 97.9251 136.838 98.3393C137.736 99.9129 138.989 101.255 140.497 102.261C142.004 103.266 143.725 103.906 145.523 104.13Z" fill="#E0E0E0"/>
<path id="Vector_39" d="M145.857 102.3C145.17 100.555 144.478 98.7901 144.201 96.9364C143.923 95.0827 144.092 93.1003 145.041 91.4839C146.883 94.9661 147.478 98.7217 145.95 102.341" fill="#E0E0E0"/>
<path id="Vector_40" d="M147.207 91.4877C148.252 88.0337 151.413 85.4884 154.827 84.3223C155.251 84.1505 155.71 84.0816 156.166 84.1212C156.393 84.1476 156.607 84.2397 156.782 84.3861C156.957 84.5326 157.085 84.727 157.151 84.9455C157.276 85.5326 156.789 86.0594 156.347 86.4494C153.677 88.7277 150.573 90.4416 147.223 91.4877" fill="#E0E0E0"/>
<path id="Vector_41" d="M147.248 88.6608C147.38 86.4372 147.517 84.1774 148.241 82.0663C148.965 79.9553 150.364 77.977 152.395 77.0562C152.74 79.3039 151.747 81.5396 150.549 83.4898C149.351 85.44 147.911 87.2494 147.191 89.4087" fill="#E0E0E0"/>
<path id="Vector_42" d="M147.193 90.1966C146.332 87.6795 146.24 84.4828 144.736 82.2873C143.682 80.7553 141.993 79.7098 141.085 78.0894C140.537 79.6454 140.613 81.3533 141.298 82.8543C141.983 84.3399 142.926 85.692 144.084 86.8471C145.202 88.0534 146.155 88.934 147.193 90.1966Z" fill="#E0E0E0"/>
<path id="Vector_43" d="M147.207 164.316C147.143 164.316 147.082 147.525 147.078 126.82C147.074 106.116 147.123 89.3164 147.191 89.3164C147.259 89.3164 147.316 106.104 147.32 126.82C147.324 147.537 147.275 164.316 147.207 164.316Z" fill="#E0E0E0"/>
<path id="Vector_44" d="M161.88 114.021C161.677 114.12 161.466 114.2 161.248 114.259L159.511 114.846C158.048 115.344 156.033 116.052 153.85 116.961C151.666 117.87 149.648 118.642 148.486 119.647C148.023 120.035 147.655 120.523 147.408 121.074C147.243 121.476 147.215 121.71 147.191 121.706C147.181 121.647 147.181 121.587 147.191 121.529C147.217 121.362 147.259 121.197 147.316 121.038C147.535 120.453 147.895 119.931 148.365 119.518C149.066 118.926 149.851 118.44 150.693 118.075C151.622 117.64 152.655 117.186 153.749 116.736C155.941 115.839 157.971 115.127 159.451 114.681C160.191 114.452 160.794 114.279 161.216 114.166C161.432 114.097 161.654 114.049 161.88 114.021Z" fill="#E0E0E0"/>
<path id="Vector_45" d="M166.688 102.208C166.688 102.208 166.635 102.28 166.511 102.397L165.972 102.903L163.962 104.729L157.267 110.692C154.653 113.016 152.397 115.24 150.833 116.912C150.049 117.749 149.43 118.44 149.007 118.923C148.814 119.148 148.653 119.325 148.521 119.478C148.388 119.631 148.348 119.671 148.34 119.663C148.381 119.587 148.43 119.516 148.485 119.45C148.585 119.313 148.734 119.112 148.935 118.863C149.337 118.36 149.936 117.656 150.704 116.796C152.725 114.588 154.862 112.491 157.106 110.511C159.727 108.187 162.116 106.088 163.849 104.6L165.912 102.831L166.479 102.36C166.542 102.302 166.612 102.25 166.688 102.208Z" fill="#E0E0E0"/>
<path id="Vector_46" d="M154.449 113.056C154.381 113.024 154.924 111.765 155.471 110.169C156.017 108.573 156.275 107.23 156.347 107.242C156.42 107.254 156.255 108.633 155.7 110.249C155.468 110.934 155.199 111.605 154.896 112.26C154.786 112.545 154.635 112.814 154.449 113.056Z" fill="#E0E0E0"/>
<path id="Vector_47" d="M147.223 123.21C147.073 123.069 146.938 122.912 146.821 122.743L145.787 121.42C144.923 120.298 143.725 118.754 142.382 117.061C141.038 115.369 139.804 113.845 138.911 112.755L137.862 111.456C137.724 111.303 137.603 111.136 137.5 110.958C137.659 111.089 137.805 111.235 137.934 111.396C138.204 111.685 138.586 112.116 139.048 112.65C139.977 113.724 141.236 115.224 142.579 116.921C143.922 118.618 145.104 120.178 145.936 121.324C146.338 121.899 146.68 122.365 146.905 122.695C147.026 122.857 147.132 123.029 147.223 123.21Z" fill="#E0E0E0"/>
<path id="Vector_48" d="M144.005 119.088C143.965 119.132 143.109 118.111 142.658 116.567C142.405 115.743 142.301 114.881 142.353 114.021H142.457C142.413 114.214 142.377 114.319 142.357 114.315C142.337 114.311 142.337 114.202 142.357 114.005H142.465C142.516 114.843 142.66 115.673 142.896 116.478C143.326 117.982 144.07 119.048 144.005 119.088Z" fill="#E0E0E0"/>
<path id="Vector_49" d="M139.873 113.865C139.584 113.643 139.268 113.459 138.932 113.318C138.086 113.065 137.195 112.993 136.319 113.109C135.432 113.177 134.552 113.32 133.689 113.535C133.336 113.648 132.974 113.734 132.607 113.792C132.93 113.601 133.28 113.459 133.645 113.37C134.509 113.102 135.4 112.933 136.303 112.867C137.211 112.746 138.135 112.846 138.997 113.157C139.363 113.282 139.674 113.533 139.873 113.865Z" fill="#E0E0E0"/>
<path id="Vector_50" d="M138.866 112.598C138.866 112.634 138.319 112.377 137.426 112.071C135.091 111.271 132.589 111.081 130.16 111.52C129.231 111.685 128.668 111.858 128.656 111.818C128.774 111.744 128.903 111.689 129.038 111.657C129.395 111.532 129.759 111.43 130.128 111.351C132.581 110.813 135.139 111.007 137.482 111.91C137.834 112.045 138.178 112.201 138.512 112.377C138.749 112.506 138.874 112.582 138.866 112.598Z" fill="#E0E0E0"/>
<path id="Vector_51" d="M147.191 107.242C147.127 107.242 146.656 105.634 146.141 103.591C145.627 101.548 145.257 99.8956 145.337 99.8795C145.418 99.8634 145.872 101.488 146.387 103.531C146.901 105.573 147.255 107.226 147.191 107.242Z" fill="#E0E0E0"/>
<path id="Vector_52" d="M147.26 107.242C147.188 107.266 146.882 106.172 146.094 105.054C145.6 104.394 145.023 103.799 144.377 103.285C144.622 103.346 144.849 103.463 145.04 103.627C145.527 103.984 145.95 104.42 146.291 104.918C146.811 105.595 147.145 106.396 147.26 107.242Z" fill="#E0E0E0"/>
<path id="Vector_53" d="M147.206 155.377C147.182 155.377 147.13 154.975 146.941 154.259C146.664 153.256 146.288 152.282 145.819 151.352C144.661 148.984 142.55 145.976 139.868 142.968C138.537 141.449 137.25 140.017 136.157 138.646C135.174 137.438 134.286 136.157 133.499 134.814C132.972 133.907 132.524 132.958 132.16 131.975C132.035 131.621 131.947 131.352 131.894 131.171C131.86 131.067 131.838 130.959 131.83 130.849C131.854 130.849 131.975 131.251 132.252 131.919C132.65 132.882 133.117 133.815 133.652 134.709C134.453 136.031 135.35 137.293 136.334 138.485C137.431 139.84 138.722 141.268 140.053 142.788C142.743 145.807 144.85 148.847 145.98 151.26C146.438 152.205 146.793 153.197 147.038 154.219C147.105 154.496 147.154 154.777 147.186 155.06C147.205 155.164 147.212 155.271 147.206 155.377Z" fill="#E0E0E0"/>
<path id="Vector_54" d="M160.468 140.391C160.245 140.539 160.012 140.673 159.773 140.793C159.144 141.151 158.542 141.554 157.971 142C157.126 142.656 156.335 143.378 155.603 144.159C154.771 145.035 153.914 146.057 153.042 147.146C151.296 149.338 149.664 151.276 148.687 152.824C148.188 153.592 147.826 154.239 147.589 154.694C147.48 154.936 147.352 155.17 147.207 155.394C147.218 155.325 147.24 155.259 147.271 155.196C147.324 155.072 147.396 154.883 147.505 154.654C147.811 153.993 148.156 153.352 148.538 152.732C149.491 151.147 151.111 149.181 152.853 146.994C153.729 145.9 154.594 144.879 155.442 144.002C156.186 143.224 156.993 142.508 157.855 141.863C158.441 141.43 159.064 141.049 159.716 140.725C159.946 140.608 160.119 140.536 160.259 140.484C160.322 140.439 160.393 140.407 160.468 140.391Z" fill="#E0E0E0"/>
<path id="Vector_55" d="M160.726 145.248C160.243 145.357 159.753 145.428 159.259 145.462C158.08 145.584 156.914 145.813 155.776 146.145C154.652 146.512 153.597 147.065 152.656 147.782C151.936 148.341 151.599 148.799 151.566 148.771C151.617 148.646 151.69 148.531 151.784 148.433C152.012 148.141 152.268 147.872 152.548 147.629C153.478 146.855 154.548 146.266 155.7 145.896C156.853 145.554 158.042 145.344 159.243 145.269C159.735 145.216 160.232 145.21 160.726 145.248Z" fill="#E0E0E0"/>
<path id="Vector_56" d="M151.99 148.24C151.914 148.196 152.577 147.183 153.088 145.828C153.599 144.473 153.683 143.254 153.772 143.266C153.81 143.534 153.801 143.806 153.748 144.07C153.674 144.704 153.53 145.327 153.317 145.928C153.095 146.524 152.809 147.094 152.465 147.629C152.341 147.857 152.181 148.064 151.99 148.24Z" fill="#E0E0E0"/>
<path id="Vector_57" d="M164.765 127.347C164.689 127.396 164.61 127.437 164.527 127.472L163.836 127.785C163.534 127.914 163.168 128.079 162.754 128.296C162.34 128.513 161.857 128.73 161.351 129.036L160.547 129.49C160.269 129.651 159.992 129.84 159.702 130.021C159.111 130.383 158.52 130.825 157.889 131.272C155.184 133.291 152.824 135.736 150.9 138.51C150.474 139.157 150.052 139.764 149.714 140.367C149.541 140.665 149.36 140.946 149.211 141.228L148.781 142.032C148.496 142.547 148.295 143.037 148.093 143.459C147.892 143.882 147.736 144.264 147.619 144.561L147.33 145.261C147.3 145.345 147.261 145.426 147.213 145.502C147.225 145.414 147.248 145.327 147.281 145.245C147.35 145.056 147.43 144.818 147.531 144.525C147.658 144.145 147.804 143.772 147.969 143.407C148.158 142.977 148.351 142.478 148.628 141.956L149.03 141.127C149.175 140.842 149.352 140.556 149.525 140.251C149.855 139.639 150.273 139.044 150.699 138.373C152.615 135.564 154.994 133.101 157.736 131.091C158.379 130.64 158.978 130.202 159.578 129.848C159.875 129.667 160.153 129.482 160.434 129.326L161.238 128.879C161.749 128.586 162.243 128.373 162.666 128.171C163.024 127.993 163.392 127.833 163.767 127.693L164.479 127.424C164.57 127.385 164.666 127.359 164.765 127.347Z" fill="#E0E0E0"/>
<path id="Vector_58" d="M154.268 134.376C154.366 134.038 154.567 133.738 154.843 133.519C155.488 132.955 156.313 132.639 157.171 132.627C158.009 132.621 158.841 132.784 159.616 133.105C159.944 133.209 160.255 133.359 160.54 133.551C160.21 133.486 159.887 133.389 159.575 133.262C158.808 132.999 158.002 132.864 157.191 132.86C156.387 132.877 155.609 133.15 154.971 133.64C154.72 133.868 154.485 134.114 154.268 134.376Z" fill="#E0E0E0"/>
<path id="Vector_59" d="M152.699 135.996C152.63 135.96 153.222 135.091 153.358 133.849C153.495 132.606 153.137 131.625 153.21 131.605C153.282 131.585 153.37 131.822 153.483 132.232C153.769 133.313 153.636 134.463 153.109 135.449C152.904 135.819 152.739 136.012 152.699 135.996Z" fill="#E0E0E0"/>
<path id="Vector_60" d="M135.609 157.79C135.971 164.224 137.905 170.734 140.881 177.332H153.813C156.651 170.778 158.449 164.264 158.77 157.79H135.609Z" fill="#E0E0E0"/>
<path id="Vector_61" d="M156.676 168.152C156.676 168.221 152.418 168.277 147.162 168.277C141.907 168.277 137.652 168.221 137.652 168.152C137.652 168.084 141.911 168.032 147.162 168.032C152.414 168.032 156.676 168.088 156.676 168.152Z" fill="#FAFAFA"/>
<path id="Vector_62" d="M156.388 170.477C156.388 170.545 152.395 170.601 147.473 170.601C142.552 170.601 138.555 170.545 138.555 170.477C138.555 170.408 142.548 170.356 147.473 170.356C152.399 170.356 156.388 170.412 156.388 170.477Z" fill="#FAFAFA"/>
<path id="Vector_63" d="M141.08 161.984C141.24 163.967 141.24 165.96 141.08 167.943C141.011 167.943 140.959 166.608 140.959 164.963C140.959 163.319 141.023 161.984 141.08 161.984Z" fill="#FAFAFA"/>
<path id="Vector_64" d="M148.021 161.984C148.089 161.984 148.142 163.363 148.142 165.068C148.142 166.773 148.089 168.152 148.021 168.152C147.953 168.152 147.9 166.773 147.9 165.068C147.9 163.363 147.953 161.984 148.021 161.984Z" fill="#FAFAFA"/>
<path id="Vector_65" d="M154.527 161.932C154.595 161.932 154.648 163.339 154.648 165.077C154.648 166.814 154.595 168.225 154.527 168.225C154.459 168.225 154.406 166.818 154.406 165.077C154.406 163.335 154.459 161.932 154.527 161.932Z" fill="#FAFAFA"/>
<path id="Vector_66" d="M158.371 161.984C158.371 162.052 153.377 162.105 147.217 162.105C141.057 162.105 136.062 162.052 136.062 161.984C136.062 161.916 141.053 161.863 147.217 161.863C153.381 161.863 158.371 161.916 158.371 161.984Z" fill="#FAFAFA"/>
<path id="Vector_67" d="M151.421 97.9697H4.86328V102.485H151.421V97.9697Z" fill="#EBEBEB"/>
<path id="Vector_68" d="M17.54 101.93L6.55859 177.312H8.91491L22.4577 102.485L17.54 101.93Z" fill="#EBEBEB"/>
<path id="Vector_69" d="M141.072 101.452L152.657 177.312H150.304L136.15 102.143L141.072 101.452Z" fill="#EBEBEB"/>
<path id="Vector_70" d="M10.4293 79.7822V89.9474H8.73242V91.0411H10.4293V97.8446H42.1632V91.6523H39.8149V90.3012H42.1632V88.2907H43.2086V87.3739H41.9621V79.7822H10.4293Z" fill="#F5F5F5"/>
<path id="Vector_71" d="M33.7324 79.7987V97.7284H42.1565V91.54H39.8082V90.3056L42.1565 90.3458V88.3232H43.222L43.2019 87.2777L41.9634 87.2496V79.7705L33.7324 79.7987Z" fill="#E0E0E0"/>
<path id="Vector_72" d="M34.3276 90.8924C34.3276 90.9567 28.5896 91.005 21.5086 91.005C14.4276 91.005 8.68555 90.9567 8.68555 90.8924C8.68555 90.828 14.4276 90.7798 21.5086 90.7798C28.5896 90.7798 34.3276 90.8321 34.3276 90.8924Z" fill="#E0E0E0"/>
<path id="Vector_73" d="M34.3276 89.8592C34.3276 89.9235 28.5896 89.9718 21.5086 89.9718C14.4276 89.9718 8.68555 89.9235 8.68555 89.8592C8.68555 89.7948 14.4276 89.7466 21.5086 89.7466C28.5896 89.7466 34.3276 89.7989 34.3276 89.8592Z" fill="#E0E0E0"/>
<path id="Vector_74" d="M35.978 87.0804C35.978 87.1447 30.236 87.1929 23.159 87.1929C16.082 87.1929 10.3359 87.1447 10.3359 87.0804C10.3359 87.016 16.0739 86.9678 23.159 86.9678C30.244 86.9678 35.978 87.02 35.978 87.0804Z" fill="#E0E0E0"/>
<path id="Vector_75" d="M36.1303 94.66C36.1303 94.7243 30.3923 94.7766 23.3113 94.7766C16.2303 94.7766 10.4883 94.7243 10.4883 94.66C10.4883 94.5956 16.2263 94.5474 23.3113 94.5474C30.3963 94.5474 36.1303 94.5916 36.1303 94.66Z" fill="#E0E0E0"/>
<path id="Vector_76" d="M44.5056 72.9629H38.9727V79.5413H44.5056V72.9629Z" fill="#F5F5F5"/>
<path id="Vector_77" d="M39.1648 72.5322H14.1621V79.951H39.1648V72.5322Z" fill="#E0E0E0"/>
<path id="Vector_78" d="M44.6725 73.1596H38.4922V72.5444H44.6725C44.7557 72.5444 44.8355 72.5775 44.8943 72.6363C44.9531 72.6951 44.9861 72.7749 44.9861 72.8581C44.983 72.9391 44.9486 73.0159 44.8901 73.0721C44.8316 73.1283 44.7536 73.1597 44.6725 73.1596Z" fill="#E0E0E0"/>
<path id="Vector_79" d="M44.6725 79.9554H38.4922V79.3281H44.6725C44.7557 79.3281 44.8355 79.3612 44.8943 79.42C44.9531 79.4788 44.9861 79.5586 44.9861 79.6418C44.9861 79.7249 44.9531 79.8047 44.8943 79.8635C44.8355 79.9224 44.7557 79.9554 44.6725 79.9554Z" fill="#E0E0E0"/>
<path id="Vector_80" d="M37.1996 72.5322H34.2441V79.951H37.1996V72.5322Z" fill="#EBEBEB"/>
<path id="Vector_81" d="M19.4965 72.6172H16.541V80.036H19.4965V72.6172Z" fill="#EBEBEB"/>
<path id="Vector_82" d="M44.5063 74.0523C44.5063 74.0523 43.3 74.0845 41.8323 74.0845C40.3646 74.0845 39.1543 74.0845 39.1543 74.0523C39.1543 74.0201 40.3606 74.0161 41.8323 74.0161C43.304 74.0161 44.5063 74.0322 44.5063 74.0523Z" fill="#E0E0E0"/>
<path id="Vector_83" d="M44.5063 75.0375C44.5063 75.0375 43.3 75.0697 41.8323 75.0697C40.3646 75.0697 39.1543 75.0697 39.1543 75.0375C39.1543 75.0054 40.3606 75.0054 41.8323 75.0054C43.304 75.0054 44.5063 75.0174 44.5063 75.0375Z" fill="#E0E0E0"/>
<path id="Vector_84" d="M44.5063 76.2519C44.5063 76.2519 43.3 76.2841 41.8323 76.2841C40.3646 76.2841 39.1543 76.2841 39.1543 76.2519C39.1543 76.2197 40.3606 76.2197 41.8323 76.2197C43.304 76.2197 44.5063 76.2318 44.5063 76.2519Z" fill="#E0E0E0"/>
<path id="Vector_85" d="M44.5063 77.4663C44.5063 77.4663 43.3 77.4984 41.8323 77.4984C40.3646 77.4984 39.1543 77.4984 39.1543 77.4663C39.1543 77.4341 40.3606 77.4341 41.8323 77.4341C43.304 77.4341 44.5063 77.4461 44.5063 77.4663Z" fill="#E0E0E0"/>
<path id="Vector_86" d="M44.5063 78.6806C44.5063 78.6806 43.3 78.7128 41.8323 78.7128C40.3646 78.7128 39.1543 78.7128 39.1543 78.6806C39.1543 78.6484 40.3606 78.6484 41.8323 78.6484C43.304 78.6484 44.5063 78.6605 44.5063 78.6806Z" fill="#E0E0E0"/>
<path id="Vector_87" d="M32.655 75.5845H21.4082V76.9195H32.655V75.5845Z" fill="#EBEBEB"/>
<path id="Vector_88" d="M33.9121 65.3306L37.0244 72.6408H35.0219L33.6387 68.7364L33.9121 65.3306Z" fill="#E0E0E0"/>
<path id="Vector_89" d="M24.3585 58.7202L23.1562 72.641H33.3254L34.4432 58.7202H24.3585Z" fill="#EBEBEB"/>
<path id="Vector_90" d="M25.3504 59.8223L24.2969 71.4832L31.9328 71.5837L32.9622 59.7539L25.3504 59.8223Z" fill="#FAFAFA"/>
<path id="Vector_91" d="M26.9722 61.4385L26.373 69.4604H30.4463L31.1621 61.4385H26.9722Z" fill="#E0E0E0"/>
<path id="Vector_92" d="M143.83 6.97624L140.07 6.99658L140.172 25.7061L143.931 25.6858L143.83 6.97624Z" fill="#E0E0E0"/>
<path id="Vector_93" d="M117.233 7.02348L107.494 7.07617L107.55 17.406L117.289 17.3533L117.233 7.02348Z" fill="#EBEBEB"/>
<path id="Vector_94" d="M126.92 6.97514L117.182 7.02783L117.238 17.3577L126.976 17.305L126.92 6.97514Z" fill="#F5F5F5"/>
<path id="Vector_95" d="M107.506 9.93724C113.976 9.99354 120.466 9.93724 126.936 9.84878C126.96 9.84406 126.981 9.83126 126.996 9.81257C127.012 9.79387 127.02 9.77043 127.02 9.74625C127.02 9.72206 127.012 9.69862 126.996 9.67992C126.981 9.66123 126.96 9.64843 126.936 9.64371C120.467 9.60618 113.992 9.64505 107.51 9.76032C107.487 9.76032 107.464 9.76964 107.448 9.78623C107.431 9.80282 107.422 9.82532 107.422 9.84878C107.422 9.87224 107.431 9.89474 107.448 9.91133C107.464 9.92792 107.487 9.93724 107.51 9.93724H107.506Z" fill="#E0E0E0"/>
<path id="Vector_96" d="M119.118 17.1865L101.426 17.2822L101.471 25.6981L119.164 25.6024L119.118 17.1865Z" fill="#EBEBEB"/>
<path id="Vector_97" d="M136.723 17.0874L119.031 17.1831L119.077 25.599L136.769 25.5032L136.723 17.0874Z" fill="#F5F5F5"/>
<path id="Vector_98" d="M101.432 19.6282C113.186 19.7609 124.979 19.6282 136.733 19.4553C136.76 19.4553 136.787 19.4442 136.807 19.4246C136.826 19.405 136.837 19.3784 136.837 19.3507C136.837 19.323 136.826 19.2964 136.807 19.2768C136.787 19.2572 136.76 19.2462 136.733 19.2462C124.979 19.1859 113.182 19.1899 101.432 19.4512C101.409 19.4512 101.386 19.4606 101.37 19.4772C101.353 19.4937 101.344 19.5162 101.344 19.5397C101.344 19.5632 101.353 19.5857 101.37 19.6023C101.386 19.6188 101.409 19.6282 101.432 19.6282Z" fill="#E0E0E0"/>
<path id="Vector_99" d="M163.359 25.7036H94.8164V28.7194H163.359V25.7036Z" fill="#E0E0E0"/>
<path id="Vector_100" d="M108.824 27.1553H106.041V37.4451H108.824V27.1553Z" fill="#E0E0E0"/>
<path id="Vector_101" d="M150.361 27.1553H147.578V37.4451H150.361V27.1553Z" fill="#E0E0E0"/>
<path id="Vector_102" d="M147.496 0.000166219L143.736 0.0205078L143.876 25.7547L147.635 25.7343L147.496 0.000166219Z" fill="#EBEBEB"/>
<path id="Vector_103" d="M153.374 4.79358L147.531 4.8252L147.644 25.6779L153.487 25.6463L153.374 4.79358Z" fill="#F5F5F5"/>
<path id="Vector_104" d="M153.337 8.81536C152.366 8.91608 151.389 8.94966 150.413 8.91589C149.439 8.94975 148.464 8.91616 147.494 8.81536C149.439 8.68134 151.391 8.68134 153.337 8.81536Z" fill="#E0E0E0"/>
<path id="Vector_105" d="M153.337 7.9389C152.366 8.03961 151.389 8.0732 150.413 8.03943C149.439 8.07328 148.464 8.03969 147.494 7.9389C149.439 7.80487 151.391 7.80487 153.337 7.9389Z" fill="#E0E0E0"/>
<path id="Vector_106" d="M153.337 22.5151C151.391 22.6491 149.439 22.6491 147.494 22.5151C149.439 22.381 151.391 22.381 153.337 22.5151Z" fill="#E0E0E0"/>
<path id="Vector_107" d="M153.337 21.6386C151.391 21.7726 149.439 21.7726 147.494 21.6386C149.439 21.5046 151.391 21.5046 153.337 21.6386Z" fill="#E0E0E0"/>
<path id="Vector_108" d="M150.509 19.7287C150.453 19.7287 150.404 17.6257 150.404 15.0281C150.404 12.4305 150.453 10.3315 150.509 10.3315C150.565 10.3315 150.609 12.4345 150.609 15.0281C150.609 17.6217 150.561 19.7287 150.509 19.7287Z" fill="#E0E0E0"/>
<path id="Vector_109" d="M159.758 9.92139H153.396V25.6637H159.758V9.92139Z" fill="#EBEBEB"/>
<path id="Vector_110" d="M146.644 4.40039C146.645 4.61449 146.582 4.82401 146.463 5.00241C146.345 5.18082 146.176 5.32008 145.979 5.40257C145.781 5.48505 145.564 5.50705 145.354 5.46577C145.143 5.42449 144.95 5.32179 144.799 5.17068C144.647 5.01957 144.544 4.82684 144.502 4.61691C144.459 4.40698 144.481 4.18929 144.562 3.99141C144.644 3.79353 144.783 3.62436 144.961 3.50533C145.139 3.3863 145.348 3.32276 145.562 3.32275C145.848 3.32275 146.123 3.43616 146.326 3.63814C146.528 3.84012 146.643 4.11421 146.644 4.40039Z" fill="#E0E0E0"/>
<path id="Vector_111" d="M145.896 7.37598H145.229V22.684H145.896V7.37598Z" fill="#E0E0E0"/>
</g>
<g id="Floor">
<path id="Vector_112" d="M168.762 177.312C168.762 177.368 130.965 177.417 84.3851 177.417C37.8056 177.417 0 177.368 0 177.312C0 177.256 37.7734 177.208 84.3851 177.208C130.997 177.208 168.762 177.252 168.762 177.312Z" fill="#263238"/>
</g>
<g id="Chair">
<path id="Vector_113" d="M83.6947 126.374L100.273 177.312H97.2536L77.832 126.374H83.6947Z" fill="#E0E0E0"/>
<path id="Vector_114" d="M83.6917 126.374H83.2896H82.1637L77.813 126.398L77.8532 126.338C81.1826 135.011 88.3601 153.769 96.6756 175.483C96.9007 176.078 97.1259 176.689 97.3511 177.256L97.2546 177.192H100.27L100.17 177.328C95.5416 163.05 91.412 150.323 88.4405 141.163C86.9608 136.575 85.7706 132.884 84.9503 130.331C84.5482 129.056 84.2265 128.067 84.0093 127.391L83.7681 126.623C83.7158 126.451 83.6917 126.358 83.6917 126.358C83.6917 126.358 83.7239 126.438 83.7801 126.607L84.0335 127.359C84.2546 128.031 84.5803 129.008 84.9985 130.271C85.8349 132.816 87.0412 136.495 88.5451 141.063C91.5407 150.235 95.7025 162.973 100.367 177.252L100.411 177.389H97.1943L97.1661 177.32C96.945 176.733 96.7158 176.142 96.4906 175.547C88.2274 153.802 81.0901 135.023 77.7969 126.362V126.302H77.8612L82.2361 126.326H83.3499C83.5751 126.366 83.6917 126.374 83.6917 126.374Z" fill="#263238"/>
<path id="Vector_115" d="M51.0669 126.374L34.4883 177.312H37.504L56.9296 126.374H51.0669Z" fill="#E0E0E0"/>
<path id="Vector_116" d="M51.0667 126.374C51.0667 126.374 51.1914 126.374 51.4407 126.374H52.5545L56.9294 126.35H56.9937L56.9696 126.41C53.6804 135.071 46.5431 153.849 38.2799 175.595L37.6003 177.368L37.5762 177.437H34.3594L34.4036 177.3L46.2294 141.111L49.776 130.318C50.1781 129.056 50.5198 128.079 50.741 127.407L50.9943 126.655C51.0506 126.486 51.0828 126.406 51.0828 126.406C51.0828 126.406 51.0587 126.498 51.0064 126.671L50.7651 127.439C50.548 128.115 50.2303 129.104 49.8242 130.379C48.9999 132.932 47.8137 136.623 46.334 141.211C43.3584 150.371 39.2329 163.098 34.6047 177.376L34.5041 177.24H37.5199L37.4234 177.304L38.0989 175.531C46.4144 153.817 53.5919 135.043 56.9012 126.39L56.9454 126.45L52.5907 126.426H51.4688L51.0667 126.374Z" fill="#263238"/>
<path id="Vector_117" d="M78.2562 127.492C78.1654 127.569 78.0686 127.639 77.9667 127.701L77.1143 128.264L73.9739 130.323C71.324 132.068 67.6689 134.489 63.6519 137.183L53.3661 144.119L50.2458 146.214L49.3974 146.753C49.3016 146.824 49.1993 146.886 49.0918 146.938C49.1803 146.859 49.2744 146.786 49.3733 146.721L50.2016 146.13L53.2857 143.982C55.8954 142.181 59.5183 139.708 63.5393 137.014C67.5603 134.32 71.2235 131.915 73.8975 130.202C75.2324 129.35 76.3101 128.662 77.0741 128.192L77.9466 127.661C78.0454 127.597 78.1489 127.541 78.2562 127.492Z" fill="#263238"/>
<path id="Vector_118" d="M46.4488 72.0702C46.4488 72.0702 41.2537 72.605 40.4977 75.7333C39.7418 78.8617 37.2809 117.552 40.4977 123.033C43.7145 128.513 85.131 127.749 88.0061 126.997C90.8811 126.245 92.2362 124.38 91.9426 122.1C91.6491 119.82 63.4457 116.993 63.4457 116.993L65.1667 76.6139C65.1667 76.6139 55.0257 71.5073 46.4488 72.0702Z" fill="#263238"/>
<path id="Vector_119" d="M91.9696 123.077H91.8449H91.475L90.0556 123.113C88.8211 123.145 87.0358 123.161 84.8283 123.157C80.4051 123.157 74.3133 123.004 67.5942 122.522C64.2366 122.277 61.0399 121.967 58.1408 121.637C55.2416 121.307 52.636 120.946 50.4566 120.604C49.3629 120.443 48.3817 120.27 47.5172 120.125C46.6527 119.981 45.9088 119.848 45.3016 119.723L43.9063 119.454L43.5445 119.381L43.4238 119.349C43.4652 119.344 43.5071 119.344 43.5485 119.349L43.9144 119.402L45.3177 119.631C45.9249 119.735 46.6688 119.86 47.5373 119.989C48.4059 120.117 49.387 120.286 50.4767 120.435C52.6601 120.761 55.2657 121.094 58.1609 121.424C61.056 121.754 64.2527 122.047 67.6103 122.293C74.3254 122.775 80.4172 122.94 84.8283 122.988C87.0318 123.012 88.8171 123.016 90.0556 123.012H91.849L91.9696 123.077Z" fill="#455A64"/>
<path id="Vector_120" d="M85.8879 147.508C85.8557 147.557 79.2934 142.945 71.2353 137.215C63.1772 131.485 56.6672 126.792 56.6993 126.76C56.7315 126.728 63.2938 131.324 71.356 137.058C79.4181 142.792 85.9201 147.46 85.8879 147.508Z" fill="#263238"/>
</g>
<g id="Character">
<path id="Vector_121" d="M112.678 106.321C112.678 106.321 121.983 106.321 122.365 114.99C122.747 123.659 95.2792 169.394 95.2792 169.394L86.5817 165.265L105.231 120.885L64.7637 116.904L65.9097 106.723L112.678 106.321Z" fill="#455A64"/>
<path id="Vector_122" d="M97.1169 166.757L96.8475 167.372C96.8475 167.372 105.372 176.138 104.608 178.156L84.0566 168.908L87.4142 162.193C89.8308 164.987 92.9592 166.588 97.1169 166.757Z" fill="#FF725E"/>
<g id="Group" opacity="0.6">
<path id="Vector_123" d="M88.5116 165.322C88.2868 165.293 88.0595 165.348 87.8727 165.477C87.6859 165.605 87.5527 165.797 87.4983 166.017C87.4611 166.241 87.5113 166.47 87.6385 166.658C87.7657 166.846 87.9603 166.978 88.1819 167.026C88.42 167.056 88.6604 166.996 88.857 166.858C89.0537 166.721 89.1927 166.516 89.2475 166.283C89.2632 166.046 89.1859 165.812 89.032 165.631C88.878 165.45 88.6596 165.336 88.4231 165.313" fill="white"/>
</g>
<g id="Group_2" opacity="0.6">
<path id="Vector_124" d="M84.0566 168.912L84.8608 167.304L104.262 176.757C104.262 176.757 104.998 177.561 104.604 178.164L84.0566 168.912Z" fill="white"/>
</g>
<path id="Vector_125" d="M96.8932 167.461C96.845 167.557 96.3222 167.38 95.6869 167.481C95.0516 167.581 94.5932 167.883 94.5168 167.802C94.4404 167.722 94.8546 167.207 95.6306 167.099C96.4067 166.99 96.9575 167.376 96.8932 167.461Z" fill="#263238"/>
<path id="Vector_126" d="M98.6489 169.322C98.6288 169.427 98.1141 169.402 97.5833 169.676C97.0525 169.949 96.751 170.351 96.6545 170.303C96.558 170.255 96.747 169.656 97.4144 169.33C98.0819 169.004 98.6891 169.226 98.6489 169.322Z" fill="#263238"/>
<path id="Vector_127" d="M98.7129 172.45C98.6124 172.45 98.7129 171.867 99.1995 171.433C99.686 170.999 100.273 170.995 100.277 171.095C100.281 171.196 99.875 171.361 99.4729 171.722C99.0708 172.084 98.8175 172.486 98.7129 172.45Z" fill="#263238"/>
<path id="Vector_128" d="M95.072 73.6338L96.7247 78.6882L87.7136 79.3919L86.6641 76.6857L95.072 73.6338Z" fill="#FFBE9D"/>
<path id="Vector_129" d="M120.661 80.2646C120.834 80.6105 121.284 80.6667 121.63 80.8477C121.952 81.0321 122.216 81.3033 122.391 81.6303C122.567 81.9573 122.647 82.327 122.623 82.6974C122.565 83.4381 122.32 84.1519 121.911 84.7722C121.786 85.0243 121.602 85.2433 121.377 85.4116C121.262 85.4911 121.126 85.5338 120.987 85.5338C120.847 85.5338 120.711 85.4911 120.597 85.4116C120.331 85.1904 120.363 84.7803 120.42 84.4385C120.633 83.1558 120.355 81.5353 120.657 80.2687" fill="#FFBE9D"/>
<path id="Vector_130" d="M60.7315 16.8893C60.6552 16.3254 60.7928 15.7534 61.1173 15.286C61.4419 14.8186 61.9297 14.4897 62.4847 14.3641L72.4327 8.03504C76.2245 7.18258 81.0015 13.5157 81.681 17.3357C82.3677 21.5342 82.6371 25.7904 82.4852 30.0421C82.2118 36.5802 77.9254 37.2799 77.9254 37.2799L81.1422 59.0216L65.6412 49.4636L60.7315 16.8893Z" fill="#FFBE9D"/>
<path id="Vector_131" d="M79.6115 22.7598C79.6381 22.9736 79.5803 23.1894 79.4504 23.3613C79.3206 23.5332 79.1288 23.6478 78.9159 23.6806C78.7063 23.7194 78.49 23.6734 78.3143 23.5528C78.1387 23.4322 78.018 23.2468 77.979 23.0373C77.9524 22.8235 78.0102 22.6077 78.1401 22.4358C78.2699 22.2639 78.4617 22.1493 78.6746 22.1165C78.8842 22.0777 79.1005 22.1237 79.2762 22.2443C79.4518 22.3649 79.5725 22.5503 79.6115 22.7598Z" fill="#263238"/>
<path id="Vector_132" d="M80.8912 20.4117C80.8108 20.5002 80.1513 20.4881 79.319 20.8138C78.4866 21.1395 77.9358 21.5738 77.8312 21.5497C77.7267 21.5255 77.8312 21.4089 78.0845 21.2079C78.4338 20.9225 78.8297 20.6995 79.2547 20.5484C79.6601 20.3924 80.0908 20.312 80.5253 20.3112C80.8148 20.3032 80.9314 20.3715 80.8912 20.4117Z" fill="#263238"/>
<path id="Vector_133" d="M71.3796 23.1583C71.405 23.3725 71.3463 23.5882 71.2158 23.76C71.0852 23.9318 70.8931 24.0462 70.6799 24.0791C70.471 24.1167 70.2556 24.0701 70.0809 23.9496C69.9061 23.8291 69.7861 23.6444 69.747 23.4357C69.7194 23.2217 69.7768 23.0054 69.9068 22.8333C70.0369 22.6611 70.2293 22.5468 70.4427 22.5149C70.6522 22.4761 70.8686 22.5221 71.0442 22.6427C71.2199 22.7634 71.3405 22.9488 71.3796 23.1583Z" fill="#263238"/>
<path id="Vector_134" d="M72.2431 22.0963C72.1225 22.1446 71.5032 21.7746 70.5422 21.6339C69.5812 21.4932 68.8293 21.6339 68.7368 21.5696C68.6443 21.5052 68.8293 21.4369 69.1389 21.3605C69.6213 21.2647 70.1168 21.2551 70.6025 21.3323C71.0732 21.3968 71.5275 21.5496 71.9415 21.7827C72.227 21.9475 72.3195 22.0762 72.2431 22.0963Z" fill="#263238"/>
<path id="Vector_135" d="M76.1661 27.5652C76.6149 27.3621 77.0879 27.2175 77.5735 27.135C77.7947 27.0867 78.0038 27.0184 78.0239 26.8575C78.0168 26.6219 77.9367 26.3943 77.7947 26.2061C77.5266 25.67 77.2371 25.1218 76.9261 24.5615C75.7198 22.2173 74.803 20.2791 74.9156 20.2309C75.0282 20.1826 76.0737 22.0444 77.288 24.3886L78.1284 26.0453C78.3031 26.3023 78.3814 26.6127 78.3496 26.9219C78.3258 27.0054 78.2834 27.0824 78.2256 27.1471C78.1678 27.2119 78.0961 27.2627 78.0158 27.2958C77.8943 27.3434 77.7673 27.3759 77.6378 27.3923C77.1564 27.5111 76.662 27.5692 76.1661 27.5652Z" fill="#263238"/>
<path id="Vector_136" d="M77.9205 37.2961C74.917 37.7402 71.8491 37.3219 69.0742 36.0898C69.0742 36.0898 71.716 40.6095 78.0692 39.2584L77.9205 37.2961Z" fill="#EB996E"/>
<path id="Vector_137" d="M76.2686 29.7326C76.0524 29.4509 75.7758 29.2212 75.4592 29.0605C75.1426 28.8998 74.794 28.812 74.439 28.8037C74.2338 28.808 74.0347 28.8745 73.8681 28.9944C73.7016 29.1143 73.5753 29.282 73.5061 29.4752C73.4367 29.7248 73.4286 29.9876 73.4825 30.241C73.5364 30.4944 73.6507 30.7311 73.8157 30.9308C73.9778 31.1422 74.1982 31.3016 74.4496 31.3895C74.7011 31.4773 74.9727 31.4898 75.2311 31.4254C75.6506 31.2524 76.008 30.9566 76.2565 30.577C76.3466 30.4803 76.4115 30.3629 76.4455 30.2352C76.4602 30.1546 76.457 30.0718 76.4362 29.9926C76.4153 29.9134 76.3773 29.8397 76.3249 29.7768" fill="#EB996E"/>
<path id="Vector_138" d="M73.628 28.482C73.7727 28.4539 73.8853 29.4149 74.786 30.002C75.6867 30.5891 76.7 30.3639 76.7241 30.4966C76.7241 30.5569 76.5191 30.7097 76.0848 30.774C75.5233 30.8472 74.9539 30.7205 74.4764 30.4162C74.0179 30.1215 73.692 29.6601 73.5676 29.1294C73.4832 28.7153 73.5636 28.482 73.628 28.482Z" fill="#263238"/>
<path id="Vector_139" d="M72.5248 18.1439C72.4404 18.3852 71.5477 18.2847 70.5143 18.4294C69.4809 18.5742 68.6285 18.8677 68.4837 18.6546C68.4194 18.5501 68.5641 18.3209 68.8858 18.0796C69.3356 17.7827 69.847 17.5921 70.3814 17.5224C70.9158 17.4528 71.4591 17.5058 71.9699 17.6775C72.364 17.8585 72.561 18.0273 72.5248 18.1439Z" fill="#263238"/>
<path id="Vector_140" d="M80.9394 18.4295C80.7665 18.6507 79.9864 18.5301 79.0737 18.6226C78.1609 18.715 77.4049 18.9483 77.2039 18.7552C77.1114 18.6628 77.2039 18.4456 77.5296 18.2205C77.9723 17.9367 78.4771 17.7644 79.0008 17.7182C79.5246 17.672 80.0518 17.7532 80.5373 17.9551C80.8831 18.128 81.0118 18.321 80.9394 18.4295Z" fill="#263238"/>
<path id="Vector_141" d="M56.3673 33.6009C56.5281 30.6857 56.9946 21.3529 58.8764 16.2623C60.7582 11.1717 63.4081 8.89176 66.1343 7.81815C67.164 7.37821 68.2898 7.21145 69.4028 7.33402C70.5158 7.45659 71.5783 7.86434 72.4876 8.51781C73.8869 9.50698 74.6991 12.764 74.6991 12.764C74.6991 12.764 68.0845 15.0479 66.255 19.1976C64.1359 23.9424 63.7579 26.2505 63.7579 26.2505L63.1869 28.7797C63.1869 28.7797 64.4294 39.7732 64.9884 42.0491L56.0215 50.7184C56.315 47.8554 56.2065 36.5121 56.3673 33.6009Z" fill="#263238"/>
<path id="Vector_142" d="M74.8952 12.7801C74.8952 12.7801 78.7272 11.9156 80.6613 16.1336C81.5379 18.0436 82.4065 23.8258 82.4065 23.8258C82.4065 23.8258 82.7322 19.1011 82.2255 16.5317C81.7189 13.9622 80.0502 10.8259 77.8547 9.23755C75.6592 7.64925 73.9945 7.05012 70.5605 7.65327C71.5946 7.91182 72.5334 8.46003 73.2667 9.23353C73.7854 9.84071 74.0427 10.3795 74.8952 12.7801Z" fill="#263238"/>
<path id="Vector_143" d="M63.8312 26.5638C63.598 25.1484 61.9413 24.3763 60.7913 25.2328C60.16 25.6993 59.7338 26.5437 59.967 28.0475C60.5943 32.0685 64.4826 30.5969 64.4705 30.4843C64.4585 30.3717 64.1046 28.2164 63.8312 26.5638Z" fill="#FFBE9D"/>
<path id="Vector_144" d="M63.0103 29.1536C63.0103 29.1536 62.95 29.2139 62.8414 29.2863C62.6849 29.3814 62.4983 29.4144 62.3187 29.3787C61.8723 29.2903 61.4139 28.671 61.2812 27.9553C61.2169 27.6135 61.2307 27.2616 61.3214 26.9259C61.3379 26.7946 61.3865 26.6694 61.463 26.5614C61.5394 26.4534 61.6414 26.3659 61.7597 26.3067C61.837 26.2742 61.9232 26.2693 62.0037 26.2927C62.0842 26.3161 62.1542 26.3665 62.202 26.4354C62.2744 26.5399 62.2583 26.6203 62.2825 26.6243C62.3066 26.6284 62.3589 26.5439 62.2825 26.3831C62.2449 26.2874 62.1753 26.2078 62.0854 26.1579C61.9618 26.0924 61.8175 26.078 61.6833 26.1177C61.5237 26.1763 61.3815 26.2746 61.2704 26.4033C61.1592 26.5321 61.0827 26.687 61.048 26.8535C60.9326 27.2258 60.9105 27.6207 60.9837 28.0036C61.1325 28.8078 61.6632 29.4994 62.2704 29.5758C62.3824 29.59 62.4961 29.579 62.6033 29.5435C62.7104 29.508 62.8083 29.4489 62.8896 29.3707C63.0183 29.2501 63.0264 29.1576 63.0103 29.1536Z" fill="#EB996E"/>
<path id="Vector_145" d="M67.7168 7.37566C67.7168 7.40782 68.2717 7.3274 69.1563 7.34349C69.6739 7.35365 70.1867 7.44455 70.6763 7.6129C71.2708 7.83276 71.8171 8.16597 72.2847 8.59402C73.1501 9.36744 73.8245 10.3309 74.255 11.4087C74.5847 12.2129 74.6571 12.7839 74.7053 12.7759C74.6995 12.647 74.6807 12.519 74.649 12.3939C74.3285 10.8874 73.5337 9.52327 72.3812 8.50154C71.8989 8.05477 71.3313 7.7101 70.7125 7.48824C70.2097 7.32005 69.6824 7.23714 69.1523 7.24296C68.7973 7.24281 68.4428 7.26565 68.0907 7.31132C67.9645 7.32237 67.8395 7.34389 67.7168 7.37566Z" fill="#455A64"/>
<path id="Vector_146" d="M60.4407 29.8973C60.4422 29.8746 60.4422 29.8517 60.4407 29.829L60.3844 29.648C60.3563 29.5636 60.3281 29.4631 60.2919 29.3505L60.1834 28.9484C59.9642 28.0693 59.8721 27.1635 59.9099 26.2583C59.9611 24.9156 60.2911 23.5983 60.879 22.3901C61.6305 20.9273 62.7026 19.6531 64.0154 18.6626C64.6891 18.1426 65.3941 17.6646 66.1264 17.2311C66.8341 16.8049 67.5458 16.451 68.2053 16.057C69.3585 15.3534 70.4555 14.5616 71.4864 13.6886C72.367 12.9447 73.0466 12.3054 73.497 11.855C73.7261 11.6298 73.8991 11.4529 74.0157 11.3283L74.1484 11.1875C74.1765 11.1554 74.1926 11.1393 74.1886 11.1353L74.1403 11.1755L73.9956 11.3082L73.4648 11.8269C72.9943 12.2652 72.3067 12.8924 71.4181 13.6202C70.3835 14.4788 69.2867 15.2597 68.1369 15.9565C67.4855 16.3586 66.7658 16.6923 66.054 17.1226C65.3146 17.5558 64.6041 18.0367 63.9269 18.5621C62.592 19.5621 61.5029 20.8534 60.7423 22.3378C60.1524 23.5629 59.829 24.8991 59.7933 26.2583C59.7657 27.1711 59.8727 28.0829 60.111 28.9645L60.2316 29.3666C60.2758 29.4791 60.312 29.5756 60.3402 29.6601L60.4126 29.841C60.4286 29.8772 60.4367 29.8973 60.4407 29.8973Z" fill="#455A64"/>
<path id="Vector_147" d="M59.3359 28.4818C59.3359 28.4818 59.3359 28.4577 59.3359 28.4175L59.3118 28.2245C59.3118 28.0556 59.2475 27.8224 59.2153 27.4886C59.1206 26.5829 59.1058 25.6707 59.1711 24.7624C59.2693 23.4172 59.5396 22.0902 59.9753 20.8137C60.5196 19.2548 61.3141 17.7948 62.3276 16.4912C63.3713 15.2028 64.5893 14.066 65.9465 13.1135C67.1528 12.2128 68.3591 11.5051 69.3201 10.8698C70.2812 10.2344 71.0813 9.7479 71.6161 9.37797C71.8855 9.20105 72.0866 9.05227 72.2233 8.95174L72.3801 8.83915L72.4324 8.79492C72.4324 8.79492 72.4083 8.79492 72.3721 8.82709L72.2072 8.92762L71.584 9.32972C71.0451 9.67955 70.249 10.1741 69.2638 10.7773C68.2787 11.3804 67.1045 12.1042 65.8661 13.0049C64.506 13.9585 63.2876 15.0997 62.2472 16.3946C61.2135 17.7108 60.405 19.1891 59.8547 20.7695C59.4138 22.0584 59.1435 23.3994 59.0504 24.7584C58.9945 25.6707 59.0255 26.5862 59.1429 27.4927C59.1831 27.8143 59.2394 28.0596 59.2676 28.2285C59.2676 28.3049 59.2957 28.3692 59.3078 28.4175C59.3199 28.4657 59.3319 28.4818 59.3359 28.4818Z" fill="#455A64"/>
<path id="Vector_148" d="M80.8027 43.9668C80.8027 43.9668 85.9858 46.0738 86.979 48.7719C87.9722 51.47 95.5076 73.7505 95.5076 73.7505L86.7619 77.104L82.773 58.7682L80.8027 43.9668Z" fill="#455A64"/>
<path id="Vector_149" d="M54.0078 107.238C54.0078 107.238 107.487 104.781 110.845 105.665C114.202 106.55 116.209 108.243 116.876 112.268C117.544 116.293 127.854 169.62 127.854 169.62L118.477 172.378C118.477 172.378 105.32 142.341 104.761 137.315C104.202 132.288 102.348 121.987 102.348 121.987C102.348 121.987 82.0182 122.32 67.0479 121.987C52.0777 121.653 54.0882 107.796 54.0882 107.796L54.0078 107.238Z" fill="#455A64"/>
<path id="Vector_150" d="M118.359 172.619L118.291 172.459C117.752 171.228 105.118 142.337 104.563 137.335C104.048 132.723 102.428 123.543 102.187 122.188C100.176 122.22 81.1285 122.501 67.051 122.188C62.3986 122.083 58.8963 120.672 56.6325 117.998C53.2066 113.949 53.8178 108.279 53.8942 107.801L53.7695 107.049H53.9947C56.1821 106.948 107.551 104.6 110.896 105.484C114.652 106.478 116.441 108.436 117.076 112.244C117.736 116.217 127.933 169.061 128.054 169.596L128.086 169.772L118.359 172.619ZM102.52 121.782L102.553 121.951C102.573 122.051 104.41 132.317 104.965 137.291C105.492 142.04 117.547 169.744 118.592 172.133L127.628 169.479C126.968 166.065 117.326 116.16 116.682 112.3C116.079 108.681 114.374 106.807 110.796 105.866C107.627 105.026 58.0358 107.262 54.244 107.435L54.3043 107.801V107.829C54.3043 107.889 53.5001 113.675 56.9502 117.745C59.1376 120.326 62.5394 121.685 67.067 121.79C81.8604 122.119 102.154 121.79 102.36 121.79L102.52 121.782Z" fill="#455A64"/>
<path id="Vector_151" d="M57.617 78.3948L58.964 86.7263C58.964 86.7263 53.1135 97.8123 52.454 107.342C52.1404 111.87 54.7379 121.142 54.7379 121.142C54.7379 121.142 75.3416 123.406 86.4557 123.117L98.3137 122.598L100.405 104.073L87.0951 102.151L87.2961 76.907C87.2961 76.907 89.7087 70.2602 89.8937 68.2939C90.3199 64.1443 90.143 59.9463 85.9973 54.5662L80.8022 43.9668L79.0691 43.1626L79.8934 56.0017L64.9594 41.8115L57.3958 44.5257L55.2526 54.6386L57.617 78.3948Z" fill="#455A64"/>
<g id="Group_3" opacity="0.3">
<path id="Vector_152" d="M83.5026 105.219C82.5335 105.388 75.541 105.489 74.5719 105.657C74.407 105.708 74.2336 105.724 74.0621 105.706C73.8907 105.687 73.7248 105.634 73.5747 105.549C73.4537 105.434 73.3698 105.286 73.3339 105.123C73.2981 104.961 73.3119 104.791 73.3736 104.636C73.5018 104.325 73.7032 104.049 73.9607 103.832C75.6535 102.224 77.853 101.295 79.9922 100.386C80.6758 100.1 81.4157 99.8069 82.1314 99.9838C82.4824 100.1 82.7998 100.3 83.0562 100.566C83.3126 100.832 83.5003 101.157 83.6031 101.512C83.807 102.221 83.8913 102.959 83.8524 103.695" fill="black"/>
</g>
<g id="Group_4" opacity="0.3">
<path id="Vector_153" d="M58.1698 84.2053C60.6668 83.6222 62.235 81.1614 63.2483 78.8051C64.2616 76.4487 65.098 73.8471 67.0844 72.2226C68.54 71.0163 70.4902 70.4856 71.7488 69.0862C72.347 68.4008 72.7437 67.5631 72.8949 66.6659C73.046 65.7688 72.9458 64.8473 72.6053 64.0037C72.2434 63.1432 71.5156 62.3309 70.5947 62.2827C69.5091 62.2264 68.6647 63.1673 68.0012 64.0318C64.9667 68.0073 62.105 72.1087 59.4163 76.3361C57.9728 78.608 56.5332 81.3664 57.5385 83.8635" fill="black"/>
</g>
<path id="Vector_154" d="M58.1838 45.8525C58.1838 45.8525 53.9577 47.1956 52.4297 49.8454C50.9017 52.4953 48.3685 65.3625 47.7573 68.8286C47.1461 72.2948 44.1906 86.5573 47.7573 88.801C51.3239 91.0448 56.0124 87.5947 57.2348 85.54C58.4572 83.4853 63.4473 72.8014 63.4473 72.8014L58.9639 69.0337C58.9639 69.0337 59.7681 58.8445 59.4745 56.7013C59.181 54.5581 58.1838 45.8525 58.1838 45.8525Z" fill="#FFBE9D"/>
<path id="Vector_155" d="M44.9316 72.3069L54.7389 72.9463L59.2183 67.6868L60.4568 59.4035L60.1271 43.5566C60.1271 43.5566 51.3733 45.6918 49.4794 52.3466C48.0761 57.2643 44.9316 72.3069 44.9316 72.3069Z" fill="#455A64"/>
<path id="Vector_156" d="M62.2883 53.565C61.7253 53.4886 61.0056 54.152 61.4841 55.7524C61.8862 57.0874 62.6421 58.3862 62.5858 59.1301C62.5295 59.8739 62.24 61.422 62.24 62.2262C62.205 63.0125 62.1285 63.7963 62.0108 64.5745L55.3359 72.6166L61.1141 77.7152L65.686 70.5337C65.686 70.5337 67.0652 70.7629 67.8654 69.8461L69.0717 68.4669C69.0717 68.4669 72.1679 67.3209 71.5366 65.6522C71.5366 65.6522 72.4534 64.7796 71.6211 63.3803C71.6211 63.3803 72.0553 61.9247 71.424 61.0682C71.424 61.0682 71.3677 59.118 70.849 58.7722C70.3303 58.4264 64.9663 58.3701 64.9663 58.3701C64.6742 57.4785 64.3373 56.6021 63.957 55.7444C63.3699 54.7753 63.0724 53.6695 62.2883 53.565Z" fill="#FFBE9D"/>
<path id="Vector_157" d="M64.5699 61.4744C64.5699 61.4945 64.4291 61.4181 64.3045 61.2291C64.1421 60.9745 64.0711 60.6721 64.1033 60.3718C64.1354 60.0715 64.2688 59.791 64.4814 59.5765C64.6422 59.4197 64.779 59.3714 64.791 59.3915C64.5519 59.681 64.3876 60.0249 64.3125 60.3928C64.3129 60.7684 64.401 61.1388 64.5699 61.4744Z" fill="#EB996E"/>
<path id="Vector_158" d="M71.1954 60.9238C70.3868 61.1596 69.5549 61.3065 68.7144 61.3621C67.8811 61.4833 67.0369 61.5116 66.1973 61.4466C67.0236 61.3027 67.8572 61.2047 68.6943 61.153C69.5229 61.0289 70.358 60.9524 71.1954 60.9238Z" fill="#EB996E"/>
<path id="Vector_159" d="M71.6715 63.2237C71.0051 63.4943 70.3014 63.6625 69.5846 63.7223C68.8778 63.8531 68.1554 63.8775 67.4414 63.7947C67.4414 63.7344 68.3904 63.674 69.5565 63.5132C70.7226 63.3524 71.6595 63.1674 71.6715 63.2237Z" fill="#EB996E"/>
<path id="Vector_160" d="M71.5547 65.5839C70.5143 65.9029 69.4206 66.0109 68.3379 65.9015C68.8669 65.7858 69.4052 65.7172 69.9463 65.6965C70.4782 65.6123 71.0163 65.5747 71.5547 65.5839Z" fill="#EB996E"/>
<path id="Vector_161" d="M66.4895 66.3079C66.4895 66.332 66.3769 66.3079 66.2402 66.2315C66.06 66.1086 65.9334 65.9217 65.8864 65.7087C65.8348 65.4982 65.8635 65.276 65.9668 65.0855C66.0472 64.9447 66.1357 64.8884 66.1558 64.9045C66.1759 64.9206 65.9909 65.2544 66.0874 65.6605C66.1839 66.0666 66.5177 66.2556 66.4895 66.3079Z" fill="#EB996E"/>
<path id="Vector_162" d="M65.168 64.3935C65.168 64.4136 65.0353 64.3453 64.9106 64.1724C64.7506 63.944 64.6586 63.6749 64.6452 63.3963C64.6287 63.1171 64.6899 62.8387 64.8222 62.5921C64.9307 62.4072 65.0353 62.3267 65.0554 62.3428C64.9324 62.6754 64.8645 63.0258 64.8543 63.3802C64.9056 63.7323 65.0114 64.0741 65.168 64.3935Z" fill="#EB996E"/>
<path id="Vector_163" d="M69.9064 68.1211C69.6148 68.2757 69.2945 68.3688 68.9655 68.3946C68.6469 68.4862 68.3126 68.5095 67.9844 68.4629C68.2753 68.3066 68.5959 68.2135 68.9253 68.1895C69.2434 68.0955 69.5783 68.0722 69.9064 68.1211Z" fill="#EB996E"/>
<path id="Vector_164" d="M67.3187 58.4063C67.3187 58.4666 66.5145 58.4667 65.4972 58.5672C64.4799 58.6677 63.6958 58.8245 63.6797 58.7682C64.2496 58.5268 64.8586 58.3906 65.4771 58.3661C66.0885 58.2704 66.7121 58.284 67.3187 58.4063Z" fill="#EB996E"/>
<path id="Vector_165" d="M84.977 77.7354H118.215C118.801 77.7354 119.364 77.9684 119.779 78.3831C120.193 78.7979 120.426 79.3604 120.426 79.9469V103.506H82.7734V79.9429C82.7745 79.3584 83.0069 78.7982 83.4198 78.3845C83.8327 77.9709 84.3925 77.7375 84.977 77.7354Z" fill="#E0E0E0"/>
<path id="Vector_166" d="M120.427 105.219H76.1953C76.1953 104.769 76.3741 104.338 76.6923 104.019C77.0105 103.701 77.4421 103.522 77.8922 103.522H120.427V105.219Z" fill="#E0E0E0"/>
<path id="Vector_167" d="M119.036 79.3921H83.916V103.522H119.036V79.3921Z" fill="white"/>
<path id="Vector_168" d="M119.031 103.506C119.031 103.506 119.031 103.353 119.031 103.064C119.031 102.774 119.031 102.34 119.031 101.785C119.031 100.663 119.031 99.0226 119.007 96.9236C119.007 92.7257 118.983 86.7062 118.963 79.3759L119.047 79.4604H83.9318L84.0363 79.3558C84.0363 87.9729 84.0363 96.1556 84.0363 103.482L83.9438 103.385L109.24 103.434L116.478 103.462H118.404H118.899H119.071H118.911H118.424H116.518L109.316 103.486L83.9559 103.534H83.8594V103.506C83.8594 96.1757 83.8594 87.993 83.8594 79.3799V79.2754H83.9639H119.079H119.164V79.3799C119.164 86.7304 119.132 92.7699 119.12 96.9799C119.12 99.0709 119.12 100.703 119.12 101.805C119.12 102.356 119.12 102.778 119.12 103.068C119.12 103.357 119.031 103.506 119.031 103.506Z" fill="#263238"/>
<path id="Vector_169" d="M120.242 103.506C120.242 103.567 110.748 103.611 99.0389 103.611C87.3297 103.611 77.832 103.567 77.832 103.506C77.832 103.446 87.3257 103.402 99.0389 103.402C110.752 103.402 120.242 103.466 120.242 103.506Z" fill="#263238"/>
<path id="Vector_170" d="M101.47 100.687C106.567 100.687 110.699 96.5558 110.699 91.4592C110.699 86.3626 106.567 82.231 101.47 82.231C96.3738 82.231 92.2422 86.3626 92.2422 91.4592C92.2422 96.5558 96.3738 100.687 101.47 100.687Z" fill="#7DCE94"/>
<path id="Vector_171" d="M95.7383 91.6841L97.6925 89.8344L100.391 92.3194L105.702 87.3213L107.632 89.1468L100.362 96.0469L95.7383 91.6841Z" fill="white"/>
<path id="Vector_172" d="M62.0166 64.5745C62.0608 64.6107 59.2903 67.9562 55.8282 72.0416C52.3661 76.1269 49.5233 79.4081 49.479 79.3799C49.4348 79.3518 52.2053 76.0023 55.6674 71.9129C59.1295 67.8235 61.9723 64.5383 62.0166 64.5745Z" fill="#EB996E"/>
<path id="Vector_173" d="M61.539 59.3916C61.4486 60.5581 61.2888 61.7182 61.0605 62.8658C60.9022 64.0258 60.6739 65.1752 60.377 66.3078C60.4672 65.1399 60.627 63.9784 60.8555 62.8296C61.0164 61.6713 61.2446 60.5233 61.539 59.3916Z" fill="#263238"/>
<path id="Vector_174" d="M87.2983 76.9072C87.3127 76.825 87.3342 76.7443 87.3627 76.6659L87.5798 75.9904C87.7728 75.4073 88.0583 74.5629 88.384 73.5134C88.7729 72.2873 89.0977 71.0418 89.3571 69.7819C89.681 68.2437 89.8254 66.673 89.7873 65.1015C89.642 62.2401 88.8384 59.4509 87.4391 56.9509C87.0235 56.1896 86.5671 55.4513 86.0719 54.7393C85.903 54.486 85.7583 54.297 85.6698 54.1643C85.6181 54.0982 85.5736 54.0268 85.5371 53.9512C85.5985 54.0068 85.6538 54.0688 85.702 54.1361C85.8065 54.2648 85.9633 54.4458 86.1443 54.6951C86.6669 55.392 87.1451 56.1213 87.5758 56.8785C88.2158 58.0058 88.7424 59.1938 89.148 60.425C89.6524 61.9332 89.9434 63.5046 90.0125 65.0934C90.053 66.682 89.9018 68.2697 89.5622 69.8221C89.2915 71.0853 88.9505 72.3325 88.5408 73.5577C88.195 74.6031 87.8894 75.4435 87.6723 76.0185C87.5677 76.2866 87.4833 76.5077 87.4189 76.682C87.3881 76.7617 87.3475 76.8373 87.2983 76.9072Z" fill="#263238"/>
<path id="Vector_175" d="M78.7507 64.3857C78.7672 64.573 78.7672 64.7614 78.7507 64.9487C78.7501 65.1694 78.734 65.3897 78.7025 65.6081C78.6735 65.8998 78.6292 66.1897 78.5698 66.4767C78.5054 66.8248 78.4195 67.1686 78.3124 67.5061C78.1991 67.8976 78.0649 68.2829 77.9103 68.6601C77.5392 69.511 77.0782 70.3198 76.5351 71.0727C75.9785 71.8242 75.3407 72.5119 74.6332 73.1234C74.3231 73.3883 73.9982 73.6353 73.6601 73.8633C73.3708 74.0688 73.0686 74.2555 72.7554 74.4222C72.4957 74.5723 72.2271 74.7066 71.9512 74.8243C71.7536 74.9206 71.5493 75.0025 71.34 75.0696C71.1659 75.1413 70.9855 75.1965 70.8012 75.2344C70.7811 75.1902 71.5531 74.953 72.6629 74.3056C72.9664 74.1312 73.2604 73.9406 73.5435 73.7346C73.8571 73.5255 74.1587 73.2601 74.4884 72.9907C75.8739 71.7718 76.9725 70.2613 77.7053 68.5676C77.8586 68.1995 77.9928 67.8237 78.1074 67.4417C78.2185 67.1093 78.3111 66.771 78.3848 66.4284C78.7186 65.1899 78.7105 64.3857 78.7507 64.3857Z" fill="#263238"/>
<path id="Vector_176" d="M89.8063 68.0407C89.7835 68.0186 89.7644 67.9928 89.7501 67.9643L89.6093 67.7191C89.4766 67.4979 89.2957 67.1963 89.0665 66.8224C88.8373 66.4484 88.4794 65.99 88.1055 65.4673C87.7315 64.9446 87.257 64.3736 86.7544 63.7342C84.6876 61.209 81.6356 57.8917 78.1374 54.3492C74.6391 50.8067 71.3539 47.7185 68.9453 45.5029L67.3047 44.0353C66.8222 43.609 66.404 43.2311 66.0542 42.9415L65.25 42.262L65.0449 42.0811C65.0185 42.0623 64.9954 42.0392 64.9766 42.0127C65.0054 42.0268 65.0324 42.0444 65.057 42.065C65.1173 42.1092 65.1897 42.1615 65.2741 42.2298L66.1024 42.8772L67.3771 43.9468C67.8717 44.373 68.4266 44.8596 69.0378 45.3944C71.4785 47.5657 74.7718 50.6498 78.2861 54.1883C81.8005 57.7268 84.8283 61.0723 86.867 63.6257C87.3656 64.2731 87.8159 64.8561 88.202 65.3788L89.1348 66.7621C89.348 67.1642 89.5369 67.4537 89.6455 67.6829L89.7742 67.9241C89.801 68.0019 89.8117 68.0407 89.8063 68.0407Z" fill="#263238"/>
<path id="Vector_177" d="M81.9988 86.6419C81.9249 86.6677 81.8477 86.6826 81.7696 86.6862L81.1141 86.7786C80.5431 86.855 79.7108 86.9435 78.7015 87.036C76.6468 87.221 73.7959 87.3697 70.6595 87.3335C67.5231 87.2974 64.6601 87.0682 62.6174 86.8349C61.5921 86.7183 60.7637 86.6057 60.2048 86.5133L59.5494 86.4087C59.4725 86.4003 59.3969 86.3827 59.3242 86.3564C59.4017 86.3467 59.48 86.3467 59.5574 86.3564L60.2169 86.4248C60.7879 86.4932 61.6202 86.5816 62.6295 86.6781C64.6762 86.8751 67.5191 87.0802 70.6715 87.1164C73.824 87.1526 76.6588 87.0239 78.7136 86.8792C79.7389 86.8068 80.5713 86.7425 81.1262 86.6902L81.7856 86.6379C81.8566 86.6318 81.928 86.6332 81.9988 86.6419Z" fill="#263238"/>
<path id="Vector_178" d="M99.4141 77.7073C99.4141 77.7073 106 75.1378 106.624 74.9328C107.247 74.7277 113.005 74.2773 113.005 74.2773L120.428 76.9433C120.428 76.9433 120.496 78.4672 118.763 78.2622C117.235 78.0041 115.729 77.6331 114.256 77.1524L113.214 77.7716L99.4141 77.7073Z" fill="#FFBE9D"/>
<path id="Vector_179" d="M120.069 78.6842C120.242 79.034 120.692 79.0863 121.038 79.2713C121.358 79.4581 121.62 79.7298 121.795 80.0562C121.97 80.3826 122.052 80.7511 122.031 81.1209C121.973 81.8604 121.728 82.573 121.319 83.1918C121.194 83.4416 121.012 83.6591 120.789 83.8271C120.674 83.9066 120.538 83.9493 120.398 83.9493C120.259 83.9493 120.123 83.9066 120.008 83.8271C119.899 83.6933 119.825 83.5338 119.794 83.3635C119.763 83.1932 119.776 83.0178 119.832 82.854C120.045 81.5713 119.767 79.9468 120.069 78.6802" fill="#FFBE9D"/>
<path id="Vector_180" d="M127.531 167.629L127.756 168.257C127.756 168.257 139.98 168.735 140.816 170.722L119.553 178.193L117.354 171.015C121.033 171.369 124.398 170.372 127.531 167.629Z" fill="#FF725E"/>
<g id="Group_5" opacity="0.6">
<path id="Vector_181" d="M120.304 172.519C120.121 172.654 119.994 172.851 119.947 173.074C119.901 173.296 119.938 173.528 120.051 173.725C120.179 173.917 120.376 174.051 120.601 174.099C120.826 174.148 121.062 174.108 121.257 173.987C121.451 173.844 121.586 173.635 121.634 173.4C121.682 173.164 121.641 172.919 121.519 172.712C121.365 172.531 121.148 172.416 120.912 172.391C120.676 172.367 120.44 172.434 120.252 172.579" fill="white"/>
</g>
<g id="Group_6" opacity="0.6">
<path id="Vector_182" d="M119.556 178.193L119.029 176.468L139.601 169.938C139.601 169.938 140.691 170.018 140.807 170.742L119.556 178.193Z" fill="white"/>
</g>
<path id="Vector_183" d="M127.852 168.293C127.884 168.397 127.382 168.627 126.988 169.141C126.594 169.656 126.477 170.187 126.368 170.179C126.26 170.171 126.2 169.515 126.686 168.904C127.173 168.293 127.84 168.188 127.852 168.293Z" fill="#263238"/>
<path id="Vector_184" d="M130.407 168.43C130.467 168.522 130.077 168.856 129.88 169.419C129.683 169.982 129.743 170.484 129.639 170.517C129.534 170.549 129.261 169.982 129.522 169.286C129.783 168.591 130.37 168.333 130.407 168.43Z" fill="#263238"/>
<path id="Vector_185" d="M132.61 170.657C132.526 170.713 132.208 170.255 132.264 169.583C132.321 168.912 132.739 168.526 132.811 168.594C132.884 168.663 132.695 169.077 132.646 169.62C132.598 170.162 132.711 170.609 132.61 170.657Z" fill="#263238"/>
</g>
</g>
</svg>
