<?xml version="1.0" standalone="no"?>
<svg viewBox="0 0 200 200" xmlns="http://www.w3.org/2000/svg">
  <path fill="#0F62FE" d="M35.7,-54.7C46.1,-55.8,54.3,-46,60.8,-35C67.2,-24.1,71.9,-12,68.1,-2.2C64.3,7.7,52.1,15.4,43.7,22.9C35.4,30.5,30.8,38,24.2,49.1C17.5,60.2,8.8,74.9,-1.7,77.8C-12.1,80.7,-24.2,71.8,-34.2,62.6C-44.2,53.5,-52.1,44,-57,33.5C-61.9,23.1,-64,11.5,-62.1,1.1C-60.2,-9.4,-54.5,-18.8,-50.8,-31.4C-47.1,-44.1,-45.4,-60,-37.3,-60.2C-29.2,-60.4,-14.6,-44.9,-1,-43.2C12.6,-41.5,25.3,-53.6,35.7,-54.7Z" transform="translate(100 100)" />
</svg>
