<svg class="animated" id="freepik_stories-container-ship" xmlns="http://www.w3.org/2000/svg" viewBox="0 0 500 500" version="1.1" xmlns:xlink="http://www.w3.org/1999/xlink" xmlns:svgjs="http://svgjs.com/svgjs"><style>svg#freepik_stories-container-ship:not(.animated) .animable {opacity: 0;}svg#freepik_stories-container-ship.animated #freepik--background-simple--inject-3 {animation: 1s 1 forwards cubic-bezier(.36,-0.01,.5,1.38) slideDown;animation-delay: 0s;}svg#freepik_stories-container-ship.animated #freepik--Clouds--inject-3 {animation: 1s 1 forwards cubic-bezier(.36,-0.01,.5,1.38) slideRight;animation-delay: 0s;}svg#freepik_stories-container-ship.animated #freepik--Crane--inject-3 {animation: 1s 1 forwards cubic-bezier(.36,-0.01,.5,1.38) zoomOut;animation-delay: 0s;}svg#freepik_stories-container-ship.animated #freepik--Ship--inject-3 {animation: 1s 1 forwards cubic-bezier(.36,-0.01,.5,1.38) slideRight;animation-delay: 0s;}svg#freepik_stories-container-ship.animated #freepik--Sea--inject-3 {animation: 1s 1 forwards cubic-bezier(.36,-0.01,.5,1.38) zoomIn;animation-delay: 0s;}            @keyframes slideDown {                0% {                    opacity: 0;                    transform: translateY(-30px);                }                100% {                    opacity: 1;                    transform: translateY(0);                }            }                    @keyframes slideRight {                0% {                    opacity: 0;                    transform: translateX(30px);                }                100% {                    opacity: 1;                    transform: translateX(0);                }            }                    @keyframes zoomOut {                0% {                    opacity: 0;                    transform: scale(1.5);                }                100% {                    opacity: 1;                    transform: scale(1);                }            }                    @keyframes zoomIn {                0% {                    opacity: 0;                    transform: scale(0.5);                }                100% {                    opacity: 1;                    transform: scale(1);                }            }        </style><g id="freepik--background-simple--inject-3" class="animable" style="transform-origin: 241.357px 212.43px;"><path d="M443,234s0-77-44-113a111.8,111.8,0,0,0-74.86-25.06A26,26,0,1,1,275.67,109v-.3A78.91,78.91,0,0,0,266,115c-30,23-50,61-80,65-19.36,2.58-37.1-12-56.7-12.22C103.22,167.52,75.49,178,58,197.72,41.6,216.19,38.56,241.27,40,265c2,33,35.45,64,35.45,64H421S444,301,443,234Z" style="fill: #90CAF9; transform-origin: 241.357px 212.43px;" id="elsaihcfyyf" class="animable"></path><g id="elicp1dozjnob"><path d="M443,234s0-77-44-113a111.8,111.8,0,0,0-74.86-25.06A26,26,0,1,1,275.67,109v-.3A78.91,78.91,0,0,0,266,115c-30,23-50,61-80,65-19.36,2.58-37.1-12-56.7-12.22C103.22,167.52,75.49,178,58,197.72,41.6,216.19,38.56,241.27,40,265c2,33,35.45,64,35.45,64H421S444,301,443,234Z" style="fill: rgb(255, 255, 255); opacity: 0.5; transform-origin: 241.357px 212.43px;" class="animable" id="elin4vpyt1scn"></path></g></g><g id="freepik--Clouds--inject-3" class="animable" style="transform-origin: 237.329px 159.197px;"><path d="M402.34,155.75c-5.67-3.1-8.25-.52-10.31-3.1s5.67-9.28-9.8-16c0,0-1-14.44-22.17-15s-15.47,14.44-21.15,18-7.22-2.06-12.89,1.55-3.09,10.83-7.73,11.86-10.83-4.64-16.51-1-5.67,6.7-8.25,6.7-7.73-2.06-10.83,0-6.7,4.64-6.7,4.64H406.47S408,158.84,402.34,155.75Z" style="fill: rgb(255, 255, 255); transform-origin: 341.329px 142.517px;" id="elocin7ls68d" class="animable"></path><path d="M145.89,192c-3.5-1.91-5.09-.32-6.36-1.91s3.5-5.72-6-9.85c0,0-.63-8.9-13.67-9.22s-9.54,8.9-13,11.13-4.45-1.28-8,1-1.91,6.68-4.77,7.31-6.68-2.86-10.17-.63-3.5,4.13-5.09,4.13-4.77-1.27-6.68,0S68,196.76,68,196.76h80.43S149.39,193.9,145.89,192Z" style="fill: rgb(255, 255, 255); transform-origin: 108.275px 183.886px;" id="elh6brhqekm3u" class="animable"></path></g><g id="freepik--Crane--inject-3" class="animable" style="transform-origin: 310.37px 219.19px;"><polygon points="239.5 215.19 227.49 298.38 241.88 298.38 254.43 215.19 239.5 215.19" style="fill: rgb(38, 50, 56); stroke: rgb(38, 50, 56); stroke-miterlimit: 10; transform-origin: 240.96px 256.785px;" id="elx720ajvf7nr" class="animable"></polygon><polygon points="245.51 215.19 233.5 298.38 242.49 298.38 255.03 215.19 245.51 215.19" style="fill: rgb(255, 255, 255); stroke: rgb(38, 50, 56); stroke-miterlimit: 10; transform-origin: 244.265px 256.785px;" id="el3qywzyva3gd" class="animable"></polygon><rect x="317.91" y="221.57" width="9.92" height="76.17" style="fill: rgb(255, 255, 255); stroke: rgb(38, 50, 56); stroke-miterlimit: 10; transform-origin: 322.87px 259.655px;" id="elv2hsyuxs3d8" class="animable"></rect><rect x="313.85" y="221.57" width="9.92" height="76.17" style="fill: rgb(38, 50, 56); stroke: rgb(38, 50, 56); stroke-miterlimit: 10; transform-origin: 318.81px 259.655px;" id="elblo91hzfbpe" class="animable"></rect><rect x="376.05" y="221.57" width="9.92" height="76.17" style="fill: rgb(255, 255, 255); stroke: rgb(38, 50, 56); stroke-miterlimit: 10; transform-origin: 381.01px 259.655px;" id="elzxzlqzcn5uq" class="animable"></rect><rect x="371.99" y="221.57" width="9.92" height="76.17" style="fill: rgb(38, 50, 56); stroke: rgb(38, 50, 56); stroke-miterlimit: 10; transform-origin: 376.95px 259.655px;" id="el0ukct8dwgh6" class="animable"></rect><rect x="321.96" y="179.2" width="41.53" height="36.06" style="fill: rgb(38, 50, 56); stroke: rgb(38, 50, 56); stroke-miterlimit: 10; transform-origin: 342.725px 197.23px;" id="elo35w0t047h" class="animable"></rect><rect x="360.21" y="179.2" width="41.53" height="36.06" style="fill: rgb(255, 255, 255); stroke: rgb(38, 50, 56); stroke-miterlimit: 10; transform-origin: 380.975px 197.23px;" id="elqp9rbvznxi" class="animable"></rect><rect x="336.86" y="215.19" width="71.65" height="13.14" style="fill: rgb(255, 255, 255); stroke: rgb(38, 50, 56); stroke-miterlimit: 10; transform-origin: 372.685px 221.76px;" id="el0zs3pr7bjyu" class="animable"></rect><polygon points="259 218.92 294.19 148 302.73 150.13 268.06 219.46 259 218.92" style="fill: rgb(255, 255, 255); stroke: rgb(38, 50, 56); stroke-miterlimit: 10; transform-origin: 280.865px 183.73px;" id="elmbw43lselpr" class="animable"></polygon><polygon points="253.66 218.92 288.86 148 297.39 150.13 262.73 219.46 253.66 218.92" style="fill: rgb(38, 50, 56); stroke: rgb(38, 50, 56); stroke-miterlimit: 10; transform-origin: 275.525px 183.73px;" id="eloplx7j2tmua" class="animable"></polygon><polygon points="335.79 218.92 300.59 148 288.25 150.13 322.91 219.46 335.79 218.92" style="fill: rgb(38, 50, 56); stroke: rgb(38, 50, 56); stroke-miterlimit: 10; transform-origin: 312.02px 183.73px;" id="elteampri84s" class="animable"></polygon><polygon points="341.12 218.92 305.93 148 297.39 150.13 332.06 219.46 341.12 218.92" style="fill: rgb(255, 255, 255); stroke: rgb(38, 50, 56); stroke-miterlimit: 10; transform-origin: 319.255px 183.73px;" id="elpbp2es97r3" class="animable"></polygon><path d="M227.44,247.44l8.64,8.47A14.18,14.18,0,0,0,257,254.73l9.93-12.23,6.82,9.13a14.17,14.17,0,0,0,22.49.31l7.16-9.06,6,8.07a14.18,14.18,0,0,0,22.62.27l6.75-8.72" style="fill: none; stroke: rgb(38, 50, 56); stroke-miterlimit: 10; transform-origin: 283.105px 251.23px;" id="elub4nh2f1izf" class="animable"></path><polygon points="205.22 250.29 197.81 250.29 188.69 240.98 200.85 240.98 205.22 250.29" style="fill: rgb(38, 50, 56); stroke: rgb(38, 50, 56); stroke-miterlimit: 10; transform-origin: 196.955px 245.635px;" id="el18eslmf04b" class="animable"></polygon><polygon points="196.67 241.74 205.22 250.29 230.1 250.29 230.1 241.74 196.67 241.74" style="fill: rgb(255, 255, 255); stroke: rgb(38, 50, 56); stroke-miterlimit: 10; transform-origin: 213.385px 246.015px;" id="elbdufztyrjqd" class="animable"></polygon><rect x="182.21" y="231.72" width="195.71" height="10.67" style="fill: rgb(38, 50, 56); stroke: rgb(38, 50, 56); stroke-miterlimit: 10; transform-origin: 280.065px 237.055px;" id="elxt82drm5x4d" class="animable"></rect><rect x="192.34" y="231.72" width="246.19" height="10.67" style="fill: rgb(255, 255, 255); stroke: rgb(38, 50, 56); stroke-miterlimit: 10; transform-origin: 315.435px 237.055px;" id="el6b3t9yrjk25" class="animable"></rect><rect x="270.2" y="215.19" width="76.68" height="10.67" style="fill: rgb(255, 255, 255); stroke: rgb(38, 50, 56); stroke-miterlimit: 10; transform-origin: 308.54px 220.525px;" id="elzil3rr48t4" class="animable"></rect><polygon points="335.49 225.86 243.93 225.86 245.51 215.19 336.86 215.19 335.49 225.86" style="fill: rgb(255, 255, 255); stroke: rgb(38, 50, 56); stroke-miterlimit: 10; transform-origin: 290.395px 220.525px;" id="elrj4irs5hli" class="animable"></polygon><rect x="285.61" y="140" width="27.25" height="13.33" style="fill: rgb(255, 255, 255); stroke: rgb(38, 50, 56); stroke-miterlimit: 10; transform-origin: 299.235px 146.665px;" id="elf8ujbyaq7bk" class="animable"></rect><rect x="279.8" y="140" width="24.58" height="13.33" style="fill: rgb(38, 50, 56); stroke: rgb(38, 50, 56); stroke-miterlimit: 10; transform-origin: 292.09px 146.665px;" id="el5atnu9j6ami" class="animable"></rect><polygon points="336.86 215.19 324.84 298.38 339.24 298.38 351.79 215.19 336.86 215.19" style="fill: rgb(38, 50, 56); stroke: rgb(38, 50, 56); stroke-miterlimit: 10; transform-origin: 338.315px 256.785px;" id="elof6g3kyrgm" class="animable"></polygon><polygon points="342.87 215.19 330.85 298.38 339.84 298.38 352.39 215.19 342.87 215.19" style="fill: rgb(255, 255, 255); stroke: rgb(38, 50, 56); stroke-miterlimit: 10; transform-origin: 341.62px 256.785px;" id="el0by5rv7ddwme" class="animable"></polygon><rect x="367.49" y="192.27" width="5.41" height="7.66" style="fill: rgb(38, 50, 56); stroke: rgb(38, 50, 56); stroke-miterlimit: 10; transform-origin: 370.195px 196.1px;" id="elt5a2fqwii7a" class="animable"></rect><rect x="391.82" y="192.27" width="5.41" height="7.66" style="fill: rgb(38, 50, 56); stroke: rgb(38, 50, 56); stroke-miterlimit: 10; transform-origin: 394.525px 196.1px;" id="eloo9e9u40trj" class="animable"></rect><polygon points="295.95 140.29 192.34 231.72 184.49 231.72 288.19 140.29 295.95 140.29" style="fill: rgb(38, 50, 56); stroke: rgb(38, 50, 56); stroke-miterlimit: 10; transform-origin: 240.22px 186.005px;" id="el352q6fd7yyq" class="animable"></polygon><polygon points="300.12 140.29 196.51 231.72 188.66 231.72 292.36 140.29 300.12 140.29" style="fill: rgb(255, 255, 255); stroke: rgb(38, 50, 56); stroke-miterlimit: 10; transform-origin: 244.39px 186.005px;" id="eltgnf9jd3ujc" class="animable"></polygon></g><g id="freepik--Ship--inject-3" class="animable" style="transform-origin: 254.438px 265.785px;"><path d="M104,230h3.06V207.17a1.53,1.53,0,0,0-1.53-1.53h0a1.53,1.53,0,0,0-1.53,1.53Z" style="fill: #90CAF9; stroke: rgb(38, 50, 56); stroke-miterlimit: 10; transform-origin: 105.53px 217.82px;" id="el2z9qyrchjd6" class="animable"></path><path d="M136.47,230h3.07V207.17a1.54,1.54,0,0,0-1.54-1.53h0a1.54,1.54,0,0,0-1.53,1.53Z" style="fill: #90CAF9; stroke: rgb(38, 50, 56); stroke-miterlimit: 10; transform-origin: 138.005px 217.82px;" id="el17cpqa5wukv" class="animable"></path><path d="M123.08,202.57h1.32a1.53,1.53,0,0,1,1.53,1.53V230a0,0,0,0,1,0,0h-4.38a0,0,0,0,1,0,0V204.1A1.53,1.53,0,0,1,123.08,202.57Z" style="fill: #90CAF9; stroke: rgb(38, 50, 56); stroke-miterlimit: 10; transform-origin: 123.74px 216.285px;" id="elm9zp73904ag" class="animable"></path><polygon points="165.45 229.98 144.57 229.98 98.92 229.98 78.04 229.98 78.04 247.47 98.92 247.47 98.92 275.14 144.57 275.14 144.57 247.47 165.45 247.47 165.45 229.98" style="fill: rgb(38, 50, 56); stroke: rgb(38, 50, 56); stroke-miterlimit: 10; transform-origin: 121.745px 252.56px;" id="elxy8yodcfd6" class="animable"></polygon><polygon points="170.51 229.98 149.63 229.98 103.99 229.98 83.11 229.98 83.11 247.47 103.99 247.47 103.99 275.14 149.63 275.14 149.63 247.47 170.51 247.47 170.51 229.98" style="fill: rgb(255, 255, 255); stroke: rgb(38, 50, 56); stroke-miterlimit: 10; transform-origin: 126.81px 252.56px;" id="elxpi2plgslad" class="animable"></polygon><rect x="83.11" y="235.33" width="87.41" height="6.8" style="fill: rgb(38, 50, 56); stroke: rgb(38, 50, 56); stroke-miterlimit: 10; transform-origin: 126.815px 238.73px;" id="ele81z6jzv4k" class="animable"></rect><path d="M83.11,230V226.2a1.55,1.55,0,0,1,1.55-1.56H169a1.55,1.55,0,0,1,1.55,1.56V230" style="fill: none; stroke: rgb(38, 50, 56); stroke-miterlimit: 10; transform-origin: 126.83px 227.32px;" id="el3eou959nqg6" class="animable"></path><line x1="88.82" y1="230.03" x2="88.82" y2="224.8" style="fill: none; stroke: rgb(38, 50, 56); stroke-miterlimit: 10; transform-origin: 88.82px 227.415px;" id="elz0q4535fqtr" class="animable"></line><line x1="95.16" y1="230.03" x2="95.16" y2="224.8" style="fill: none; stroke: rgb(38, 50, 56); stroke-miterlimit: 10; transform-origin: 95.16px 227.415px;" id="elqnafajm5rf" class="animable"></line><line x1="101.5" y1="230.03" x2="101.5" y2="224.8" style="fill: none; stroke: rgb(38, 50, 56); stroke-miterlimit: 10; transform-origin: 101.5px 227.415px;" id="el5ajjljj19zc" class="animable"></line><line x1="107.85" y1="230.03" x2="107.85" y2="224.8" style="fill: none; stroke: rgb(38, 50, 56); stroke-miterlimit: 10; transform-origin: 107.85px 227.415px;" id="el8s59um9med9" class="animable"></line><line x1="114.19" y1="230.03" x2="114.19" y2="224.8" style="fill: none; stroke: rgb(38, 50, 56); stroke-miterlimit: 10; transform-origin: 114.19px 227.415px;" id="eltz1lty2rff" class="animable"></line><line x1="120.53" y1="230.03" x2="120.53" y2="224.8" style="fill: none; stroke: rgb(38, 50, 56); stroke-miterlimit: 10; transform-origin: 120.53px 227.415px;" id="elibs0hy2vrpr" class="animable"></line><line x1="126.87" y1="230.03" x2="126.87" y2="224.8" style="fill: none; stroke: rgb(38, 50, 56); stroke-miterlimit: 10; transform-origin: 126.87px 227.415px;" id="el08j1j97b0v5t" class="animable"></line><line x1="133.21" y1="230.03" x2="133.21" y2="224.8" style="fill: none; stroke: rgb(38, 50, 56); stroke-miterlimit: 10; transform-origin: 133.21px 227.415px;" id="el5mmbpk4tlz3" class="animable"></line><line x1="139.55" y1="230.03" x2="139.55" y2="224.8" style="fill: none; stroke: rgb(38, 50, 56); stroke-miterlimit: 10; transform-origin: 139.55px 227.415px;" id="elplpdyz581m" class="animable"></line><line x1="145.89" y1="230.03" x2="145.89" y2="224.8" style="fill: none; stroke: rgb(38, 50, 56); stroke-miterlimit: 10; transform-origin: 145.89px 227.415px;" id="elar82o5lm8ew" class="animable"></line><line x1="152.23" y1="230.03" x2="152.23" y2="224.8" style="fill: none; stroke: rgb(38, 50, 56); stroke-miterlimit: 10; transform-origin: 152.23px 227.415px;" id="elbrv8b87d1oe" class="animable"></line><line x1="158.57" y1="230.03" x2="158.57" y2="224.8" style="fill: none; stroke: rgb(38, 50, 56); stroke-miterlimit: 10; transform-origin: 158.57px 227.415px;" id="elimf4w6werln" class="animable"></line><line x1="164.92" y1="230.03" x2="164.92" y2="224.8" style="fill: none; stroke: rgb(38, 50, 56); stroke-miterlimit: 10; transform-origin: 164.92px 227.415px;" id="elc8rszn5witb" class="animable"></line><rect x="108.81" y="248.22" width="2.19" height="4.83" style="fill: rgb(38, 50, 56); transform-origin: 109.905px 250.635px;" id="eli6bxbh7rb3s" class="animable"></rect><rect x="113.86" y="248.22" width="2.19" height="4.83" style="fill: rgb(38, 50, 56); transform-origin: 114.955px 250.635px;" id="elhxtbxs69u4" class="animable"></rect><rect x="108.81" y="262.03" width="2.19" height="4.83" style="fill: rgb(38, 50, 56); transform-origin: 109.905px 264.445px;" id="el82cr6atumpl" class="animable"></rect><rect x="113.86" y="262.03" width="2.19" height="4.83" style="fill: rgb(38, 50, 56); transform-origin: 114.955px 264.445px;" id="elq2ns9lnnk3b" class="animable"></rect><rect x="129.23" y="262.03" width="2.19" height="4.83" style="fill: rgb(38, 50, 56); transform-origin: 130.325px 264.445px;" id="elbnlx4a4v2t7" class="animable"></rect><rect x="134.28" y="262.03" width="2.19" height="4.83" style="fill: rgb(38, 50, 56); transform-origin: 135.375px 264.445px;" id="elemcup84wcid" class="animable"></rect><rect x="131.42" y="248.22" width="2.19" height="4.83" style="fill: rgb(38, 50, 56); transform-origin: 132.515px 250.635px;" id="elz3ratxixrra" class="animable"></rect><rect x="87.26" y="302.22" width="24.18" height="15.8" style="fill: rgb(255, 255, 255); stroke: rgb(38, 50, 56); stroke-miterlimit: 10; transform-origin: 99.35px 310.12px;" id="el2gvzudbo7a8" class="animable"></rect><rect x="75.01" y="302.22" width="24.18" height="15.8" style="fill: #90CAF9; stroke: rgb(38, 50, 56); stroke-miterlimit: 10; transform-origin: 87.1px 310.12px;" id="el5ymxoy24z" class="animable"></rect><rect x="87.26" y="286.41" width="24.18" height="15.8" style="fill: rgb(255, 255, 255); stroke: rgb(38, 50, 56); stroke-miterlimit: 10; transform-origin: 99.35px 294.31px;" id="el8zow5hae4lh" class="animable"></rect><rect x="75.01" y="286.41" width="24.18" height="15.8" style="fill: rgb(38, 50, 56); stroke: rgb(38, 50, 56); stroke-miterlimit: 10; transform-origin: 87.1px 294.31px;" id="elumpgtgk53mp" class="animable"></rect><rect x="87.26" y="270.61" width="24.18" height="15.8" style="fill: rgb(255, 255, 255); stroke: rgb(38, 50, 56); stroke-miterlimit: 10; transform-origin: 99.35px 278.51px;" id="el8eah1gajz55" class="animable"></rect><rect x="75.01" y="270.61" width="24.18" height="15.8" style="fill: #90CAF9; stroke: rgb(38, 50, 56); stroke-miterlimit: 10; transform-origin: 87.1px 278.51px;" id="el67sv3js6poo" class="animable"></rect><rect x="290.14" y="254.44" width="39.91" height="19.68" style="fill: rgb(255, 255, 255); stroke: rgb(38, 50, 56); stroke-miterlimit: 10; transform-origin: 310.095px 264.28px;" id="elhsxor7xneu8" class="animable"></rect><rect x="269.91" y="254.44" width="39.91" height="19.68" style="fill: rgb(38, 50, 56); stroke: rgb(38, 50, 56); stroke-miterlimit: 10; transform-origin: 289.865px 264.28px;" id="el7xi90m3v3pt" class="animable"></rect><path d="M321,259v-3.79a1.75,1.75,0,0,1,1.89-1.56H425.61a1.75,1.75,0,0,1,1.89,1.56V259" style="fill: none; stroke: rgb(38, 50, 56); stroke-miterlimit: 10; transform-origin: 374.25px 256.322px;" id="el18elyxmpd9n" class="animable"></path><line x1="327.99" y1="259.01" x2="327.99" y2="253.77" style="fill: none; stroke: rgb(38, 50, 56); stroke-miterlimit: 10; transform-origin: 327.99px 256.39px;" id="elzi10w240qd" class="animable"></line><line x1="335.72" y1="259.01" x2="335.72" y2="253.77" style="fill: none; stroke: rgb(38, 50, 56); stroke-miterlimit: 10; transform-origin: 335.72px 256.39px;" id="el8k9hcqlerc" class="animable"></line><line x1="343.44" y1="259.01" x2="343.44" y2="253.77" style="fill: none; stroke: rgb(38, 50, 56); stroke-miterlimit: 10; transform-origin: 343.44px 256.39px;" id="elcapp8v1sb8g" class="animable"></line><line x1="351.17" y1="259.01" x2="351.17" y2="253.77" style="fill: none; stroke: rgb(38, 50, 56); stroke-miterlimit: 10; transform-origin: 351.17px 256.39px;" id="elwj9js52j3l" class="animable"></line><line x1="358.89" y1="259.01" x2="358.89" y2="253.77" style="fill: none; stroke: rgb(38, 50, 56); stroke-miterlimit: 10; transform-origin: 358.89px 256.39px;" id="elvzbxsrr46yg" class="animable"></line><line x1="366.61" y1="259.01" x2="366.61" y2="253.77" style="fill: none; stroke: rgb(38, 50, 56); stroke-miterlimit: 10; transform-origin: 366.61px 256.39px;" id="ellxi5kd3h0ea" class="animable"></line><line x1="374.34" y1="259.01" x2="374.34" y2="253.77" style="fill: none; stroke: rgb(38, 50, 56); stroke-miterlimit: 10; transform-origin: 374.34px 256.39px;" id="elqxvd1kosjg" class="animable"></line><line x1="382.06" y1="259.01" x2="382.06" y2="253.77" style="fill: none; stroke: rgb(38, 50, 56); stroke-miterlimit: 10; transform-origin: 382.06px 256.39px;" id="el7mpoyyfbc56" class="animable"></line><line x1="389.79" y1="259.01" x2="389.79" y2="253.77" style="fill: none; stroke: rgb(38, 50, 56); stroke-miterlimit: 10; transform-origin: 389.79px 256.39px;" id="elyicqoj46es" class="animable"></line><line x1="397.51" y1="259.01" x2="397.51" y2="253.77" style="fill: none; stroke: rgb(38, 50, 56); stroke-miterlimit: 10; transform-origin: 397.51px 256.39px;" id="el1m0iyhqe1ks" class="animable"></line><line x1="405.24" y1="259.01" x2="405.24" y2="253.77" style="fill: none; stroke: rgb(38, 50, 56); stroke-miterlimit: 10; transform-origin: 405.24px 256.39px;" id="elxu405q9jgp" class="animable"></line><line x1="412.96" y1="259.01" x2="412.96" y2="253.77" style="fill: none; stroke: rgb(38, 50, 56); stroke-miterlimit: 10; transform-origin: 412.96px 256.39px;" id="elfcole21w71j" class="animable"></line><line x1="420.68" y1="259.01" x2="420.68" y2="253.77" style="fill: none; stroke: rgb(38, 50, 56); stroke-miterlimit: 10; transform-origin: 420.68px 256.39px;" id="elyr4ea82rccp" class="animable"></line><rect x="118.47" y="305.73" width="32.05" height="15.8" style="fill: rgb(255, 255, 255); stroke: rgb(38, 50, 56); stroke-miterlimit: 10; transform-origin: 134.495px 313.63px;" id="elfv4l7swmwz7" class="animable"></rect><rect x="102.22" y="305.73" width="32.05" height="15.8" style="fill: rgb(255, 255, 255); stroke: rgb(38, 50, 56); stroke-miterlimit: 10; transform-origin: 118.245px 313.63px;" id="el51eo3hc6mo4" class="animable"></rect><rect x="118.47" y="289.93" width="32.05" height="15.8" style="fill: rgb(255, 255, 255); stroke: rgb(38, 50, 56); stroke-miterlimit: 10; transform-origin: 134.495px 297.83px;" id="el6h6cqkyi8f2" class="animable"></rect><rect x="102.22" y="289.93" width="32.05" height="15.8" style="fill: #90CAF9; stroke: rgb(38, 50, 56); stroke-miterlimit: 10; transform-origin: 118.245px 297.83px;" id="elyp8ynpvmza" class="animable"></rect><rect x="118.47" y="274.12" width="32.05" height="15.8" style="fill: rgb(255, 255, 255); stroke: rgb(38, 50, 56); stroke-miterlimit: 10; transform-origin: 134.495px 282.02px;" id="elg37iz9ogq4" class="animable"></rect><rect x="102.22" y="274.12" width="32.05" height="15.8" style="fill: rgb(38, 50, 56); stroke: rgb(38, 50, 56); stroke-miterlimit: 10; transform-origin: 118.245px 282.02px;" id="elrmt6sk5b0h" class="animable"></rect><rect x="181.12" y="262.71" width="21.41" height="12.29" style="fill: rgb(255, 255, 255); stroke: rgb(38, 50, 56); stroke-miterlimit: 10; transform-origin: 191.825px 268.855px;" id="el4o2u0598dus" class="animable"></rect><rect x="170.26" y="262.71" width="21.41" height="12.29" style="fill: rgb(38, 50, 56); stroke: rgb(38, 50, 56); stroke-miterlimit: 10; transform-origin: 180.965px 268.855px;" id="elbit4a17m23k" class="animable"></rect><rect x="165.75" y="262.71" width="21.41" height="12.29" style="fill: rgb(255, 255, 255); stroke: rgb(38, 50, 56); stroke-miterlimit: 10; transform-origin: 176.455px 268.855px;" id="elubxhfp5yjcb" class="animable"></rect><rect x="154.9" y="262.71" width="21.41" height="12.29" style="fill: #90CAF9; stroke: rgb(38, 50, 56); stroke-miterlimit: 10; transform-origin: 165.605px 268.855px;" id="el0caxhk7hmri" class="animable"></rect><rect x="197.04" y="274.12" width="32.05" height="15.8" style="fill: rgb(255, 255, 255); stroke: rgb(38, 50, 56); stroke-miterlimit: 10; transform-origin: 213.065px 282.02px;" id="elqexzphqpjy" class="animable"></rect><rect x="180.8" y="274.12" width="32.05" height="15.8" style="fill: #90CAF9; stroke: rgb(38, 50, 56); stroke-miterlimit: 10; transform-origin: 196.825px 282.02px;" id="elrkgtm64atw" class="animable"></rect><rect x="157.1" y="305.73" width="32.05" height="15.8" style="fill: rgb(255, 255, 255); stroke: rgb(38, 50, 56); stroke-miterlimit: 10; transform-origin: 173.125px 313.63px;" id="elk2oijuzchg" class="animable"></rect><rect x="140.85" y="305.73" width="32.05" height="15.8" style="fill: #90CAF9; stroke: rgb(38, 50, 56); stroke-miterlimit: 10; transform-origin: 156.875px 313.63px;" id="el6oycadpdwgh" class="animable"></rect><rect x="157.1" y="289.93" width="32.05" height="15.8" style="fill: rgb(255, 255, 255); stroke: rgb(38, 50, 56); stroke-miterlimit: 10; transform-origin: 173.125px 297.83px;" id="ela5umk19jb28" class="animable"></rect><rect x="140.85" y="289.93" width="32.05" height="15.8" style="fill: rgb(38, 50, 56); stroke: rgb(38, 50, 56); stroke-miterlimit: 10; transform-origin: 156.875px 297.83px;" id="el73m13oeefhw" class="animable"></rect><rect x="197.04" y="305.73" width="32.05" height="15.8" style="fill: rgb(255, 255, 255); stroke: rgb(38, 50, 56); stroke-miterlimit: 10; transform-origin: 213.065px 313.63px;" id="elajo87t4pyur" class="animable"></rect><rect x="180.8" y="305.73" width="32.05" height="15.8" style="fill: #90CAF9; stroke: rgb(38, 50, 56); stroke-miterlimit: 10; transform-origin: 196.825px 313.63px;" id="elgc56psz1qck" class="animable"></rect><rect x="197.04" y="289.93" width="32.05" height="15.8" style="fill: rgb(255, 255, 255); stroke: rgb(38, 50, 56); stroke-miterlimit: 10; transform-origin: 213.065px 297.83px;" id="el03m8qj8e282h" class="animable"></rect><rect x="180.8" y="289.93" width="32.05" height="15.8" style="fill: #90CAF9; stroke: rgb(38, 50, 56); stroke-miterlimit: 10; transform-origin: 196.825px 297.83px;" id="elpuj3j9yp8c" class="animable"></rect><rect x="157.1" y="274.12" width="32.05" height="15.8" style="fill: rgb(255, 255, 255); stroke: rgb(38, 50, 56); stroke-miterlimit: 10; transform-origin: 173.125px 282.02px;" id="el0dvg0rjwa0us" class="animable"></rect><rect x="140.85" y="274.12" width="32.05" height="15.8" style="fill: rgb(38, 50, 56); stroke: rgb(38, 50, 56); stroke-miterlimit: 10; transform-origin: 156.875px 282.02px;" id="elm5s2ywrpp9" class="animable"></rect><rect x="237.87" y="305.73" width="32.05" height="15.8" style="fill: rgb(255, 255, 255); stroke: rgb(38, 50, 56); stroke-miterlimit: 10; transform-origin: 253.895px 313.63px;" id="el9pc6t3wu2mq" class="animable"></rect><rect x="221.62" y="305.73" width="32.04" height="15.8" style="fill: rgb(38, 50, 56); stroke: rgb(38, 50, 56); stroke-miterlimit: 10; transform-origin: 237.64px 313.63px;" id="elew97lkekgh9" class="animable"></rect><rect x="237.87" y="289.93" width="32.05" height="15.8" style="fill: rgb(255, 255, 255); stroke: rgb(38, 50, 56); stroke-miterlimit: 10; transform-origin: 253.895px 297.83px;" id="eljv8gelg8at" class="animable"></rect><rect x="221.62" y="289.93" width="32.04" height="15.8" style="fill: rgb(38, 50, 56); stroke: rgb(38, 50, 56); stroke-miterlimit: 10; transform-origin: 237.64px 297.83px;" id="elhe8aawbsm4b" class="animable"></rect><rect x="237.87" y="274.12" width="32.05" height="15.8" style="fill: rgb(255, 255, 255); stroke: rgb(38, 50, 56); stroke-miterlimit: 10; transform-origin: 253.895px 282.02px;" id="elcwjxl4apo7s" class="animable"></rect><rect x="221.62" y="274.12" width="32.04" height="15.8" style="fill: #90CAF9; stroke: rgb(38, 50, 56); stroke-miterlimit: 10; transform-origin: 237.64px 282.02px;" id="eluu9dp1lupda" class="animable"></rect><rect x="279.13" y="305.73" width="32.05" height="15.8" style="fill: rgb(255, 255, 255); stroke: rgb(38, 50, 56); stroke-miterlimit: 10; transform-origin: 295.155px 313.63px;" id="el759akwuz3a6" class="animable"></rect><rect x="262.89" y="305.73" width="32.05" height="15.8" style="fill: rgb(255, 255, 255); stroke: rgb(38, 50, 56); stroke-miterlimit: 10; transform-origin: 278.915px 313.63px;" id="elyf7k0eifoko" class="animable"></rect><rect x="279.13" y="289.93" width="32.05" height="15.8" style="fill: #90CAF9; stroke: rgb(38, 50, 56); stroke-miterlimit: 10; transform-origin: 295.155px 297.83px;" id="elzwdsf953t9" class="animable"></rect><rect x="262.89" y="289.93" width="32.05" height="15.8" style="fill: #90CAF9; stroke: rgb(38, 50, 56); stroke-miterlimit: 10; transform-origin: 278.915px 297.83px;" id="elritsabi1onm" class="animable"></rect><rect x="279.13" y="274.12" width="32.05" height="15.8" style="fill: #90CAF9; stroke: rgb(38, 50, 56); stroke-miterlimit: 10; transform-origin: 295.155px 282.02px;" id="el3o9bcuavjis" class="animable"></rect><rect x="262.89" y="274.12" width="32.05" height="15.8" style="fill: rgb(38, 50, 56); stroke: rgb(38, 50, 56); stroke-miterlimit: 10; transform-origin: 278.915px 282.02px;" id="el7fmy75il2wd" class="animable"></rect><polygon points="311.18 275 321.27 259.2 427.5 259.2 436.28 277.19 310.3 277.19 311.18 275" style="fill: #90CAF9; stroke: rgb(38, 50, 56); stroke-miterlimit: 10; transform-origin: 373.29px 268.195px;" id="el8vavqwdzlo" class="animable"></polygon><polygon points="109.03 320.32 105.41 320.32 105.77 307.48 108.67 307.48 109.03 320.32" style="fill: rgb(255, 255, 255); stroke: rgb(38, 50, 56); stroke-miterlimit: 10; transform-origin: 107.22px 313.9px;" id="el29mcq99brf3" class="animable"></polygon><polygon points="125.82 320.32 122.2 320.32 122.56 307.48 125.46 307.48 125.82 320.32" style="fill: rgb(255, 255, 255); stroke: rgb(38, 50, 56); stroke-miterlimit: 10; transform-origin: 124.01px 313.9px;" id="el5rbugqnd7zh" class="animable"></polygon><polygon points="142.61 320.32 138.99 320.32 139.35 307.48 142.25 307.48 142.61 320.32" style="fill: rgb(255, 255, 255); stroke: rgb(38, 50, 56); stroke-miterlimit: 10; transform-origin: 140.8px 313.9px;" id="el44ndiink38r" class="animable"></polygon><polygon points="159.4 320.32 155.78 320.32 156.14 307.48 159.04 307.48 159.4 320.32" style="fill: rgb(255, 255, 255); stroke: rgb(38, 50, 56); stroke-miterlimit: 10; transform-origin: 157.59px 313.9px;" id="elec6ulc83ix7" class="animable"></polygon><polygon points="176.19 320.32 172.57 320.32 172.93 307.48 175.83 307.48 176.19 320.32" style="fill: rgb(255, 255, 255); stroke: rgb(38, 50, 56); stroke-miterlimit: 10; transform-origin: 174.38px 313.9px;" id="elazg5hbrnqhw" class="animable"></polygon><polygon points="192.98 320.32 189.36 320.32 189.72 307.48 192.62 307.48 192.98 320.32" style="fill: rgb(255, 255, 255); stroke: rgb(38, 50, 56); stroke-miterlimit: 10; transform-origin: 191.17px 313.9px;" id="ella2ujoz5n8c" class="animable"></polygon><polygon points="209.77 320.32 206.15 320.32 206.51 307.48 209.41 307.48 209.77 320.32" style="fill: rgb(255, 255, 255); stroke: rgb(38, 50, 56); stroke-miterlimit: 10; transform-origin: 207.96px 313.9px;" id="elplsd39aw7p" class="animable"></polygon><polygon points="226.56 320.32 222.94 320.32 223.3 307.48 226.2 307.48 226.56 320.32" style="fill: rgb(255, 255, 255); stroke: rgb(38, 50, 56); stroke-miterlimit: 10; transform-origin: 224.75px 313.9px;" id="el0b3315ep5zau" class="animable"></polygon><polygon points="243.35 320.32 239.73 320.32 240.09 307.48 242.99 307.48 243.35 320.32" style="fill: rgb(255, 255, 255); stroke: rgb(38, 50, 56); stroke-miterlimit: 10; transform-origin: 241.54px 313.9px;" id="elztf98uddki" class="animable"></polygon><path d="M442,275H311.18L294,296.51H262.45L258.15,318H241.81l-.3-10.54h-2.9L238.32,318H225l-.3-10.54h-2.9l-.3,10.54H208.23l-.3-10.54H205l-.3,10.54h-13.3l-.29-10.54h-2.9l-.3,10.54h-13.3l-.29-10.54h-2.9l-.3,10.54h-13.3l-.29-10.54h-2.9l-.3,10.54h-13.3l-.29-10.54h-2.9l-.3,10.54h-13.3l-.3-10.54h-2.89l-.3,10.54h-13.3l-.3-10.54h-2.89L104,318H93V296.07H66.67v15.62a18,18,0,0,0,4,11.27l4.83,6H404.24l2.81-4c3.78-5.25,10.78-14.42,17.38-20.12C434.09,296.51,443.75,281.58,442,275Z" style="fill: rgb(38, 50, 56); stroke: rgb(38, 50, 56); stroke-miterlimit: 10; transform-origin: 254.438px 301.98px;" id="elxmmf0lwxez" class="animable"></path><path d="M424.43,304.85c9.66-8.34,19.32-23.27,17.56-29.85H420.06c-2.82,7.05-6.62,15.75-11.43,25-11.86,22.83-4.39,29-4.39,29l2.81-4C410.83,319.72,417.83,310.55,424.43,304.85Z" style="fill: rgb(255, 255, 255); stroke: rgb(38, 50, 56); stroke-miterlimit: 10; transform-origin: 422.059px 302px;" id="el6vqbcao4x18" class="animable"></path></g><g id="freepik--Sea--inject-3" class="animable" style="transform-origin: 243.49px 351.26px;"><line x1="425.12" y1="336.19" x2="434.91" y2="336.19" style="fill: none; stroke: rgb(38, 50, 56); stroke-miterlimit: 10; transform-origin: 430.015px 336.19px;" id="elgr3jwcdzlro" class="animable"></line><line x1="319.61" y1="336.19" x2="413.81" y2="336.19" style="fill: none; stroke: rgb(38, 50, 56); stroke-miterlimit: 10; transform-origin: 366.71px 336.19px;" id="elkjz0em4yz7h" class="animable"></line><line x1="287.2" y1="336.19" x2="310.56" y2="336.19" style="fill: none; stroke: rgb(38, 50, 56); stroke-miterlimit: 10; transform-origin: 298.88px 336.19px;" id="eltqa0p5iaf4f" class="animable"></line><line x1="205.05" y1="336.19" x2="276.65" y2="336.19" style="fill: none; stroke: rgb(38, 50, 56); stroke-miterlimit: 10; transform-origin: 240.85px 336.19px;" id="elq8cps8w9909" class="animable"></line><line x1="88.99" y1="336.19" x2="194.5" y2="336.19" style="fill: none; stroke: rgb(38, 50, 56); stroke-miterlimit: 10; transform-origin: 141.745px 336.19px;" id="ele59gtbtdsqc" class="animable"></line><line x1="56.59" y1="336.19" x2="77.69" y2="336.19" style="fill: none; stroke: rgb(38, 50, 56); stroke-miterlimit: 10; transform-origin: 67.14px 336.19px;" id="el177mj4yxmym" class="animable"></line><line x1="420.59" y1="355.03" x2="430.39" y2="355.03" style="fill: none; stroke: rgb(38, 50, 56); stroke-miterlimit: 10; transform-origin: 425.49px 355.03px;" id="el149my0drjoln" class="animable"></line><line x1="315.09" y1="355.03" x2="409.29" y2="355.03" style="fill: none; stroke: rgb(38, 50, 56); stroke-miterlimit: 10; transform-origin: 362.19px 355.03px;" id="elso4puk5aqfs" class="animable"></line><line x1="282.68" y1="355.03" x2="306.04" y2="355.03" style="fill: none; stroke: rgb(38, 50, 56); stroke-miterlimit: 10; transform-origin: 294.36px 355.03px;" id="elm1mdblew84" class="animable"></line><line x1="200.53" y1="355.03" x2="272.13" y2="355.03" style="fill: none; stroke: rgb(38, 50, 56); stroke-miterlimit: 10; transform-origin: 236.33px 355.03px;" id="elu8cdyqjooiq" class="animable"></line><line x1="84.47" y1="355.03" x2="189.98" y2="355.03" style="fill: none; stroke: rgb(38, 50, 56); stroke-miterlimit: 10; transform-origin: 137.225px 355.03px;" id="el6a9478cxrvy" class="animable"></line><line x1="52.07" y1="355.03" x2="73.17" y2="355.03" style="fill: none; stroke: rgb(38, 50, 56); stroke-miterlimit: 10; transform-origin: 62.62px 355.03px;" id="el3uf4b3k6026" class="animable"></line><line x1="115.85" y1="370.1" x2="108.59" y2="370.1" style="fill: none; stroke: rgb(38, 50, 56); stroke-miterlimit: 10; transform-origin: 112.22px 370.1px;" id="el2g8i7h0nlzc" class="animable"></line><line x1="194.04" y1="370.1" x2="124.23" y2="370.1" style="fill: none; stroke: rgb(38, 50, 56); stroke-miterlimit: 10; transform-origin: 159.135px 370.1px;" id="eliy0yg3tiysp" class="animable"></line><line x1="218.05" y1="370.1" x2="200.74" y2="370.1" style="fill: none; stroke: rgb(38, 50, 56); stroke-miterlimit: 10; transform-origin: 209.395px 370.1px;" id="eltjbkcaiimu" class="animable"></line><line x1="278.92" y1="370.1" x2="225.87" y2="370.1" style="fill: none; stroke: rgb(38, 50, 56); stroke-miterlimit: 10; transform-origin: 252.395px 370.1px;" id="elhx8el90ub7a" class="animable"></line><line x1="364.93" y1="370.1" x2="286.74" y2="370.1" style="fill: none; stroke: rgb(38, 50, 56); stroke-miterlimit: 10; transform-origin: 325.835px 370.1px;" id="elb6yfsgd8l3h" class="animable"></line><line x1="388.94" y1="370.1" x2="373.3" y2="370.1" style="fill: none; stroke: rgb(38, 50, 56); stroke-miterlimit: 10; transform-origin: 381.12px 370.1px;" id="eli9y8a7sagc" class="animable"></line><line x1="90.68" y1="345.23" x2="82.21" y2="345.23" style="fill: none; stroke: rgb(38, 50, 56); stroke-miterlimit: 10; transform-origin: 86.445px 345.23px;" id="elljgkdowag5" class="animable"></line><line x1="181.9" y1="345.23" x2="100.46" y2="345.23" style="fill: none; stroke: rgb(38, 50, 56); stroke-miterlimit: 10; transform-origin: 141.18px 345.23px;" id="elolpsti52rog" class="animable"></line><line x1="209.92" y1="345.23" x2="189.72" y2="345.23" style="fill: none; stroke: rgb(38, 50, 56); stroke-miterlimit: 10; transform-origin: 199.82px 345.23px;" id="el6ofjv5qfbmj" class="animable"></line><line x1="280.93" y1="345.23" x2="219.04" y2="345.23" style="fill: none; stroke: rgb(38, 50, 56); stroke-miterlimit: 10; transform-origin: 249.985px 345.23px;" id="el34sgdy9wo4n" class="animable"></line><line x1="381.27" y1="345.23" x2="290.06" y2="345.23" style="fill: none; stroke: rgb(38, 50, 56); stroke-miterlimit: 10; transform-origin: 335.665px 345.23px;" id="elhrrd7m089bj" class="animable"></line><line x1="409.29" y1="345.23" x2="391.05" y2="345.23" style="fill: none; stroke: rgb(38, 50, 56); stroke-miterlimit: 10; transform-origin: 400.17px 345.23px;" id="elgccsu65mq89" class="animable"></line><line x1="74.1" y1="340.71" x2="65.63" y2="340.71" style="fill: none; stroke: rgb(38, 50, 56); stroke-miterlimit: 10; transform-origin: 69.865px 340.71px;" id="elzxqv3ilxm" class="animable"></line><line x1="165.32" y1="340.71" x2="83.88" y2="340.71" style="fill: none; stroke: rgb(38, 50, 56); stroke-miterlimit: 10; transform-origin: 124.6px 340.71px;" id="el0xeyr6ejow7n" class="animable"></line><line x1="193.34" y1="340.71" x2="173.14" y2="340.71" style="fill: none; stroke: rgb(38, 50, 56); stroke-miterlimit: 10; transform-origin: 183.24px 340.71px;" id="el562lrdnxxk8" class="animable"></line><line x1="264.35" y1="340.71" x2="202.46" y2="340.71" style="fill: none; stroke: rgb(38, 50, 56); stroke-miterlimit: 10; transform-origin: 233.405px 340.71px;" id="elm27kgvdr8j8" class="animable"></line><line x1="364.69" y1="340.71" x2="273.48" y2="340.71" style="fill: none; stroke: rgb(38, 50, 56); stroke-miterlimit: 10; transform-origin: 319.085px 340.71px;" id="elvcebah9lee" class="animable"></line><line x1="392.71" y1="340.71" x2="374.47" y2="340.71" style="fill: none; stroke: rgb(38, 50, 56); stroke-miterlimit: 10; transform-origin: 383.59px 340.71px;" id="elyrkx0h04on" class="animable"></line><line x1="83.15" y1="332.42" x2="74.68" y2="332.42" style="fill: none; stroke: rgb(38, 50, 56); stroke-miterlimit: 10; transform-origin: 78.915px 332.42px;" id="eluzef05o15o" class="animable"></line><line x1="174.36" y1="332.42" x2="92.92" y2="332.42" style="fill: none; stroke: rgb(38, 50, 56); stroke-miterlimit: 10; transform-origin: 133.64px 332.42px;" id="el5suxwb7lujk" class="animable"></line><line x1="202.38" y1="332.42" x2="182.18" y2="332.42" style="fill: none; stroke: rgb(38, 50, 56); stroke-miterlimit: 10; transform-origin: 192.28px 332.42px;" id="elebo3vr84oq" class="animable"></line><line x1="273.4" y1="332.42" x2="211.5" y2="332.42" style="fill: none; stroke: rgb(38, 50, 56); stroke-miterlimit: 10; transform-origin: 242.45px 332.42px;" id="elakr9kik0zqd" class="animable"></line><line x1="373.74" y1="332.42" x2="282.52" y2="332.42" style="fill: none; stroke: rgb(38, 50, 56); stroke-miterlimit: 10; transform-origin: 328.13px 332.42px;" id="el3bi9by79f1n" class="animable"></line><line x1="401.75" y1="332.42" x2="383.51" y2="332.42" style="fill: none; stroke: rgb(38, 50, 56); stroke-miterlimit: 10; transform-origin: 392.63px 332.42px;" id="elkyw90daifz" class="animable"></line></g><defs>     <filter id="active" height="200%">         <feMorphology in="SourceAlpha" result="DILATED" operator="dilate" radius="2"></feMorphology>                <feFlood flood-color="#32DFEC" flood-opacity="1" result="PINK"></feFlood>        <feComposite in="PINK" in2="DILATED" operator="in" result="OUTLINE"></feComposite>        <feMerge>            <feMergeNode in="OUTLINE"></feMergeNode>            <feMergeNode in="SourceGraphic"></feMergeNode>        </feMerge>    </filter>    <filter id="hover" height="200%">        <feMorphology in="SourceAlpha" result="DILATED" operator="dilate" radius="2"></feMorphology>                <feFlood flood-color="#ff0000" flood-opacity="0.5" result="PINK"></feFlood>        <feComposite in="PINK" in2="DILATED" operator="in" result="OUTLINE"></feComposite>        <feMerge>            <feMergeNode in="OUTLINE"></feMergeNode>            <feMergeNode in="SourceGraphic"></feMergeNode>        </feMerge>            <feColorMatrix type="matrix" values="0   0   0   0   0                0   1   0   0   0                0   0   0   0   0                0   0   0   1   0 "></feColorMatrix>    </filter></defs></svg>