<svg width="24" height="27" viewBox="0 0 24 27" fill="none" xmlns="http://www.w3.org/2000/svg">
<g id="Account">
<path id="Vector" d="M15.646 13.7155C16.6264 12.9442 17.342 11.8864 17.6933 10.6894C18.0445 9.49246 18.014 8.21576 17.6058 7.03696C17.1977 5.85817 16.4323 4.83589 15.4161 4.11235C14.3999 3.38881 13.1835 3 11.936 3C10.6886 3 9.47215 3.38881 8.45596 4.11235C7.43978 4.83589 6.67438 5.85817 6.26624 7.03696C5.85811 8.21576 5.82754 9.49246 6.17879 10.6894C6.53004 11.8864 7.24564 12.9442 8.22603 13.7155C6.54611 14.3885 5.08032 15.5048 3.98492 16.9454C2.88953 18.386 2.20559 20.0968 2.00603 21.8955C1.99159 22.0268 2.00315 22.1597 2.04006 22.2866C2.07697 22.4134 2.1385 22.5317 2.22114 22.6348C2.38805 22.843 2.63082 22.9763 2.89603 23.0055C3.16125 23.0347 3.42719 22.9573 3.63536 22.7904C3.84352 22.6235 3.97686 22.3807 4.00603 22.1155C4.22562 20.1607 5.15772 18.3553 6.62425 17.0443C8.09078 15.7333 9.98893 15.0085 11.956 15.0085C13.9231 15.0085 15.8213 15.7333 17.2878 17.0443C18.7543 18.3553 19.6864 20.1607 19.906 22.1155C19.9332 22.3612 20.0505 22.5882 20.2351 22.7525C20.4198 22.9169 20.6588 23.007 20.906 23.0055H21.016C21.2782 22.9753 21.5178 22.8428 21.6826 22.6367C21.8474 22.4307 21.9241 22.1679 21.896 21.9055C21.6955 20.1017 21.0079 18.3865 19.9069 16.9437C18.8059 15.5009 17.3329 14.385 15.646 13.7155ZM11.936 13.0055C11.1449 13.0055 10.3715 12.7709 9.71375 12.3314C9.05595 11.8918 8.54326 11.2671 8.24051 10.5362C7.93776 9.80533 7.85855 9.00106 8.01289 8.22513C8.16723 7.44921 8.54819 6.73648 9.1076 6.17707C9.66701 5.61766 10.3797 5.2367 11.1557 5.08235C11.9316 4.92801 12.7359 5.00723 13.4668 5.30998C14.1977 5.61273 14.8224 6.12542 15.2619 6.78321C15.7014 7.44101 15.936 8.21437 15.936 9.0055C15.936 10.0664 15.5146 11.0838 14.7645 11.8339C14.0143 12.5841 12.9969 13.0055 11.936 13.0055Z" fill="#F16E17"/>
</g>
</svg>
