<svg width="129" height="85" viewBox="0 0 129 85" fill="none" xmlns="http://www.w3.org/2000/svg">
<g id="Frame 87">
<g clip-path="url(#clip0_25_3330)">
<rect width="129" height="85" rx="7" fill="white"/>
<g id="Group">
<path id="Vector" d="M121.656 0H7.34443C3.28821 0 0 3.36402 0 7.51375V77.4862C0 81.636 3.28821 85 7.34443 85H121.656C125.712 85 129 81.636 129 77.4862V7.51375C129 3.36402 125.712 0 121.656 0Z" fill="white"/>
<path id="Vector_2" fill-rule="evenodd" clip-rule="evenodd" d="M54.136 26.5827L49.0281 58.7129H57.2031L62.315 26.5827H54.136ZM42.149 26.5827L34.3535 48.6814L33.4312 43.9213L33.2271 42.8587C31.539 39.2003 29.0588 35.9831 25.9745 33.4513C24.7542 32.4534 23.5257 31.6016 22.3359 30.875L29.4212 58.7129H37.939L50.9484 26.5827H42.149ZM74.0572 35.5036C74.0572 31.8709 82.0199 32.3365 85.5197 34.3094L86.687 27.4095C86.687 27.4095 83.0852 26.0085 79.3323 26.0085C75.2755 26.0085 65.6393 27.8249 65.6393 36.6435C65.6393 44.9464 76.9488 45.0487 76.9488 49.4079C76.9488 53.765 66.8066 52.9863 63.4599 50.2367L62.2416 57.4498C62.2416 57.4498 65.8924 59.2662 71.4716 59.2662C77.0508 59.2662 85.4707 56.3079 85.4707 48.2659C85.4707 39.9129 74.0572 39.1341 74.0572 35.5036ZM107.422 26.5827H100.849C97.8128 26.5827 97.0741 28.9773 97.0741 28.9773L84.881 58.7129H93.4029L95.1069 53.9403H105.502L106.461 58.7129H113.969L107.422 26.5827ZM97.4638 47.3473L101.759 35.3219L104.178 47.3473H97.4638Z" fill="black"/>
<path id="Vector_3" fill-rule="evenodd" clip-rule="evenodd" d="M30.7931 29.6075C30.7931 29.6075 30.4543 26.7056 26.8423 26.7056H13.7146L13.5615 27.2525C13.5615 27.2525 19.8713 28.5678 25.924 33.499C31.7094 38.2111 33.597 44.0839 33.597 44.0839L30.7931 29.6075Z" fill="black"/>
</g>
</g>
</g>
<defs>
<clipPath id="clip0_25_3330">
<rect width="129" height="85" rx="7" fill="white"/>
</clipPath>
</defs>
</svg>
