<svg width="132" height="134" viewBox="0 0 132 134" fill="none" xmlns="http://www.w3.org/2000/svg">
<g id="insurance" clip-path="url(#clip0_337_7473)">
<path id="Vector" d="M58.1087 113.425L57.2528 113.322L58.0322 106.653C58.2643 104.674 58.0654 102.667 57.4491 100.774C56.8329 98.8802 55.8144 97.146 54.4651 95.6928L31.4434 70.8498L34.5578 54.9986C34.7292 54.1259 34.7251 53.2273 34.5459 52.3563C34.3667 51.4853 34.016 50.6596 33.5147 49.9285C33.0134 49.1973 32.3718 48.5756 31.6279 48.1004C30.8841 47.6252 30.0533 47.3062 29.185 47.1624C28.8323 47.1043 28.4757 47.0749 28.1184 47.0745C26.7212 47.0706 25.3596 47.5199 24.2336 48.3563C23.1075 49.1927 22.2764 50.3722 21.8623 51.7215L15.5877 71.9517C14.4513 75.6301 14.5356 79.5833 15.828 83.2086L20.4222 96.0429C21.5246 99.1211 23.4541 101.827 25.994 103.858L28.8578 106.147C29.4638 106.634 29.9677 107.238 30.3402 107.925C30.7127 108.611 30.9463 109.365 31.0273 110.144C29.5691 110.008 28.116 110.453 26.9765 111.383C25.8369 112.312 25.1005 113.655 24.9236 115.125L24.5188 118.536L24.5183 118.538V118.54L23.4994 127.126C23.441 127.639 23.586 128.155 23.9028 128.561C24.2196 128.967 24.6824 129.229 25.19 129.291C25.6976 129.352 26.2086 129.208 26.6113 128.89C27.0141 128.571 27.2757 128.105 27.339 127.592L28.1243 120.973L58.5246 124.882L57.7651 131.283C57.7316 131.539 57.7487 131.8 57.8156 132.049C57.8824 132.299 57.9976 132.533 58.1545 132.737C58.3113 132.942 58.5068 133.113 58.7294 133.24C58.952 133.367 59.1975 133.449 59.4515 133.48C59.7055 133.511 59.9631 133.49 60.2092 133.42C60.4554 133.349 60.6852 133.23 60.8855 133.069C61.0857 132.908 61.2524 132.708 61.3758 132.482C61.4992 132.255 61.5769 132.006 61.6044 131.749L62.5903 123.44L62.5913 123.434L62.5918 123.426L63.0286 119.748C63.1161 119.006 63.0584 118.254 62.8585 117.535C62.6587 116.816 62.3207 116.143 61.8639 115.556C61.407 114.969 60.8403 114.479 60.196 114.113C59.5518 113.748 58.8423 113.514 58.1087 113.425ZM28.3927 100.791C26.417 99.2113 24.9159 97.1061 24.0581 94.7116L19.4639 81.877C18.4589 79.0578 18.3932 75.9837 19.277 73.1232L25.5521 52.8922C25.7219 52.3386 26.0628 51.8546 26.5247 51.5113C26.9866 51.1679 27.5451 50.9834 28.1184 50.9848C28.2669 50.9851 28.4152 50.9973 28.5618 51.0213C28.918 51.0806 29.2588 51.2117 29.5639 51.4068C29.8689 51.602 30.132 51.8572 30.3375 52.1573C30.543 52.4574 30.6868 52.7962 30.7601 53.1536C30.8335 53.511 30.835 53.8796 30.7646 54.2376L27.6203 70.2408C25.8995 71.4396 24.6759 73.2376 24.1835 75.2911C23.6912 77.3446 23.9646 79.5096 24.9514 81.3721L30.43 91.7343C30.6718 92.1916 31.0833 92.5331 31.5741 92.6836C31.8171 92.7581 32.0723 92.7835 32.325 92.7583C32.5777 92.7331 32.8231 92.6578 33.047 92.5367C33.271 92.4156 33.4691 92.2512 33.6302 92.0527C33.7913 91.8541 33.9121 91.6255 33.9858 91.3798C34.0595 91.1341 34.0846 90.8761 34.0597 90.6205C34.0347 90.365 33.9603 90.1169 33.8406 89.8905L28.3615 79.5272C27.9995 78.8498 27.8105 78.0918 27.8116 77.3218C27.8101 76.1033 28.2774 74.9319 29.1146 74.0554L51.643 98.3664C52.6068 99.4044 53.3344 100.643 53.7746 101.996C54.2149 103.348 54.3572 104.781 54.1915 106.195L53.4132 112.856L34.9239 110.613C34.9014 109.161 34.5608 107.732 33.9265 106.429C33.2923 105.127 32.3802 103.982 31.256 103.079L28.3927 100.791ZM59.189 119.282L58.9853 120.999L28.585 117.09L28.7629 115.59C28.8204 115.123 29.0588 114.697 29.426 114.407C29.7932 114.116 30.2592 113.985 30.7221 114.041L32.6923 114.28H32.6936L57.648 117.308C58.1112 117.363 58.5338 117.602 58.8227 117.972C59.1117 118.342 59.2434 118.813 59.189 119.282ZM85.7808 58.1677C91.1394 50.4858 93.9715 41.7125 93.9715 32.7952V12.2365C93.9715 11.7695 93.8062 11.3179 93.5054 10.9634C93.2046 10.6089 92.7883 10.3751 92.3318 10.3041C87.4049 9.54226 82.5871 8.18154 77.983 6.25146C74.2237 4.67721 70.6424 2.69935 67.3008 0.351888C66.9666 0.115936 66.5672 -0.00716166 66.1597 0.000188975C65.7522 0.00753961 65.3574 0.144962 65.0318 0.392816C62.5814 2.25141 59.9655 3.87586 57.218 5.24521C51.7118 7.96578 45.7963 9.74112 39.7138 10.4985C39.2474 10.5591 38.8187 10.7894 38.5081 11.1464C38.1975 11.5034 38.0261 11.9626 38.0261 12.438V32.7955C38.0261 41.7125 40.8582 50.4858 46.2169 58.1677C50.8595 64.823 57.3763 70.6154 65.0622 74.9188C65.3489 75.0793 65.6711 75.1635 65.9988 75.1635C66.3265 75.1635 66.6488 75.0793 66.9355 74.9188C74.6214 70.6154 81.1381 64.823 85.7808 58.1677ZM65.9988 70.9619C59.2281 67.0049 53.4967 61.8196 49.3769 55.9136C44.481 48.8951 41.8933 40.9007 41.8933 32.7955V14.1356C47.8109 13.2294 53.5565 11.4135 58.9311 8.75091C61.4771 7.48068 63.9193 6.00814 66.2347 4.34715C69.4745 6.51108 72.9111 8.35762 76.4977 9.86169C80.8759 11.6985 85.4381 13.0499 90.1043 13.8924V32.7955C90.1043 40.9007 87.5166 48.8954 82.6208 55.9136C78.5009 61.8196 72.7695 67.0049 65.9988 70.9619ZM86.2371 18.6301C86.2371 18.194 86.0929 17.7704 85.8275 17.4267C85.5621 17.083 85.1906 16.8388 84.7722 16.7331C81.4432 15.8926 78.1807 14.8024 75.0119 13.4717C72.3624 12.3579 69.7876 11.0704 67.3041 9.61716C67.0022 9.44025 66.6586 9.34922 66.3096 9.35371C65.9607 9.35821 65.6194 9.45807 65.3221 9.64271C63.8031 10.5858 62.2422 11.458 60.6443 12.2566C56.3804 14.3767 51.8885 15.9913 47.2579 17.0683C46.8322 17.168 46.4524 17.4105 46.1805 17.7564C45.9086 18.1023 45.7606 18.5311 45.7605 18.9729V32.7955C45.7605 40.0894 48.1038 47.3042 52.5371 53.6597C55.7281 58.2342 59.8954 62.2787 64.9232 65.6812C65.2415 65.8966 65.6158 66.0116 65.9988 66.0116C66.3818 66.0116 66.7562 65.8966 67.0744 65.6812C72.1023 62.2787 76.2696 58.2342 79.4605 53.6597C83.8939 47.3042 86.2371 40.0894 86.2371 32.7955V18.6301ZM82.3699 32.7955C82.3699 39.2782 80.2713 45.7132 76.3002 51.4058C73.461 55.3914 69.9785 58.8653 65.9988 61.682C62.0191 58.8652 58.5366 55.391 55.6974 51.4053C51.7266 45.7129 49.6277 39.2779 49.6277 32.795V20.5091C54.0226 19.3783 58.2889 17.7873 62.3575 15.762C63.7183 15.0821 65.054 14.352 66.3621 13.5733C68.6824 14.8794 71.0743 16.0509 73.5262 17.0821C76.4063 18.2919 79.3603 19.3135 82.3699 20.1405V32.7955ZM116.41 71.953L110.135 51.7207C109.633 50.101 108.535 48.7376 107.069 47.9114C105.602 47.0851 103.878 46.8587 102.251 47.2788C100.625 47.6989 99.2192 48.7336 98.3242 50.1698C97.4291 51.606 97.1126 53.3346 97.4398 54.9996L100.554 70.8498L77.5326 95.6928C76.1832 97.1461 75.1646 98.8804 74.5484 100.774C73.9322 102.668 73.7332 104.675 73.9655 106.654L74.7449 113.322L73.8889 113.425C73.1553 113.514 72.4462 113.748 71.8019 114.113C71.1577 114.479 70.591 114.969 70.1341 115.556C69.6773 116.143 69.3393 116.816 69.1395 117.535C68.9396 118.254 68.8818 119.006 68.9693 119.748L69.4058 123.426L69.4063 123.434L69.4074 123.44L70.3932 131.749C70.4229 132.004 70.5021 132.251 70.6263 132.476C70.7505 132.7 70.9173 132.898 71.1171 133.057C71.3169 133.216 71.5458 133.334 71.7907 133.403C72.0355 133.473 72.2916 133.493 72.5441 133.462C72.7967 133.431 73.0408 133.351 73.2624 133.224C73.484 133.098 73.6789 132.929 73.8357 132.727C73.9926 132.524 74.1084 132.292 74.1766 132.045C74.2447 131.797 74.2638 131.538 74.2328 131.283L73.4733 124.882L103.873 120.973L104.659 127.592C104.722 128.105 104.984 128.571 105.386 128.89C105.789 129.208 106.3 129.352 106.808 129.291C107.315 129.229 107.778 128.967 108.095 128.561C108.412 128.155 108.557 127.639 108.498 127.126L107.479 118.54V118.538L107.479 118.536L107.074 115.125C106.897 113.655 106.16 112.313 105.021 111.383C103.881 110.454 102.428 110.009 100.97 110.144C101.051 109.365 101.285 108.611 101.657 107.925C102.03 107.238 102.533 106.634 103.139 106.147L106.004 103.857C108.544 101.827 110.473 99.1205 111.576 96.0424L116.169 83.2094C117.462 79.5843 117.547 75.6313 116.41 71.953ZM101.276 114.041C101.738 113.985 102.204 114.117 102.571 114.407C102.939 114.697 103.177 115.123 103.235 115.59L103.413 117.09L73.0126 120.999L72.8089 119.282C72.7545 118.813 72.8862 118.342 73.1751 117.972C73.464 117.602 73.8865 117.363 74.3496 117.308L99.3041 114.28H99.3054L101.276 114.041ZM112.533 81.8778L107.939 94.7108C107.082 97.1052 105.581 99.2105 103.606 100.79L100.741 103.079C99.6173 103.983 98.7053 105.127 98.0711 106.43C97.4369 107.732 97.0962 109.161 97.0737 110.613L78.5845 112.856L77.8059 106.196C77.6402 104.782 77.7825 103.348 78.2228 101.996C78.6631 100.643 79.3907 99.4045 80.3546 98.3664L102.883 74.0552C103.72 74.9317 104.188 76.1032 104.186 77.3218C104.187 78.0922 103.998 78.8506 103.636 79.5283L98.1571 89.8905C98.0374 90.1169 97.9629 90.365 97.938 90.6205C97.9131 90.8761 97.9382 91.134 98.0119 91.3798C98.0856 91.6255 98.2065 91.8541 98.3676 92.0526C98.5286 92.2511 98.7268 92.4155 98.9508 92.5366C99.1747 92.6576 99.42 92.7329 99.6727 92.7581C99.9254 92.7833 100.181 92.7579 100.424 92.6833C100.667 92.6088 100.893 92.4866 101.089 92.3238C101.285 92.1609 101.448 91.9605 101.568 91.7341L107.046 81.3729C108.033 79.5103 108.306 77.3452 107.814 75.2915C107.322 73.2379 106.098 71.4397 104.377 70.2408L101.233 54.2387C101.163 53.8811 101.164 53.5129 101.237 53.1559C101.31 52.7989 101.453 52.4604 101.658 52.1604C101.863 51.8605 102.126 51.6052 102.43 51.4097C102.734 51.2143 103.074 51.0826 103.43 51.0226C103.578 50.9979 103.729 50.9852 103.879 50.9848C104.452 50.9833 105.011 51.1678 105.473 51.511C105.935 51.8542 106.276 52.3381 106.445 52.8917L112.721 73.1248C113.605 75.9851 113.539 79.059 112.533 81.8778Z" fill="#334CAB"/>
</g>
<defs>
<clipPath id="clip0_337_7473">
<rect width="132" height="133.471" fill="white"/>
</clipPath>
</defs>
</svg>
