<svg width="133" height="134" viewBox="0 0 133 134" fill="none" xmlns="http://www.w3.org/2000/svg">
<g id="deals" clip-path="url(#clip0_337_7480)">
<path id="Vector" d="M132.082 47.578C131.719 47.2115 131.227 47.0056 130.714 47.0056C130.201 47.0056 129.71 47.2115 129.347 47.578L118.168 58.8809L88.2224 27.9628L99.085 16.9791C99.2652 16.7977 99.4082 16.5821 99.5059 16.3447C99.6035 16.1073 99.654 15.8528 99.6542 15.5957C99.6545 15.3386 99.6046 15.084 99.5074 14.8464C99.4102 14.6088 99.2676 14.3929 99.0878 14.2111C98.908 14.0293 98.6945 13.8852 98.4596 13.7869C98.2246 13.6886 97.9728 13.6382 97.7185 13.6384C97.4642 13.6387 97.2125 13.6897 96.9777 13.7884C96.743 13.8872 96.5298 14.0318 96.3503 14.2139L81.584 29.1448C80.6146 30.1247 79.8629 31.3024 79.379 32.5992C78.8952 33.896 78.6902 35.2822 78.7778 36.6654H76.1893C74.2607 36.6662 72.3539 37.0779 70.5931 37.8737C68.8323 38.6694 67.2572 39.8314 65.9703 41.2839L65.5946 41.7085C62.0382 39.907 58.1411 38.8974 54.1662 38.7479C54.6407 37.0713 54.6634 35.2969 54.2318 33.6084C53.8002 31.92 52.9301 30.3789 51.7115 29.1448L36.9452 14.2139C36.5825 13.8476 36.0907 13.6419 35.5781 13.6421C35.0654 13.6422 34.5738 13.8482 34.2113 14.2148C33.8488 14.5813 33.6451 15.0784 33.6449 15.5968C33.6447 16.1151 33.8482 16.6124 34.2105 16.9791L45.2344 28.1259L15.2885 59.0442L3.94871 47.578C3.58599 47.2117 3.09425 47.006 2.58159 47.0062C2.06894 47.0063 1.57732 47.2123 1.21482 47.5789C0.852315 47.9454 0.648593 48.4425 0.648438 48.9609C0.648282 49.4793 0.851704 49.9765 1.21399 50.3432L13.5971 62.8643C13.7605 63.1482 13.994 63.3844 14.2749 63.5496L15.9803 65.2741C17.2012 66.5055 18.7253 67.3848 20.3949 67.8212C22.0645 68.2575 23.819 68.2351 25.4772 67.7562C25.5258 69.086 25.668 70.4107 25.9027 71.7201C25.0023 72.1383 24.1829 72.7154 23.4828 73.4243L19.2379 77.7164C18.0662 78.9013 17.2682 80.4109 16.9449 82.0544C16.6216 83.6979 16.7875 85.4014 17.4217 86.9495C18.0559 88.4976 19.1299 89.8208 20.5078 90.7517C21.8857 91.6827 23.5057 92.1796 25.1629 92.1796C25.4237 92.1796 25.6824 92.1664 25.9391 92.1427C25.8306 93.3159 25.9656 94.4992 26.3354 95.6167C26.7052 96.7342 27.3017 97.7613 28.0866 98.6323C28.8715 99.5033 29.8276 100.199 30.8938 100.675C31.9599 101.151 33.1125 101.397 34.2779 101.396C34.5388 101.396 34.7975 101.383 35.0541 101.359C34.9458 102.533 35.0808 103.716 35.4506 104.833C35.8204 105.951 36.4169 106.978 37.2018 107.849C37.9867 108.72 38.9428 109.416 40.0089 109.892C41.075 110.368 42.2276 110.613 43.393 110.613C43.6539 110.613 43.9126 110.6 44.1692 110.576C44.0112 112.31 44.3856 114.051 45.2413 115.563C46.097 117.074 47.3925 118.282 48.9515 119.022C50.5104 119.762 52.2571 119.998 53.9537 119.699C55.6503 119.399 57.2143 118.578 58.433 117.348L61.2249 114.525L64.017 117.348C65.1889 118.533 66.6819 119.339 68.3071 119.666C69.9323 119.993 71.6168 119.825 73.1477 119.184C74.6786 118.543 75.9872 117.457 76.908 116.064C77.8287 114.671 78.3204 113.033 78.3208 111.358C78.3208 111.095 78.3079 110.835 78.2846 110.576C78.5399 110.6 78.7973 110.613 79.0567 110.613C81.2789 110.613 83.4101 109.72 84.9814 108.131C86.5527 106.542 87.4355 104.387 87.4356 102.14C87.4356 101.878 87.4227 101.618 87.3995 101.359C87.6548 101.383 87.9121 101.396 88.1716 101.396C90.3938 101.396 92.525 100.503 94.0964 98.9145C95.6678 97.3256 96.5506 95.1707 96.5507 92.9237C96.5507 92.6614 96.5378 92.4011 96.5146 92.1431C96.7698 92.1665 97.0272 92.1796 97.2867 92.1796C98.9439 92.1796 100.564 91.6828 101.942 90.7518C103.32 89.8209 104.394 88.4977 105.028 86.9495C105.662 85.4014 105.828 83.6979 105.505 82.0544C105.181 80.4109 104.383 78.9013 103.212 77.7164L100.868 75.3467C103.594 73.25 105.921 70.6706 107.736 67.7339C109.404 68.2303 111.174 68.2639 112.859 67.8311C114.544 67.3983 116.084 66.5151 117.315 65.2741L132.082 50.3432C132.444 49.9765 132.648 49.4792 132.648 48.9606C132.648 48.4421 132.444 47.9448 132.082 47.578ZM18.715 62.5089L18.0233 61.8094L47.9692 30.8911L48.9768 31.91C50.0631 33.0107 50.6732 34.5023 50.6732 36.0574C50.6732 37.6124 50.0631 39.104 48.9768 40.2048L26.9184 62.5089C25.8298 63.6073 24.3547 64.2242 22.8167 64.2242C21.2788 64.2242 19.8037 63.6073 18.715 62.5089ZM25.1629 88.2693C24.2706 88.2692 23.3984 88.0016 22.6565 87.5003C21.9146 86.999 21.3364 86.2866 20.9949 85.453C20.6535 84.6195 20.5641 83.7023 20.7382 82.8174C20.9122 81.9325 21.3418 81.1197 21.9727 80.4816L26.2175 76.1895C26.6363 75.7651 27.1337 75.4284 27.6813 75.1985C28.2288 74.9686 28.8158 74.8501 29.4087 74.8498C30.0016 74.8494 30.5888 74.9673 31.1366 75.1965C31.6844 75.4258 32.1822 75.762 32.6014 76.1859C33.0207 76.6098 33.3532 77.1131 33.5799 77.667C33.8067 78.2209 33.9232 78.8146 33.9229 79.4141C33.9226 80.0136 33.8055 80.6071 33.5781 81.1608C33.3508 81.7145 33.0178 82.2175 32.5981 82.6409L28.353 86.9331C27.9351 87.358 27.4379 87.6949 26.8903 87.9243C26.3427 88.1537 25.7556 88.2709 25.1629 88.2693ZM34.2779 97.486C33.3856 97.4858 32.5134 97.2182 31.7715 96.7169C31.0296 96.2156 30.4514 95.5031 30.1099 94.6696C29.7684 93.836 29.679 92.9188 29.8531 92.0339C30.0271 91.149 30.4567 90.3361 31.0875 89.698L35.3326 85.4061C36.1792 84.5531 37.326 84.0746 38.5211 84.0756C39.7163 84.0767 40.8623 84.5572 41.7074 85.4117C42.5525 86.2663 43.0278 87.4249 43.0289 88.6334C43.03 89.8419 42.5568 91.0015 41.7132 91.8575L37.4681 96.1497C37.0502 96.5747 36.553 96.9116 36.0054 97.1409C35.4578 97.3703 34.8707 97.4876 34.2779 97.486ZM43.393 106.703C42.8003 106.704 42.2132 106.587 41.6656 106.358C41.118 106.128 40.6208 105.791 40.2028 105.366C39.358 104.51 38.8835 103.35 38.8835 102.14C38.8834 100.931 39.3578 99.7709 40.2026 98.9146L44.4477 94.6225C44.8665 94.1981 45.3639 93.8613 45.9115 93.6313C46.4591 93.4014 47.0461 93.2829 47.6391 93.2825C48.232 93.2822 48.8192 93.4 49.367 93.6293C49.9149 93.8586 50.4127 94.1948 50.8319 94.6188C51.2512 95.0428 51.5837 95.5461 51.8104 96.1001C52.0371 96.6541 52.1536 97.2478 52.1532 97.8474C52.1528 98.4469 52.0356 99.0405 51.8082 99.5942C51.5807 100.148 51.2476 100.651 50.8278 101.074L46.5832 105.366C46.1652 105.791 45.6681 106.128 45.1205 106.358C44.5729 106.587 43.9857 106.704 43.393 106.703ZM59.9429 110.291L55.6985 114.583C54.852 115.436 53.7051 115.915 52.5097 115.914C51.3142 115.914 50.1679 115.433 49.3226 114.578C48.4773 113.724 48.002 112.565 48.0011 111.356C48.0002 110.147 48.4738 108.987 49.3179 108.131L53.5625 103.839C53.9812 103.414 54.4786 103.077 55.0263 102.847C55.574 102.617 56.1613 102.498 56.7545 102.497C57.3476 102.497 57.9351 102.614 58.4833 102.844C59.0314 103.073 59.5295 103.409 59.9489 103.833C60.3684 104.257 60.701 104.761 60.9277 105.315C61.1545 105.869 61.2709 106.464 61.2703 107.063C61.2698 107.663 61.1522 108.257 60.9244 108.811C60.6967 109.365 60.3631 109.868 59.9429 110.291ZM101.799 83.7073C101.799 84.6096 101.534 85.4917 101.038 86.2419C100.542 86.9922 99.8378 87.5769 99.0134 87.9221C98.1889 88.2674 97.2817 88.3577 96.4065 88.1816C95.5313 88.0055 94.7274 87.5709 94.0965 86.9328L80.2416 72.9238C80.062 72.742 79.8489 72.5978 79.6142 72.4994C79.3795 72.401 79.128 72.3503 78.874 72.3503C78.6199 72.3502 78.3684 72.4007 78.1336 72.499C77.8989 72.5972 77.6856 72.7413 77.506 72.9229C77.3264 73.1046 77.1839 73.3202 77.0867 73.5576C76.9895 73.7949 76.9396 74.0493 76.9396 74.3061C76.9397 74.563 76.9898 74.8173 77.0872 75.0546C77.1845 75.2919 77.3271 75.5074 77.5068 75.689L91.3617 89.698C91.782 90.1213 92.1155 90.6243 92.3433 91.1781C92.5711 91.7319 92.6886 92.3257 92.6892 92.9255C92.6898 93.5253 92.5733 94.1193 92.3466 94.6736C92.1199 95.2278 91.7872 95.7314 91.3678 96.1555C90.9483 96.5797 90.4503 96.916 89.9022 97.1452C89.354 97.3745 88.7665 97.4922 88.1733 97.4917C87.5802 97.4911 86.9929 97.3723 86.4452 97.1419C85.8975 96.9116 85.4001 96.5743 84.9814 96.1494L71.1268 82.1402C70.7641 81.7735 70.2723 81.5675 69.7594 81.5675C69.2465 81.5675 68.7547 81.7735 68.392 82.1402C68.0294 82.5068 67.8257 83.0042 67.8257 83.5227C67.8257 84.0413 68.0294 84.5387 68.392 84.9053L82.2467 98.9146C82.6664 99.338 82.9994 99.841 83.2267 100.395C83.4541 100.948 83.5712 101.542 83.5716 102.141C83.5719 102.741 83.4554 103.334 83.2287 103.888C83.0019 104.442 82.6695 104.946 82.2502 105.369C81.831 105.793 81.3333 106.13 80.7855 106.359C80.2377 106.588 79.6506 106.706 79.0577 106.706C78.4649 106.705 77.8779 106.587 77.3303 106.357C76.7827 106.127 76.2854 105.79 75.8666 105.366L62.0117 91.3568C61.8322 91.1748 61.6191 91.0304 61.3844 90.9318C61.1497 90.8332 60.8981 90.7823 60.644 90.7821C60.3899 90.7819 60.1382 90.8323 59.9033 90.9305C59.6685 91.0287 59.4551 91.1727 59.2753 91.3544C59.0956 91.536 58.953 91.7517 58.8557 91.9891C58.7585 92.2265 58.7084 92.481 58.7085 92.7379C58.7085 92.9949 58.7587 93.2493 58.8561 93.4867C58.9534 93.724 59.0961 93.9397 59.2759 94.1212L73.1308 108.131C73.5498 108.554 73.8822 109.057 74.1091 109.61C74.3359 110.164 74.4527 110.757 74.4528 111.356C74.4529 111.955 74.3363 112.548 74.1097 113.102C73.8831 113.655 73.5508 114.158 73.132 114.582C72.7131 115.006 72.2158 115.342 71.6685 115.571C71.1212 115.8 70.5345 115.918 69.9421 115.919C69.3496 115.919 68.7629 115.801 68.2155 115.572C67.6681 115.342 67.1707 115.007 66.7517 114.583L63.8196 111.618C64.6266 110.337 65.0782 108.861 65.1274 107.343C65.1765 105.825 64.8213 104.322 64.099 102.99C63.3766 101.659 62.3136 100.548 61.0212 99.7747C59.7289 99.001 58.2546 98.5927 56.7527 98.5926C56.4932 98.5926 56.2359 98.6057 55.9806 98.6292C56.0038 98.3711 56.0168 98.1108 56.0168 97.8485C56.0166 95.6015 55.1338 93.4467 53.5625 91.8578C51.9912 90.2689 49.8601 89.3762 47.6379 89.376C47.377 89.376 47.1182 89.3892 46.8617 89.4129C46.9765 88.1737 46.8196 86.9242 46.4021 85.7534C45.9846 84.5827 45.3167 83.5194 44.4461 82.6396C43.5756 81.7598 42.5237 81.085 41.3656 80.6634C40.2075 80.2418 38.9717 80.0838 37.7463 80.2006C37.8537 79.0516 37.7273 77.8925 37.3749 76.7947C37.0226 75.697 36.4517 74.6838 35.6974 73.8175C34.9432 72.9513 34.0215 72.2504 32.9892 71.7579C31.957 71.2654 30.8359 70.9919 29.6951 70.954C29.3823 69.1749 29.268 67.3659 29.3546 65.561C29.4553 65.4674 29.5555 65.3729 29.6532 65.2741L51.7115 42.97C51.8092 42.8711 51.9029 42.7698 51.9956 42.6678C52.3737 42.6498 52.7566 42.6375 53.1461 42.6375C56.51 42.6392 59.8359 43.3577 62.9068 44.746L50.679 58.5655C49.6556 59.7229 49.1091 61.2323 49.1516 62.7842C49.1941 64.3361 49.8224 65.8127 50.9076 66.911C52.9669 68.9884 55.7571 70.155 58.6661 70.155C61.575 70.1549 64.3652 68.9882 66.4244 66.9107L76.7387 56.4793L82.6261 62.4317C87.2534 67.1101 91.8801 71.7886 96.5064 76.4675L96.5118 76.4724L100.477 80.4816C100.897 80.9042 101.231 81.4069 101.457 81.9606C101.684 82.5143 101.8 83.108 101.799 83.7073ZM102.421 68.4878C101.149 70.0127 99.7004 71.3783 98.1072 72.5557C93.8585 68.2582 89.6096 63.9618 85.3603 59.6665L78.1058 52.3315C77.7431 51.9648 77.2512 51.7589 76.7384 51.7589C76.2255 51.759 75.7337 51.965 75.3711 52.3317L63.69 64.1458C62.3564 65.491 60.5497 66.2464 58.666 66.2464C56.7824 66.2464 54.9756 65.491 53.6421 64.1458C53.2555 63.7545 53.0317 63.2284 53.0167 62.6755C53.0016 62.1226 53.1965 61.5848 53.5612 61.1726L68.852 43.8918C69.776 42.8489 70.907 42.0145 72.1712 41.4432C73.4354 40.8718 74.8046 40.5762 76.1893 40.5757H79.8468C80.3014 41.4589 80.8873 42.2664 81.584 42.97L103.642 65.2741C103.857 65.4911 104.08 65.6943 104.31 65.8866C103.737 66.7941 103.106 67.663 102.421 68.4878ZM114.58 62.5089C113.492 63.6073 112.017 64.2242 110.479 64.2242C108.941 64.2242 107.466 63.6073 106.377 62.5089L84.3187 40.2048C83.2324 39.104 82.6223 37.6124 82.6223 36.0574C82.6223 34.5023 83.2324 33.0107 84.3187 31.91L85.4876 30.728L115.434 61.6462L114.58 62.5089Z" fill="#334CAB"/>
</g>
<defs>
<clipPath id="clip0_337_7480">
<rect width="132" height="133.471" fill="white" transform="translate(0.648438)"/>
</clipPath>
</defs>
</svg>
