<svg width="133" height="114" viewBox="0 0 133 114" fill="none" xmlns="http://www.w3.org/2000/svg">
<g id="insurance paper">
<g id="Approved Sign Insurance">
<path id="Vector" d="M122.488 35.6165H97.7383C97.1913 35.6165 96.6667 35.4288 96.2799 35.0949C95.8931 34.7609 95.6758 34.3079 95.6758 33.8356V30.274C95.6758 26.9679 97.1969 23.7971 99.9044 21.4594C102.612 19.1216 106.284 17.8082 110.113 17.8082C113.942 17.8082 117.615 19.1216 120.322 21.4594C123.03 23.7971 124.551 26.9679 124.551 30.274V33.8356C124.551 34.3079 124.333 34.7609 123.947 35.0949C123.56 35.4288 123.035 35.6165 122.488 35.6165ZM99.8008 32.0548H120.426V30.274C120.426 27.9125 119.339 25.6477 117.405 23.9778C115.471 22.308 112.848 21.3699 110.113 21.3699C107.378 21.3699 104.755 22.308 102.821 23.9778C100.887 25.6477 99.8008 27.9125 99.8008 30.274V32.0548ZM85.3633 96.1645H23.4883C19.6592 96.1645 15.987 94.8511 13.2794 92.5133C10.5719 90.1755 9.05078 87.0048 9.05078 83.6987V80.137C9.05078 79.6647 9.26808 79.2118 9.65487 78.8778C10.0417 78.5438 10.5663 78.3562 11.1133 78.3562H72.9883C73.5353 78.3562 74.0599 78.5438 74.4467 78.8778C74.8335 79.2118 75.0508 79.6647 75.0508 80.137V83.6987C75.0508 86.0602 76.1373 88.325 78.0712 89.9949C80.0052 91.6647 82.6282 92.6028 85.3633 92.6028C85.9103 92.6028 86.4349 92.7904 86.8217 93.1244C87.2085 93.4584 87.4258 93.9113 87.4258 94.3836C87.4258 94.8559 87.2085 95.3089 86.8217 95.6429C86.4349 95.9768 85.9103 96.1645 85.3633 96.1645ZM13.1758 81.9179V83.6987C13.1758 86.0602 14.2623 88.325 16.1962 89.9949C18.1302 91.6647 20.7532 92.6028 23.4883 92.6028H75.2777C73.9023 91.4435 72.809 90.0587 72.0617 88.5297C71.3144 87.0007 70.9282 85.3583 70.9258 83.6987V81.9179H13.1758Z" fill="#334CAB"/>
<path id="Vector_2" d="M85.3633 96.1644C81.5342 96.1644 77.862 94.8511 75.1544 92.5133C72.4469 90.1755 70.9258 87.0048 70.9258 83.6987V81.9179H35.8633C35.3163 81.9179 34.7917 81.7302 34.4049 81.3963C34.0181 81.0623 33.8008 80.6093 33.8008 80.137V30.274C33.8008 26.9679 35.3219 23.7971 38.0294 21.4594C40.737 19.1216 44.4092 17.8082 48.2383 17.8082H110.113C110.66 17.8082 111.185 17.9958 111.572 18.3298C111.958 18.6638 112.176 19.1167 112.176 19.5891C112.176 20.0614 111.958 20.5143 111.572 20.8483C111.185 21.1823 110.66 21.3699 110.113 21.3699C107.378 21.3699 104.755 22.308 102.821 23.9778C100.887 25.6477 99.8008 27.9125 99.8008 30.274V54.9384C99.8179 55.3381 99.6787 55.7311 99.4055 56.0542C99.1324 56.3772 98.7413 56.6115 98.2952 56.7192L87.4258 59.3192V73.2631C87.4151 76.2988 88.2043 79.2969 89.7337 82.0304C91.263 84.764 93.4925 87.1614 96.2533 89.0412C96.4712 89.1819 96.652 89.3611 96.7836 89.5668C96.9152 89.7725 96.9945 90.0001 97.0164 90.2343C97.0485 90.4678 97.0268 90.7044 96.9525 90.9306C96.8781 91.1568 96.7527 91.368 96.5833 91.5521C96.2683 91.8893 95.9308 92.2104 95.5727 92.5138C94.2395 93.6801 92.6493 94.604 90.8958 95.231C89.1423 95.858 87.2611 96.1754 85.3633 96.1644ZM37.9258 78.3562H72.9883C73.5353 78.3562 74.0599 78.5438 74.4467 78.8778C74.8335 79.2118 75.0508 79.6647 75.0508 80.137V83.6987C75.0482 85.3938 75.6062 87.0544 76.659 88.4852C77.7118 89.916 79.2158 91.0575 80.9942 91.7757C82.7725 92.4939 84.7514 92.7589 86.6981 92.5394C88.6449 92.32 90.4787 91.6253 91.9839 90.537C89.2367 88.3294 87.0474 85.6554 85.5532 82.6829C84.059 79.7104 83.2922 76.5035 83.3008 73.2631V57.9836C83.2837 57.5839 83.4229 57.1909 83.696 56.8678C83.9692 56.5448 84.3603 56.3105 84.8064 56.2028L95.6758 53.6028V30.274C95.6658 28.6341 96.0366 27.009 96.7664 25.495C97.4961 23.9809 98.57 22.6085 99.9245 21.4589V21.3699H48.2383C45.5032 21.3699 42.8802 22.308 40.9462 23.9778C39.0123 25.6477 37.9258 27.9125 37.9258 30.274V78.3562Z" fill="#334CAB"/>
<path id="Vector_3" d="M85.3633 37.3973H48.2383C47.6913 37.3973 47.1667 37.2097 46.7799 36.8757C46.3931 36.5418 46.1758 36.0888 46.1758 35.6165C46.1758 35.1442 46.3931 34.6913 46.7799 34.3573C47.1667 34.0233 47.6913 33.8357 48.2383 33.8357H85.3633C85.9103 33.8357 86.4349 34.0233 86.8217 34.3573C87.2085 34.6913 87.4258 35.1442 87.4258 35.6165C87.4258 36.0888 87.2085 36.5418 86.8217 36.8757C86.4349 37.2097 85.9103 37.3973 85.3633 37.3973ZM85.3633 48.0823H48.2383C47.6913 48.0823 47.1667 47.8947 46.7799 47.5607C46.3931 47.2267 46.1758 46.7738 46.1758 46.3015C46.1758 45.8292 46.3931 45.3762 46.7799 45.0422C47.1667 44.7083 47.6913 44.5206 48.2383 44.5206H85.3633C85.9103 44.5206 86.4349 44.7083 86.8217 45.0422C87.2085 45.3762 87.4258 45.8292 87.4258 46.3015C87.4258 46.7738 87.2085 47.2267 86.8217 47.5607C86.4349 47.8947 85.9103 48.0823 85.3633 48.0823ZM77.1133 58.7672H48.2383C47.6913 58.7672 47.1667 58.5796 46.7799 58.2456C46.3931 57.9117 46.1758 57.4587 46.1758 56.9864C46.1758 56.5141 46.3931 56.0611 46.7799 55.7272C47.1667 55.3932 47.6913 55.2056 48.2383 55.2056H77.1133C77.6603 55.2056 78.1849 55.3932 78.5717 55.7272C78.9585 56.0611 79.1758 56.5141 79.1758 56.9864C79.1758 57.4587 78.9585 57.9117 78.5717 58.2456C78.1849 58.5796 77.6603 58.7672 77.1133 58.7672ZM77.1133 69.4522H48.2383C47.6913 69.4522 47.1667 69.2645 46.7799 68.9306C46.3931 68.5966 46.1758 68.1436 46.1758 67.6713C46.1758 67.199 46.3931 66.7461 46.7799 66.4121C47.1667 66.0781 47.6913 65.8905 48.2383 65.8905H77.1133C77.6603 65.8905 78.1849 66.0781 78.5717 66.4121C78.9585 66.7461 79.1758 67.199 79.1758 67.6713C79.1758 68.1436 78.9585 68.5966 78.5717 68.9306C78.1849 69.2645 77.6603 69.4522 77.1133 69.4522ZM103.926 96.1645C103.741 96.1904 103.553 96.1904 103.369 96.1645C97.5946 94.7508 92.5114 91.7502 88.89 87.6175C85.2686 83.4848 83.3064 78.4454 83.3008 73.2631V57.9837C83.2837 57.584 83.4229 57.1909 83.696 56.8679C83.9692 56.5448 84.3603 56.3106 84.8064 56.2028L103.369 51.6439C103.733 51.5557 104.118 51.5557 104.483 51.6439L123.045 56.2028C123.491 56.3106 123.882 56.5448 124.156 56.8679C124.429 57.1909 124.568 57.584 124.551 57.9837V73.2631C124.542 78.4447 122.578 83.4827 118.957 87.6148C115.336 91.7469 110.255 94.7482 104.483 96.1645C104.298 96.1904 104.11 96.1904 103.926 96.1645ZM87.4258 59.3193V73.2631C87.4151 76.2989 88.2043 79.297 89.7337 82.0305C91.263 84.764 93.4925 87.1614 96.2533 89.0412C98.5312 90.631 101.133 91.839 103.926 92.6029C108.688 91.3181 112.853 88.7587 115.82 85.2948C118.786 81.8309 120.399 77.6422 120.426 73.3344V59.3371L103.926 55.2056L87.4258 59.3193Z" fill="#334CAB"/>
<path id="Vector_4" d="M101.864 80.137C101.592 80.1383 101.323 80.0934 101.072 80.0048C100.821 79.9162 100.592 79.7856 100.4 79.6206L95.2433 75.1685C95.051 75.0025 94.8984 74.8053 94.7944 74.5884C94.6903 74.3714 94.6367 74.1389 94.6367 73.9041C94.6367 73.6693 94.6903 73.4368 94.7944 73.2198C94.8984 73.0029 95.051 72.8058 95.2433 72.6397C95.4356 72.4737 95.6639 72.342 95.9151 72.2521C96.1664 72.1623 96.4357 72.116 96.7077 72.116C96.9796 72.116 97.2489 72.1623 97.5002 72.2521C97.7514 72.342 97.9797 72.4737 98.172 72.6397L101.864 75.8452L110.712 68.1877C111.1 67.8523 111.627 67.6639 112.176 67.6639C112.726 67.6639 113.252 67.8523 113.641 68.1877C114.029 68.523 114.247 68.9778 114.247 69.4521C114.247 69.9263 114.029 70.3811 113.641 70.7164L103.328 79.6206C103.136 79.7856 102.907 79.9162 102.656 80.0048C102.404 80.0934 102.135 80.1383 101.864 80.137Z" fill="#334CAB"/>
</g>
</g>
</svg>
