<svg width="24" height="24" viewBox="0 0 24 24" fill="none" xmlns="http://www.w3.org/2000/svg">
<g id="linkedin">
<path id="Vector" d="M20.4686 1.9999H3.52859C3.33817 1.99725 3.14909 2.03214 2.97216 2.10258C2.79522 2.17302 2.6339 2.27762 2.49739 2.41041C2.36089 2.5432 2.25188 2.70158 2.17659 2.87651C2.1013 3.05143 2.0612 3.23947 2.05859 3.4299V20.5699C2.0612 20.7603 2.1013 20.9484 2.17659 21.1233C2.25188 21.2982 2.36089 21.4566 2.49739 21.5894C2.6339 21.7222 2.79522 21.8268 2.97216 21.8972C3.14909 21.9676 3.33817 22.0025 3.52859 21.9999H20.4686C20.659 22.0025 20.8481 21.9676 21.025 21.8972C21.202 21.8268 21.3633 21.7222 21.4998 21.5894C21.6363 21.4566 21.7453 21.2982 21.8206 21.1233C21.8959 20.9484 21.936 20.7603 21.9386 20.5699V3.4299C21.936 3.23947 21.8959 3.05143 21.8206 2.87651C21.7453 2.70158 21.6363 2.5432 21.4998 2.41041C21.3633 2.27762 21.202 2.17302 21.025 2.10258C20.8481 2.03214 20.659 1.99725 20.4686 1.9999ZM8.08859 18.7399H5.08859V9.7399H8.08859V18.7399ZM6.58859 8.4799C6.17486 8.4799 5.77806 8.31554 5.48551 8.02298C5.19295 7.73043 5.02859 7.33363 5.02859 6.9199C5.02859 6.50616 5.19295 6.10937 5.48551 5.81681C5.77806 5.52425 6.17486 5.3599 6.58859 5.3599C6.80829 5.33498 7.03077 5.35675 7.24147 5.42378C7.45217 5.49081 7.64633 5.60159 7.81125 5.74886C7.97617 5.89613 8.10812 6.07657 8.19846 6.27838C8.28881 6.48018 8.33551 6.69879 8.33551 6.9199C8.33551 7.141 8.28881 7.35961 8.19846 7.56141C8.10812 7.76322 7.97617 7.94366 7.81125 8.09093C7.64633 8.23821 7.45217 8.34898 7.24147 8.41601C7.03077 8.48304 6.80829 8.50481 6.58859 8.4799ZM18.9086 18.7399H15.9086V13.9099C15.9086 12.6999 15.4786 11.9099 14.3886 11.9099C14.0513 11.9124 13.7228 12.0182 13.4474 12.2131C13.1721 12.408 12.9631 12.6826 12.8486 12.9999C12.7703 13.2349 12.7364 13.4825 12.7486 13.7299V18.7299H9.74859C9.74859 18.7299 9.74859 10.5499 9.74859 9.7299H12.7486V10.9999C13.0211 10.527 13.4175 10.1374 13.895 9.8731C14.3726 9.60878 14.9132 9.47975 15.4586 9.4999C17.4586 9.4999 18.9086 10.7899 18.9086 13.5599V18.7399Z" fill="#ABABAB"/>
</g>
</svg>
