<svg width="22" height="22" viewBox="0 0 22 22" fill="none" xmlns="http://www.w3.org/2000/svg">
<g id="Location">
<path id="Vector" d="M11.0013 1.83325C9.05638 1.83325 7.19112 2.60587 5.81585 3.98114C4.44059 5.3564 3.66797 7.22166 3.66797 9.16659C3.66797 14.1166 10.1305 19.7083 10.4055 19.9466C10.5715 20.0886 10.7828 20.1666 11.0013 20.1666C11.2198 20.1666 11.4311 20.0886 11.5971 19.9466C11.918 19.7083 18.3346 14.1166 18.3346 9.16659C18.3346 7.22166 17.562 5.3564 16.1868 3.98114C14.8115 2.60587 12.9462 1.83325 11.0013 1.83325ZM11.0013 18.0124C9.0488 16.1791 5.5013 12.2283 5.5013 9.16659C5.5013 7.70789 6.08076 6.30895 7.11221 5.2775C8.14366 4.24605 9.54261 3.66659 11.0013 3.66659C12.46 3.66659 13.8589 4.24605 14.8904 5.2775C15.9218 6.30895 16.5013 7.70789 16.5013 9.16659C16.5013 12.2283 12.9538 16.1883 11.0013 18.0124ZM11.0013 5.49992C10.2761 5.49992 9.56719 5.71496 8.96421 6.11786C8.36123 6.52076 7.89126 7.09342 7.61374 7.76341C7.33622 8.43341 7.26361 9.17065 7.40509 9.88192C7.54657 10.5932 7.89578 11.2465 8.40858 11.7593C8.92137 12.2721 9.57471 12.6213 10.286 12.7628C10.9972 12.9043 11.7345 12.8317 12.4045 12.5541C13.0745 12.2766 13.6471 11.8067 14.05 11.2037C14.4529 10.6007 14.668 9.89178 14.668 9.16659C14.668 8.19412 14.2817 7.26149 13.594 6.57386C12.9064 5.88623 11.9738 5.49992 11.0013 5.49992ZM11.0013 10.9999C10.6387 10.9999 10.2842 10.8924 9.98276 10.6909C9.68127 10.4895 9.44628 10.2032 9.30752 9.86817C9.16876 9.53317 9.13246 9.16455 9.2032 8.80892C9.27393 8.45329 9.44854 8.12662 9.70494 7.87022C9.96134 7.61383 10.288 7.43922 10.6436 7.36848C10.9993 7.29774 11.3679 7.33405 11.7029 7.47281C12.0379 7.61157 12.3242 7.84655 12.5257 8.14804C12.7271 8.44953 12.8346 8.80399 12.8346 9.16659C12.8346 9.65282 12.6415 10.1191 12.2977 10.4629C11.9538 10.8068 11.4875 10.9999 11.0013 10.9999Z" fill="#6E6E6E"/>
</g>
</svg>
