<svg width="20" height="20" viewBox="0 0 20 20" fill="none" xmlns="http://www.w3.org/2000/svg">
<g id="Time" clip-path="url(#clip0_538_10901)">
<path id="Vector" fill-rule="evenodd" clip-rule="evenodd" d="M10.0013 0.831543C4.94807 0.831543 0.828125 4.94566 0.828125 9.9981C0.828125 15.0505 4.94891 19.1696 10.0013 19.1696C15.0538 19.1696 19.1662 15.0505 19.1662 9.9981C19.1662 4.94566 15.0538 0.831543 10.0013 0.831543ZM10.0013 2.49819C10.9866 2.49654 11.9625 2.68942 12.8731 3.06576C13.7837 3.44211 14.611 3.99451 15.3077 4.69129C16.0043 5.38807 16.5565 6.21552 16.9326 7.12618C17.3088 8.03685 17.5015 9.01281 17.4996 9.9981C17.5016 10.9836 17.309 11.9599 16.933 12.8709C16.5569 13.7819 16.0048 14.6097 15.3082 15.3069C14.6116 16.0041 13.7843 16.557 12.8736 16.9338C11.963 17.3107 10.9869 17.5041 10.0013 17.503C9.01537 17.5042 8.03884 17.3109 7.12766 16.9342C6.21649 16.5575 5.38856 16.0048 4.6913 15.3077C3.99403 14.6105 3.44111 13.7827 3.0642 12.8717C2.68729 11.9606 2.49378 10.9841 2.49477 9.9981C2.49477 5.84648 5.84973 2.49819 10.0013 2.49819ZM9.98801 4.15317C9.87786 4.15425 9.76902 4.17715 9.66779 4.22056C9.56655 4.26397 9.47492 4.32702 9.3982 4.40606C9.32148 4.48511 9.2612 4.57857 9.22083 4.68106C9.18046 4.78355 9.16081 4.89303 9.16302 5.00316V9.9981C9.16348 10.1078 9.18558 10.2162 9.22805 10.3173C9.27052 10.4184 9.33253 10.5102 9.41052 10.5873L12.7438 13.9222C12.8209 14.0016 12.913 14.0648 13.0148 14.1081C13.1166 14.1515 13.226 14.1741 13.3366 14.1748C13.4473 14.1754 13.5569 14.154 13.6592 14.1118C13.7615 14.0696 13.8543 14.0075 13.9323 13.929C14.0104 13.8506 14.072 13.7574 14.1136 13.6549C14.1552 13.5524 14.176 13.4426 14.1747 13.332C14.1734 13.2213 14.1502 13.1121 14.1062 13.0105C14.0623 12.909 13.9986 12.8172 13.9188 12.7406L10.8313 9.6531V5.00316C10.8336 4.89148 10.8133 4.7805 10.7718 4.6768C10.7303 4.5731 10.6684 4.4788 10.5897 4.39951C10.5111 4.32021 10.4173 4.25755 10.3139 4.21523C10.2105 4.17291 10.0997 4.15181 9.98801 4.15317Z" fill="#6E6E6E"/>
</g>
<defs>
<clipPath id="clip0_538_10901">
<rect width="20" height="20" fill="white"/>
</clipPath>
</defs>
</svg>
