<svg width="17" height="17" viewBox="0 0 17 17" fill="none" xmlns="http://www.w3.org/2000/svg">
<path id="Vector" d="M1.66269 11.5655L4.06075 11.2917C4.63667 11.2256 5.20314 11.4239 5.60912 11.8299L7.3463 13.567C10.0182 12.2075 12.2085 10.0266 13.5681 7.34527L11.8214 5.59865C11.4155 5.19267 11.2172 4.6262 11.2833 4.05029L11.5571 1.6711C11.6704 0.717533 12.4729 0 13.4359 0H15.0692C16.1361 0 17.0236 0.887475 16.9575 1.95433C16.4571 10.0171 10.0087 16.4561 1.95536 16.9564C0.888504 17.0225 0.00102997 16.1351 0.00102997 15.0682V13.4349C-0.00841141 12.4813 0.709122 11.6788 1.66269 11.5655Z" fill="#6E6E6E"/>
</svg>
