<svg width="24" height="25" viewBox="0 0 24 25" fill="none" xmlns="http://www.w3.org/2000/svg">
<g id="Whatsapp" clip-path="url(#clip0_538_10915)">
<path id="Vector" fill-rule="evenodd" clip-rule="evenodd" d="M20.5017 3.50314C18.2458 1.24532 15.2456 0.00126904 12.0492 0C5.4631 0 0.102825 5.35822 0.100189 11.9444C0.0993107 14.0496 0.649554 16.1047 1.69515 17.9161L0 24.1061L6.33434 22.445C8.07957 23.3966 10.0446 23.8981 12.0444 23.899H12.0493C18.6347 23.899 23.9955 18.54 23.9982 11.9539C23.9994 8.76215 22.7577 5.76096 20.5017 3.50314ZM12.0493 21.8815H12.0453C10.2632 21.8808 8.51527 21.4022 6.99047 20.4976L6.62778 20.2824L2.86895 21.2681L3.87227 17.6044L3.6361 17.2288C2.64195 15.6481 2.11686 13.821 2.11764 11.9451C2.11982 6.47097 6.5751 2.01745 12.0533 2.01745C14.7059 2.01846 17.1995 3.05253 19.0746 4.92915C20.9497 6.80577 21.9818 9.30025 21.9807 11.9531C21.9785 17.4276 17.5233 21.8815 12.0493 21.8815ZM17.4969 14.4457C17.1983 14.2963 15.7305 13.5743 15.4568 13.4747C15.1831 13.375 14.9841 13.3253 14.7851 13.6241C14.586 13.9229 14.0139 14.5952 13.8397 14.7943C13.6655 14.9935 13.4914 15.0185 13.1928 14.869C12.8942 14.7196 11.9322 14.4045 10.7918 13.3876C9.90432 12.5963 9.30507 11.6188 9.13092 11.32C8.95677 11.0212 9.1124 10.8596 9.26186 10.7109C9.39615 10.5771 9.56041 10.3623 9.7097 10.188C9.85896 10.0137 9.90871 9.88919 10.0082 9.69001C10.1078 9.4908 10.058 9.31649 9.98336 9.1671C9.90871 9.01771 9.31164 7.54862 9.06281 6.95103C8.82049 6.36903 8.57433 6.44777 8.39107 6.43866C8.21711 6.43001 8.01787 6.42815 7.81886 6.42815C7.61982 6.42815 7.29637 6.50286 7.02268 6.80164C6.74903 7.10045 5.97777 7.82254 5.97777 9.2916C5.97777 10.7607 7.04758 12.1799 7.19687 12.3791C7.34613 12.5783 9.30214 15.5931 12.2971 16.8859C13.0095 17.1934 13.5656 17.377 13.9992 17.5147C14.7144 17.7418 15.3653 17.7097 15.8797 17.6329C16.4534 17.5472 17.6462 16.9108 17.895 16.2136C18.1438 15.5164 18.1438 14.9189 18.0691 14.7944C17.9945 14.6699 17.7955 14.5952 17.4969 14.4457Z" fill="#ABABAB"/>
</g>
<defs>
<clipPath id="clip0_538_10915">
<rect width="24" height="24.1061" fill="white"/>
</clipPath>
</defs>
</svg>
